<svg width="376" height="426" viewBox="0 0 376 426" fill="none" xmlns="http://www.w3.org/2000/svg">
<rect width="376" height="426" fill="white"/>
<rect x="36" y="379" width="42" height="10" rx="5" fill="#D9DBE9"/>
<rect x="127" y="379" width="42" height="10" rx="5" fill="#D9DBE9"/>
<rect x="218" y="379" width="42" height="10" rx="5" fill="#D9DBE9"/>
<rect x="309" y="379" width="42" height="10" rx="5" fill="#D9DBE9"/>
<line x1="238.5" y1="342.5" x2="238.5" y2="127.5" stroke="#EFF0F7" stroke-linecap="round"/>
<line x1="329.5" y1="342.5" x2="329.5" y2="127.5" stroke="#EFF0F7" stroke-linecap="round"/>
<line x1="147.5" y1="342.5" x2="147.5" y2="127.5" stroke="#EFF0F7" stroke-linecap="round"/>
<line x1="56.5" y1="342.5" x2="56.5" y2="127.5" stroke="#EFF0F7" stroke-linecap="round"/>
<path d="M36 225.971L59.0076 247.114C72.6619 259.661 93.9711 258.498 106.178 244.538L117.185 231.952C124.396 223.705 136.074 220.995 146.18 225.223V225.223C156.874 229.697 169.24 226.384 176.264 217.161L187.547 202.348C199.351 186.848 222.468 186.254 235.054 201.126L240.016 206.99C250.85 219.793 270.998 218.398 279.965 204.223L284.654 196.811C288.314 191.024 295.574 188.659 301.941 191.179V191.179C308.437 193.751 315.84 191.233 319.421 185.233L350 134" stroke="#FFC147" stroke-width="3" stroke-linecap="round"/>
<path d="M58.725 248.429L34 226.389V331C34 333.761 36.2386 336 39 336H347C349.761 336 352 333.761 352 331V134L319.89 185.691C316.212 191.613 308.821 194.051 302.341 191.481C295.898 188.926 288.549 191.321 284.849 197.181L280.203 204.539C271.218 218.769 250.995 220.169 240.135 207.312L235.168 201.432C222.557 186.502 199.361 187.098 187.534 202.656L176.208 217.554C169.174 226.806 156.773 230.131 146.053 225.638C135.923 221.392 124.211 224.111 116.988 232.387L105.545 245.496C93.4717 259.328 72.4303 260.646 58.725 248.429Z" fill="url(#paint0_linear)"/>
<g filter="url(#filter0_dd)">
<circle cx="239" cy="207" r="11" fill="#FF0000" fill-opacity="0.01"/>
</g>
<circle cx="239" cy="207" r="13" fill="white"/>
<circle cx="239" cy="207" r="10" fill="#FFC147"/>
<g filter="url(#filter1_d)">
<circle cx="73" cy="76.5" r="38" fill="#FF0000" fill-opacity="0.01"/>
</g>
<circle cx="73" cy="76.5" r="38" fill="white"/>
<path d="M72.8335 50.6648C72.8335 50.6648 88.0114 49.9816 96.0555 65.2353H71.5429C71.5429 65.2353 66.9133 65.083 62.967 70.6997C61.8289 73.0525 60.6149 75.481 61.9807 80.2613C60.0077 76.9229 51.5078 62.1241 51.5078 62.1241C51.5078 62.1241 57.5038 51.2716 72.8335 50.6648Z" fill="#EA4335"/>
<path d="M95.265 89.3938C95.265 89.3938 88.2658 102.878 71.0332 102.215C73.1591 98.5358 83.2924 80.9885 83.2924 80.9885C83.2924 80.9885 85.7389 77.0559 82.8501 70.8299C81.3816 68.6674 79.8861 66.4014 75.0627 65.1933C78.9418 65.1547 96.0065 65.1957 96.0065 65.1957C96.0065 65.1957 102.406 75.8151 95.265 89.3938Z" fill="#FFC147"/>
<path d="M50.5101 89.4953C50.5101 89.4953 42.3323 76.69 51.5237 62.0986C53.6477 65.7798 63.7756 83.33 63.7756 83.33C63.7756 83.33 65.9575 87.415 72.7942 88.0267C75.4004 87.8366 78.1112 87.6744 81.5693 84.1018C79.6627 87.4798 71.0938 102.238 71.0938 102.238C71.0938 102.238 58.6979 102.469 50.5101 89.4953Z" fill="#17A05D"/>
<path d="M71.0332 102.339L74.4812 87.9513C74.4812 87.9513 78.2725 87.6555 81.4491 84.1689C79.4771 87.638 71.0332 102.339 71.0332 102.339V102.339Z" fill="#17A05D"/>
<path d="M61.2852 76.6614C61.2852 70.3186 66.4264 65.1768 72.7698 65.1768C79.1125 65.1768 84.2542 70.3185 84.2542 76.6614C84.2542 83.0044 79.1127 88.1464 72.7698 88.1464C66.4264 88.1464 61.2852 83.0046 61.2852 76.6614V76.6614Z" fill="white"/>
<path d="M63.207 76.6607C63.207 71.3798 67.488 67.0986 72.7696 67.0986C78.05 67.0986 82.3315 71.3798 82.3315 76.6607C82.3315 81.9417 78.05 86.2232 72.7696 86.2232C67.488 86.2233 63.207 81.9415 63.207 76.6607V76.6607Z" fill="#4C8BF4"/>
<path d="M96.0084 65.1954L81.8105 69.3582C81.8105 69.3582 79.6695 66.2163 75.0645 65.193C79.0546 65.1794 96.0084 65.1954 96.0084 65.1954Z" fill="#FFC147"/>
<path d="M61.7041 79.7452C59.7088 76.2897 51.5078 62.124 51.5078 62.124L62.0254 72.5283C62.0254 72.5283 60.9445 74.7516 61.3543 77.9271L61.7041 79.7452V79.7452Z" fill="#EA4335"/>
<path d="M137.256 87.7207V87.6887H138.728V98.8887H137.256V90.3287L133.688 96.3447H133.304L129.72 90.2967V98.9047H128.264V87.7047H129.72V87.7207L129.8 87.6887L133.496 93.9447L137.192 87.6887L137.256 87.7207ZM144.472 99.0807C143.715 99.0807 143.016 98.894 142.376 98.5207C141.736 98.1473 141.224 97.6407 140.84 97.0007C140.467 96.35 140.28 95.646 140.28 94.8887C140.28 94.1313 140.467 93.4327 140.84 92.7927C141.224 92.1527 141.736 91.646 142.376 91.2727C143.016 90.8993 143.715 90.7127 144.472 90.7127C145.23 90.7127 145.928 90.8993 146.568 91.2727C147.208 91.646 147.715 92.1527 148.088 92.7927C148.472 93.4327 148.664 94.1313 148.664 94.8887C148.664 95.646 148.472 96.35 148.088 97.0007C147.715 97.6407 147.208 98.1473 146.568 98.5207C145.928 98.894 145.23 99.0807 144.472 99.0807ZM144.472 97.7047C144.984 97.7047 145.454 97.582 145.88 97.3367C146.307 97.0807 146.643 96.7393 146.888 96.3127C147.144 95.8753 147.272 95.4007 147.272 94.8887C147.272 94.3767 147.144 93.9073 146.888 93.4807C146.643 93.054 146.307 92.718 145.88 92.4727C145.454 92.2167 144.984 92.0887 144.472 92.0887C143.96 92.0887 143.486 92.2167 143.048 92.4727C142.622 92.718 142.28 93.054 142.024 93.4807C141.779 93.9073 141.656 94.3767 141.656 94.8887C141.656 95.4007 141.779 95.8753 142.024 96.3127C142.28 96.7393 142.622 97.0807 143.048 97.3367C143.486 97.582 143.96 97.7047 144.472 97.7047ZM153.849 90.6967C154.318 90.6967 154.798 90.798 155.289 91.0007C155.779 91.1927 156.201 91.5447 156.553 92.0567C156.905 92.558 157.081 93.2407 157.081 94.1047V98.8887H155.705V94.1047C155.705 93.326 155.491 92.7713 155.065 92.4407C154.638 92.0993 154.137 91.9287 153.561 91.9287C153.006 91.9287 152.521 92.126 152.105 92.5207C151.689 92.9047 151.481 93.5393 151.481 94.4247V98.8887H150.105V90.8887H151.481V91.8327C151.769 91.4913 152.115 91.2193 152.521 91.0167C152.926 90.8033 153.369 90.6967 153.849 90.6967ZM160.988 96.3927C160.988 96.8833 161.079 97.2247 161.26 97.4167C161.452 97.598 161.756 97.6887 162.172 97.6887C162.3 97.6887 162.567 97.6673 162.972 97.6247V98.8887C162.513 98.942 162.129 98.9687 161.82 98.9687C161.063 98.9687 160.503 98.7873 160.14 98.4247C159.788 98.062 159.612 97.4113 159.612 96.4727V92.1527H157.836V90.8887H159.612V88.7127L160.988 88.2167V90.8887H162.94V92.1527H160.988V96.3927ZM171.407 98.8887H170.031V94.1367C170.031 93.358 169.812 92.8033 169.375 92.4727C168.948 92.1313 168.452 91.9607 167.887 91.9607C167.45 91.9607 167.039 92.0887 166.655 92.3447C166.282 92.6007 166.026 93.0113 165.887 93.5767V98.8887H164.511V87.6887H165.887V91.7527C166.164 91.4433 166.5 91.198 166.895 91.0167C167.29 90.8247 167.711 90.7287 168.159 90.7287C168.628 90.7287 169.108 90.83 169.599 91.0327C170.09 91.2247 170.511 91.5713 170.863 92.0727C171.226 92.574 171.407 93.2513 171.407 94.1047V98.8887ZM174.7 97.1927C174.7 97.374 174.737 97.502 174.812 97.5767C174.897 97.6407 175.025 97.6727 175.196 97.6727C175.292 97.6727 175.382 97.6673 175.468 97.6567C175.553 97.646 175.633 97.6353 175.708 97.6247V98.8887C175.366 98.942 175.078 98.9687 174.844 98.9687C174.364 98.9687 173.99 98.846 173.724 98.6007C173.457 98.3447 173.324 97.902 173.324 97.2727V87.6887H174.7V97.1927ZM182.547 90.8887H184.003L180.963 99.1767C180.579 100.158 180.056 100.905 179.395 101.417C178.744 101.939 177.992 102.163 177.139 102.089V100.761L177.347 100.777C178.339 100.777 179.107 100.094 179.651 98.7287L176.019 90.8887H177.523L180.323 96.9047L182.547 90.8887ZM192.41 97.3047L194.938 90.8887H196.41L193.274 98.8887H191.562L188.41 90.8887H189.882L192.41 97.3047ZM198.355 89.0647C198.088 89.0647 197.875 88.99 197.715 88.8407C197.555 88.6913 197.475 88.4833 197.475 88.2167C197.475 87.9607 197.555 87.758 197.715 87.6087C197.875 87.4487 198.088 87.3687 198.355 87.3687C198.622 87.3687 198.835 87.4487 198.995 87.6087C199.155 87.758 199.235 87.9607 199.235 88.2167C199.235 88.4833 199.155 88.6913 198.995 88.8407C198.846 88.99 198.632 89.0647 198.355 89.0647ZM197.667 98.8887V90.8887H199.043V98.8887H197.667ZM202.068 93.0807C202.068 93.39 202.212 93.614 202.5 93.7527C202.799 93.8913 203.273 94.0407 203.924 94.2007C204.553 94.35 205.065 94.4993 205.46 94.6487C205.865 94.798 206.207 95.0327 206.484 95.3527C206.772 95.6727 206.916 96.1047 206.916 96.6487C206.916 97.3847 206.612 97.9767 206.004 98.4247C205.396 98.862 204.633 99.0807 203.716 99.0807C202.895 99.0807 202.201 98.9207 201.636 98.6007C201.071 98.2807 200.66 97.8327 200.404 97.2567L201.54 96.6647C201.711 97.0913 201.983 97.4113 202.356 97.6247C202.729 97.8273 203.183 97.9287 203.716 97.9287C204.217 97.9287 204.649 97.8167 205.012 97.5927C205.385 97.3687 205.572 97.0593 205.572 96.6647C205.572 96.4193 205.481 96.2167 205.3 96.0567C205.129 95.8967 204.911 95.774 204.644 95.6887C204.388 95.6033 204.02 95.4967 203.54 95.3687C202.932 95.2193 202.436 95.0753 202.052 94.9367C201.679 94.7873 201.353 94.5687 201.076 94.2807C200.809 93.9927 200.676 93.6033 200.676 93.1127C200.676 92.6433 200.809 92.2273 201.076 91.8647C201.343 91.4913 201.705 91.2033 202.164 91.0007C202.623 90.798 203.135 90.6967 203.7 90.6967C204.372 90.6967 204.964 90.8407 205.476 91.1287C205.999 91.4167 206.399 91.8167 206.676 92.3287L205.54 92.9047C205.38 92.5633 205.145 92.302 204.836 92.1207C204.527 91.9287 204.148 91.8327 203.7 91.8327C203.199 91.8327 202.799 91.95 202.5 92.1847C202.212 92.4087 202.068 92.7073 202.068 93.0807ZM209.027 89.0647C208.76 89.0647 208.547 88.99 208.387 88.8407C208.227 88.6913 208.147 88.4833 208.147 88.2167C208.147 87.9607 208.227 87.758 208.387 87.6087C208.547 87.4487 208.76 87.3687 209.027 87.3687C209.293 87.3687 209.507 87.4487 209.667 87.6087C209.827 87.758 209.907 87.9607 209.907 88.2167C209.907 88.4833 209.827 88.6913 209.667 88.8407C209.517 88.99 209.304 89.0647 209.027 89.0647ZM208.339 98.8887V90.8887H209.715V98.8887H208.339ZM214.301 96.3927C214.301 96.8833 214.391 97.2247 214.573 97.4167C214.765 97.598 215.069 97.6887 215.485 97.6887C215.613 97.6887 215.879 97.6673 216.285 97.6247V98.8887C215.826 98.942 215.442 98.9687 215.133 98.9687C214.375 98.9687 213.815 98.7873 213.453 98.4247C213.101 98.062 212.924 97.4113 212.924 96.4727V92.1527H211.149V90.8887H212.924V88.7127L214.301 88.2167V90.8887H216.253V92.1527H214.301V96.3927ZM221.394 99.0807C220.637 99.0807 219.938 98.894 219.298 98.5207C218.658 98.1473 218.146 97.6407 217.762 97.0007C217.389 96.35 217.202 95.646 217.202 94.8887C217.202 94.1313 217.389 93.4327 217.762 92.7927C218.146 92.1527 218.658 91.646 219.298 91.2727C219.938 90.8993 220.637 90.7127 221.394 90.7127C222.151 90.7127 222.85 90.8993 223.49 91.2727C224.13 91.646 224.637 92.1527 225.01 92.7927C225.394 93.4327 225.586 94.1313 225.586 94.8887C225.586 95.646 225.394 96.35 225.01 97.0007C224.637 97.6407 224.13 98.1473 223.49 98.5207C222.85 98.894 222.151 99.0807 221.394 99.0807ZM221.394 97.7047C221.906 97.7047 222.375 97.582 222.802 97.3367C223.229 97.0807 223.565 96.7393 223.81 96.3127C224.066 95.8753 224.194 95.4007 224.194 94.8887C224.194 94.3767 224.066 93.9073 223.81 93.4807C223.565 93.054 223.229 92.718 222.802 92.4727C222.375 92.2167 221.906 92.0887 221.394 92.0887C220.882 92.0887 220.407 92.2167 219.97 92.4727C219.543 92.718 219.202 93.054 218.946 93.4807C218.701 93.9073 218.578 94.3767 218.578 94.8887C218.578 95.4007 218.701 95.8753 218.946 96.3127C219.202 96.7393 219.543 97.0807 219.97 97.3367C220.407 97.582 220.882 97.7047 221.394 97.7047ZM230.947 90.7127C231.075 90.7127 231.171 90.718 231.235 90.7287L231.123 92.0407C230.995 92.0193 230.893 92.0087 230.819 92.0087C230.136 92.0087 229.56 92.2167 229.091 92.6327C228.632 93.0487 228.403 93.6513 228.403 94.4407V98.8887H227.027V90.8887H228.403V92.2647C228.584 91.8273 228.893 91.4593 229.331 91.1607C229.779 90.862 230.317 90.7127 230.947 90.7127ZM233.396 93.0807C233.396 93.39 233.54 93.614 233.828 93.7527C234.127 93.8913 234.602 94.0407 235.252 94.2007C235.882 94.35 236.394 94.4993 236.788 94.6487C237.194 94.798 237.535 95.0327 237.812 95.3527C238.1 95.6727 238.244 96.1047 238.244 96.6487C238.244 97.3847 237.94 97.9767 237.332 98.4247C236.724 98.862 235.962 99.0807 235.044 99.0807C234.223 99.0807 233.53 98.9207 232.964 98.6007C232.399 98.2807 231.988 97.8327 231.732 97.2567L232.868 96.6647C233.039 97.0913 233.311 97.4113 233.684 97.6247C234.058 97.8273 234.511 97.9287 235.044 97.9287C235.546 97.9287 235.978 97.8167 236.34 97.5927C236.714 97.3687 236.9 97.0593 236.9 96.6647C236.9 96.4193 236.81 96.2167 236.628 96.0567C236.458 95.8967 236.239 95.774 235.972 95.6887C235.716 95.6033 235.348 95.4967 234.868 95.3687C234.26 95.2193 233.764 95.0753 233.38 94.9367C233.007 94.7873 232.682 94.5687 232.404 94.2807C232.138 93.9927 232.004 93.6033 232.004 93.1127C232.004 92.6433 232.138 92.2273 232.404 91.8647C232.671 91.4913 233.034 91.2033 233.492 91.0007C233.951 90.798 234.463 90.6967 235.028 90.6967C235.7 90.6967 236.292 90.8407 236.804 91.1287C237.327 91.4167 237.727 91.8167 238.004 92.3287L236.868 92.9047C236.708 92.5633 236.474 92.302 236.164 92.1207C235.855 91.9287 235.476 91.8327 235.028 91.8327C234.527 91.8327 234.127 91.95 233.828 92.1847C233.54 92.4087 233.396 92.7073 233.396 93.0807Z" fill="#7A7D9C"/>
<path d="M140.486 69.035V71.9761H128.028V71.2588C128.14 69.6806 128.602 68.1503 129.415 66.6678C130.228 65.1853 131.471 64.1093 133.145 63.4398C133.496 63.2804 133.759 63.1688 133.934 63.1051C134.731 62.7703 135.345 62.4913 135.775 62.2682C136.222 62.0291 136.588 61.7501 136.875 61.4313C137.178 61.0965 137.33 60.706 137.33 60.2596C137.33 59.7336 137.178 59.2873 136.875 58.9206C136.588 58.538 136.222 58.2511 135.775 58.0598C135.329 57.8685 134.883 57.7729 134.436 57.7729C133.464 57.7729 132.627 57.9721 131.926 58.3707C131.24 58.7532 130.834 59.3431 130.706 60.1401L127.765 59.8292C127.909 58.809 128.299 57.9323 128.937 57.199C129.574 56.4657 130.371 55.9078 131.328 55.5252C132.3 55.1427 133.336 54.9514 134.436 54.9514C135.425 54.9514 136.373 55.1586 137.282 55.5731C138.19 55.9875 138.924 56.5853 139.482 57.3664C140.04 58.1475 140.318 59.0641 140.318 60.1162C140.318 61.1683 140.063 62.045 139.553 62.7464C139.059 63.4478 138.406 64.0296 137.593 64.4919C136.78 64.9383 135.688 65.4244 134.317 65.9505C133.105 66.4287 132.237 67.4569 131.71 69.035H140.486ZM148.654 61.5987C150.519 61.5987 151.993 62.045 153.077 62.9377C154.161 63.8144 154.703 65.0259 154.703 66.5722C154.703 68.3416 154.161 69.7364 153.077 70.7566C151.993 71.7609 150.519 72.263 148.654 72.263C146.789 72.263 145.29 71.8486 144.158 71.0196C143.042 70.1907 142.437 69.051 142.341 67.6004L145.306 67.2417C145.449 67.8953 145.816 68.4133 146.406 68.7959C147.012 69.1625 147.761 69.3459 148.654 69.3459C149.626 69.3459 150.391 69.0988 150.949 68.6046C151.507 68.1105 151.786 67.433 151.786 66.5722C151.786 65.8548 151.507 65.2889 150.949 64.8745C150.391 64.46 149.626 64.2528 148.654 64.2528H145.354V64.205L143.082 64.2528L144.206 55.2622H154.105V58.2272H146.812L146.382 61.5987H148.654ZM162.919 72.3108C161.532 72.3108 160.32 71.9522 159.284 71.2348C158.264 70.5016 157.475 69.4814 156.917 68.1742C156.375 66.8671 156.104 65.3527 156.104 63.6311C156.104 61.9095 156.375 60.3951 156.917 59.088C157.475 57.7809 158.264 56.7686 159.284 56.0513C160.32 55.318 161.532 54.9514 162.919 54.9514C164.305 54.9514 165.509 55.318 166.529 56.0513C167.549 56.7686 168.33 57.7809 168.872 59.088C169.43 60.3951 169.709 61.9095 169.709 63.6311C169.709 65.3527 169.43 66.8671 168.872 68.1742C168.33 69.4814 167.549 70.5016 166.529 71.2348C165.509 71.9522 164.305 72.3108 162.919 72.3108ZM162.919 69.1785C164.05 69.1785 164.943 68.7242 165.597 67.8156C166.266 66.891 166.601 65.4962 166.601 63.6311C166.601 61.766 166.266 60.3792 165.597 59.4706C164.943 58.546 164.05 58.0837 162.919 58.0837C161.787 58.0837 160.886 58.546 160.217 59.4706C159.563 60.3792 159.236 61.766 159.236 63.6311C159.236 65.4962 159.563 66.891 160.217 67.8156C160.886 68.7242 161.787 69.1785 162.919 69.1785ZM172.617 72.2152C172.138 72.0877 171.82 71.9203 171.66 71.7131C171.517 71.4899 171.445 71.0993 171.445 70.5414C171.445 69.9994 171.588 69.577 171.875 69.2741C172.178 68.9713 172.601 68.8198 173.143 68.8198C173.685 68.8198 174.107 68.9792 174.41 69.298C174.713 69.6009 174.864 70.0313 174.864 70.5892C174.848 71.2109 174.769 71.7131 174.625 72.0956C174.498 72.4782 174.235 72.9485 173.836 73.5064L172.641 75.1324L171.684 74.3433L172.617 72.2152ZM187.463 63.2724C188.866 64.0695 189.567 65.3527 189.567 67.1221C189.567 68.7321 189.009 69.9994 187.894 70.924C186.794 71.8486 185.279 72.3108 183.35 72.3108C181.406 72.3108 179.875 71.8486 178.76 70.924C177.66 69.9994 177.11 68.7321 177.11 67.1221C177.11 65.3527 177.819 64.0695 179.238 63.2724C178.074 62.5551 177.492 61.4233 177.492 59.8771C177.492 58.3468 178.01 57.1432 179.046 56.2665C180.099 55.3897 181.533 54.9514 183.35 54.9514C185.152 54.9514 186.57 55.3897 187.607 56.2665C188.659 57.1432 189.185 58.3468 189.185 59.8771C189.185 61.4233 188.611 62.5551 187.463 63.2724ZM183.35 57.749C182.474 57.749 181.78 57.9403 181.27 58.3228C180.776 58.7054 180.529 59.2235 180.529 59.8771C180.529 60.5306 180.776 61.0487 181.27 61.4313C181.78 61.7979 182.474 61.9812 183.35 61.9812C184.227 61.9812 184.913 61.7979 185.407 61.4313C185.901 61.0487 186.148 60.5306 186.148 59.8771C186.148 59.2235 185.901 58.7054 185.407 58.3228C184.913 57.9403 184.227 57.749 183.35 57.749ZM183.35 69.4415C184.339 69.4415 185.128 69.2183 185.718 68.772C186.323 68.3257 186.626 67.7119 186.626 66.9308C186.626 66.1657 186.331 65.5759 185.742 65.1614C185.152 64.747 184.355 64.5397 183.35 64.5397C182.346 64.5397 181.541 64.747 180.935 65.1614C180.346 65.5759 180.051 66.1657 180.051 66.9308C180.051 67.7119 180.354 68.3257 180.959 68.772C181.565 69.2183 182.362 69.4415 183.35 69.4415ZM191.566 58.2272V55.2622H203.856V57.5099L197.376 72H193.981L200.102 58.2272H191.566ZM216.758 65.7831H218.552V68.7481H216.758V72H213.65V68.7481H205.448V65.7831L210.685 55.2622H214.152L208.939 65.7831H213.65V62.053H216.758V65.7831Z" fill="#0B0A33"/>
<g filter="url(#filter2_d)">
<rect x="201" y="134" width="76" height="30" rx="5" fill="white"/>
</g>
<rect x="192" y="127" width="95" height="43" rx="5" fill="white"/>
<path d="M214.109 142.8V152.016H217.149V154H208.749V152.016H212.013V145.04L210.269 146.096L209.181 144.464L212.013 142.816V142.8H214.109ZM222.63 147.04C223.878 147.04 224.865 147.339 225.59 147.936C226.315 148.523 226.678 149.333 226.678 150.368C226.678 151.552 226.315 152.485 225.59 153.168C224.865 153.84 223.878 154.176 222.63 154.176C221.382 154.176 220.379 153.899 219.622 153.344C218.875 152.789 218.47 152.027 218.406 151.056L220.39 150.816C220.486 151.253 220.731 151.6 221.126 151.856C221.531 152.101 222.033 152.224 222.63 152.224C223.281 152.224 223.793 152.059 224.166 151.728C224.539 151.397 224.726 150.944 224.726 150.368C224.726 149.888 224.539 149.509 224.166 149.232C223.793 148.955 223.281 148.816 222.63 148.816H220.422V148.784L218.902 148.816L219.654 142.8H226.278V144.784H221.398L221.11 147.04H222.63ZM236.383 152.016V153.984H228.047V153.504C228.122 152.448 228.431 151.424 228.975 150.432C229.519 149.44 230.351 148.72 231.471 148.272C231.706 148.165 231.882 148.091 231.999 148.048C232.533 147.824 232.943 147.637 233.231 147.488C233.53 147.328 233.775 147.141 233.967 146.928C234.17 146.704 234.271 146.443 234.271 146.144C234.271 145.792 234.17 145.493 233.967 145.248C233.775 144.992 233.53 144.8 233.231 144.672C232.933 144.544 232.634 144.48 232.335 144.48C231.685 144.48 231.125 144.613 230.655 144.88C230.197 145.136 229.925 145.531 229.839 146.064L227.871 145.856C227.967 145.173 228.229 144.587 228.655 144.096C229.082 143.605 229.615 143.232 230.255 142.976C230.906 142.72 231.599 142.592 232.335 142.592C232.997 142.592 233.631 142.731 234.239 143.008C234.847 143.285 235.338 143.685 235.711 144.208C236.085 144.731 236.271 145.344 236.271 146.048C236.271 146.752 236.101 147.339 235.759 147.808C235.429 148.277 234.991 148.667 234.447 148.976C233.903 149.275 233.173 149.6 232.255 149.952C231.445 150.272 230.863 150.96 230.511 152.016H236.383ZM238.665 154.144C238.345 154.059 238.131 153.947 238.025 153.808C237.929 153.659 237.881 153.397 237.881 153.024C237.881 152.661 237.977 152.379 238.169 152.176C238.371 151.973 238.654 151.872 239.017 151.872C239.379 151.872 239.662 151.979 239.865 152.192C240.067 152.395 240.169 152.683 240.169 153.056C240.158 153.472 240.105 153.808 240.009 154.064C239.923 154.32 239.747 154.635 239.481 155.008L238.681 156.096L238.041 155.568L238.665 154.144ZM245.847 154.208C244.919 154.208 244.109 153.968 243.415 153.488C242.733 152.997 242.205 152.315 241.831 151.44C241.469 150.565 241.287 149.552 241.287 148.4C241.287 147.248 241.469 146.235 241.831 145.36C242.205 144.485 242.733 143.808 243.415 143.328C244.109 142.837 244.919 142.592 245.847 142.592C246.775 142.592 247.581 142.837 248.263 143.328C248.946 143.808 249.469 144.485 249.831 145.36C250.205 146.235 250.391 147.248 250.391 148.4C250.391 149.552 250.205 150.565 249.831 151.44C249.469 152.315 248.946 152.997 248.263 153.488C247.581 153.968 246.775 154.208 245.847 154.208ZM245.847 152.112C246.605 152.112 247.202 151.808 247.639 151.2C248.087 150.581 248.311 149.648 248.311 148.4C248.311 147.152 248.087 146.224 247.639 145.616C247.202 144.997 246.605 144.688 245.847 144.688C245.09 144.688 244.487 144.997 244.039 145.616C243.602 146.224 243.383 147.152 243.383 148.4C243.383 149.648 243.602 150.581 244.039 151.2C244.487 151.808 245.09 152.112 245.847 152.112ZM251.345 144.784V142.8H259.569V144.304L255.233 154H252.961L257.057 144.784H251.345ZM268.202 149.84H269.402V151.824H268.202V154H266.122V151.824H260.634V149.84L264.138 142.8H266.458L262.97 149.84H266.122V147.344H268.202V149.84Z" fill="#0B0A33"/>
<defs>
<filter id="filter0_dd" x="214" y="188" width="50" height="50" filterUnits="userSpaceOnUse" color-interpolation-filters="sRGB">
<feFlood flood-opacity="0" result="BackgroundImageFix"/>
<feColorMatrix in="SourceAlpha" type="matrix" values="0 0 0 0 0 0 0 0 0 0 0 0 0 0 0 0 0 0 127 0" result="hardAlpha"/>
<feOffset dy="6"/>
<feGaussianBlur stdDeviation="7"/>
<feColorMatrix type="matrix" values="0 0 0 0 0.991667 0 0 0 0 0.710567 0 0 0 0 0.161146 0 0 0 0.47 0"/>
<feBlend mode="normal" in2="BackgroundImageFix" result="effect1_dropShadow"/>
<feColorMatrix in="SourceAlpha" type="matrix" values="0 0 0 0 0 0 0 0 0 0 0 0 0 0 0 0 0 0 127 0" result="hardAlpha"/>
<feOffset dy="3"/>
<feGaussianBlur stdDeviation="2.5"/>
<feColorMatrix type="matrix" values="0 0 0 0 0.0423448 0 0 0 0 0.0391396 0 0 0 0 0.199398 0 0 0 0.12 0"/>
<feBlend mode="normal" in2="effect1_dropShadow" result="effect2_dropShadow"/>
<feBlend mode="normal" in="SourceGraphic" in2="effect2_dropShadow" result="shape"/>
</filter>
<filter id="filter1_d" x="17.06" y="26.08" width="111.88" height="111.88" filterUnits="userSpaceOnUse" color-interpolation-filters="sRGB">
<feFlood flood-opacity="0" result="BackgroundImageFix"/>
<feColorMatrix in="SourceAlpha" type="matrix" values="0 0 0 0 0 0 0 0 0 0 0 0 0 0 0 0 0 0 127 0" result="hardAlpha"/>
<feOffset dy="5.52"/>
<feGaussianBlur stdDeviation="8.97"/>
<feColorMatrix type="matrix" values="0 0 0 0 0.0423448 0 0 0 0 0.0391396 0 0 0 0 0.199398 0 0 0 0.07 0"/>
<feBlend mode="normal" in2="BackgroundImageFix" result="effect1_dropShadow"/>
<feBlend mode="normal" in="SourceGraphic" in2="effect1_dropShadow" result="shape"/>
</filter>
<filter id="filter2_d" x="165" y="104" width="148" height="102" filterUnits="userSpaceOnUse" color-interpolation-filters="sRGB">
<feFlood flood-opacity="0" result="BackgroundImageFix"/>
<feColorMatrix in="SourceAlpha" type="matrix" values="0 0 0 0 0 0 0 0 0 0 0 0 0 0 0 0 0 0 127 0" result="hardAlpha"/>
<feMorphology radius="1" operator="dilate" in="SourceAlpha" result="effect1_dropShadow"/>
<feOffset dy="6"/>
<feGaussianBlur stdDeviation="17.5"/>
<feColorMatrix type="matrix" values="0 0 0 0 0.0423448 0 0 0 0 0.0391396 0 0 0 0 0.199398 0 0 0 0.17 0"/>
<feBlend mode="normal" in2="BackgroundImageFix" result="effect1_dropShadow"/>
<feBlend mode="normal" in="SourceGraphic" in2="effect1_dropShadow" result="shape"/>
</filter>
<linearGradient id="paint0_linear" x1="193" y1="134" x2="193" y2="336" gradientUnits="userSpaceOnUse">
<stop stop-color="#FFCC69" stop-opacity="0.67"/>
<stop offset="1" stop-color="#FFCC69" stop-opacity="0"/>
</linearGradient>
</defs>
</svg>
