<svg width="274" height="286" viewBox="0 0 274 286" fill="none" xmlns="http://www.w3.org/2000/svg">
<rect width="274" height="286" fill="white"/>
<rect x="26.1465" y="34.9157" width="91.1303" height="11.9923" rx="5.99614" fill="#D9DBE9"/>
<path d="M114.656 231.44C104.355 228.238 94.8797 222.816 86.8951 215.555C78.9104 208.293 72.6106 199.368 68.4394 189.407C64.2681 179.446 62.327 168.69 62.7529 157.897C63.1788 147.103 65.9613 136.534 70.9043 126.934" stroke="#FFC147" stroke-width="30" stroke-linecap="round"/>
<path d="M67.4919 134.601C73.6191 118.42 85.2193 104.905 100.27 96.4051C115.321 87.9055 132.871 84.958 149.866 88.0738C166.862 91.1897 182.232 100.173 193.298 113.463C204.365 126.753 210.427 143.51 210.427 160.816" stroke="#4457FF" stroke-width="30" stroke-linecap="round"/>
<path d="M210.427 160.816C210.427 174.118 206.843 187.174 200.054 198.607C193.264 210.04 183.522 219.427 171.853 225.781C160.184 232.134 147.021 235.22 133.749 234.713C120.477 234.207 107.586 230.128 96.434 222.903" stroke="#FF5F85" stroke-width="30" stroke-linecap="round"/>
</svg>
