<svg width="349" height="419" viewBox="0 0 349 419" fill="none" xmlns="http://www.w3.org/2000/svg">
<rect x="27" y="37" width="294" height="345" fill="#C4C4C4"/>
<rect width="349" height="419" fill="white"/>
<circle cx="39" cy="32" r="7" fill="#FFC147"/>
<circle cx="65" cy="32" r="7" fill="#FF5F85"/>
<circle cx="91" cy="32" r="7" fill="#8364FF"/>
<rect x="33" y="77" width="200" height="14" rx="7" fill="#EFF0F7"/>
<rect x="87" y="107" width="146" height="14" rx="7" fill="#FFC147"/>
<rect x="33" y="137" width="90" height="14" rx="7" fill="#8364FF"/>
<rect x="33" y="227" width="173" height="14" rx="7" fill="#EFF0F7"/>
<rect x="124" y="257" width="173" height="14" rx="7" fill="#8364FF"/>
<rect x="33" y="287" width="111" height="14" rx="7" fill="#EFF0F7"/>
<rect x="33" y="317" width="226" height="14" rx="7" fill="#EFF0F7"/>
<rect x="114" y="347" width="70" height="14" rx="7" fill="#EFF0F7"/>
<rect x="196" y="347" width="105" height="14" rx="7" fill="#FFC147"/>
<rect x="159" y="287" width="62" height="14" rx="7" fill="#FF5F85"/>
<rect x="55" y="256" width="48" height="14" rx="7" fill="#FFC147"/>
<rect x="59" y="167" width="217" height="14" rx="7" fill="#EFF0F7"/>
<rect x="144" y="197" width="104" height="14" rx="7" fill="#EFF0F7"/>
<rect x="137" y="137" width="59" height="14" rx="7" fill="#FF5F85"/>
<rect x="248" y="107" width="63" height="14" rx="7" fill="#FF5F85"/>
</svg>
