<svg width="148" height="30" viewBox="0 0 148 30" fill="none" xmlns="http://www.w3.org/2000/svg">
<path d="M9.60882 29.237H4.07466V15.2936H0.304688V10.7539H4.07451V7.52355C4.07451 3.69562 5.74192 0.950256 11.2611 0.950256C12.4284 0.950256 14.261 1.18805 14.261 1.18805V5.40341H12.3362C10.3749 5.40341 9.60912 6.00636 9.60912 7.67333V10.7539H14.1876L13.7799 15.2936H9.60897L9.60882 29.237ZM22.3071 10.3911C22.2265 10.3911 22.1435 10.3941 22.0614 10.3961C16.9298 10.3961 14.5819 14.2974 14.5819 19.8353C14.5819 26.8116 17.6274 29.6038 22.1015 29.6038C24.6613 29.6038 26.3431 28.5148 27.3653 26.4827V29.2389H32.629V10.7558H27.3653V13.5982C26.5306 11.7695 24.8018 10.4128 22.3071 10.3911ZM23.6455 14.7586C25.8008 14.7586 27.0944 16.278 27.0944 18.8625L27.0994 21.5021C27.0994 23.2441 26.031 25.282 23.6455 25.282C19.9782 25.282 20.0762 21.2798 20.0762 19.9468C20.0762 15.4629 22.0301 14.7586 23.6455 14.7586ZM34.7548 19.9983C34.7548 17.7523 34.6485 10.4031 44.1221 10.4031C47.925 10.4031 49.5129 11.6252 49.5129 11.6252L48.2366 15.6261C48.2366 15.6261 46.6507 14.7434 44.5843 14.7434C41.9376 14.7434 40.2487 16.2942 40.2487 19.0226L40.2517 20.979C40.2517 23.6008 41.8812 25.3509 44.5897 25.3509C46.4723 25.3509 48.2074 24.4599 48.2074 24.4599L49.4805 28.3772C49.4805 28.3772 48.0285 29.607 44.1487 29.607C35.1283 29.607 34.7548 23.0134 34.7548 19.9983ZM80.3764 10.3961C85.5081 10.3961 87.893 14.2974 87.893 19.8353C87.893 26.8116 84.8473 29.6038 80.3733 29.6038C77.8135 29.6038 75.9212 28.515 74.899 26.4827V29.2389L69.7015 29.2368V1.51224L75.2199 1.02581V13.3478C76.0164 11.1921 78.6338 10.3961 80.3764 10.3961ZM78.8293 14.7586C76.674 14.7586 75.2199 16.278 75.2199 18.8625L75.2148 21.5021C75.2116 23.2441 76.2217 25.282 78.8293 25.282C82.4966 25.282 82.3986 21.2798 82.3986 19.9468C82.3986 15.4629 80.4448 14.7586 78.8293 14.7586ZM59.0879 10.4114C53.2675 10.4114 50.1947 13.6187 50.1947 19.3185V20.3774C50.1947 27.7751 54.5098 29.6798 59.6544 29.6798C64.6548 29.6798 66.9182 28.2662 66.9182 28.2662L65.8856 24.5018C65.8856 24.5018 63.2231 25.6467 60.316 25.6467C57.3023 25.6467 56.0061 24.8704 55.6739 21.9432H67.3594V18.9232C67.3594 12.7404 63.9109 10.4114 59.0879 10.4114ZM59.2281 14.1809C61.2429 14.1809 62.5484 15.4295 62.4767 18.3254H55.6841C55.8018 15.2775 57.2097 14.1809 59.2281 14.1809ZM98.8965 10.386C92.9194 10.386 89.7727 13.7903 89.7727 19.891C89.7727 28.2614 95.1969 29.6088 98.9065 29.6088C104.337 29.6088 107.95 26.6538 107.95 19.967C107.95 13.0072 103.888 10.386 98.8965 10.386ZM98.8213 14.7737C101.45 14.7737 102.491 16.7618 102.491 19.0247V20.9703C102.491 23.7116 101.034 25.2973 98.8113 25.2973C96.7328 25.2973 95.2721 23.8141 95.2721 20.9703V19.0247C95.2721 15.9918 97.0103 14.7737 98.8213 14.7737ZM118.944 10.386C112.967 10.386 109.82 13.7903 109.82 19.891C109.82 28.2614 115.244 29.6088 118.954 29.6088C124.384 29.6088 127.997 26.6538 127.997 19.967C127.997 13.0072 123.935 10.386 118.944 10.386ZM118.869 14.7737C121.497 14.7737 122.538 16.7618 122.538 19.0247V20.9703C122.538 23.7116 121.081 25.2973 118.859 25.2973C116.78 25.2973 115.319 23.8141 115.319 20.9703V19.0247C115.319 15.9918 117.058 14.7737 118.869 14.7737ZM130.083 29.237V1.51224L135.617 1.02581V19.6087L141.108 10.7539H146.953L141.225 19.9248L147.173 29.237H141.312L135.617 20.195V29.237H130.083Z" fill="#1877F2"/>
</svg>
