<svg width="134" height="44" viewBox="0 0 134 44" fill="none" xmlns="http://www.w3.org/2000/svg">
<path d="M16.4199 0H17.6055C21.7215 0.0904345 25.7704 1.76347 28.6784 4.7252C27.6047 5.83303 26.5086 6.89563 25.4572 8.00346C23.8242 6.51129 21.8557 5.35825 19.7082 4.95129C16.5318 4.27303 13.1092 4.88346 10.4472 6.71476C7.5392 8.6365 5.57067 11.8921 5.14565 15.3739C4.67589 18.8104 5.63778 22.4278 7.85237 25.0956C9.97748 27.6956 13.2211 29.3234 16.5765 29.4364C19.7082 29.6173 22.9742 28.6451 25.2559 26.4295C27.0455 24.8695 27.8731 22.4956 28.1416 20.1895C24.4282 20.1895 20.7149 20.2121 17.0015 20.1895V15.5321H32.6379C33.4432 20.5286 32.2799 26.1582 28.5218 29.7304C26.0165 32.2625 22.5492 33.7547 19.0148 34.0486C15.5922 34.3877 12.0578 33.7321 9.01559 32.059C5.36935 30.0921 2.4613 26.7686 1.02965 22.8573C-0.312523 19.2626 -0.334893 15.193 0.917803 11.5756C2.05865 8.27476 4.25087 5.35825 7.06943 3.32347C9.77615 1.3113 13.0645 0.203478 16.4199 0Z" fill="#4C8BF3"/>
<path d="M106.123 1.17564H110.91V33.4607C109.322 33.4607 107.711 33.4833 106.123 33.4381C106.145 22.699 106.123 11.9373 106.123 1.17564Z" fill="#34A853"/>
<path d="M43.2863 12.367C46.2391 11.8017 49.4379 12.4348 51.8762 14.2208C54.0908 15.8034 55.6343 18.2904 56.104 21.0034C56.708 24.146 55.9475 27.5824 53.9342 30.0694C51.7643 32.8502 48.2076 34.3424 44.7403 34.1163C41.5638 33.9354 38.4768 32.3302 36.5978 29.7076C34.4727 26.8138 33.9582 22.8347 35.1214 19.4434C36.2846 15.8034 39.5729 13.0226 43.2863 12.367ZM43.9574 16.6626C42.7494 16.9791 41.6309 17.6799 40.8256 18.6747C38.6558 21.2973 38.79 25.5703 41.1835 28.012C42.5481 29.4137 44.6061 30.0694 46.5075 29.685C48.2747 29.3685 49.8182 28.1703 50.6682 26.5877C52.1446 23.8973 51.7196 20.1895 49.4603 18.0869C48.0063 16.7304 45.8811 16.1652 43.9574 16.6626Z" fill="#EA4335"/>
<path d="M66.996 12.3669C70.3738 11.7112 74.0648 12.6608 76.5926 15.0573C80.7086 18.7877 81.156 25.7738 77.644 30.0695C75.5189 32.7825 72.0739 34.2747 68.6738 34.1164C65.4302 34.026 62.2313 32.3982 60.3075 29.7077C58.1377 26.746 57.6679 22.6764 58.8982 19.2173C60.1286 15.6904 63.3498 12.9999 66.996 12.3669ZM67.6671 16.6625C66.4592 16.979 65.3407 17.6799 64.5354 18.6521C62.3879 21.2295 62.4774 25.4347 64.7814 27.899C66.146 29.3686 68.2711 30.0921 70.2396 29.6851C71.9845 29.346 73.5503 28.1703 74.4004 26.5877C75.8544 23.8747 75.4294 20.1669 73.1477 18.0643C71.6936 16.7077 69.5685 16.1651 67.6671 16.6625Z" fill="#FFC147"/>
<path d="M87.1084 13.6782C89.6809 12.0504 93.1035 11.5982 95.8773 13C96.7497 13.3843 97.4655 14.04 98.159 14.6956C98.1813 14.0852 98.159 13.4522 98.1813 12.8191C99.6801 12.8417 101.179 12.8191 102.7 12.8417V32.7825C102.678 35.7894 101.917 38.9772 99.7696 41.1703C97.4208 43.5894 93.8193 44.3355 90.5757 43.8381C87.1084 43.3181 84.0885 40.7633 82.7463 37.5303C84.0885 36.8746 85.4978 36.3547 86.8847 35.7442C87.6676 37.5981 89.2559 39.1807 91.2468 39.5425C93.2377 39.9042 95.5417 39.4068 96.8392 37.7338C98.2261 36.0155 98.2261 33.6642 98.159 31.5616C97.13 32.579 95.9444 33.4834 94.5127 33.8225C91.4034 34.7042 87.9808 33.619 85.5873 31.4938C83.1713 29.3686 81.7397 26.0904 81.8739 22.8347C81.941 19.1495 83.999 15.6 87.1084 13.6782ZM91.7389 16.5721C90.3744 16.7982 89.0993 17.5669 88.2269 18.6295C86.1241 21.1617 86.1241 25.2086 88.2492 27.6956C89.4572 29.1651 91.4034 29.979 93.2824 29.7756C95.0496 29.5947 96.6826 28.4643 97.555 26.9043C99.0314 24.2591 98.7853 20.6643 96.7944 18.3582C95.5641 16.9339 93.5956 16.233 91.7389 16.5721Z" fill="#4C8BF3"/>
<path d="M116.657 14.8313C119.342 12.2991 123.48 11.44 126.925 12.7739C130.191 14.0174 132.271 17.16 133.323 20.393C128.468 22.4278 123.637 24.4399 118.782 26.4747C119.454 27.7634 120.483 28.9391 121.869 29.4138C123.816 30.1147 126.142 29.866 127.775 28.5547C128.424 28.0573 128.938 27.4017 129.43 26.7686C130.661 27.6052 131.891 28.4191 133.121 29.2556C131.376 31.9008 128.446 33.7547 125.292 34.0486C121.802 34.4782 118.089 33.1217 115.83 30.3634C112.116 26.0226 112.474 18.7426 116.657 14.8313ZM119.051 19.0139C118.29 20.1217 117.977 21.4782 117.999 22.8121C121.243 21.4556 124.487 20.0991 127.73 18.72C127.193 17.4539 125.896 16.6852 124.576 16.4817C122.451 16.0974 120.236 17.2504 119.051 19.0139Z" fill="#EA4335"/>
</svg>
