<svg width="159" height="41" viewBox="0 0 159 41" fill="none" xmlns="http://www.w3.org/2000/svg">
<path d="M51.1626 15.9566C51.1626 13.0937 48.408 10.053 43.6412 10.053C38.2884 10.053 32.4081 14.0217 31.5094 21.9392C30.5912 29.9358 35.5143 33.4898 40.4764 33.4898C45.4385 33.4898 48.0368 31.5351 50.6937 28.9288C48.408 26.0264 45.4581 27.369 44.8915 27.6651C44.2664 27.9811 43.4654 28.4154 41.8244 28.4154C39.9099 28.4154 37.9563 27.5467 37.9563 23.9334C50.2248 22.7093 51.1626 18.8196 51.1626 15.9566ZM45.0869 16.4305C45.0088 17.319 44.6571 18.8393 38.4447 19.6884C39.7536 14.9891 42.2542 14.6337 43.4068 14.6337C44.4813 14.6337 45.165 15.4828 45.0869 16.4305ZM24.3007 17.2005C24.3007 17.2005 21.6633 25.5722 21.4484 26.2633C21.3703 25.5525 19.4362 10.5269 19.4362 10.5269C14.943 10.5269 12.5401 13.765 11.2702 17.1808C11.2702 17.1808 8.06634 25.5722 7.79284 26.283C7.7733 25.6315 7.30444 17.2795 7.30444 17.2795C7.03094 13.0937 3.24097 10.5466 0.173828 10.5466L3.88565 33.3121C8.59381 33.2924 11.1335 30.074 12.4619 26.6582C12.4619 26.6582 15.2946 19.254 15.4118 18.9183C15.4314 19.2342 17.4436 33.3121 17.4436 33.3121C22.1713 33.3121 24.7109 30.2912 26.0785 26.9938L32.7011 10.5466C28.032 10.5466 25.5705 13.765 24.3007 17.2005ZM68.5105 10.0135C65.5996 10.0135 63.3725 11.6128 61.4971 13.9624V13.9427L63.1772 0.259705C59.309 0.259705 56.1638 3.65577 55.5581 8.71038L52.6278 33.1344C54.8549 33.1344 57.2187 32.4828 58.4885 30.8243C59.6216 32.3051 61.3212 33.4898 63.8414 33.4898C70.3664 33.4898 74.8401 25.8289 74.8401 18.6419C74.801 12.0867 71.6557 10.0135 68.5105 10.0135ZM67.9048 21.7615C67.2211 25.7697 65.0135 28.4944 62.8841 28.4944C60.7352 28.4944 59.817 27.5269 59.817 27.5269C60.2272 24.0124 60.4812 21.8603 61.2626 20.0043C62.0441 18.1483 63.9 15.1866 65.834 15.1866C67.729 15.1866 68.5886 17.7336 67.9048 21.7615ZM91.133 10.5466H86.5812L86.6007 10.3097C86.9133 7.30851 87.6166 5.72895 89.9413 5.47227C91.5238 5.31431 92.2271 4.48504 92.4029 3.57679C92.5396 2.86599 92.9694 0.397917 92.9694 0.397917C83.8266 0.338684 80.9548 4.32708 80.2125 10.4084L80.1929 10.5466H80.0953C78.6105 10.5466 76.9695 12.2447 76.696 14.3968L76.5983 15.1866H79.6459L77.0867 36.5502L76.3053 40.3806C76.403 40.3806 76.5202 40.4004 76.6179 40.4004C80.8962 40.2424 83.6313 36.8266 84.2369 31.8707L86.2295 15.1866H87.6557C89.0622 15.1866 90.7033 13.765 90.9963 11.3956L91.133 10.5466ZM114.811 10.1517C109.555 10.1517 104.593 14.0612 103.069 20.2017C101.546 26.3423 103.851 33.6083 111.587 33.6083C119.304 33.6083 123.758 26.0461 123.758 19.7476C123.758 13.4886 119.558 10.1517 114.811 10.1517ZM116.94 21.5641C116.666 24.3481 115.455 28.5734 112.134 28.5734C108.794 28.5734 109.262 23.6373 109.594 21.2877C109.946 18.7801 111.333 15.2063 114.322 15.2063C116.999 15.2063 117.253 18.4247 116.94 21.5641ZM149.721 17.2005C149.721 17.2005 147.084 25.5722 146.869 26.2633C146.791 25.5525 144.857 10.5269 144.857 10.5269C140.364 10.5269 137.961 13.765 136.691 17.1808C136.691 17.1808 133.487 25.5722 133.213 26.283C133.194 25.6315 132.725 17.2795 132.725 17.2795C132.452 13.0937 128.662 10.5466 125.594 10.5466L129.287 33.3121C133.995 33.2924 136.535 30.074 137.863 26.6582C137.863 26.6582 140.696 19.254 140.793 18.9183C140.813 19.2342 142.825 33.3121 142.825 33.3121C147.553 33.3121 150.092 30.2912 151.46 26.9938L158.083 10.5466C153.433 10.5466 150.972 13.765 149.721 17.2005ZM95.4309 0.397917L91.6019 31.6141L90.8205 35.4642C90.9181 35.4642 91.0354 35.484 91.133 35.484C95.2551 35.4248 98.1855 31.772 98.7325 27.1715L100.94 9.26322C101.604 3.79398 98.3809 0.397917 95.4309 0.397917Z" fill="#4353FF"/>
</svg>
