<svg width="87" height="87" viewBox="0 0 87 87" fill="none" xmlns="http://www.w3.org/2000/svg">
<rect x="0.253906" y="0.416748" width="86.126" height="86.126" fill="#F4E6FF"/>
<path fill-rule="evenodd" clip-rule="evenodd" d="M65.802 47.708C66.7592 48.2165 67.4977 49.0193 68.0173 49.8222C69.0292 51.4814 68.9472 53.5153 67.9626 55.3083L66.0482 58.5197C65.0362 60.2324 63.1492 61.3029 61.2074 61.3029C60.2501 61.3029 59.1835 61.0353 58.3084 60.5C57.5973 60.0451 56.7768 59.8845 55.9016 59.8845C53.1941 59.8845 50.9241 62.1057 50.842 64.7551C50.842 67.8327 48.3259 70.2412 45.1808 70.2412H41.4613C38.2888 70.2412 35.7726 67.8327 35.7726 64.7551C35.7179 62.1057 33.448 59.8845 30.7404 59.8845C29.8379 59.8845 29.0174 60.0451 28.3337 60.5C27.4585 61.0353 26.3645 61.3029 25.4347 61.3029C23.4655 61.3029 21.5784 60.2324 20.5665 58.5197L18.6794 55.3083C17.6675 53.5688 17.6128 51.4814 18.6247 49.8222C19.0623 49.0193 19.8828 48.2165 20.8127 47.708C21.5784 47.3333 22.0707 46.7178 22.5357 45.9953C23.9031 43.6938 23.0826 40.6697 20.758 39.3049C18.0504 37.7795 17.1752 34.3808 18.7341 31.7314L20.5665 28.5735C22.1528 25.9241 25.5441 24.9875 28.279 26.5396C30.6584 27.8242 33.7488 26.9678 35.1436 24.6931C35.5812 23.9438 35.8273 23.1409 35.7726 22.3381C35.7179 21.2944 36.0188 20.3042 36.5384 19.5013C37.5503 17.8421 39.3827 16.7717 41.3792 16.7181H45.2355C47.2593 16.7181 49.0917 17.8421 50.1036 19.5013C50.5959 20.3042 50.9241 21.2944 50.842 22.3381C50.7873 23.1409 51.0335 23.9438 51.4711 24.6931C52.8659 26.9678 55.9563 27.8242 58.3631 26.5396C61.0706 24.9875 64.4893 25.9241 66.0482 28.5735L67.8806 31.7314C69.4668 34.3808 68.5916 37.7795 65.8567 39.3049C63.532 40.6697 62.7116 43.6938 64.1064 45.9953C64.544 46.7178 65.0362 47.3333 65.802 47.708ZM35.5806 43.5066C35.5806 47.7082 39.054 51.0534 43.3478 51.0534C47.6416 51.0534 51.0329 47.7082 51.0329 43.5066C51.0329 39.3051 47.6416 35.9331 43.3478 35.9331C39.054 35.9331 35.5806 39.3051 35.5806 43.5066Z" fill="#B04DFF"/>
</svg>
