<svg width="274" height="315" viewBox="0 0 274 315" fill="none" xmlns="http://www.w3.org/2000/svg">
<rect width="274" height="315" fill="white"/>
<rect x="94.2949" y="104.664" width="153.725" height="10.0102" rx="5.00508" fill="#EFF0F7"/>
<rect x="94.2949" y="104.664" width="123.443" height="10.0102" rx="5.00508" fill="#596AFF"/>
<rect x="94.2949" y="85.6451" width="94.0359" height="10.0102" rx="5.00508" fill="#D9DBE9"/>
<g filter="url(#filter0_d)">
<ellipse cx="54.1414" cy="100.16" rx="28.1629" ry="28.214" fill="#FF0000" fill-opacity="0.01"/>
</g>
<ellipse cx="54.1414" cy="100.16" rx="28.1629" ry="28.214" fill="white"/>
<path d="M54.0199 80.9777C54.0199 80.9777 65.2687 80.4705 71.2304 91.796H53.0634C53.0634 91.796 49.6323 91.6829 46.7076 95.8532C45.8641 97.6001 44.9644 99.4032 45.9766 102.952C44.5144 100.474 38.2148 89.486 38.2148 89.486C38.2148 89.486 42.6587 81.4283 54.0199 80.9777Z" fill="#EA4335"/>
<path d="M70.6445 109.733C70.6445 109.733 65.4571 119.745 52.6855 119.253C54.2611 116.521 61.7712 103.492 61.7712 103.492C61.7712 103.492 63.5844 100.573 61.4434 95.9499C60.355 94.3443 59.2467 92.6619 55.6719 91.7648C58.5469 91.7362 71.194 91.7667 71.194 91.7667C71.194 91.7667 75.9366 99.6513 70.6445 109.733Z" fill="#FFC147"/>
<path d="M37.4764 109.809C37.4764 109.809 31.4155 100.301 38.2276 89.4674C39.8017 92.2006 47.3078 105.231 47.3078 105.231C47.3078 105.231 48.9249 108.264 53.9918 108.718C55.9233 108.577 57.9323 108.457 60.4952 105.804C59.0822 108.312 52.7315 119.27 52.7315 119.27C52.7315 119.27 43.5446 119.442 37.4764 109.809Z" fill="#17A05D"/>
<path d="M52.6855 119.345L55.241 108.662C55.241 108.662 58.0508 108.443 60.4051 105.854C58.9436 108.43 52.6855 119.345 52.6855 119.345V119.345Z" fill="#17A05D"/>
<path d="M45.4609 100.28C45.4609 95.5703 49.2713 91.7526 53.9725 91.7526C58.6733 91.7526 62.484 95.5702 62.484 100.28C62.484 104.989 58.6735 108.807 53.9725 108.807C49.2713 108.807 45.4609 104.989 45.4609 100.28V100.28Z" fill="white"/>
<path d="M46.8867 100.279C46.8867 96.3584 50.0595 93.1797 53.9738 93.1797C57.8873 93.1797 61.0604 96.3584 61.0604 100.279C61.0604 104.2 57.8873 107.379 53.9738 107.379C50.0595 107.379 46.8867 104.2 46.8867 100.279V100.279Z" fill="#4C8BF4"/>
<path d="M71.196 91.7662L60.6735 94.857C60.6735 94.857 59.0868 92.5241 55.6738 91.7644C58.6311 91.7543 71.196 91.7662 71.196 91.7662Z" fill="#FFC147"/>
<path d="M45.7716 102.569C44.2928 100.003 38.2148 89.4855 38.2148 89.4855L46.0097 97.2104C46.0097 97.2104 45.2087 98.8612 45.5124 101.219L45.7716 102.569V102.569Z" fill="#EA4335"/>
<rect x="94.2949" y="177.109" width="153.725" height="10.0102" rx="5.00508" fill="#EFF0F7"/>
<rect x="94.9238" y="177.109" width="80.3146" height="10.0102" rx="5.00508" fill="#596AFF"/>
<rect x="94.2949" y="158.089" width="58.2805" height="10.0102" rx="5.00508" fill="#D9DBE9"/>
<g filter="url(#filter1_d)">
<ellipse cx="54.1414" cy="172.604" rx="28.1629" ry="28.214" fill="#FF0000" fill-opacity="0.01"/>
</g>
<ellipse cx="54.1414" cy="172.604" rx="28.1629" ry="28.214" fill="white"/>
<path d="M73.2937 172.604C73.2937 177.692 71.2761 182.572 67.6846 186.17C64.0931 189.768 59.2221 191.79 54.143 191.79C49.0639 191.79 44.1928 189.768 40.6013 186.17C37.0099 182.572 34.9922 177.692 34.9922 172.604C34.9922 167.516 37.0099 162.636 40.6013 159.038C44.1928 155.44 49.0639 153.419 54.143 153.419C59.2221 153.419 64.0931 155.44 67.6846 159.038C71.2761 162.636 73.2937 167.516 73.2937 172.604Z" fill="url(#paint0_radial)"/>
<path d="M54.1443 154.419C53.9896 154.419 53.8651 154.544 53.8651 154.699V157.925C53.8651 158.08 53.9896 158.205 54.1443 158.205C54.299 158.205 54.4235 158.08 54.4235 157.925V154.699C54.4235 154.544 54.299 154.419 54.1443 154.419ZM52.3177 154.535C52.2992 154.533 52.2802 154.533 52.2609 154.535C52.1071 154.551 51.9961 154.688 52.0122 154.842L52.1529 156.192C52.169 156.346 52.3058 156.458 52.4596 156.441C52.6135 156.425 52.7244 156.288 52.7084 156.134L52.5677 154.784C52.5537 154.65 52.4471 154.548 52.3177 154.535H52.3177ZM55.9837 154.536C55.8542 154.549 55.7477 154.651 55.7335 154.786L55.5918 156.135C55.5756 156.289 55.6865 156.427 55.8404 156.443C55.9942 156.459 56.131 156.348 56.1472 156.194L56.2889 154.844C56.3051 154.69 56.1941 154.553 56.0403 154.537C56.0211 154.535 56.0022 154.535 55.9837 154.536V154.536ZM50.4413 154.808C50.4228 154.808 50.4039 154.81 50.3849 154.814C50.2336 154.846 50.1376 154.994 50.1696 155.145L50.8366 158.302C50.8686 158.453 51.0163 158.549 51.1676 158.517C51.3189 158.485 51.415 158.337 51.383 158.186L50.716 155.029C50.6879 154.897 50.5714 154.806 50.4413 154.807L50.4413 154.808ZM57.8599 154.81C57.7298 154.809 57.6133 154.899 57.5852 155.032L56.9159 158.188C56.8837 158.339 56.9797 158.487 57.131 158.52C57.2823 158.552 57.43 158.456 57.4621 158.304L58.1314 155.148C58.1636 154.997 58.0676 154.849 57.9163 154.816C57.8974 154.812 57.8785 154.81 57.8599 154.81L57.8599 154.81ZM48.6506 155.313C48.6145 155.31 48.5771 155.314 48.5404 155.326C48.3932 155.374 48.3133 155.531 48.3611 155.679L48.7797 156.969C48.8275 157.117 48.9845 157.197 49.1316 157.149C49.2787 157.101 49.3586 156.944 49.3108 156.797L48.8921 155.506C48.8563 155.395 48.7591 155.323 48.6506 155.313V155.313ZM59.6405 155.314C59.532 155.323 59.4348 155.396 59.399 155.506L58.9801 156.797C58.9323 156.945 59.0122 157.102 59.1593 157.15C59.3064 157.198 59.4634 157.117 59.5112 156.97L59.93 155.679C59.9779 155.532 59.898 155.375 59.7509 155.327C59.7141 155.315 59.6766 155.311 59.6405 155.314V155.314ZM46.8798 155.963C46.8435 155.963 46.8068 155.971 46.7715 155.987C46.6302 156.05 46.5669 156.215 46.6298 156.356L47.9379 159.304C48.0007 159.446 48.165 159.509 48.3063 159.446C48.4476 159.383 48.511 159.219 48.4482 159.077L47.14 156.129C47.0929 156.023 46.9886 155.96 46.8798 155.963V155.963ZM61.4313 155.972C61.3225 155.97 61.2182 156.032 61.1709 156.138L59.8588 159.085C59.7958 159.226 59.8588 159.391 60.0001 159.454C60.1413 159.517 60.3058 159.454 60.3688 159.313L61.6809 156.366C61.7439 156.225 61.6809 156.06 61.5396 155.997C61.5043 155.981 61.4676 155.973 61.4313 155.972V155.972ZM45.2361 156.834C45.1826 156.83 45.1273 156.842 45.0771 156.871C44.9431 156.948 44.8976 157.119 44.9749 157.253L45.6523 158.428C45.7296 158.563 45.8997 158.608 46.0337 158.531C46.1676 158.453 46.2132 158.283 46.1358 158.149L45.4585 156.973C45.4101 156.889 45.3255 156.84 45.2361 156.834V156.834ZM63.0524 156.834C62.9631 156.84 62.8786 156.889 62.8302 156.973L62.1527 158.149C62.0754 158.283 62.1211 158.453 62.2551 158.531C62.389 158.608 62.5591 158.563 62.6364 158.428L63.3138 157.253C63.3912 157.119 63.3456 156.948 63.2116 156.871C63.1614 156.842 63.106 156.83 63.0524 156.834V156.834ZM43.6401 157.831C43.5863 157.833 43.5325 157.85 43.4856 157.884C43.3604 157.975 43.3327 158.15 43.4236 158.275L45.3146 160.887C45.4055 161.012 45.5795 161.04 45.7047 160.949C45.8299 160.858 45.8576 160.684 45.7667 160.558L43.8755 157.947C43.8188 157.868 43.7296 157.828 43.6401 157.831V157.831ZM64.6685 157.845C64.579 157.842 64.4898 157.882 64.4329 157.961L62.5382 160.57C62.4472 160.695 62.4747 160.869 62.5998 160.96C62.7249 161.052 62.8989 161.024 62.9899 160.899L64.8844 158.29C64.9754 158.164 64.9479 157.99 64.8229 157.899C64.776 157.865 64.7222 157.847 64.6685 157.845V157.845ZM42.2134 159.03C42.1422 159.026 42.0694 159.05 42.0119 159.101C41.897 159.205 41.8877 159.381 41.9913 159.496L42.8977 160.505C43.0012 160.62 43.177 160.63 43.292 160.526C43.4069 160.422 43.4162 160.246 43.3127 160.131L42.4064 159.122C42.3546 159.065 42.2847 159.033 42.2134 159.03V159.03ZM66.0772 159.032C66.0059 159.036 65.936 159.067 65.8843 159.124L64.9778 160.133C64.8743 160.248 64.8835 160.424 64.9985 160.528C65.1134 160.632 65.2893 160.622 65.3928 160.507L66.2993 159.499C66.4028 159.383 66.3935 159.207 66.2786 159.103C66.2211 159.052 66.1485 159.028 66.0773 159.032L66.0772 159.032ZM40.8461 160.346C40.7748 160.35 40.705 160.38 40.6533 160.438C40.5498 160.553 40.559 160.729 40.674 160.833L43.0675 162.992C43.1825 163.095 43.3583 163.086 43.4618 162.971C43.5653 162.856 43.5562 162.68 43.4412 162.576L41.0475 160.417C40.99 160.365 40.9173 160.342 40.846 160.346L40.8461 160.346ZM67.4512 160.355C67.3799 160.351 67.3071 160.375 67.2496 160.427L64.8546 162.584C64.7395 162.687 64.7301 162.863 64.8335 162.979C64.9369 163.094 65.1129 163.103 65.2279 163L67.623 160.843C67.7381 160.739 67.7474 160.563 67.644 160.448C67.5923 160.39 67.5224 160.359 67.4512 160.355H67.4512ZM39.709 161.81C39.6195 161.807 39.5302 161.847 39.4734 161.926C39.3825 162.051 39.4101 162.225 39.5352 162.316L40.6312 163.114C40.7564 163.205 40.9302 163.178 41.0212 163.052C41.1121 162.927 41.0846 162.753 40.9595 162.662L39.8635 161.864C39.8166 161.83 39.7627 161.812 39.709 161.81L39.709 161.81ZM68.5872 161.82C68.5335 161.822 68.4797 161.84 68.4327 161.874L67.3362 162.671C67.211 162.762 67.1833 162.936 67.2741 163.062C67.365 163.187 67.5389 163.215 67.6641 163.124L68.7607 162.327C68.8859 162.236 68.9135 162.061 68.8227 161.936C68.7659 161.858 68.6767 161.817 68.5872 161.821V161.82ZM38.6464 163.373C38.557 163.379 38.4725 163.428 38.4242 163.512C38.3468 163.646 38.3924 163.817 38.5264 163.894L41.3154 165.507C41.4494 165.585 41.6195 165.539 41.6968 165.405C41.7742 165.271 41.7286 165.101 41.5946 165.023L38.8056 163.41C38.7554 163.381 38.7 163.369 38.6464 163.373V163.373ZM69.6422 163.373C69.5886 163.369 69.5332 163.381 69.483 163.41L66.694 165.023C66.56 165.101 66.5144 165.271 66.5918 165.405C66.6691 165.539 66.8392 165.585 66.9731 165.508L69.7624 163.894C69.8963 163.817 69.9419 163.646 69.8645 163.512C69.8162 163.428 69.7315 163.379 69.6422 163.373V163.373ZM37.843 165.038C37.7342 165.035 37.6298 165.098 37.5826 165.204C37.5196 165.346 37.5825 165.51 37.7238 165.573L38.9611 166.126C39.1024 166.189 39.2669 166.126 39.3299 165.985C39.3929 165.843 39.3298 165.679 39.1885 165.615L37.9513 165.063C37.916 165.047 37.8792 165.039 37.843 165.038V165.038ZM70.451 165.05C70.4147 165.05 70.3779 165.058 70.3426 165.074L69.105 165.626C68.9637 165.689 68.9005 165.854 68.9634 165.995C69.0263 166.137 69.1908 166.2 69.3321 166.137L70.5697 165.585C70.711 165.522 70.7741 165.357 70.7112 165.216C70.664 165.11 70.5598 165.047 70.451 165.05V165.05ZM37.127 166.779C37.0185 166.788 36.9213 166.86 36.8853 166.971C36.8375 167.118 36.9172 167.276 37.0643 167.324L40.1264 168.323C40.2735 168.371 40.4305 168.291 40.4784 168.144C40.5263 167.997 40.4466 167.839 40.2995 167.791L37.2373 166.792C37.2006 166.78 37.1631 166.776 37.127 166.779V166.779ZM71.1657 166.791C71.1296 166.787 71.0923 166.791 71.0555 166.804L67.9926 167.801C67.8455 167.849 67.7656 168.006 67.8134 168.154C67.8613 168.301 68.0182 168.381 68.1653 168.333L71.228 167.336C71.3751 167.288 71.4552 167.13 71.4073 166.983C71.3715 166.873 71.2742 166.8 71.1657 166.791V166.791ZM36.6809 168.606C36.5508 168.605 36.4341 168.695 36.406 168.828C36.3738 168.979 36.4698 169.127 36.6211 169.159L37.9463 169.442C38.0976 169.474 38.2452 169.378 38.2774 169.226C38.3096 169.074 38.2136 168.927 38.0623 168.894L36.7372 168.612C36.7183 168.608 36.6994 168.606 36.6809 168.606V168.606ZM71.6083 168.609C71.5898 168.609 71.571 168.611 71.5521 168.615L70.2269 168.897C70.0756 168.929 69.9797 169.077 70.0118 169.228C70.044 169.38 70.1916 169.476 70.3429 169.444L71.668 169.162C71.8193 169.13 71.9154 168.982 71.8832 168.83C71.8551 168.697 71.7384 168.607 71.6084 168.608L71.6083 168.609ZM36.3432 170.444C36.2137 170.456 36.1071 170.558 36.0929 170.693C36.0767 170.847 36.1873 170.984 36.3411 171L39.5439 171.34C39.6977 171.356 39.8347 171.245 39.8509 171.091C39.8672 170.937 39.7564 170.8 39.6026 170.783L36.3998 170.444C36.3806 170.442 36.3617 170.442 36.3432 170.444V170.444ZM71.9484 170.468C71.9299 170.466 71.9109 170.466 71.8916 170.468L68.6885 170.803C68.5347 170.819 68.4237 170.956 68.4398 171.11C68.4558 171.264 68.5926 171.376 68.7465 171.359L71.9496 171.025C72.1034 171.008 72.2143 170.871 72.1983 170.717C72.1842 170.582 72.0779 170.48 71.9484 170.468L71.9484 170.468ZM36.289 172.325C36.1343 172.325 36.0098 172.45 36.0098 172.605C36.0098 172.76 36.1343 172.885 36.289 172.885H37.6437C37.7984 172.885 37.923 172.76 37.923 172.605C37.923 172.45 37.7984 172.325 37.6437 172.325H36.289ZM70.6449 172.325C70.4902 172.325 70.3657 172.45 70.3657 172.605C70.3657 172.76 70.4902 172.885 70.6449 172.885H71.9996C72.1543 172.885 72.2788 172.76 72.2788 172.605C72.2788 172.45 72.1543 172.325 71.9996 172.325H70.6449ZM39.5989 173.85C39.5804 173.848 39.5614 173.848 39.5422 173.85L36.339 174.185C36.1851 174.201 36.0742 174.338 36.0903 174.492C36.1063 174.646 36.2431 174.758 36.3969 174.741L39.6002 174.407C39.754 174.391 39.8649 174.253 39.8489 174.099C39.8348 173.964 39.7283 173.863 39.5988 173.85H39.5989ZM68.688 173.87C68.5586 173.882 68.452 173.984 68.4378 174.119C68.4215 174.273 68.5322 174.41 68.686 174.426L71.8888 174.766C72.0426 174.782 72.1795 174.671 72.1958 174.517C72.212 174.363 72.1013 174.226 71.9474 174.209L68.7448 173.87C68.7256 173.868 68.7065 173.868 68.688 173.87L68.688 173.87ZM38.0022 175.759C37.9836 175.76 37.9647 175.761 37.9458 175.765L36.6206 176.047C36.4693 176.08 36.3734 176.228 36.4055 176.379C36.4377 176.531 36.5853 176.627 36.7367 176.595L38.0618 176.313C38.2132 176.281 38.3091 176.133 38.2769 175.981C38.2488 175.848 38.1323 175.758 38.0022 175.759L38.0022 175.759ZM70.286 175.762C70.156 175.761 70.0394 175.851 70.0113 175.984C69.9791 176.135 70.075 176.283 70.2263 176.315L71.5515 176.598C71.7028 176.63 71.8505 176.534 71.8826 176.382C71.9148 176.231 71.8188 176.083 71.6675 176.05L70.3424 175.768C70.3235 175.764 70.3046 175.762 70.2861 175.762L70.286 175.762ZM40.2337 176.864C40.1975 176.86 40.1602 176.864 40.1234 176.877L37.0606 177.874C36.9134 177.922 36.8335 178.079 36.8814 178.227C36.9292 178.374 37.0861 178.454 37.2332 178.406L40.296 177.409C40.4431 177.361 40.5231 177.204 40.4753 177.056C40.4394 176.946 40.3421 176.873 40.2337 176.864V176.864ZM68.0519 176.874C67.9435 176.883 67.8462 176.955 67.8103 177.066C67.7624 177.213 67.8421 177.371 67.9892 177.419L71.0514 178.418C71.1985 178.466 71.3555 178.386 71.4034 178.239C71.4513 178.092 71.3715 177.934 71.2244 177.886L68.1623 176.887C68.1255 176.875 68.0881 176.871 68.0519 176.874V176.874ZM39.0649 179.048C39.0286 179.049 38.9919 179.057 38.9566 179.073L37.7189 179.625C37.5775 179.688 37.5145 179.852 37.5774 179.994C37.6403 180.136 37.8047 180.199 37.946 180.136L39.1837 179.584C39.325 179.521 39.3881 179.356 39.3252 179.215C39.278 179.108 39.1737 179.046 39.0649 179.048V179.048ZM69.2192 179.059C69.1104 179.056 69.0061 179.119 68.9588 179.225C68.8958 179.366 68.9588 179.531 69.1001 179.594L70.3373 180.147C70.4785 180.21 70.643 180.147 70.706 180.006C70.769 179.864 70.706 179.699 70.5648 179.636L69.3276 179.083C69.2923 179.068 69.2555 179.06 69.2192 179.059V179.059ZM41.4746 179.665C41.421 179.661 41.3657 179.673 41.3154 179.702L38.5264 181.315C38.3924 181.393 38.3468 181.563 38.4242 181.698C38.5015 181.832 38.6716 181.877 38.8056 181.8L41.5946 180.187C41.7286 180.109 41.7742 179.939 41.6968 179.805C41.6485 179.721 41.564 179.671 41.4746 179.665V179.665ZM66.8141 179.665C66.7247 179.671 66.6401 179.721 66.5918 179.805C66.5144 179.939 66.56 180.109 66.694 180.187L69.483 181.8C69.617 181.877 69.7872 181.832 69.8645 181.698C69.9419 181.563 69.8963 181.393 69.7624 181.315L66.9731 179.702C66.9229 179.673 66.8677 179.661 66.8141 179.665V179.665ZM40.7789 182.033C40.7252 182.035 40.6714 182.052 40.6245 182.086L39.528 182.883C39.4028 182.974 39.3751 183.148 39.4659 183.274C39.5567 183.399 39.7307 183.427 39.8559 183.336L40.9524 182.539C41.0777 182.448 41.1054 182.274 41.0145 182.148C40.9578 182.07 40.8685 182.029 40.7789 182.033V182.033ZM67.503 182.042C67.4135 182.039 67.3243 182.079 67.2674 182.157C67.1765 182.283 67.2041 182.457 67.3292 182.548L68.4252 183.346C68.5504 183.437 68.7243 183.409 68.8152 183.284C68.9061 183.159 68.8786 182.984 68.7535 182.893L67.6575 182.096C67.6106 182.061 67.5567 182.044 67.503 182.042L67.503 182.042ZM43.2623 182.139C43.191 182.135 43.1183 182.158 43.0608 182.21L40.6657 184.367C40.5506 184.471 40.5413 184.647 40.6447 184.762C40.7481 184.877 40.924 184.887 41.039 184.783L43.4341 182.626C43.5492 182.523 43.5585 182.346 43.4551 182.231C43.4034 182.174 43.3336 182.142 43.2623 182.139ZM65.0197 182.146C64.9484 182.15 64.8785 182.181 64.8267 182.239C64.7232 182.354 64.7325 182.53 64.8474 182.634L67.241 184.792C67.356 184.896 67.5319 184.887 67.6354 184.772C67.7389 184.656 67.7297 184.48 67.6147 184.377L65.221 182.218C65.1635 182.166 65.0909 182.143 65.0197 182.146V182.146ZM45.5345 184.195C45.445 184.192 45.3557 184.232 45.2988 184.311L43.4043 186.92C43.3133 187.045 43.3406 187.219 43.4657 187.31C43.5908 187.402 43.7647 187.374 43.8557 187.249L45.7503 184.64C45.8413 184.514 45.8139 184.34 45.6889 184.249C45.642 184.215 45.5882 184.197 45.5345 184.195ZM62.7385 184.207C62.6848 184.209 62.631 184.226 62.584 184.26C62.4588 184.351 62.4311 184.526 62.5219 184.651L64.413 187.263C64.5038 187.388 64.6778 187.416 64.803 187.325C64.9282 187.234 64.9559 187.06 64.8651 186.934L62.974 184.323C62.9172 184.244 62.828 184.204 62.7385 184.207V184.207ZM43.0888 184.61C43.0175 184.614 42.9476 184.645 42.8958 184.703L41.9894 185.711C41.8859 185.826 41.8951 186.003 42.01 186.106C42.125 186.21 42.3008 186.201 42.4043 186.085L43.3109 185.077C43.4144 184.962 43.4051 184.785 43.2902 184.682C43.2327 184.63 43.1601 184.606 43.0888 184.61L43.0888 184.61ZM65.1981 184.611C65.1269 184.607 65.0543 184.631 64.9968 184.683C64.8818 184.787 64.8726 184.963 64.976 185.078L65.8823 186.087C65.9858 186.202 66.1616 186.211 66.2766 186.108C66.3916 186.004 66.4008 185.828 66.2973 185.713L65.391 184.704C65.3393 184.646 65.2694 184.615 65.1981 184.611L65.1981 184.611ZM48.1802 185.73C48.0714 185.728 47.9672 185.79 47.9199 185.896L46.6077 188.843C46.5447 188.984 46.6077 189.149 46.749 189.212C46.8902 189.275 47.0547 189.212 47.1177 189.071L48.4299 186.124C48.4929 185.983 48.4299 185.818 48.2886 185.755C48.2533 185.739 48.2165 185.731 48.1802 185.73ZM60.0907 185.738C60.0544 185.739 60.0176 185.747 59.9822 185.763C59.841 185.826 59.7777 185.99 59.8405 186.132L61.1486 189.08C61.2114 189.222 61.3758 189.285 61.5172 189.222C61.6585 189.159 61.7218 188.995 61.6589 188.853L60.3508 185.905C60.3037 185.798 60.1995 185.736 60.0907 185.738V185.738ZM45.8745 186.641C45.7851 186.647 45.7006 186.697 45.6523 186.781L44.9749 187.956C44.8976 188.09 44.9431 188.261 45.0771 188.338C45.211 188.416 45.3811 188.37 45.4585 188.236L46.1358 187.06C46.2132 186.926 46.1676 186.756 46.0337 186.678C45.9834 186.649 45.9281 186.638 45.8745 186.641V186.641ZM62.4141 186.641C62.3605 186.637 62.3053 186.649 62.2551 186.678C62.1211 186.756 62.0755 186.926 62.1529 187.06L62.8302 188.236C62.9076 188.37 63.0777 188.416 63.2116 188.338C63.3456 188.261 63.3912 188.09 63.3138 187.956L62.6364 186.781C62.5881 186.697 62.5035 186.648 62.4141 186.641V186.641ZM51.1013 186.683C50.9712 186.682 50.8547 186.772 50.8266 186.905L50.1573 190.061C50.1251 190.213 50.2211 190.361 50.3724 190.393C50.5237 190.425 50.6714 190.329 50.7035 190.177L51.3728 187.021C51.405 186.87 51.309 186.722 51.1577 186.69C51.1388 186.686 51.1199 186.684 51.1013 186.684L51.1013 186.683ZM57.1774 186.685C57.1588 186.686 57.14 186.687 57.1211 186.691C56.9698 186.723 56.8737 186.871 56.9058 187.023L57.5728 190.179C57.6048 190.331 57.7525 190.427 57.9038 190.395C58.0551 190.363 58.1512 190.215 58.1191 190.064L57.452 186.907C57.424 186.775 57.3075 186.684 57.1774 186.685L57.1774 186.685ZM54.1443 187.004C53.9896 187.004 53.8651 187.129 53.8651 187.283V190.51C53.8651 190.665 53.9896 190.79 54.1443 190.79C54.299 190.79 54.4235 190.665 54.4235 190.51V187.283C54.4235 187.129 54.299 187.004 54.1443 187.004ZM49.019 188.046C48.9106 188.056 48.8133 188.128 48.7774 188.239L48.3587 189.53C48.3108 189.677 48.3908 189.834 48.5379 189.882C48.685 189.93 48.8419 189.85 48.8897 189.702L49.3085 188.412C49.3563 188.264 49.2764 188.107 49.1293 188.059C49.0925 188.047 49.0552 188.043 49.019 188.046V188.046ZM59.2674 188.047C59.2312 188.044 59.1939 188.048 59.1572 188.06C59.01 188.108 58.93 188.265 58.9778 188.412L59.3965 189.703C59.4443 189.85 59.6012 189.93 59.7483 189.883C59.8955 189.835 59.9755 189.678 59.9277 189.53L59.5089 188.239C59.473 188.129 59.3758 188.056 59.2674 188.047V188.047ZM52.3917 188.766C52.2622 188.778 52.1555 188.88 52.1414 189.015L51.9998 190.365C51.9836 190.519 52.0944 190.656 52.2483 190.672C52.4021 190.688 52.539 190.577 52.5552 190.423L52.6968 189.074C52.713 188.919 52.6022 188.782 52.4483 188.766C52.4291 188.764 52.4102 188.764 52.3917 188.766L52.3917 188.766ZM55.8857 188.767C55.8672 188.765 55.8482 188.765 55.8289 188.767C55.6751 188.784 55.5641 188.921 55.5802 189.075L55.7209 190.425C55.737 190.579 55.8738 190.69 56.0276 190.674C56.1815 190.658 56.2924 190.521 56.2764 190.366L56.1357 189.017C56.1217 188.882 56.0151 188.78 55.8857 188.767L55.8857 188.767Z" fill="#F4F2F3"/>
<g opacity="0.409" filter="url(#filter2_f)">
<path d="M67.2297 161.415L51.9536 170.307L42.2949 185.54L56.4248 175.055L67.2297 161.415Z" fill="black"/>
</g>
<path d="M56.3309 174.901L51.9523 170.307L67.4849 159.839L56.3309 174.901Z" fill="#FF5F85"/>
<path d="M56.3298 174.901L51.9512 170.307L40.7972 185.369L56.3298 174.901Z" fill="#F1F1F1"/>
<path opacity="0.243" d="M40.7969 185.37L56.3295 174.903L67.4835 159.841L40.7969 185.37Z" fill="black"/>
<rect x="94.918" y="249.553" width="153.102" height="10.0102" rx="5.00508" fill="#EFF0F7"/>
<rect x="94.9238" y="249.553" width="32.0693" height="10.0102" rx="5.00508" fill="#596AFF"/>
<rect x="94.9238" y="230.534" width="99.5453" height="10.0102" rx="5.00508" fill="#D9DBE9"/>
<g filter="url(#filter3_d)">
<ellipse cx="54.7703" cy="245.049" rx="28.1629" ry="28.214" fill="#FF0000" fill-opacity="0.01"/>
</g>
<ellipse cx="54.1414" cy="245.049" rx="28.1629" ry="28.214" fill="white"/>
<path d="M72.9953 238.424C72.1297 236.354 70.3987 234.125 69.0342 233.426C70.0058 235.308 70.6807 237.33 71.0351 239.419V239.455C68.8102 233.88 65.0274 231.636 61.9369 226.739C61.774 226.494 61.6213 226.244 61.4685 225.984C61.382 225.831 61.3158 225.699 61.2496 225.576C61.1209 225.327 61.0218 225.063 60.9543 224.791C60.9546 224.779 60.9506 224.767 60.9432 224.758C60.9357 224.748 60.9253 224.742 60.9136 224.74C60.8972 224.733 60.8791 224.733 60.8627 224.74V224.75C60.8627 224.76 60.8474 224.75 60.8474 224.75V224.74C55.8986 227.647 54.2134 233.033 54.0607 235.721C52.0802 235.859 50.1871 236.591 48.6283 237.823C48.4657 237.684 48.2957 237.555 48.1191 237.435C47.6686 235.854 47.651 234.18 48.0682 232.589C46.2455 233.474 44.6262 234.728 43.3129 236.272C42.5238 235.283 42.5798 232.008 42.6256 231.324C42.3933 231.416 42.1715 231.533 41.9637 231.671C41.2712 232.165 40.6237 232.72 40.029 233.329C39.3574 234.016 38.7443 234.758 38.1962 235.548C36.9277 237.349 36.0279 239.384 35.5487 241.536L35.513 241.674C35.4774 241.842 35.3399 242.714 35.3196 242.898V242.949C35.1485 243.848 35.043 244.758 35.0039 245.672V245.774C35.0119 250.721 36.8709 255.486 40.214 259.127C43.5571 262.768 48.1413 265.021 53.0616 265.441C57.9818 265.861 62.8805 264.418 66.7906 261.396C70.7006 258.375 73.3378 253.995 74.1815 249.12C74.2172 248.865 74.2426 248.61 74.2732 248.355C74.6819 244.99 74.2443 241.577 73.0003 238.424H72.9953ZM50.2524 253.894C50.344 253.945 50.4306 253.996 50.5222 254.032L50.5375 254.042C50.4458 253.995 50.3525 253.944 50.2575 253.889L50.2524 253.894ZM71.0402 239.45V239.434V239.455V239.45Z" fill="url(#paint1_linear)"/>
<path d="M72.9953 238.424C72.1297 236.353 70.3987 234.124 69.0342 233.425C70.0058 235.308 70.6807 237.329 71.0351 239.419V239.459C72.5573 243.819 72.3383 248.6 70.4241 252.802C68.1636 257.663 62.6854 262.646 54.1167 262.402C44.8607 262.147 36.7044 255.261 35.177 246.243C34.9021 244.815 35.177 244.101 35.3196 242.943C35.13 243.839 35.0244 244.751 35.0039 245.667V245.769C35.0119 250.716 36.8709 255.48 40.214 259.121C43.5571 262.762 48.1413 265.015 53.0616 265.435C57.9818 265.855 62.8805 264.412 66.7906 261.391C70.7006 258.369 73.3378 253.989 74.1815 249.115C74.2172 248.86 74.2426 248.605 74.2732 248.35C74.6819 244.985 74.2443 241.571 73.0003 238.419L72.9953 238.424Z" fill="url(#paint2_radial)"/>
<path d="M72.9953 238.424C72.1297 236.353 70.3987 234.124 69.0342 233.425C70.0058 235.308 70.6807 237.329 71.0351 239.419V239.459C72.5573 243.819 72.3383 248.6 70.4241 252.802C68.1636 257.663 62.6854 262.646 54.1167 262.402C44.8607 262.147 36.7044 255.261 35.177 246.243C34.9021 244.815 35.177 244.101 35.3196 242.943C35.13 243.839 35.0244 244.751 35.0039 245.667V245.769C35.0119 250.716 36.8709 255.48 40.214 259.121C43.5571 262.762 48.1413 265.015 53.0616 265.435C57.9818 265.855 62.8805 264.412 66.7906 261.391C70.7006 258.369 73.3378 253.989 74.1815 249.115C74.2172 248.86 74.2426 248.605 74.2732 248.35C74.6819 244.985 74.2443 241.571 73.0003 238.419L72.9953 238.424Z" fill="url(#paint3_radial)"/>
<path d="M63.4 240.744C63.4509 240.775 63.4814 240.806 63.5222 240.836C63.0267 239.955 62.4097 239.148 61.6893 238.439C55.5593 232.298 60.0855 225.116 60.8492 224.754V224.739C55.9005 227.646 54.2152 233.032 54.0625 235.72C54.2916 235.705 54.5207 235.69 54.7549 235.69C56.5125 235.692 58.2382 236.161 59.7565 237.048C61.2749 237.935 62.5319 239.208 63.4 240.739V240.744Z" fill="url(#paint4_radial)"/>
<path d="M54.7695 241.979C54.7339 242.463 53.0028 244.162 52.3919 244.162C46.7813 244.162 45.875 247.559 45.875 247.559C46.1194 250.425 48.1152 252.782 50.5183 254.036L50.8543 254.189C51.0478 254.274 51.2412 254.354 51.4347 254.429C52.2603 254.723 53.1253 254.892 54.0007 254.929C63.8371 255.388 65.7413 243.147 58.644 239.592C60.3182 239.376 62.0128 239.79 63.3993 240.755C62.5313 239.223 61.2742 237.95 59.7559 237.063C58.2375 236.176 56.5118 235.708 54.7542 235.705C54.52 235.705 54.296 235.715 54.0618 235.73C52.0814 235.868 50.1883 236.6 48.6294 237.832C48.9349 238.087 49.2709 238.424 49.9888 239.133C51.3278 240.459 54.7593 241.821 54.7746 241.989L54.7695 241.979Z" fill="url(#paint5_radial)"/>
<path d="M54.7695 241.979C54.7339 242.463 53.0028 244.162 52.3919 244.162C46.7813 244.162 45.875 247.559 45.875 247.559C46.1194 250.425 48.1152 252.782 50.5183 254.036L50.8543 254.189C51.0478 254.274 51.2412 254.354 51.4347 254.429C52.2603 254.723 53.1253 254.892 54.0007 254.929C63.8371 255.388 65.7413 243.147 58.644 239.592C60.3182 239.376 62.0128 239.79 63.3993 240.755C62.5313 239.223 61.2742 237.95 59.7559 237.063C58.2375 236.176 56.5118 235.708 54.7542 235.705C54.52 235.705 54.296 235.715 54.0618 235.73C52.0814 235.868 50.1883 236.6 48.6294 237.832C48.9349 238.087 49.2709 238.424 49.9888 239.133C51.3278 240.459 54.7593 241.821 54.7746 241.989L54.7695 241.979Z" fill="url(#paint6_radial)"/>
<path d="M47.7133 237.164C47.8661 237.266 48.0035 237.353 48.1206 237.434C47.6701 235.853 47.6525 234.179 48.0697 232.589C46.247 233.473 44.6277 234.727 43.3145 236.271C43.4163 236.271 46.2674 236.22 47.7133 237.159V237.164Z" fill="url(#paint7_radial)"/>
<path d="M35.1794 246.243C36.7068 255.256 44.8529 262.142 54.1191 262.402C62.6878 262.647 68.1609 257.658 70.4215 252.802C72.3357 248.6 72.5546 243.82 71.0324 239.459V239.439V239.419L71.0426 239.454C71.735 244.035 69.4134 248.467 65.7782 251.466L65.7629 251.492C58.686 257.271 51.9146 254.98 50.5399 254.042C50.4381 253.998 50.3414 253.95 50.2497 253.899C46.1258 251.925 44.4151 248.156 44.7817 244.922C43.802 244.937 42.839 244.667 42.0094 244.144C41.1799 243.622 40.5193 242.87 40.1078 241.979C41.1918 241.314 42.4276 240.938 43.6976 240.887C44.9676 240.837 46.2295 241.112 47.363 241.688C49.6982 242.749 52.3548 242.854 54.7657 241.979C54.7555 241.816 51.324 240.449 49.9799 239.123C49.2671 238.419 48.9311 238.082 48.6256 237.827C48.463 237.689 48.293 237.56 48.1165 237.44C47.9994 237.358 47.8721 237.271 47.7092 237.169C46.2734 236.231 43.4121 236.282 43.3154 236.282H43.3052C42.5262 235.292 42.5771 232.018 42.6229 231.334C42.3907 231.426 42.1688 231.542 41.9611 231.681C41.2683 232.177 40.6208 232.733 40.0264 233.344C39.3497 234.029 38.7315 234.769 38.1782 235.558C36.9097 237.359 36.0099 239.394 35.5307 241.546C35.5206 241.586 34.818 244.657 35.1642 246.248L35.1794 246.243Z" fill="url(#paint8_radial)"/>
<path d="M61.6938 238.439C62.4142 239.148 63.0312 239.955 63.5267 240.836C63.6285 240.923 63.7303 241.005 63.822 241.081C68.3023 245.213 65.9603 251.053 65.7821 251.471C69.4122 248.472 71.7389 244.04 71.0414 239.459C68.8013 233.884 65.0235 231.64 61.928 226.744C61.7752 226.499 61.6225 226.249 61.4698 225.989C61.3832 225.836 61.317 225.703 61.2508 225.581C61.12 225.33 61.0192 225.065 60.9505 224.79C60.9507 224.778 60.9468 224.767 60.9393 224.757C60.9319 224.748 60.9214 224.742 60.9097 224.739C60.8933 224.733 60.8752 224.733 60.8588 224.739V224.749C60.8588 224.76 60.8435 224.749 60.8435 224.749C60.0798 225.117 55.5486 232.298 61.6887 238.439H61.6938Z" fill="url(#paint9_radial)"/>
<path d="M63.8168 241.081C63.7303 241 63.6285 240.918 63.5216 240.837L63.3994 240.745C62.0108 239.781 60.3142 239.368 58.639 239.587C65.7363 243.147 63.8321 255.399 53.9957 254.929C53.1222 254.893 52.259 254.727 51.4348 254.435C51.2413 254.367 51.0478 254.288 50.8544 254.2C50.7424 254.149 50.6354 254.098 50.5234 254.047H50.5387C51.9134 254.986 58.6848 257.281 65.7719 251.497L65.7821 251.476C65.9603 251.068 68.3023 245.218 63.827 241.092L63.8168 241.081Z" fill="url(#paint10_radial)"/>
<path d="M45.872 247.559C45.872 247.559 46.7884 244.162 52.3888 244.162C52.9998 244.162 54.7309 242.463 54.7716 241.969C52.3583 242.847 49.6974 242.745 47.3586 241.683C46.2252 241.107 44.9633 240.831 43.6933 240.882C42.4233 240.933 41.1874 241.309 40.1035 241.974C40.5165 242.865 41.1789 243.617 42.0104 244.139C42.8419 244.66 43.8067 244.929 44.7875 244.912C44.4159 248.145 46.1214 251.915 50.2505 253.889C50.3421 253.94 50.4287 253.98 50.5203 254.026C48.1121 252.777 46.1214 250.42 45.872 247.549V247.559Z" fill="url(#paint11_radial)"/>
<path d="M72.9937 238.424C72.1282 236.354 70.3972 234.125 69.0327 233.426C70.0042 235.308 70.6792 237.33 71.0336 239.419V239.455C68.8087 233.88 65.0258 231.636 61.9354 226.739C61.7725 226.494 61.6197 226.244 61.467 225.984C61.3804 225.831 61.3143 225.699 61.2481 225.576C61.1194 225.327 61.0203 225.063 60.9528 224.791C60.953 224.779 60.9491 224.767 60.9416 224.758C60.9342 224.748 60.9237 224.742 60.912 224.74C60.8957 224.733 60.8775 224.733 60.8611 224.74V224.75C60.8611 224.76 60.8459 224.75 60.8459 224.75V224.74C55.8971 227.647 54.2119 233.033 54.0591 235.721C54.2883 235.706 54.5174 235.691 54.7516 235.691C56.5092 235.693 58.2348 236.162 59.7532 237.048C61.2715 237.935 62.5286 239.209 63.3966 240.74C62.0087 239.779 60.3142 239.368 58.6413 239.587C65.7386 243.148 63.8345 255.399 53.998 254.93C53.1228 254.894 52.2579 254.727 51.432 254.435C51.2386 254.367 51.0451 254.289 50.8516 254.2L50.5156 254.047H50.5309C50.4392 254.003 50.3459 253.956 50.2508 253.905C50.3425 253.956 50.429 254.007 50.5207 254.042C48.1125 252.793 46.1218 250.436 45.8723 247.565C45.8723 247.565 46.7888 244.173 52.3892 244.173C53.0001 244.173 54.7312 242.474 54.7719 241.98C54.7617 241.827 51.3302 240.449 49.9861 239.133C49.2733 238.419 48.9322 238.088 48.6318 237.833C48.4692 237.694 48.2992 237.565 48.1227 237.445C47.6721 235.864 47.6545 234.19 48.0718 232.6C46.2491 233.484 44.6297 234.738 43.3165 236.282C42.5273 235.293 42.5833 232.018 42.6292 231.335C42.3969 231.427 42.175 231.543 41.9673 231.682C41.2747 232.176 40.6273 232.73 40.0326 233.339C39.361 234.026 38.7479 234.768 38.1997 235.558C36.9312 237.359 36.0314 239.394 35.5522 241.546L35.5115 241.674C35.4759 241.842 35.3078 242.729 35.2824 242.918C35.1305 243.829 35.0336 244.749 34.9922 245.672V245.774C35.0002 250.721 36.8592 255.486 40.2023 259.127C43.5454 262.768 48.1296 265.021 53.0498 265.441C57.9701 265.861 62.8688 264.418 66.7788 261.396C70.6889 258.375 73.3261 253.995 74.1698 249.12C74.2055 248.865 74.2309 248.61 74.2615 248.355C74.6702 244.99 74.2326 241.577 72.9886 238.424H72.9937Z" fill="url(#paint12_linear)"/>
<rect x="26.6602" y="37.4429" width="80.9822" height="12.0122" rx="6.0061" fill="#D9DBE9"/>
<defs>
<filter id="filter0_d" x="11.3221" y="61.7991" width="85.6386" height="85.7409" filterUnits="userSpaceOnUse" color-interpolation-filters="sRGB">
<feFlood flood-opacity="0" result="BackgroundImageFix"/>
<feColorMatrix in="SourceAlpha" type="matrix" values="0 0 0 0 0 0 0 0 0 0 0 0 0 0 0 0 0 0 127 0" result="hardAlpha"/>
<feOffset dy="4.50966"/>
<feGaussianBlur stdDeviation="7.32821"/>
<feColorMatrix type="matrix" values="0 0 0 0 0.0423448 0 0 0 0 0.0391396 0 0 0 0 0.199398 0 0 0 0.07 0"/>
<feBlend mode="normal" in2="BackgroundImageFix" result="effect1_dropShadow"/>
<feBlend mode="normal" in="SourceGraphic" in2="effect1_dropShadow" result="shape"/>
</filter>
<filter id="filter1_d" x="11.3221" y="134.243" width="85.6386" height="85.7409" filterUnits="userSpaceOnUse" color-interpolation-filters="sRGB">
<feFlood flood-opacity="0" result="BackgroundImageFix"/>
<feColorMatrix in="SourceAlpha" type="matrix" values="0 0 0 0 0 0 0 0 0 0 0 0 0 0 0 0 0 0 127 0" result="hardAlpha"/>
<feOffset dy="4.50966"/>
<feGaussianBlur stdDeviation="7.32821"/>
<feColorMatrix type="matrix" values="0 0 0 0 0.0423448 0 0 0 0 0.0391396 0 0 0 0 0.199398 0 0 0 0.07 0"/>
<feBlend mode="normal" in2="BackgroundImageFix" result="effect1_dropShadow"/>
<feBlend mode="normal" in="SourceGraphic" in2="effect1_dropShadow" result="shape"/>
</filter>
<filter id="filter2_f" x="41.8466" y="160.967" width="25.8315" height="25.0213" filterUnits="userSpaceOnUse" color-interpolation-filters="sRGB">
<feFlood flood-opacity="0" result="BackgroundImageFix"/>
<feBlend mode="normal" in="SourceGraphic" in2="BackgroundImageFix" result="shape"/>
<feGaussianBlur stdDeviation="0.22416" result="effect1_foregroundBlur"/>
</filter>
<filter id="filter3_d" x="11.951" y="206.688" width="85.6386" height="85.7409" filterUnits="userSpaceOnUse" color-interpolation-filters="sRGB">
<feFlood flood-opacity="0" result="BackgroundImageFix"/>
<feColorMatrix in="SourceAlpha" type="matrix" values="0 0 0 0 0 0 0 0 0 0 0 0 0 0 0 0 0 0 127 0" result="hardAlpha"/>
<feOffset dy="4.50966"/>
<feGaussianBlur stdDeviation="7.32821"/>
<feColorMatrix type="matrix" values="0 0 0 0 0.0423448 0 0 0 0 0.0391396 0 0 0 0 0.199398 0 0 0 0.07 0"/>
<feBlend mode="normal" in2="BackgroundImageFix" result="effect1_dropShadow"/>
<feBlend mode="normal" in="SourceGraphic" in2="effect1_dropShadow" result="shape"/>
</filter>
<radialGradient id="paint0_radial" cx="0" cy="0" r="1" gradientUnits="userSpaceOnUse" gradientTransform="translate(54.2301 169.807) scale(20.7791 20.8168)">
<stop stop-color="#06C2E7"/>
<stop offset="0.25" stop-color="#0DB8EC"/>
<stop offset="0.5" stop-color="#12AEF1"/>
<stop offset="0.75" stop-color="#1F86F9"/>
<stop offset="1" stop-color="#107DDD"/>
</radialGradient>
<linearGradient id="paint1_linear" x1="70.4012" y1="231.055" x2="36.5737" y2="261.554" gradientUnits="userSpaceOnUse">
<stop offset="0.048" stop-color="#FFF44F"/>
<stop offset="0.111" stop-color="#FFE847"/>
<stop offset="0.225" stop-color="#FFC830"/>
<stop offset="0.368" stop-color="#FF980E"/>
<stop offset="0.401" stop-color="#FF8B16"/>
<stop offset="0.462" stop-color="#FF672A"/>
<stop offset="0.534" stop-color="#FF3647"/>
<stop offset="0.705" stop-color="#E31587"/>
</linearGradient>
<radialGradient id="paint2_radial" cx="0" cy="0" r="1" gradientUnits="userSpaceOnUse" gradientTransform="translate(69.5296 229.268) scale(41.1363 41.211)">
<stop offset="0.129" stop-color="#FFBD4F"/>
<stop offset="0.186" stop-color="#FFAC31"/>
<stop offset="0.247" stop-color="#FF9D17"/>
<stop offset="0.283" stop-color="#FF980E"/>
<stop offset="0.403" stop-color="#FF563B"/>
<stop offset="0.467" stop-color="#FF3750"/>
<stop offset="0.71" stop-color="#F5156C"/>
<stop offset="0.782" stop-color="#EB0878"/>
<stop offset="0.86" stop-color="#E50080"/>
</radialGradient>
<radialGradient id="paint3_radial" cx="0" cy="0" r="1" gradientUnits="userSpaceOnUse" gradientTransform="translate(54.498 246.116) scale(41.1363 41.211)">
<stop offset="0.3" stop-color="#960E18"/>
<stop offset="0.351" stop-color="#B11927" stop-opacity="0.74"/>
<stop offset="0.435" stop-color="#DB293D" stop-opacity="0.343"/>
<stop offset="0.497" stop-color="#F5334B" stop-opacity="0.094"/>
<stop offset="0.53" stop-color="#FF3750" stop-opacity="0"/>
</radialGradient>
<radialGradient id="paint4_radial" cx="0" cy="0" r="1" gradientUnits="userSpaceOnUse" gradientTransform="translate(59.4542 219.915) scale(29.8015 29.8556)">
<stop offset="0.132" stop-color="#FFF44F"/>
<stop offset="0.252" stop-color="#FFDC3E"/>
<stop offset="0.506" stop-color="#FF9D12"/>
<stop offset="0.526" stop-color="#FF980E"/>
</radialGradient>
<radialGradient id="paint5_radial" cx="0" cy="0" r="1" gradientUnits="userSpaceOnUse" gradientTransform="translate(49.944 256.88) scale(19.5868 19.6223)">
<stop offset="0.353" stop-color="#3A8EE6"/>
<stop offset="0.472" stop-color="#5C79F0"/>
<stop offset="0.669" stop-color="#9059FF"/>
<stop offset="1" stop-color="#C139E6"/>
</radialGradient>
<radialGradient id="paint6_radial" cx="0" cy="0" r="1" gradientUnits="userSpaceOnUse" gradientTransform="translate(56.742 242.738) rotate(-13.6153) scale(10.3858 12.1789)">
<stop offset="0.206" stop-color="#9059FF" stop-opacity="0"/>
<stop offset="0.278" stop-color="#8C4FF3" stop-opacity="0.064"/>
<stop offset="0.747" stop-color="#7716A8" stop-opacity="0.45"/>
<stop offset="0.975" stop-color="#6E008B" stop-opacity="0.6"/>
</radialGradient>
<radialGradient id="paint7_radial" cx="0" cy="0" r="1" gradientUnits="userSpaceOnUse" gradientTransform="translate(53.9751 227.581) scale(14.0907 14.1163)">
<stop stop-color="#FFE226"/>
<stop offset="0.121" stop-color="#FFDB27"/>
<stop offset="0.295" stop-color="#FFC82A"/>
<stop offset="0.502" stop-color="#FFA930"/>
<stop offset="0.732" stop-color="#FF7E37"/>
<stop offset="0.792" stop-color="#FF7139"/>
</radialGradient>
<radialGradient id="paint8_radial" cx="0" cy="0" r="1" gradientUnits="userSpaceOnUse" gradientTransform="translate(65.0517 218.628) scale(60.1187 60.2279)">
<stop offset="0.113" stop-color="#FFF44F"/>
<stop offset="0.456" stop-color="#FF980E"/>
<stop offset="0.622" stop-color="#FF5634"/>
<stop offset="0.716" stop-color="#FF3647"/>
<stop offset="0.904" stop-color="#E31587"/>
</radialGradient>
<radialGradient id="paint9_radial" cx="0" cy="0" r="1" gradientUnits="userSpaceOnUse" gradientTransform="translate(59.9834 221.977) rotate(83.9868) scale(44.1416 28.9184)">
<stop stop-color="#FFF44F"/>
<stop offset="0.06" stop-color="#FFE847"/>
<stop offset="0.168" stop-color="#FFC830"/>
<stop offset="0.304" stop-color="#FF980E"/>
<stop offset="0.356" stop-color="#FF8B16"/>
<stop offset="0.455" stop-color="#FF672A"/>
<stop offset="0.57" stop-color="#FF3647"/>
<stop offset="0.737" stop-color="#E31587"/>
</radialGradient>
<radialGradient id="paint10_radial" cx="0" cy="0" r="1" gradientUnits="userSpaceOnUse" gradientTransform="translate(53.6429 232.81) scale(37.5331 37.6013)">
<stop offset="0.137" stop-color="#FFF44F"/>
<stop offset="0.48" stop-color="#FF980E"/>
<stop offset="0.592" stop-color="#FF5634"/>
<stop offset="0.655" stop-color="#FF3647"/>
<stop offset="0.904" stop-color="#E31587"/>
</radialGradient>
<radialGradient id="paint11_radial" cx="0" cy="0" r="1" gradientUnits="userSpaceOnUse" gradientTransform="translate(63.5526 235.011) scale(41.0797 41.1543)">
<stop offset="0.094" stop-color="#FFF44F"/>
<stop offset="0.231" stop-color="#FFE141"/>
<stop offset="0.509" stop-color="#FFAF1E"/>
<stop offset="0.626" stop-color="#FF980E"/>
</radialGradient>
<linearGradient id="paint12_linear" x1="69.9953" y1="230.892" x2="41.1752" y2="257.807" gradientUnits="userSpaceOnUse">
<stop offset="0.167" stop-color="#FFF44F" stop-opacity="0.8"/>
<stop offset="0.266" stop-color="#FFF44F" stop-opacity="0.634"/>
<stop offset="0.489" stop-color="#FFF44F" stop-opacity="0.217"/>
<stop offset="0.6" stop-color="#FFF44F" stop-opacity="0"/>
</linearGradient>
</defs>
</svg>
