<svg width="73" height="73" viewBox="0 0 73 73" fill="none" xmlns="http://www.w3.org/2000/svg">
<rect width="73" height="73" fill="#FFC147"/>
<path fill-rule="evenodd" clip-rule="evenodd" d="M37.2337 14.6579C37.5924 14.336 38.0668 14.1672 38.5525 14.1889C48.8192 14.4962 57.3996 21.9493 58.9547 31.9106C58.9645 31.97 58.9645 32.0307 58.9547 32.0902C58.9882 32.5615 58.8289 33.0265 58.512 33.3823C58.1952 33.7381 57.7469 33.9554 57.2664 33.9861L40.0171 35.1236C39.4466 35.1742 38.8809 34.9865 38.4589 34.6066C38.0368 34.2267 37.7976 33.6899 37.7999 33.1279L36.6404 16.1846V15.9052C36.6615 15.4286 36.875 14.9799 37.2337 14.6579ZM36.0506 39.5547L51.0013 38.5968L51.103 38.6367C51.745 38.6472 52.3565 38.9075 52.8028 39.3604C53.2491 39.8133 53.4938 40.4216 53.4829 41.0515C52.8938 49.6365 46.5996 56.8096 38.0342 58.6575C29.4687 60.5055 20.6881 56.5848 16.4824 49.0342C15.2457 46.8596 14.4643 44.4644 14.1838 41.9895C14.0751 41.2561 14.0275 40.5152 14.0414 39.7742C14.0698 30.6454 20.5692 22.7659 29.6634 20.8352C30.7644 20.6291 31.8682 21.1788 32.3485 22.1723C32.468 22.3526 32.5637 22.5471 32.6332 22.751C32.8037 25.3825 32.9805 27.989 33.1566 30.5846C33.2957 32.6346 33.4343 34.6777 33.5689 36.7208C33.562 37.2021 33.6376 37.6811 33.7927 38.1378C34.1577 39.0363 35.0661 39.6063 36.0506 39.5547Z" fill="white"/>
</svg>
