<svg width="306" height="351" viewBox="0 0 306 351" fill="none" xmlns="http://www.w3.org/2000/svg">
<rect width="306" height="351" fill="white"/>
<rect x="109" y="226" width="91" height="15" rx="7.5" fill="#D9DBE9"/>
<path d="M130.86 193.029H134.89V199.692H130.86V207H123.875V199.692H105.444V193.029L117.212 169.387H125.003L113.289 193.029H123.875V184.647H130.86V193.029ZM161.842 187.387C164.994 189.178 166.57 192.062 166.57 196.038C166.57 199.656 165.317 202.504 162.809 204.582C160.337 206.66 156.934 207.699 152.6 207.699C148.229 207.699 144.79 206.66 142.283 204.582C139.811 202.504 138.575 199.656 138.575 196.038C138.575 192.062 140.169 189.178 143.358 187.387C140.742 185.775 139.435 183.232 139.435 179.757C139.435 176.318 140.599 173.614 142.928 171.643C145.292 169.673 148.516 168.688 152.6 168.688C156.648 168.688 159.836 169.673 162.164 171.643C164.528 173.614 165.711 176.318 165.711 179.757C165.711 183.232 164.421 185.775 161.842 187.387ZM152.6 174.975C150.629 174.975 149.071 175.405 147.925 176.265C146.814 177.124 146.259 178.288 146.259 179.757C146.259 181.226 146.814 182.39 147.925 183.25C149.071 184.074 150.629 184.486 152.6 184.486C154.57 184.486 156.11 184.074 157.221 183.25C158.331 182.39 158.886 181.226 158.886 179.757C158.886 178.288 158.331 177.124 157.221 176.265C156.11 175.405 154.57 174.975 152.6 174.975ZM152.6 201.251C154.821 201.251 156.594 200.749 157.919 199.746C159.28 198.743 159.961 197.364 159.961 195.609C159.961 193.889 159.298 192.564 157.973 191.632C156.648 190.701 154.856 190.235 152.6 190.235C150.343 190.235 148.534 190.701 147.173 191.632C145.847 192.564 145.184 193.889 145.184 195.609C145.184 197.364 145.865 198.743 147.226 199.746C148.588 200.749 150.379 201.251 152.6 201.251ZM179.175 188.462C177.384 188.462 175.79 188.086 174.393 187.334C173.032 186.546 171.975 185.471 171.223 184.11C170.471 182.748 170.094 181.244 170.094 179.596C170.094 177.912 170.471 176.39 171.223 175.029C171.975 173.667 173.032 172.593 174.393 171.805C175.79 171.017 177.384 170.623 179.175 170.623C180.967 170.623 182.543 171.017 183.904 171.805C185.301 172.593 186.376 173.667 187.128 175.029C187.916 176.39 188.31 177.912 188.31 179.596C188.31 181.244 187.934 182.748 187.182 184.11C186.429 185.471 185.355 186.546 183.958 187.334C182.561 188.086 180.967 188.462 179.175 188.462ZM179.659 207H175.683L198.573 171.16H202.603L179.659 207ZM179.175 184.378C180.429 184.378 181.468 183.948 182.292 183.089C183.116 182.193 183.528 181.029 183.528 179.596C183.528 178.091 183.116 176.909 182.292 176.05C181.468 175.154 180.429 174.706 179.175 174.706C177.922 174.706 176.883 175.154 176.059 176.05C175.271 176.909 174.877 178.091 174.877 179.596C174.877 181.029 175.271 182.193 176.059 183.089C176.883 183.948 177.922 184.378 179.175 184.378ZM198.842 207.645C197.051 207.645 195.457 207.269 194.06 206.516C192.698 205.728 191.642 204.654 190.889 203.292C190.137 201.931 189.761 200.427 189.761 198.779C189.761 197.095 190.137 195.573 190.889 194.211C191.642 192.85 192.698 191.776 194.06 190.987C195.457 190.199 197.051 189.805 198.842 189.805C200.633 189.805 202.209 190.199 203.57 190.987C204.932 191.776 205.988 192.85 206.741 194.211C207.529 195.573 207.923 197.095 207.923 198.779C207.923 200.427 207.547 201.931 206.794 203.292C206.042 204.654 204.967 205.728 203.57 206.516C202.209 207.269 200.633 207.645 198.842 207.645ZM198.842 203.561C200.096 203.561 201.134 203.131 201.958 202.271C202.782 201.376 203.194 200.212 203.194 198.779C203.194 197.274 202.782 196.092 201.958 195.232C201.134 194.337 200.096 193.889 198.842 193.889C197.552 193.889 196.495 194.337 195.672 195.232C194.883 196.092 194.489 197.274 194.489 198.779C194.489 200.212 194.883 201.376 195.672 202.271C196.495 203.131 197.552 203.561 198.842 203.561Z" fill="#0B0A33"/>
<path d="M54.246 50.8H57.652V62.864C57.652 64.1293 57.3487 65.256 56.742 66.244C56.1353 67.2147 55.3033 67.9773 54.246 68.532C53.1887 69.0693 51.9927 69.338 50.658 69.338C49.3233 69.338 48.1273 69.0693 47.07 68.532C46.0127 67.9773 45.1807 67.2147 44.574 66.244C43.9673 65.256 43.664 64.1293 43.664 62.864V50.8H47.07V62.864C47.07 63.8 47.408 64.554 48.084 65.126C48.7773 65.6807 49.6353 65.958 50.658 65.958C51.75 65.958 52.6167 65.6807 53.258 65.126C53.9167 64.5713 54.246 63.8173 54.246 62.864V50.8ZM63.2806 59.64C63.2806 60.004 63.4799 60.2813 63.8786 60.472C64.2946 60.6453 64.9446 60.8273 65.8286 61.018C66.8339 61.226 67.6746 61.46 68.3506 61.72C69.0266 61.98 69.6073 62.396 70.0926 62.968C70.5953 63.5227 70.8466 64.2767 70.8466 65.23C70.8466 66.0793 70.5866 66.816 70.0666 67.44C69.5639 68.064 68.8879 68.5407 68.0386 68.87C67.1893 69.182 66.2619 69.338 65.2566 69.338C63.8873 69.338 62.7086 69.078 61.7206 68.558C60.7499 68.038 60.0306 67.2927 59.5626 66.322L62.2146 64.944C62.6826 66.14 63.6966 66.738 65.2566 66.738C65.9326 66.738 66.5133 66.608 66.9986 66.348C67.4839 66.088 67.7266 65.7153 67.7266 65.23C67.7266 64.814 67.5013 64.5107 67.0506 64.32C66.6173 64.112 65.9066 63.8867 64.9186 63.644C63.8959 63.4013 63.0639 63.1587 62.4226 62.916C61.7813 62.6733 61.2266 62.3007 60.7586 61.798C60.2906 61.278 60.0566 60.5933 60.0566 59.744C60.0566 58.912 60.2906 58.1927 60.7586 57.586C61.2266 56.962 61.8593 56.4853 62.6566 56.156C63.4539 55.8267 64.3293 55.662 65.2826 55.662C66.4093 55.662 67.4146 55.896 68.2986 56.364C69.1999 56.832 69.8933 57.4993 70.3786 58.366L67.7526 59.692C67.3019 58.7213 66.4786 58.236 65.2826 58.236C64.6759 58.236 64.1906 58.366 63.8266 58.626C63.4626 58.8687 63.2806 59.2067 63.2806 59.64ZM78.9478 55.662C80.1958 55.662 81.3138 55.974 82.3018 56.598C83.3072 57.2047 84.0872 58.028 84.6418 59.068C85.1965 60.108 85.4738 61.2607 85.4738 62.526C85.4738 62.942 85.4392 63.3233 85.3698 63.67H75.3338C75.5938 64.5887 76.0532 65.308 76.7118 65.828C77.3705 66.3307 78.2112 66.582 79.2338 66.582C79.8578 66.582 80.4558 66.4433 81.0278 66.166C81.6172 65.8887 82.0592 65.5333 82.3538 65.1L84.8238 66.556C84.2172 67.4573 83.4285 68.1507 82.4578 68.636C81.5045 69.104 80.4038 69.338 79.1558 69.338C77.7692 69.338 76.5385 69.0433 75.4638 68.454C74.3892 67.8647 73.5572 67.05 72.9678 66.01C72.3958 64.97 72.1098 63.8 72.1098 62.5C72.1098 61.2173 72.3958 60.056 72.9678 59.016C73.5572 57.976 74.3718 57.1613 75.4118 56.572C76.4518 55.9653 77.6305 55.662 78.9478 55.662ZM82.4578 61.148C82.3192 60.316 81.9292 59.666 81.2878 59.198C80.6638 58.7127 79.8752 58.47 78.9218 58.47C78.2632 58.47 77.6565 58.5913 77.1018 58.834C76.5645 59.0767 76.1312 59.406 75.8018 59.822C75.4725 60.238 75.2992 60.68 75.2818 61.148H82.4578ZM95.2356 55.74L95.0016 58.782C94.8976 58.7473 94.7156 58.73 94.4556 58.73C93.3809 58.73 92.4883 59.042 91.7776 59.666C91.0843 60.29 90.7376 61.1393 90.7376 62.214V69H87.5136V56H90.7376V58.184C91.0323 57.4907 91.5349 56.91 92.2456 56.442C92.9563 55.974 93.8143 55.74 94.8196 55.74H95.2356ZM99.5892 59.64C99.5892 60.004 99.7885 60.2813 100.187 60.472C100.603 60.6453 101.253 60.8273 102.137 61.018C103.143 61.226 103.983 61.46 104.659 61.72C105.335 61.98 105.916 62.396 106.401 62.968C106.904 63.5227 107.155 64.2767 107.155 65.23C107.155 66.0793 106.895 66.816 106.375 67.44C105.873 68.064 105.197 68.5407 104.347 68.87C103.498 69.182 102.571 69.338 101.565 69.338C100.196 69.338 99.0172 69.078 98.0292 68.558C97.0585 68.038 96.3392 67.2927 95.8712 66.322L98.5232 64.944C98.9912 66.14 100.005 66.738 101.565 66.738C102.241 66.738 102.822 66.608 103.307 66.348C103.793 66.088 104.035 65.7153 104.035 65.23C104.035 64.814 103.81 64.5107 103.359 64.32C102.926 64.112 102.215 63.8867 101.227 63.644C100.205 63.4013 99.3725 63.1587 98.7312 62.916C98.0899 62.6733 97.5352 62.3007 97.0672 61.798C96.5992 61.278 96.3652 60.5933 96.3652 59.744C96.3652 58.912 96.5992 58.1927 97.0672 57.586C97.5352 56.962 98.1679 56.4853 98.9652 56.156C99.7625 55.8267 100.638 55.662 101.591 55.662C102.718 55.662 103.723 55.896 104.607 56.364C105.509 56.832 106.202 57.4993 106.687 58.366L104.061 59.692C103.611 58.7213 102.787 58.236 101.591 58.236C100.985 58.236 100.499 58.366 100.135 58.626C99.7712 58.8687 99.5892 59.2067 99.5892 59.64ZM124.08 55.662C125.397 55.662 126.55 55.9653 127.538 56.572C128.526 57.1613 129.28 57.976 129.8 59.016C130.337 60.056 130.606 61.226 130.606 62.526C130.606 63.826 130.337 64.996 129.8 66.036C129.28 67.076 128.526 67.8907 127.538 68.48C126.55 69.0693 125.397 69.364 124.08 69.364C123.231 69.364 122.416 69.1993 121.636 68.87C120.856 68.5407 120.163 68.0813 119.556 67.492V69H116.332V50.8H119.556V57.534C120.163 56.9447 120.856 56.4853 121.636 56.156C122.433 55.8267 123.248 55.662 124.08 55.662ZM123.664 66.27C124.756 66.27 125.649 65.9233 126.342 65.23C127.053 64.5193 127.408 63.618 127.408 62.526C127.408 61.434 127.053 60.5413 126.342 59.848C125.649 59.1373 124.756 58.782 123.664 58.782C122.589 58.782 121.679 59.1287 120.934 59.822C120.206 60.5153 119.842 61.408 119.842 62.5C119.842 63.228 120.007 63.878 120.336 64.45C120.683 65.022 121.142 65.4727 121.714 65.802C122.303 66.114 122.953 66.27 123.664 66.27ZM141.113 56H144.493L139.943 69.026C139.267 70.8113 138.331 72.146 137.135 73.03C135.956 73.9313 134.561 74.3213 132.949 74.2V71.08C133.053 71.0973 133.209 71.106 133.417 71.106C134.804 71.106 135.887 70.2653 136.667 68.584L130.947 56H134.405L138.227 64.268L141.113 56ZM163.162 50.8H166.386V69H163.162V67.752C162.573 68.272 161.914 68.6707 161.186 68.948C160.458 69.2253 159.704 69.364 158.924 69.364C157.607 69.364 156.454 69.0693 155.466 68.48C154.478 67.8907 153.715 67.076 153.178 66.036C152.658 64.996 152.398 63.826 152.398 62.526C152.398 61.226 152.658 60.056 153.178 59.016C153.715 57.976 154.478 57.1613 155.466 56.572C156.454 55.9653 157.607 55.662 158.924 55.662C159.704 55.662 160.449 55.8093 161.16 56.104C161.888 56.3813 162.555 56.7713 163.162 57.274V50.8ZM159.34 66.27C160.051 66.27 160.692 66.114 161.264 65.802C161.853 65.4727 162.313 65.022 162.642 64.45C162.989 63.878 163.162 63.228 163.162 62.5C163.162 61.408 162.789 60.5153 162.044 59.822C161.316 59.1287 160.415 58.782 159.34 58.782C158.248 58.782 157.347 59.1373 156.636 59.848C155.943 60.5413 155.596 61.434 155.596 62.526C155.596 63.618 155.943 64.5193 156.636 65.23C157.347 65.9233 158.248 66.27 159.34 66.27ZM175.305 55.662C176.553 55.662 177.671 55.974 178.659 56.598C179.665 57.2047 180.445 58.028 180.999 59.068C181.554 60.108 181.831 61.2607 181.831 62.526C181.831 62.942 181.797 63.3233 181.727 63.67H171.691C171.951 64.5887 172.411 65.308 173.069 65.828C173.728 66.3307 174.569 66.582 175.591 66.582C176.215 66.582 176.813 66.4433 177.385 66.166C177.975 65.8887 178.417 65.5333 178.711 65.1L181.181 66.556C180.575 67.4573 179.786 68.1507 178.815 68.636C177.862 69.104 176.761 69.338 175.513 69.338C174.127 69.338 172.896 69.0433 171.821 68.454C170.747 67.8647 169.915 67.05 169.325 66.01C168.753 64.97 168.467 63.8 168.467 62.5C168.467 61.2173 168.753 60.056 169.325 59.016C169.915 57.976 170.729 57.1613 171.769 56.572C172.809 55.9653 173.988 55.662 175.305 55.662ZM178.815 61.148C178.677 60.316 178.287 59.666 177.645 59.198C177.021 58.7127 176.233 58.47 175.279 58.47C174.621 58.47 174.014 58.5913 173.459 58.834C172.922 59.0767 172.489 59.406 172.159 59.822C171.83 60.238 171.657 60.68 171.639 61.148H178.815ZM188.743 65.1L192.149 56H195.555L190.719 69H186.767L181.931 56H185.337L188.743 65.1ZM199.043 53.842C198.436 53.842 197.96 53.6773 197.613 53.348C197.266 53.0187 197.093 52.568 197.093 51.996C197.093 51.4067 197.266 50.9473 197.613 50.618C197.96 50.2887 198.436 50.124 199.043 50.124C199.65 50.124 200.126 50.2887 200.473 50.618C200.82 50.9473 200.993 51.4067 200.993 51.996C200.993 52.5507 200.811 53.0013 200.447 53.348C200.1 53.6773 199.632 53.842 199.043 53.842ZM197.405 69V56H200.629V69H197.405ZM215.02 66.478C214.378 67.362 213.572 68.064 212.602 68.584C211.631 69.104 210.582 69.364 209.456 69.364C208.225 69.364 207.081 69.0607 206.024 68.454C204.984 67.83 204.152 66.998 203.528 65.958C202.921 64.9007 202.618 63.7567 202.618 62.526C202.618 61.2953 202.921 60.16 203.528 59.12C204.152 58.0627 204.984 57.2307 206.024 56.624C207.081 56 208.225 55.688 209.456 55.688C210.565 55.688 211.605 55.948 212.576 56.468C213.546 56.9707 214.352 57.6553 214.994 58.522L212.342 60.316C211.527 59.3627 210.565 58.886 209.456 58.886C208.797 58.886 208.19 59.0507 207.636 59.38C207.081 59.7093 206.639 60.1513 206.31 60.706C205.98 61.2607 205.816 61.8673 205.816 62.526C205.816 63.1847 205.98 63.7913 206.31 64.346C206.639 64.9007 207.081 65.3427 207.636 65.672C208.19 65.984 208.797 66.14 209.456 66.14C210.565 66.14 211.527 65.6633 212.342 64.71L215.02 66.478ZM222.887 55.662C224.135 55.662 225.253 55.974 226.241 56.598C227.247 57.2047 228.027 58.028 228.581 59.068C229.136 60.108 229.413 61.2607 229.413 62.526C229.413 62.942 229.379 63.3233 229.309 63.67H219.273C219.533 64.5887 219.993 65.308 220.651 65.828C221.31 66.3307 222.151 66.582 223.173 66.582C223.797 66.582 224.395 66.4433 224.967 66.166C225.557 65.8887 225.999 65.5333 226.293 65.1L228.763 66.556C228.157 67.4573 227.368 68.1507 226.397 68.636C225.444 69.104 224.343 69.338 223.095 69.338C221.709 69.338 220.478 69.0433 219.403 68.454C218.329 67.8647 217.497 67.05 216.907 66.01C216.335 64.97 216.049 63.8 216.049 62.5C216.049 61.2173 216.335 60.056 216.907 59.016C217.497 57.976 218.311 57.1613 219.351 56.572C220.391 55.9653 221.57 55.662 222.887 55.662ZM226.397 61.148C226.259 60.316 225.869 59.666 225.227 59.198C224.603 58.7127 223.815 58.47 222.861 58.47C222.203 58.47 221.596 58.5913 221.041 58.834C220.504 59.0767 220.071 59.406 219.741 59.822C219.412 60.238 219.239 60.68 219.221 61.148H226.397Z" fill="#0B0A33"/>
<path d="M98.2403 290.961C75.5746 276.438 59.6065 253.506 53.8488 227.209C48.0912 200.913 53.0156 173.406 67.5387 150.74" stroke="#FFC147" stroke-width="18"/>
<path d="M61.5641 161.435C71.5457 140.723 88.2634 124.014 108.98 114.042C129.697 104.071 153.185 101.429 175.6 106.548C198.014 111.667 218.027 124.245 232.36 142.221C246.694 160.198 254.5 182.508 254.5 205.5" stroke="#FF5F85" stroke-width="18" stroke-linecap="round"/>
<path d="M254.5 205.5C254.5 227.134 247.588 248.202 234.771 265.631C221.954 283.06 203.904 295.938 183.254 302.386C162.603 308.835 140.432 308.516 119.975 301.477C99.5182 294.438 81.8455 281.047 69.535 263.257" stroke="#596AFF" stroke-width="18" stroke-linecap="round"/>
</svg>
