<svg width="144" height="144" viewBox="0 0 144 144" fill="none" xmlns="http://www.w3.org/2000/svg">
<g opacity="0.4">
<circle cx="3.17359" cy="30.5164" r="3.17359" fill="white"/>
<circle cx="85.2029" cy="30.5164" r="3.17359" fill="white"/>
<ellipse cx="30.5174" cy="30.5164" rx="3.17365" ry="3.1736" fill="white"/>
<circle cx="112.547" cy="30.5164" r="3.17359" fill="white"/>
<circle cx="57.8611" cy="30.5164" r="3.17359" fill="white"/>
<circle cx="139.89" cy="30.5164" r="3.17359" fill="white"/>
<circle cx="3.17945" cy="3.17359" r="3.17359" fill="white"/>
<circle cx="85.2087" cy="3.17359" r="3.17359" fill="white"/>
<ellipse cx="30.5213" cy="3.17359" rx="3.17365" ry="3.17359" fill="white"/>
<ellipse cx="112.553" cy="3.17359" rx="3.17365" ry="3.17359" fill="white"/>
<circle cx="57.865" cy="3.17359" r="3.17359" fill="white"/>
<circle cx="139.894" cy="3.17359" r="3.17359" fill="white"/>
<circle cx="3.17359" cy="57.8582" r="3.17359" fill="white"/>
<circle cx="85.2029" cy="57.8582" r="3.17359" fill="white"/>
<ellipse cx="30.5174" cy="57.8582" rx="3.17365" ry="3.17358" fill="white"/>
<circle cx="112.547" cy="57.8582" r="3.17359" fill="white"/>
<circle cx="57.8611" cy="57.8582" r="3.17359" fill="white"/>
<circle cx="139.89" cy="57.8582" r="3.17359" fill="white"/>
<circle cx="3.17359" cy="85.2" r="3.17359" fill="white"/>
<circle cx="85.2029" cy="85.2" r="3.17359" fill="white"/>
<ellipse cx="30.5174" cy="85.2" rx="3.17365" ry="3.17358" fill="white"/>
<circle cx="112.547" cy="85.2" r="3.17359" fill="white"/>
<circle cx="57.8611" cy="85.2" r="3.17359" fill="white"/>
<circle cx="139.89" cy="85.2" r="3.17359" fill="white"/>
<circle cx="3.17359" cy="112.543" r="3.17359" fill="white"/>
<circle cx="85.2029" cy="112.543" r="3.17359" fill="white"/>
<ellipse cx="30.5174" cy="112.543" rx="3.17365" ry="3.17358" fill="white"/>
<circle cx="112.547" cy="112.543" r="3.17359" fill="white"/>
<circle cx="57.8611" cy="112.543" r="3.17359" fill="white"/>
<circle cx="139.89" cy="112.543" r="3.17359" fill="white"/>
<circle cx="3.17359" cy="139.885" r="3.17359" fill="white"/>
<circle cx="85.2029" cy="139.885" r="3.17359" fill="white"/>
<ellipse cx="30.5174" cy="139.885" rx="3.17365" ry="3.17358" fill="white"/>
<circle cx="112.547" cy="139.885" r="3.17359" fill="white"/>
<circle cx="57.8611" cy="139.885" r="3.17359" fill="white"/>
<circle cx="139.89" cy="139.885" r="3.17359" fill="white"/>
</g>
</svg>
