<svg width="87" height="87" viewBox="0 0 87 87" fill="none" xmlns="http://www.w3.org/2000/svg">
<rect x="0.126953" y="0.513672" width="86.126" height="86.126" fill="#FFE7DA"/>
<path fill-rule="evenodd" clip-rule="evenodd" d="M27.9948 17.142H46.8427C53.7895 17.142 57.6576 21.145 57.6576 28.0041V51.235C57.6576 58.2065 53.7895 62.1196 46.8427 62.1196H27.9948C21.1583 62.1196 17.1777 58.2065 17.1777 51.235V28.0041C17.1777 21.145 21.1583 17.142 27.9948 17.142ZM28.6011 27.6218V27.5993H35.323C36.2923 27.5993 37.0794 28.3865 37.0794 29.3512C37.0794 30.343 36.2923 31.1301 35.323 31.1301H28.6011C27.6319 31.1301 26.847 30.343 26.847 29.376C26.847 28.4089 27.6319 27.6218 28.6011 27.6218ZM28.6011 41.295H46.2323C47.1994 41.295 47.9865 40.5079 47.9865 39.5409C47.9865 38.5739 47.1994 37.7845 46.2323 37.7845H28.6011C27.6319 37.7845 26.847 38.5739 26.847 39.5409C26.847 40.5079 27.6319 41.295 28.6011 41.295ZM28.6018 51.5722H46.233C47.1303 51.4823 47.8072 50.7154 47.8072 49.8181C47.8072 48.8961 47.1303 48.1314 46.233 48.0415H28.6018C27.9271 47.974 27.2749 48.2889 26.9151 48.8736C26.5553 49.4358 26.5553 50.1779 26.9151 50.7626C27.2749 51.3248 27.9271 51.6622 28.6018 51.5722Z" fill="#FFB68F"/>
<rect x="23.207" y="23.5299" width="28.4243" height="33.7799" fill="#FFB68F"/>
<rect x="35.9844" y="29.7855" width="28.4243" height="33.7799" fill="#FF9054"/>
<path fill-rule="evenodd" clip-rule="evenodd" d="M39.5417 25.0338H58.3896C65.3364 25.0338 69.2045 29.0368 69.2045 35.8959V59.1268C69.2045 66.0984 65.3364 70.0114 58.3896 70.0114H39.5417C32.7051 70.0114 28.7246 66.0984 28.7246 59.1268V35.8959C28.7246 29.0368 32.7051 25.0338 39.5417 25.0338ZM40.1487 35.5139V35.4914H46.8706C47.8399 35.4914 48.627 36.2785 48.627 37.2432C48.627 38.235 47.8399 39.0221 46.8706 39.0221H40.1487C39.1795 39.0221 38.3946 38.235 38.3946 37.268C38.3946 36.301 39.1795 35.5139 40.1487 35.5139ZM40.1487 49.187H57.78C58.747 49.187 59.5341 48.3999 59.5341 47.4329C59.5341 46.4659 58.747 45.6765 57.78 45.6765H40.1487C39.1795 45.6765 38.3946 46.4659 38.3946 47.4329C38.3946 48.3999 39.1795 49.187 40.1487 49.187ZM40.1494 59.4642H57.7806C58.6779 59.3743 59.3548 58.6074 59.3548 57.7101C59.3548 56.7881 58.6779 56.0235 57.7806 55.9335H40.1494C39.4747 55.866 38.8226 56.1809 38.4627 56.7656C38.1029 57.3278 38.1029 58.0699 38.4627 58.6546C38.8226 59.2169 39.4747 59.5542 40.1494 59.4642Z" fill="#FF9054"/>
<rect x="38.3223" y="38.3165" width="21.2842" height="3.47108" rx="1.73554" fill="#FFE7DA"/>
<rect x="38.3223" y="45.7876" width="18.8268" height="3.47108" rx="1.73554" fill="#FFE7DA"/>
<rect x="38.3223" y="53.2587" width="21.2842" height="3.47" rx="1.735" fill="#FFE7DA"/>
</svg>
