<svg width="408" height="469" viewBox="0 0 408 469" fill="none" xmlns="http://www.w3.org/2000/svg">
<rect width="408" height="469" fill="white"/>
<path d="M48.194 70L44.632 63.708H41.252V70H37.846V51.8H45.23C46.3047 51.8 47.3013 52.0687 48.22 52.606C49.1387 53.126 49.858 53.8453 50.378 54.764C50.9153 55.6827 51.184 56.6793 51.184 57.754C51.184 58.8633 50.9067 59.8773 50.352 60.796C49.7973 61.7147 49.052 62.434 48.116 62.954L52.068 70H48.194ZM41.252 55.024V60.458H45.23C45.9753 60.458 46.6167 60.198 47.154 59.678C47.6913 59.1407 47.96 58.4993 47.96 57.754C47.96 56.9913 47.6913 56.35 47.154 55.83C46.634 55.2927 45.9927 55.024 45.23 55.024H41.252ZM59.3131 56.662C60.5611 56.662 61.6791 56.974 62.6671 57.598C63.6724 58.2047 64.4524 59.028 65.0071 60.068C65.5617 61.108 65.8391 62.2607 65.8391 63.526C65.8391 63.942 65.8044 64.3233 65.7351 64.67H55.6991C55.9591 65.5887 56.4184 66.308 57.0771 66.828C57.7357 67.3307 58.5764 67.582 59.5991 67.582C60.2231 67.582 60.8211 67.4433 61.3931 67.166C61.9824 66.8887 62.4244 66.5333 62.7191 66.1L65.1891 67.556C64.5824 68.4573 63.7937 69.1507 62.8231 69.636C61.8697 70.104 60.7691 70.338 59.5211 70.338C58.1344 70.338 56.9037 70.0433 55.8291 69.454C54.7544 68.8647 53.9224 68.05 53.3331 67.01C52.7611 65.97 52.4751 64.8 52.4751 63.5C52.4751 62.2173 52.7611 61.056 53.3331 60.016C53.9224 58.976 54.7371 58.1613 55.7771 57.572C56.8171 56.9653 57.9957 56.662 59.3131 56.662ZM62.8231 62.148C62.6844 61.316 62.2944 60.666 61.6531 60.198C61.0291 59.7127 60.2404 59.47 59.2871 59.47C58.6284 59.47 58.0217 59.5913 57.4671 59.834C56.9297 60.0767 56.4964 60.406 56.1671 60.822C55.8377 61.238 55.6644 61.68 55.6471 62.148H62.8231ZM72.7512 66.1L76.1572 57H79.5632L74.7272 70H70.7752L65.9392 57H69.3452L72.7512 66.1ZM86.7095 56.662C87.9575 56.662 89.0755 56.974 90.0635 57.598C91.0689 58.2047 91.8489 59.028 92.4035 60.068C92.9582 61.108 93.2355 62.2607 93.2355 63.526C93.2355 63.942 93.2009 64.3233 93.1315 64.67H83.0955C83.3555 65.5887 83.8149 66.308 84.4735 66.828C85.1322 67.3307 85.9729 67.582 86.9955 67.582C87.6195 67.582 88.2175 67.4433 88.7895 67.166C89.3789 66.8887 89.8209 66.5333 90.1155 66.1L92.5855 67.556C91.9789 68.4573 91.1902 69.1507 90.2195 69.636C89.2662 70.104 88.1655 70.338 86.9175 70.338C85.5309 70.338 84.3002 70.0433 83.2255 69.454C82.1509 68.8647 81.3189 68.05 80.7295 67.01C80.1575 65.97 79.8715 64.8 79.8715 63.5C79.8715 62.2173 80.1575 61.056 80.7295 60.016C81.3189 58.976 82.1335 58.1613 83.1735 57.572C84.2135 56.9653 85.3922 56.662 86.7095 56.662ZM90.2195 62.148C90.0809 61.316 89.6909 60.666 89.0495 60.198C88.4255 59.7127 87.6369 59.47 86.6835 59.47C86.0249 59.47 85.4182 59.5913 84.8635 59.834C84.3262 60.0767 83.8929 60.406 83.5635 60.822C83.2342 61.238 83.0609 61.68 83.0435 62.148H90.2195ZM101.879 56.662C102.642 56.662 103.413 56.8267 104.193 57.156C104.991 57.468 105.667 58.04 106.221 58.872C106.793 59.704 107.079 60.822 107.079 62.226V70H103.855V62.226C103.855 61.2553 103.578 60.562 103.023 60.146C102.486 59.7127 101.853 59.496 101.125 59.496C100.397 59.496 99.7733 59.756 99.2533 60.276C98.7507 60.7787 98.4993 61.5933 98.4993 62.72V70H95.2753V57H98.4993V58.092C98.9673 57.6587 99.4873 57.312 100.059 57.052C100.631 56.792 101.238 56.662 101.879 56.662ZM117.836 57H121.06V70H117.836V68.908C117.368 69.3413 116.848 69.688 116.276 69.948C115.704 70.208 115.098 70.338 114.456 70.338C113.694 70.338 112.914 70.182 112.116 69.87C111.336 69.5407 110.66 68.96 110.088 68.128C109.534 67.296 109.256 66.178 109.256 64.774V57H112.48V64.774C112.48 65.7447 112.749 66.4467 113.286 66.88C113.841 67.296 114.482 67.504 115.21 67.504C115.938 67.504 116.554 67.2527 117.056 66.75C117.576 66.23 117.836 65.4067 117.836 64.28V57ZM130.001 56.662C131.249 56.662 132.367 56.974 133.355 57.598C134.36 58.2047 135.14 59.028 135.695 60.068C136.249 61.108 136.527 62.2607 136.527 63.526C136.527 63.942 136.492 64.3233 136.423 64.67H126.387C126.647 65.5887 127.106 66.308 127.765 66.828C128.423 67.3307 129.264 67.582 130.287 67.582C130.911 67.582 131.509 67.4433 132.081 67.166C132.67 66.8887 133.112 66.5333 133.407 66.1L135.877 67.556C135.27 68.4573 134.481 69.1507 133.511 69.636C132.557 70.104 131.457 70.338 130.209 70.338C128.822 70.338 127.591 70.0433 126.517 69.454C125.442 68.8647 124.61 68.05 124.021 67.01C123.449 65.97 123.163 64.8 123.163 63.5C123.163 62.2173 123.449 61.056 124.021 60.016C124.61 58.976 125.425 58.1613 126.465 57.572C127.505 56.9653 128.683 56.662 130.001 56.662ZM133.511 62.148C133.372 61.316 132.982 60.666 132.341 60.198C131.717 59.7127 130.928 59.47 129.975 59.47C129.316 59.47 128.709 59.5913 128.155 59.834C127.617 60.0767 127.184 60.406 126.855 60.822C126.525 61.238 126.352 61.68 126.335 62.148H133.511ZM153.5 56.662C154.817 56.662 155.97 56.9653 156.958 57.572C157.946 58.1613 158.7 58.976 159.22 60.016C159.757 61.056 160.026 62.226 160.026 63.526C160.026 64.826 159.757 65.996 159.22 67.036C158.7 68.076 157.946 68.8907 156.958 69.48C155.97 70.0693 154.817 70.364 153.5 70.364C152.651 70.364 151.836 70.1993 151.056 69.87C150.276 69.5407 149.583 69.0813 148.976 68.492V70H145.752V51.8H148.976V58.534C149.583 57.9447 150.276 57.4853 151.056 57.156C151.853 56.8267 152.668 56.662 153.5 56.662ZM153.084 67.27C154.176 67.27 155.069 66.9233 155.762 66.23C156.473 65.5193 156.828 64.618 156.828 63.526C156.828 62.434 156.473 61.5413 155.762 60.848C155.069 60.1373 154.176 59.782 153.084 59.782C152.009 59.782 151.099 60.1287 150.354 60.822C149.626 61.5153 149.262 62.408 149.262 63.5C149.262 64.228 149.427 64.878 149.756 65.45C150.103 66.022 150.562 66.4727 151.134 66.802C151.723 67.114 152.373 67.27 153.084 67.27ZM170.533 57H173.913L169.363 70.026C168.687 71.8113 167.751 73.146 166.555 74.03C165.376 74.9313 163.981 75.3213 162.369 75.2V72.08C162.473 72.0973 162.629 72.106 162.837 72.106C164.224 72.106 165.307 71.2653 166.087 69.584L160.367 57H163.825L167.647 65.268L170.533 57ZM197.418 56.662C198.181 56.662 198.952 56.8267 199.732 57.156C200.512 57.468 201.179 58.04 201.734 58.872C202.306 59.704 202.592 60.822 202.592 62.226V70H199.394V62.226C199.394 61.2553 199.117 60.562 198.562 60.146C198.025 59.7127 197.392 59.496 196.664 59.496C196.04 59.496 195.494 59.6867 195.026 60.068C194.558 60.432 194.255 61.0213 194.116 61.836V62.226V70H190.918V62.226C190.918 61.2553 190.641 60.562 190.086 60.146C189.549 59.7127 188.907 59.496 188.162 59.496C187.573 59.496 187.035 59.678 186.55 60.042C186.082 60.406 185.779 60.9867 185.64 61.784V70H182.416V57H185.64V58.014C186.073 57.598 186.567 57.2687 187.122 57.026C187.694 56.7833 188.301 56.662 188.942 56.662C189.739 56.662 190.545 56.8353 191.36 57.182C192.175 57.5287 192.825 58.1093 193.31 58.924C193.761 58.2827 194.35 57.7453 195.078 57.312C195.806 56.8787 196.586 56.662 197.418 56.662ZM211.251 70.364C210.02 70.364 208.876 70.0607 207.819 69.454C206.779 68.83 205.947 67.998 205.323 66.958C204.716 65.9007 204.413 64.7567 204.413 63.526C204.413 62.2953 204.716 61.16 205.323 60.12C205.947 59.0627 206.779 58.2307 207.819 57.624C208.876 57 210.02 56.688 211.251 56.688C212.481 56.688 213.617 57 214.657 57.624C215.714 58.2307 216.546 59.0627 217.153 60.12C217.777 61.16 218.089 62.2953 218.089 63.526C218.089 64.7567 217.777 65.9007 217.153 66.958C216.546 67.998 215.714 68.83 214.657 69.454C213.617 70.0607 212.481 70.364 211.251 70.364ZM211.225 67.14C211.883 67.14 212.49 66.984 213.045 66.672C213.599 66.3427 214.041 65.9007 214.371 65.346C214.7 64.7913 214.865 64.1847 214.865 63.526C214.865 62.8673 214.7 62.2607 214.371 61.706C214.041 61.1513 213.599 60.7093 213.045 60.38C212.49 60.0507 211.883 59.886 211.225 59.886C210.566 59.886 209.959 60.0507 209.405 60.38C208.85 60.7093 208.408 61.1513 208.079 61.706C207.767 62.2607 207.611 62.8673 207.611 63.526C207.611 64.1847 207.767 64.7913 208.079 65.346C208.408 65.9007 208.85 66.3427 209.405 66.672C209.959 66.984 210.566 67.14 211.225 67.14ZM226.75 56.662C227.513 56.662 228.284 56.8267 229.064 57.156C229.862 57.468 230.538 58.04 231.092 58.872C231.664 59.704 231.95 60.822 231.95 62.226V70H228.726V62.226C228.726 61.2553 228.449 60.562 227.894 60.146C227.357 59.7127 226.724 59.496 225.996 59.496C225.268 59.496 224.644 59.756 224.124 60.276C223.622 60.7787 223.37 61.5933 223.37 62.72V70H220.146V57H223.37V58.092C223.838 57.6587 224.358 57.312 224.93 57.052C225.502 56.792 226.109 56.662 226.75 56.662ZM238.787 65.554C238.787 66.1433 238.926 66.5507 239.203 66.776C239.48 67.0013 239.922 67.114 240.529 67.114C240.893 67.114 241.292 67.088 241.725 67.036V70C240.91 70.0867 240.234 70.13 239.697 70.13C238.31 70.13 237.27 69.818 236.577 69.194C235.901 68.5527 235.563 67.4087 235.563 65.762V59.886H233.119V57H235.563V53.802L238.787 52.71V57H241.673V59.886H238.787V65.554ZM255.714 70H252.516V62.304C252.516 61.3333 252.238 60.64 251.684 60.224C251.146 59.7907 250.505 59.574 249.76 59.574C249.17 59.574 248.633 59.756 248.148 60.12C247.68 60.484 247.376 61.0647 247.238 61.862V70H244.014V51.8H247.238V58.092C247.671 57.676 248.165 57.3467 248.72 57.104C249.292 56.8613 249.898 56.74 250.54 56.74C251.302 56.74 252.074 56.9047 252.854 57.234C253.634 57.546 254.301 58.1093 254.856 58.924C255.428 59.7387 255.714 60.8393 255.714 62.226V70Z" fill="#0B0A33"/>
<path d="M45.7758 407.8H47.2478V415.624C47.2478 416.328 47.0878 416.952 46.7678 417.496C46.4478 418.029 45.9998 418.445 45.4238 418.744C44.8584 419.043 44.2131 419.192 43.4878 419.192C42.6771 419.192 41.9731 419.027 41.3758 418.696C40.7784 418.355 40.3091 417.859 39.9678 417.208L41.1678 416.504C41.4558 416.995 41.7811 417.347 42.1438 417.56C42.5064 417.763 42.9704 417.864 43.5358 417.864C44.2291 417.864 44.7731 417.677 45.1678 417.304C45.5731 416.92 45.7758 416.36 45.7758 415.624V407.8ZM56.087 411H57.479V419H56.087V417.8C55.7137 418.237 55.2657 418.584 54.743 418.84C54.231 419.085 53.6817 419.208 53.095 419.208C52.3163 419.208 51.6177 419.027 50.999 418.664C50.3803 418.291 49.9003 417.784 49.559 417.144C49.2177 416.504 49.047 415.795 49.047 415.016C49.047 414.227 49.2177 413.517 49.559 412.888C49.9003 412.248 50.375 411.747 50.983 411.384C51.6017 411.011 52.3057 410.824 53.095 410.824C53.6817 410.824 54.231 410.952 54.743 411.208C55.2657 411.453 55.7137 411.795 56.087 412.232V411ZM53.239 417.88C53.7617 417.88 54.2417 417.757 54.679 417.512C55.1163 417.256 55.4577 416.909 55.703 416.472C55.959 416.035 56.087 415.544 56.087 415C56.087 414.467 55.959 413.987 55.703 413.56C55.4577 413.123 55.1163 412.781 54.679 412.536C54.2417 412.291 53.7617 412.168 53.239 412.168C52.7163 412.168 52.2417 412.291 51.815 412.536C51.3883 412.781 51.0523 413.123 50.807 413.56C50.5617 413.997 50.439 414.483 50.439 415.016C50.439 415.56 50.5617 416.051 50.807 416.488C51.0523 416.915 51.3883 417.256 51.815 417.512C52.2417 417.757 52.7163 417.88 53.239 417.88ZM63.4738 410.808C63.9431 410.808 64.4231 410.909 64.9138 411.112C65.4044 411.304 65.8258 411.656 66.1778 412.168C66.5298 412.669 66.7058 413.352 66.7058 414.216V419H65.3298V414.216C65.3298 413.437 65.1164 412.883 64.6898 412.552C64.2631 412.211 63.7618 412.04 63.1858 412.04C62.6311 412.04 62.1458 412.237 61.7298 412.632C61.3138 413.016 61.1058 413.651 61.1058 414.536V419H59.7298V411H61.1058V411.944C61.3938 411.603 61.7404 411.331 62.1458 411.128C62.5511 410.915 62.9938 410.808 63.4738 410.808Z" fill="#7A7D9C"/>
<rect x="46" y="205" width="14" height="185" rx="7" fill="#FF5F85"/>
<path d="M107.898 407.8V409.176H102.97V412.776H107.706V414.168H102.97V419H101.514V407.8H107.898ZM113.066 410.808C113.845 410.808 114.538 411 115.146 411.384C115.754 411.757 116.223 412.269 116.554 412.92C116.895 413.56 117.066 414.259 117.066 415.016C117.066 415.101 117.061 415.197 117.05 415.304C117.039 415.4 117.029 415.48 117.018 415.544H110.282C110.389 416.259 110.698 416.845 111.21 417.304C111.733 417.752 112.394 417.976 113.194 417.976C113.685 417.976 114.149 417.864 114.586 417.64C115.034 417.416 115.365 417.139 115.578 416.808L116.666 417.448C116.314 418.003 115.834 418.435 115.226 418.744C114.629 419.043 113.946 419.192 113.178 419.192C112.335 419.192 111.589 419.011 110.938 418.648C110.287 418.285 109.781 417.789 109.418 417.16C109.055 416.52 108.874 415.8 108.874 415C108.874 414.211 109.05 413.501 109.402 412.872C109.765 412.232 110.261 411.731 110.89 411.368C111.53 410.995 112.255 410.808 113.066 410.808ZM115.754 414.424C115.647 413.677 115.359 413.091 114.89 412.664C114.421 412.237 113.813 412.024 113.066 412.024C112.543 412.024 112.069 412.136 111.642 412.36C111.215 412.584 110.879 412.883 110.634 413.256C110.389 413.619 110.261 414.008 110.25 414.424H115.754ZM122.928 410.824C123.717 410.824 124.416 411.011 125.024 411.384C125.643 411.747 126.123 412.248 126.464 412.888C126.805 413.517 126.976 414.227 126.976 415.016C126.976 415.795 126.805 416.504 126.464 417.144C126.123 417.784 125.643 418.291 125.024 418.664C124.405 419.027 123.707 419.208 122.928 419.208C122.32 419.208 121.744 419.075 121.2 418.808C120.667 418.531 120.213 418.157 119.84 417.688V419H118.464V407.8H119.84V412.344C120.213 411.875 120.667 411.507 121.2 411.24C121.744 410.963 122.32 410.824 122.928 410.824ZM122.784 417.88C123.307 417.88 123.781 417.757 124.208 417.512C124.635 417.256 124.971 416.915 125.216 416.488C125.472 416.051 125.6 415.56 125.6 415.016C125.6 414.483 125.472 413.997 125.216 413.56C124.971 413.123 124.635 412.781 124.208 412.536C123.781 412.291 123.307 412.168 122.784 412.168C122.261 412.168 121.781 412.291 121.344 412.536C120.907 412.781 120.56 413.123 120.304 413.56C120.059 413.987 119.936 414.467 119.936 415C119.936 415.544 120.059 416.035 120.304 416.472C120.56 416.909 120.907 417.256 121.344 417.512C121.781 417.757 122.261 417.88 122.784 417.88Z" fill="#7A7D9C"/>
<rect x="107" y="242" width="14" height="148" rx="7" fill="#FFC147"/>
<path d="M170.514 407.832V407.8H171.986V419H170.514V410.44L166.946 416.456H166.562L162.978 410.408V419.016H161.522V407.816H162.978V407.832L163.058 407.8L166.754 414.056L170.45 407.8L170.514 407.832ZM180.548 411H181.94V419H180.548V417.8C180.175 418.237 179.727 418.584 179.204 418.84C178.692 419.085 178.143 419.208 177.556 419.208C176.777 419.208 176.079 419.027 175.46 418.664C174.841 418.291 174.361 417.784 174.02 417.144C173.679 416.504 173.508 415.795 173.508 415.016C173.508 414.227 173.679 413.517 174.02 412.888C174.361 412.248 174.836 411.747 175.444 411.384C176.063 411.011 176.767 410.824 177.556 410.824C178.143 410.824 178.692 410.952 179.204 411.208C179.727 411.453 180.175 411.795 180.548 412.232V411ZM177.7 417.88C178.223 417.88 178.703 417.757 179.14 417.512C179.577 417.256 179.919 416.909 180.164 416.472C180.42 416.035 180.548 415.544 180.548 415C180.548 414.467 180.42 413.987 180.164 413.56C179.919 413.123 179.577 412.781 179.14 412.536C178.703 412.291 178.223 412.168 177.7 412.168C177.177 412.168 176.703 412.291 176.276 412.536C175.849 412.781 175.513 413.123 175.268 413.56C175.023 413.997 174.9 414.483 174.9 415.016C174.9 415.56 175.023 416.051 175.268 416.488C175.513 416.915 175.849 417.256 176.276 417.512C176.703 417.757 177.177 417.88 177.7 417.88ZM188.111 410.824C188.239 410.824 188.335 410.829 188.399 410.84L188.287 412.152C188.159 412.131 188.057 412.12 187.983 412.12C187.3 412.12 186.724 412.328 186.255 412.744C185.796 413.16 185.567 413.763 185.567 414.552V419H184.191V411H185.567V412.376C185.748 411.939 186.057 411.571 186.495 411.272C186.943 410.973 187.481 410.824 188.111 410.824Z" fill="#7A7D9C"/>
<rect x="167" y="172" width="14" height="218" rx="7" fill="#FF5F85"/>
<path d="M231.716 419H230.148L229.188 416.44H224.228L223.268 419H221.7L225.908 407.8H227.492L231.716 419ZM226.708 409.864L224.756 415.064H228.676L226.708 409.864ZM237.418 410.808C238.197 410.808 238.89 410.995 239.498 411.368C240.117 411.731 240.597 412.232 240.938 412.872C241.279 413.512 241.45 414.221 241.45 415C241.45 415.789 241.279 416.504 240.938 417.144C240.597 417.773 240.122 418.275 239.514 418.648C238.906 419.011 238.207 419.192 237.418 419.192C236.842 419.192 236.293 419.069 235.77 418.824C235.247 418.579 234.799 418.237 234.426 417.8V422.2H233.05V411H234.426V412.2C234.799 411.763 235.247 411.421 235.77 411.176C236.293 410.931 236.842 410.808 237.418 410.808ZM237.274 417.848C237.797 417.848 238.271 417.725 238.698 417.48C239.125 417.235 239.461 416.893 239.706 416.456C239.951 416.019 240.074 415.533 240.074 415C240.074 414.456 239.951 413.971 239.706 413.544C239.461 413.107 239.125 412.765 238.698 412.52C238.271 412.264 237.797 412.136 237.274 412.136C236.751 412.136 236.271 412.264 235.834 412.52C235.397 412.765 235.05 413.107 234.794 413.544C234.549 413.981 234.426 414.472 234.426 415.016C234.426 415.549 234.549 416.035 234.794 416.472C235.05 416.899 235.397 417.235 235.834 417.48C236.271 417.725 236.751 417.848 237.274 417.848ZM246.876 410.824C247.004 410.824 247.1 410.829 247.164 410.84L247.052 412.152C246.924 412.131 246.823 412.12 246.748 412.12C246.066 412.12 245.49 412.328 245.02 412.744C244.562 413.16 244.332 413.763 244.332 414.552V419H242.956V411H244.332V412.376C244.514 411.939 244.823 411.571 245.26 411.272C245.708 410.973 246.247 410.824 246.876 410.824Z" fill="#7A7D9C"/>
<rect x="227" y="308" width="14" height="82" rx="7" fill="#FFC147"/>
<path d="M289.381 407.832V407.8H290.853V419H289.381V410.44L285.813 416.456H285.429L281.845 410.408V419.016H280.389V407.816H281.845V407.832L281.925 407.8L285.621 414.056L289.317 407.8L289.381 407.832ZM299.415 411H300.807V419H299.415V417.8C299.042 418.237 298.594 418.584 298.071 418.84C297.559 419.085 297.01 419.208 296.423 419.208C295.644 419.208 294.946 419.027 294.327 418.664C293.708 418.291 293.228 417.784 292.887 417.144C292.546 416.504 292.375 415.795 292.375 415.016C292.375 414.227 292.546 413.517 292.887 412.888C293.228 412.248 293.703 411.747 294.311 411.384C294.93 411.011 295.634 410.824 296.423 410.824C297.01 410.824 297.559 410.952 298.071 411.208C298.594 411.453 299.042 411.795 299.415 412.232V411ZM296.567 417.88C297.09 417.88 297.57 417.757 298.007 417.512C298.444 417.256 298.786 416.909 299.031 416.472C299.287 416.035 299.415 415.544 299.415 415C299.415 414.467 299.287 413.987 299.031 413.56C298.786 413.123 298.444 412.781 298.007 412.536C297.57 412.291 297.09 412.168 296.567 412.168C296.044 412.168 295.57 412.291 295.143 412.536C294.716 412.781 294.38 413.123 294.135 413.56C293.89 413.997 293.767 414.483 293.767 415.016C293.767 415.56 293.89 416.051 294.135 416.488C294.38 416.915 294.716 417.256 295.143 417.512C295.57 417.757 296.044 417.88 296.567 417.88ZM308.281 411H309.737L306.697 419.288C306.313 420.269 305.791 421.016 305.129 421.528C304.479 422.051 303.727 422.275 302.873 422.2V420.872L303.081 420.888C304.073 420.888 304.841 420.205 305.385 418.84L301.753 411H303.257L306.057 417.016L308.281 411Z" fill="#7A7D9C"/>
<rect x="287" y="110" width="14" height="280" rx="7" fill="#FF5F85"/>
<path d="M346.877 407.8H348.349V415.624C348.349 416.328 348.189 416.952 347.869 417.496C347.549 418.029 347.101 418.445 346.525 418.744C345.96 419.043 345.315 419.192 344.589 419.192C343.779 419.192 343.075 419.027 342.477 418.696C341.88 418.355 341.411 417.859 341.069 417.208L342.269 416.504C342.557 416.995 342.883 417.347 343.245 417.56C343.608 417.763 344.072 417.864 344.637 417.864C345.331 417.864 345.875 417.677 346.269 417.304C346.675 416.92 346.877 416.36 346.877 415.624V407.8ZM355.973 411H357.349V419H355.973V418.056C355.685 418.397 355.338 418.675 354.933 418.888C354.527 419.091 354.085 419.192 353.605 419.192C353.135 419.192 352.655 419.096 352.165 418.904C351.674 418.701 351.253 418.349 350.901 417.848C350.549 417.336 350.373 416.648 350.373 415.784V411H351.749V415.784C351.749 416.563 351.962 417.123 352.389 417.464C352.826 417.795 353.327 417.96 353.893 417.96C354.447 417.96 354.933 417.768 355.349 417.384C355.765 416.989 355.973 416.349 355.973 415.464V411ZM363.372 410.808C363.842 410.808 364.322 410.909 364.812 411.112C365.303 411.304 365.724 411.656 366.076 412.168C366.428 412.669 366.604 413.352 366.604 414.216V419H365.228V414.216C365.228 413.437 365.015 412.883 364.588 412.552C364.162 412.211 363.66 412.04 363.084 412.04C362.53 412.04 362.044 412.237 361.628 412.632C361.212 413.016 361.004 413.651 361.004 414.536V419H359.628V411H361.004V411.944C361.292 411.603 361.639 411.331 362.044 411.128C362.45 410.915 362.892 410.808 363.372 410.808Z" fill="#7A7D9C"/>
<rect x="348" y="205" width="14" height="185" rx="7" fill="#FFC147"/>
<g filter="url(#filter0_d)">
<rect x="135" y="121" width="76" height="30" rx="5" fill="white"/>
</g>
<rect x="126" y="114" width="95" height="43" rx="5" fill="white"/>
<path d="M146.311 128.712H147.783V130.216C149.084 130.365 150.167 130.845 151.031 131.656L149.799 133.224C149.202 132.648 148.498 132.296 147.687 132.168V134.536C148.423 134.717 149.042 134.925 149.543 135.16C150.055 135.384 150.471 135.709 150.791 136.136C151.122 136.563 151.287 137.112 151.287 137.784C151.287 138.744 150.972 139.517 150.343 140.104C149.724 140.691 148.871 141.037 147.783 141.144V142.6H146.311V141.16C144.743 141.043 143.484 140.488 142.535 139.496L143.751 137.864C144.487 138.653 145.399 139.117 146.487 139.256V136.6C145.751 136.429 145.132 136.237 144.631 136.024C144.13 135.8 143.714 135.48 143.383 135.064C143.052 134.637 142.887 134.077 142.887 133.384C142.887 132.84 143.026 132.339 143.303 131.88C143.58 131.421 143.975 131.043 144.487 130.744C145.01 130.445 145.618 130.264 146.311 130.2V128.712ZM145.143 133.176C145.143 133.453 145.25 133.672 145.463 133.832C145.687 133.992 146.028 134.136 146.487 134.264V132.056C146.071 132.077 145.74 132.195 145.495 132.408C145.26 132.611 145.143 132.867 145.143 133.176ZM147.687 139.256C148.103 139.203 148.428 139.075 148.663 138.872C148.908 138.659 149.031 138.381 149.031 138.04C149.031 137.72 148.924 137.48 148.711 137.32C148.498 137.16 148.156 137.005 147.687 136.856V139.256ZM159.804 136.84H161.004V138.824H159.804V141H157.724V138.824H152.236V136.84L155.74 129.8H158.06L154.572 136.84H157.724V134.344H159.804V136.84ZM166.341 134.04C167.589 134.04 168.576 134.339 169.301 134.936C170.026 135.523 170.389 136.333 170.389 137.368C170.389 138.552 170.026 139.485 169.301 140.168C168.576 140.84 167.589 141.176 166.341 141.176C165.093 141.176 164.09 140.899 163.333 140.344C162.586 139.789 162.181 139.027 162.117 138.056L164.101 137.816C164.197 138.253 164.442 138.6 164.837 138.856C165.242 139.101 165.744 139.224 166.341 139.224C166.992 139.224 167.504 139.059 167.877 138.728C168.25 138.397 168.437 137.944 168.437 137.368C168.437 136.888 168.25 136.509 167.877 136.232C167.504 135.955 166.992 135.816 166.341 135.816H164.133V135.784L162.613 135.816L163.365 129.8H169.989V131.784H165.109L164.821 134.04H166.341ZM172.766 141.144C172.446 141.059 172.233 140.947 172.126 140.808C172.03 140.659 171.982 140.397 171.982 140.024C171.982 139.661 172.078 139.379 172.27 139.176C172.473 138.973 172.756 138.872 173.118 138.872C173.481 138.872 173.764 138.979 173.966 139.192C174.169 139.395 174.27 139.683 174.27 140.056C174.26 140.472 174.206 140.808 174.11 141.064C174.025 141.32 173.849 141.635 173.582 142.008L172.782 143.096L172.142 142.568L172.766 141.144ZM182.701 135.16C183.639 135.693 184.109 136.552 184.109 137.736C184.109 138.813 183.735 139.661 182.989 140.28C182.253 140.899 181.239 141.208 179.949 141.208C178.647 141.208 177.623 140.899 176.877 140.28C176.141 139.661 175.773 138.813 175.773 137.736C175.773 136.552 176.247 135.693 177.197 135.16C176.418 134.68 176.029 133.923 176.029 132.888C176.029 131.864 176.375 131.059 177.069 130.472C177.773 129.885 178.733 129.592 179.949 129.592C181.154 129.592 182.103 129.885 182.797 130.472C183.501 131.059 183.853 131.864 183.853 132.888C183.853 133.923 183.469 134.68 182.701 135.16ZM179.949 131.464C179.362 131.464 178.898 131.592 178.557 131.848C178.226 132.104 178.061 132.451 178.061 132.888C178.061 133.325 178.226 133.672 178.557 133.928C178.898 134.173 179.362 134.296 179.949 134.296C180.535 134.296 180.994 134.173 181.325 133.928C181.655 133.672 181.821 133.325 181.821 132.888C181.821 132.451 181.655 132.104 181.325 131.848C180.994 131.592 180.535 131.464 179.949 131.464ZM179.949 139.288C180.61 139.288 181.138 139.139 181.533 138.84C181.938 138.541 182.141 138.131 182.141 137.608C182.141 137.096 181.943 136.701 181.549 136.424C181.154 136.147 180.621 136.008 179.949 136.008C179.277 136.008 178.738 136.147 178.333 136.424C177.938 136.701 177.741 137.096 177.741 137.608C177.741 138.131 177.943 138.541 178.349 138.84C178.754 139.139 179.287 139.288 179.949 139.288ZM185.446 131.784V129.8H193.67V131.304L189.334 141H187.062L191.158 131.784H185.446ZM200.32 129.8V139.016H203.36V141H194.96V139.016H198.224V132.04L196.48 133.096L195.392 131.464L198.224 129.816V129.8H200.32Z" fill="#4457FF"/>
<defs>
<filter id="filter0_d" x="99" y="91" width="148" height="102" filterUnits="userSpaceOnUse" color-interpolation-filters="sRGB">
<feFlood flood-opacity="0" result="BackgroundImageFix"/>
<feColorMatrix in="SourceAlpha" type="matrix" values="0 0 0 0 0 0 0 0 0 0 0 0 0 0 0 0 0 0 127 0" result="hardAlpha"/>
<feMorphology radius="1" operator="dilate" in="SourceAlpha" result="effect1_dropShadow"/>
<feOffset dy="6"/>
<feGaussianBlur stdDeviation="17.5"/>
<feColorMatrix type="matrix" values="0 0 0 0 0.0423448 0 0 0 0 0.0391396 0 0 0 0 0.199398 0 0 0 0.1 0"/>
<feBlend mode="normal" in2="BackgroundImageFix" result="effect1_dropShadow"/>
<feBlend mode="normal" in="SourceGraphic" in2="effect1_dropShadow" result="shape"/>
</filter>
</defs>
</svg>
