<svg width="373" height="453" viewBox="0 0 373 453" fill="none" xmlns="http://www.w3.org/2000/svg">
<rect width="373" height="453" fill="white"/>
<path d="M45.662 59.24V47.8H49.068V66H46.156L38.252 53.676V66H34.846V47.8H38.252L45.662 59.24ZM58.0142 52.662C59.2622 52.662 60.3802 52.974 61.3682 53.598C62.3736 54.2047 63.1536 55.028 63.7082 56.068C64.2629 57.108 64.5402 58.2607 64.5402 59.526C64.5402 59.942 64.5056 60.3233 64.4362 60.67H54.4002C54.6602 61.5887 55.1196 62.308 55.7782 62.828C56.4369 63.3307 57.2776 63.582 58.3002 63.582C58.9242 63.582 59.5222 63.4433 60.0942 63.166C60.6836 62.8887 61.1256 62.5333 61.4202 62.1L63.8902 63.556C63.2836 64.4573 62.4949 65.1507 61.5242 65.636C60.5709 66.104 59.4702 66.338 58.2222 66.338C56.8356 66.338 55.6049 66.0433 54.5302 65.454C53.4556 64.8647 52.6236 64.05 52.0342 63.01C51.4622 61.97 51.1762 60.8 51.1762 59.5C51.1762 58.2173 51.4622 57.056 52.0342 56.016C52.6236 54.976 53.4382 54.1613 54.4782 53.572C55.5182 52.9653 56.6969 52.662 58.0142 52.662ZM61.5242 58.148C61.3856 57.316 60.9956 56.666 60.3542 56.198C59.7302 55.7127 58.9416 55.47 57.9882 55.47C57.3296 55.47 56.7229 55.5913 56.1682 55.834C55.6309 56.0767 55.1976 56.406 54.8682 56.822C54.5389 57.238 54.3656 57.68 54.3482 58.148H61.5242ZM78.6544 60.878L81.0724 53H84.4524L80.2404 66H77.0424L74.5984 58.278L72.1544 66H69.0084L64.9004 53H68.2544L70.5944 60.826L72.8824 53H76.3144L78.6544 60.878ZM101.379 53H104.603V66H101.379V64.908C100.911 65.3413 100.391 65.688 99.8194 65.948C99.2474 66.208 98.6407 66.338 97.9994 66.338C97.2367 66.338 96.4567 66.182 95.6594 65.87C94.8794 65.5407 94.2034 64.96 93.6314 64.128C93.0767 63.296 92.7994 62.178 92.7994 60.774V53H96.0234V60.774C96.0234 61.7447 96.2921 62.4467 96.8294 62.88C97.3841 63.296 98.0254 63.504 98.7534 63.504C99.4814 63.504 100.097 63.2527 100.599 62.75C101.119 62.23 101.379 61.4067 101.379 60.28V53ZM110.242 56.64C110.242 57.004 110.441 57.2813 110.84 57.472C111.256 57.6453 111.906 57.8273 112.79 58.018C113.795 58.226 114.636 58.46 115.312 58.72C115.988 58.98 116.568 59.396 117.054 59.968C117.556 60.5227 117.808 61.2767 117.808 62.23C117.808 63.0793 117.548 63.816 117.028 64.44C116.525 65.064 115.849 65.5407 115 65.87C114.15 66.182 113.223 66.338 112.218 66.338C110.848 66.338 109.67 66.078 108.682 65.558C107.711 65.038 106.992 64.2927 106.524 63.322L109.176 61.944C109.644 63.14 110.658 63.738 112.218 63.738C112.894 63.738 113.474 63.608 113.96 63.348C114.445 63.088 114.688 62.7153 114.688 62.23C114.688 61.814 114.462 61.5107 114.012 61.32C113.578 61.112 112.868 60.8867 111.88 60.644C110.857 60.4013 110.025 60.1587 109.384 59.916C108.742 59.6733 108.188 59.3007 107.72 58.798C107.252 58.278 107.018 57.5933 107.018 56.744C107.018 55.912 107.252 55.1927 107.72 54.586C108.188 53.962 108.82 53.4853 109.618 53.156C110.415 52.8267 111.29 52.662 112.244 52.662C113.37 52.662 114.376 52.896 115.26 53.364C116.161 53.832 116.854 54.4993 117.34 55.366L114.714 56.692C114.263 55.7213 113.44 55.236 112.244 55.236C111.637 55.236 111.152 55.366 110.788 55.626C110.424 55.8687 110.242 56.2067 110.242 56.64ZM125.909 52.662C127.157 52.662 128.275 52.974 129.263 53.598C130.268 54.2047 131.048 55.028 131.603 56.068C132.157 57.108 132.435 58.2607 132.435 59.526C132.435 59.942 132.4 60.3233 132.331 60.67H122.295C122.555 61.5887 123.014 62.308 123.673 62.828C124.331 63.3307 125.172 63.582 126.195 63.582C126.819 63.582 127.417 63.4433 127.989 63.166C128.578 62.8887 129.02 62.5333 129.315 62.1L131.785 63.556C131.178 64.4573 130.389 65.1507 129.419 65.636C128.465 66.104 127.365 66.338 126.117 66.338C124.73 66.338 123.499 66.0433 122.425 65.454C121.35 64.8647 120.518 64.05 119.929 63.01C119.357 61.97 119.071 60.8 119.071 59.5C119.071 58.2173 119.357 57.056 119.929 56.016C120.518 54.976 121.333 54.1613 122.373 53.572C123.413 52.9653 124.591 52.662 125.909 52.662ZM129.419 58.148C129.28 57.316 128.89 56.666 128.249 56.198C127.625 55.7127 126.836 55.47 125.883 55.47C125.224 55.47 124.617 55.5913 124.063 55.834C123.525 56.0767 123.092 56.406 122.763 56.822C122.433 57.238 122.26 57.68 122.243 58.148H129.419ZM142.197 52.74L141.963 55.782C141.859 55.7473 141.677 55.73 141.417 55.73C140.342 55.73 139.449 56.042 138.739 56.666C138.045 57.29 137.699 58.1393 137.699 59.214V66H134.475V53H137.699V55.184C137.993 54.4907 138.496 53.91 139.207 53.442C139.917 52.974 140.775 52.74 141.781 52.74H142.197ZM146.55 56.64C146.55 57.004 146.749 57.2813 147.148 57.472C147.564 57.6453 148.214 57.8273 149.098 58.018C150.103 58.226 150.944 58.46 151.62 58.72C152.296 58.98 152.877 59.396 153.362 59.968C153.865 60.5227 154.116 61.2767 154.116 62.23C154.116 63.0793 153.856 63.816 153.336 64.44C152.833 65.064 152.157 65.5407 151.308 65.87C150.459 66.182 149.531 66.338 148.526 66.338C147.157 66.338 145.978 66.078 144.99 65.558C144.019 65.038 143.3 64.2927 142.832 63.322L145.484 61.944C145.952 63.14 146.966 63.738 148.526 63.738C149.202 63.738 149.783 63.608 150.268 63.348C150.753 63.088 150.996 62.7153 150.996 62.23C150.996 61.814 150.771 61.5107 150.32 61.32C149.887 61.112 149.176 60.8867 148.188 60.644C147.165 60.4013 146.333 60.1587 145.692 59.916C145.051 59.6733 144.496 59.3007 144.028 58.798C143.56 58.278 143.326 57.5933 143.326 56.744C143.326 55.912 143.56 55.1927 144.028 54.586C144.496 53.962 145.129 53.4853 145.926 53.156C146.723 52.8267 147.599 52.662 148.552 52.662C149.679 52.662 150.684 52.896 151.568 53.364C152.469 53.832 153.163 54.4993 153.648 55.366L151.022 56.692C150.571 55.7213 149.748 55.236 148.552 55.236C147.945 55.236 147.46 55.366 147.096 55.626C146.732 55.8687 146.55 56.2067 146.55 56.64Z" fill="#0B0A33"/>
<path d="M143 176.338L163.959 192.301C169.03 196.163 176.153 195.779 180.779 191.395L195.18 177.745C198.704 174.406 203.795 173.308 208.382 174.898L214.641 177.069C219.534 178.765 224.968 177.396 228.472 173.582L242.312 158.522C247.279 153.116 255.735 152.893 260.98 158.03L272.765 169.573C278.347 175.039 287.455 174.383 292.195 168.173L296.992 161.888C299.594 158.479 304.069 157.09 308.144 158.427V158.427C312.317 159.796 316.896 158.305 319.463 154.741L338 129" stroke="#FFC147" stroke-width="3" stroke-linecap="round"/>
<path d="M163.953 192.83L142 176.567V228C142 230.761 144.239 233 147 233H334C336.761 233 339 230.761 339 228V129L319.545 155.029C316.932 158.524 312.378 159.959 308.234 158.593C304.117 157.236 299.593 158.643 296.971 162.094L292.221 168.346C287.48 174.585 278.338 175.244 272.752 169.748L261.005 158.19C255.755 153.025 247.267 153.248 242.296 158.683L228.476 173.79C224.969 177.624 219.515 179.001 214.608 177.292L208.399 175.129C203.798 173.526 198.687 174.631 195.158 177.99L180.656 191.799C176.079 196.157 169.031 196.592 163.953 192.83Z" fill="url(#paint0_linear)"/>
<rect x="63" y="113" width="144" height="10" rx="5" fill="#D9DBE9"/>
<path d="M42.46 215.92H38.76V220.08H37.28V215.92H33.58V214.58H37.28V210.56H38.76V214.58H42.46V215.92ZM54.1558 213.4C55.6891 213.4 56.8958 213.767 57.7758 214.5C58.6691 215.233 59.1158 216.227 59.1158 217.48C59.1158 218.947 58.6691 220.107 57.7758 220.96C56.8958 221.8 55.6891 222.22 54.1558 222.22C52.7024 222.22 51.5224 221.893 50.6158 221.24C49.7091 220.573 49.1958 219.667 49.0758 218.52L51.1958 218.28C51.3558 218.853 51.6958 219.307 52.2158 219.64C52.7491 219.96 53.3958 220.12 54.1558 220.12C55.0491 220.12 55.7491 219.887 56.2558 219.42C56.7758 218.94 57.0358 218.293 57.0358 217.48C57.0358 216.813 56.7758 216.287 56.2558 215.9C55.7491 215.5 55.0491 215.3 54.1558 215.3H51.2158V215.28L49.6958 215.3L50.6358 208H58.6358V210.1H52.4758L52.0558 213.4H54.1558ZM61.3703 221.04C61.3703 220.667 61.4703 220.38 61.6703 220.18C61.8703 219.967 62.157 219.86 62.5303 219.86C62.9036 219.86 63.1903 219.967 63.3903 220.18C63.5903 220.38 63.6903 220.667 63.6903 221.04C63.6903 221.427 63.5903 221.727 63.3903 221.94C63.1903 222.14 62.9036 222.24 62.5303 222.24C62.157 222.24 61.8703 222.14 61.6703 221.94C61.4703 221.727 61.3703 221.427 61.3703 221.04ZM74.1317 214.66C75.3984 215.327 76.0317 216.433 76.0317 217.98C76.0317 219.3 75.5784 220.347 74.6717 221.12C73.7784 221.88 72.5451 222.26 70.9717 222.26C69.3984 222.26 68.1584 221.88 67.2517 221.12C66.3451 220.347 65.8917 219.3 65.8917 217.98C65.8917 216.433 66.5317 215.327 67.8117 214.66C66.7717 214.06 66.2517 213.087 66.2517 211.74C66.2517 210.5 66.6717 209.527 67.5117 208.82C68.3517 208.1 69.5051 207.74 70.9717 207.74C72.4384 207.74 73.5917 208.1 74.4317 208.82C75.2717 209.527 75.6917 210.5 75.6917 211.74C75.6917 213.087 75.1717 214.06 74.1317 214.66ZM70.9717 209.76C70.1717 209.76 69.5451 209.94 69.0917 210.3C68.6384 210.647 68.4117 211.127 68.4117 211.74C68.4117 212.353 68.6384 212.84 69.0917 213.2C69.5451 213.547 70.1717 213.72 70.9717 213.72C71.7584 213.72 72.3784 213.547 72.8317 213.2C73.2984 212.84 73.5317 212.353 73.5317 211.74C73.5317 211.127 73.2984 210.647 72.8317 210.3C72.3784 209.94 71.7584 209.76 70.9717 209.76ZM70.9717 220.18C71.8784 220.18 72.5984 219.973 73.1317 219.56C73.6651 219.147 73.9317 218.573 73.9317 217.84C73.9317 217.12 73.6651 216.567 73.1317 216.18C72.5984 215.78 71.8784 215.58 70.9717 215.58C70.0651 215.58 69.3384 215.78 68.7917 216.18C68.2584 216.567 67.9917 217.12 67.9917 217.84C67.9917 218.573 68.2584 219.147 68.7917 219.56C69.3384 219.973 70.0651 220.18 70.9717 220.18ZM87.9863 212.68C87.9863 213.627 87.7596 214.48 87.3063 215.24L83.0463 222H80.4863L83.2663 217.6C83.1596 217.613 82.9929 217.62 82.7663 217.62C81.7663 217.62 80.8663 217.407 80.0663 216.98C79.2796 216.54 78.6596 215.947 78.2063 215.2C77.7529 214.453 77.5263 213.613 77.5263 212.68C77.5263 211.733 77.7529 210.887 78.2063 210.14C78.6596 209.393 79.2796 208.807 80.0663 208.38C80.8663 207.953 81.7663 207.74 82.7663 207.74C83.7663 207.74 84.6596 207.953 85.4463 208.38C86.2463 208.807 86.8663 209.393 87.3063 210.14C87.7596 210.887 87.9863 211.733 87.9863 212.68ZM79.8063 212.68C79.8063 213.187 79.9329 213.653 80.1863 214.08C80.4529 214.493 80.8129 214.82 81.2663 215.06C81.7196 215.3 82.2196 215.42 82.7663 215.42C83.6063 215.42 84.3063 215.16 84.8663 214.64C85.4263 214.12 85.7063 213.467 85.7063 212.68C85.7063 211.88 85.4196 211.227 84.8463 210.72C84.2863 210.2 83.5929 209.94 82.7663 209.94C81.9129 209.94 81.2063 210.2 80.6463 210.72C80.0863 211.24 79.8063 211.893 79.8063 212.68ZM92.6808 215.08C92.0274 215.08 91.4474 214.94 90.9408 214.66C90.4474 214.367 90.0608 213.967 89.7808 213.46C89.5008 212.953 89.3608 212.393 89.3608 211.78C89.3608 211.153 89.5008 210.587 89.7808 210.08C90.0608 209.573 90.4474 209.18 90.9408 208.9C91.4474 208.607 92.0274 208.46 92.6808 208.46C93.3341 208.46 93.9074 208.607 94.4008 208.9C94.9074 209.18 95.3008 209.573 95.5808 210.08C95.8608 210.587 96.0008 211.153 96.0008 211.78C96.0008 212.393 95.8608 212.953 95.5808 213.46C95.3008 213.967 94.9074 214.367 94.4008 214.66C93.9074 214.94 93.3341 215.08 92.6808 215.08ZM92.7208 222H91.3808L99.9008 208.66H101.261L92.7208 222ZM92.6808 213.74C93.2008 213.74 93.6274 213.56 93.9608 213.2C94.2941 212.84 94.4608 212.367 94.4608 211.78C94.4608 211.18 94.2941 210.7 93.9608 210.34C93.6274 209.967 93.2008 209.78 92.6808 209.78C92.1741 209.78 91.7541 209.967 91.4208 210.34C91.0874 210.713 90.9208 211.193 90.9208 211.78C90.9208 212.353 91.0874 212.827 91.4208 213.2C91.7541 213.56 92.1741 213.74 92.6808 213.74ZM99.8608 222.24C99.2074 222.24 98.6274 222.1 98.1208 221.82C97.6274 221.527 97.2408 221.127 96.9608 220.62C96.6808 220.113 96.5408 219.553 96.5408 218.94C96.5408 218.313 96.6808 217.747 96.9608 217.24C97.2408 216.733 97.6274 216.34 98.1208 216.06C98.6274 215.767 99.2074 215.62 99.8608 215.62C100.514 215.62 101.087 215.767 101.581 216.06C102.087 216.34 102.481 216.733 102.761 217.24C103.041 217.747 103.181 218.313 103.181 218.94C103.181 219.553 103.041 220.113 102.761 220.62C102.481 221.127 102.087 221.527 101.581 221.82C101.087 222.1 100.514 222.24 99.8608 222.24ZM99.8608 220.9C100.381 220.9 100.807 220.72 101.141 220.36C101.474 220 101.641 219.527 101.641 218.94C101.641 218.34 101.474 217.86 101.141 217.5C100.807 217.127 100.381 216.94 99.8608 216.94C99.3408 216.94 98.9141 217.127 98.5808 217.5C98.2474 217.86 98.0808 218.34 98.0808 218.94C98.0808 219.527 98.2408 220 98.5608 220.36C98.8941 220.72 99.3274 220.9 99.8608 220.9Z" fill="#66DD63"/>
<path d="M52.755 174.395C54.225 175.115 55.35 176.12 56.13 177.41C56.94 178.67 57.345 180.215 57.345 182.045C57.345 184.985 56.355 187.31 54.375 189.02C52.395 190.7 49.68 191.54 46.23 191.54C42.78 191.54 40.065 190.7 38.085 189.02C36.105 187.31 35.115 184.985 35.115 182.045C35.115 180.215 35.505 178.67 36.285 177.41C37.095 176.12 38.25 175.115 39.75 174.395C37.26 173.045 36.015 170.81 36.015 167.69C36.015 164.99 36.915 162.86 38.715 161.3C40.545 159.74 43.05 158.96 46.23 158.96C49.41 158.96 51.915 159.74 53.745 161.3C55.575 162.86 56.49 164.99 56.49 167.69C56.49 170.81 55.245 173.045 52.755 174.395ZM46.23 162.74C44.28 162.74 42.75 163.175 41.64 164.045C40.56 164.915 40.02 166.13 40.02 167.69C40.02 169.22 40.575 170.435 41.685 171.335C42.795 172.205 44.31 172.64 46.23 172.64C48.18 172.64 49.71 172.205 50.82 171.335C51.93 170.435 52.485 169.22 52.485 167.69C52.485 166.13 51.93 164.915 50.82 164.045C49.71 163.175 48.18 162.74 46.23 162.74ZM46.23 187.67C48.42 187.67 50.16 187.16 51.45 186.14C52.77 185.09 53.43 183.665 53.43 181.865C53.43 180.035 52.785 178.625 51.495 177.635C50.205 176.645 48.45 176.15 46.23 176.15C44.04 176.15 42.285 176.66 40.965 177.68C39.675 178.67 39.03 180.065 39.03 181.865C39.03 183.665 39.675 185.09 40.965 186.14C42.285 187.16 44.04 187.67 46.23 187.67ZM72.729 171.92C76.089 171.92 78.729 172.715 80.649 174.305C82.599 175.895 83.574 178.1 83.574 180.92C83.574 184.19 82.599 186.77 80.649 188.66C78.729 190.55 76.089 191.495 72.729 191.495C69.669 191.495 67.164 190.805 65.214 189.425C63.264 188.015 62.094 186.095 61.704 183.665L65.664 183.215C66.084 184.565 66.924 185.63 68.184 186.41C69.444 187.19 70.959 187.58 72.729 187.58C74.889 187.58 76.584 186.995 77.814 185.825C79.074 184.625 79.704 182.99 79.704 180.92C79.704 179.24 79.074 177.92 77.814 176.96C76.584 175.97 74.889 175.475 72.729 175.475H65.664V175.385L63.099 175.475L65.169 159.5H82.629V163.37H68.544L67.509 171.92H72.729ZM99.048 169.535C101.298 169.535 103.308 170.015 105.078 170.975C106.848 171.935 108.228 173.255 109.218 174.935C110.238 176.585 110.748 178.46 110.748 180.56C110.748 182.66 110.238 184.55 109.218 186.23C108.228 187.88 106.833 189.185 105.033 190.145C103.263 191.075 101.268 191.54 99.048 191.54C96.828 191.54 94.833 191.075 93.063 190.145C91.293 189.185 89.898 187.88 88.878 186.23C87.888 184.55 87.393 182.66 87.393 180.56C87.393 178.04 88.128 175.805 89.598 173.855L98.643 159.5H103.368L96.978 169.67C97.638 169.58 98.328 169.535 99.048 169.535ZM99.048 187.445C100.458 187.445 101.733 187.145 102.873 186.545C104.013 185.945 104.898 185.12 105.528 184.07C106.158 183.02 106.473 181.85 106.473 180.56C106.473 179.27 106.143 178.1 105.483 177.05C104.853 175.97 103.968 175.13 102.828 174.53C101.718 173.93 100.458 173.63 99.048 173.63C97.668 173.63 96.408 173.93 95.268 174.53C94.158 175.13 93.273 175.955 92.613 177.005C91.983 178.055 91.668 179.24 91.668 180.56C91.668 181.88 91.983 183.065 92.613 184.115C93.273 185.165 94.158 185.99 95.268 186.59C96.408 187.16 97.668 187.445 99.048 187.445Z" fill="#0B0A33"/>
<circle cx="44" cy="118" r="8" fill="#FFC147"/>
<path d="M147 372L167.533 356.03C171.485 352.956 176.85 352.425 181.328 354.664L194.977 361.489C198.754 363.377 203.213 363.313 206.934 361.318L221.7 353.4C222.365 353.043 222.999 352.629 223.593 352.162L240.136 339.15C245.836 334.668 254.102 335.715 258.504 341.477L266.531 351.986C272.064 359.229 283.137 358.678 287.924 350.924L294.062 340.981C297.355 335.647 305.146 335.752 308.293 341.172V341.172C311.115 346.032 317.852 346.738 321.62 342.569L337.5 325" stroke="#596AFF" stroke-width="3" stroke-linecap="round"/>
<path d="M167.572 355.821L146 372V403C146 406.866 149.134 410 153 410H331.5C335.366 410 338.5 406.866 338.5 403V325L321.701 342.828C317.859 346.905 311.175 346.134 308.361 341.29C305.183 335.816 297.316 335.71 293.991 341.096L287.924 350.924C283.137 358.678 272.064 359.229 266.531 351.986L258.504 341.477C254.102 335.715 245.836 334.668 240.136 339.15L223.593 352.162C222.999 352.629 222.365 353.043 221.7 353.4L206.934 361.318C203.213 363.313 198.754 363.377 194.977 361.489L181.186 354.593C176.782 352.391 171.512 352.866 167.572 355.821Z" fill="url(#paint1_linear)"/>
<path d="M42.46 388.92H38.76V393.08H37.28V388.92H33.58V387.58H37.28V383.56H38.76V387.58H42.46V388.92ZM57.8958 390H59.4958V392.1H57.8958V395H55.6758V392.1H48.6558V390L53.2158 381H55.6758L51.1358 390H55.6758V386.64H57.8958V390ZM61.3703 394.04C61.3703 393.667 61.4703 393.38 61.6703 393.18C61.8703 392.967 62.157 392.86 62.5303 392.86C62.9036 392.86 63.1903 392.967 63.3903 393.18C63.5903 393.38 63.6903 393.667 63.6903 394.04C63.6903 394.427 63.5903 394.727 63.3903 394.94C63.1903 395.14 62.9036 395.24 62.5303 395.24C62.157 395.24 61.8703 395.14 61.6703 394.94C61.4703 394.727 61.3703 394.427 61.3703 394.04ZM76.1317 392.88V394.98H65.9117V394.42C66.0184 393.127 66.4184 391.873 67.1117 390.66C67.8051 389.447 68.8184 388.56 70.1517 388C70.4451 387.867 70.6651 387.773 70.8117 387.72C71.5051 387.413 72.0384 387.16 72.4117 386.96C72.7984 386.747 73.1184 386.487 73.3717 386.18C73.6384 385.873 73.7717 385.507 73.7717 385.08C73.7717 384.587 73.6384 384.167 73.3717 383.82C73.1051 383.473 72.7651 383.213 72.3517 383.04C71.9384 382.853 71.5317 382.76 71.1317 382.76C70.2784 382.76 69.5384 382.94 68.9117 383.3C68.2984 383.647 67.9317 384.173 67.8117 384.88L65.7117 384.66C65.8317 383.847 66.1517 383.147 66.6717 382.56C67.1917 381.96 67.8384 381.507 68.6117 381.2C69.3984 380.893 70.2384 380.74 71.1317 380.74C71.9317 380.74 72.6984 380.913 73.4317 381.26C74.1651 381.593 74.7584 382.08 75.2117 382.72C75.6651 383.36 75.8917 384.113 75.8917 384.98C75.8917 385.86 75.6851 386.587 75.2717 387.16C74.8584 387.733 74.3184 388.207 73.6517 388.58C72.9984 388.94 72.1117 389.347 70.9917 389.8C69.8184 390.293 68.9851 391.32 68.4917 392.88H76.1317ZM88.0263 392.88V394.98H77.8063V394.42C77.9129 393.127 78.3129 391.873 79.0063 390.66C79.6996 389.447 80.7129 388.56 82.0462 388C82.3396 387.867 82.5596 387.773 82.7063 387.72C83.3996 387.413 83.9329 387.16 84.3063 386.96C84.6929 386.747 85.0129 386.487 85.2663 386.18C85.5329 385.873 85.6663 385.507 85.6663 385.08C85.6663 384.587 85.5329 384.167 85.2663 383.82C84.9996 383.473 84.6596 383.213 84.2463 383.04C83.8329 382.853 83.4263 382.76 83.0263 382.76C82.1729 382.76 81.4329 382.94 80.8063 383.3C80.1929 383.647 79.8263 384.173 79.7063 384.88L77.6063 384.66C77.7263 383.847 78.0463 383.147 78.5663 382.56C79.0863 381.96 79.7329 381.507 80.5063 381.2C81.2929 380.893 82.1329 380.74 83.0263 380.74C83.8263 380.74 84.5929 380.913 85.3263 381.26C86.0596 381.593 86.6529 382.08 87.1063 382.72C87.5596 383.36 87.7863 384.113 87.7863 384.98C87.7863 385.86 87.5796 386.587 87.1663 387.16C86.7529 387.733 86.2129 388.207 85.5463 388.58C84.8929 388.94 84.0063 389.347 82.8863 389.8C81.7129 390.293 80.8796 391.32 80.3863 392.88H88.0263ZM92.6808 388.08C92.0274 388.08 91.4474 387.94 90.9408 387.66C90.4474 387.367 90.0608 386.967 89.7808 386.46C89.5008 385.953 89.3608 385.393 89.3608 384.78C89.3608 384.153 89.5008 383.587 89.7808 383.08C90.0608 382.573 90.4474 382.18 90.9408 381.9C91.4474 381.607 92.0274 381.46 92.6808 381.46C93.3341 381.46 93.9074 381.607 94.4008 381.9C94.9074 382.18 95.3008 382.573 95.5808 383.08C95.8608 383.587 96.0008 384.153 96.0008 384.78C96.0008 385.393 95.8608 385.953 95.5808 386.46C95.3008 386.967 94.9074 387.367 94.4008 387.66C93.9074 387.94 93.3341 388.08 92.6808 388.08ZM92.7208 395H91.3808L99.9008 381.66H101.261L92.7208 395ZM92.6808 386.74C93.2008 386.74 93.6274 386.56 93.9608 386.2C94.2941 385.84 94.4608 385.367 94.4608 384.78C94.4608 384.18 94.2941 383.7 93.9608 383.34C93.6274 382.967 93.2008 382.78 92.6808 382.78C92.1741 382.78 91.7541 382.967 91.4208 383.34C91.0874 383.713 90.9208 384.193 90.9208 384.78C90.9208 385.353 91.0874 385.827 91.4208 386.2C91.7541 386.56 92.1741 386.74 92.6808 386.74ZM99.8608 395.24C99.2074 395.24 98.6274 395.1 98.1208 394.82C97.6274 394.527 97.2408 394.127 96.9608 393.62C96.6808 393.113 96.5408 392.553 96.5408 391.94C96.5408 391.313 96.6808 390.747 96.9608 390.24C97.2408 389.733 97.6274 389.34 98.1208 389.06C98.6274 388.767 99.2074 388.62 99.8608 388.62C100.514 388.62 101.087 388.767 101.581 389.06C102.087 389.34 102.481 389.733 102.761 390.24C103.041 390.747 103.181 391.313 103.181 391.94C103.181 392.553 103.041 393.113 102.761 393.62C102.481 394.127 102.087 394.527 101.581 394.82C101.087 395.1 100.514 395.24 99.8608 395.24ZM99.8608 393.9C100.381 393.9 100.807 393.72 101.141 393.36C101.474 393 101.641 392.527 101.641 391.94C101.641 391.34 101.474 390.86 101.141 390.5C100.807 390.127 100.381 389.94 99.8608 389.94C99.3408 389.94 98.9141 390.127 98.5808 390.5C98.2474 390.86 98.0808 391.34 98.0808 391.94C98.0808 392.527 98.2408 393 98.5608 393.36C98.8941 393.72 99.3274 393.9 99.8608 393.9Z" fill="#66DD63"/>
<path d="M46.23 344.92C49.59 344.92 52.23 345.715 54.15 347.305C56.1 348.895 57.075 351.1 57.075 353.92C57.075 357.19 56.1 359.77 54.15 361.66C52.23 363.55 49.59 364.495 46.23 364.495C43.17 364.495 40.665 363.805 38.715 362.425C36.765 361.015 35.595 359.095 35.205 356.665L39.165 356.215C39.585 357.565 40.425 358.63 41.685 359.41C42.945 360.19 44.46 360.58 46.23 360.58C48.39 360.58 50.085 359.995 51.315 358.825C52.575 357.625 53.205 355.99 53.205 353.92C53.205 352.24 52.575 350.92 51.315 349.96C50.085 348.97 48.39 348.475 46.23 348.475H39.165V348.385L36.6 348.475L38.67 332.5H56.13V336.37H42.045L41.01 344.92H46.23ZM78.939 347.17C80.379 348.01 81.504 349.105 82.314 350.455C83.124 351.805 83.529 353.305 83.529 354.955C83.529 356.785 83.049 358.42 82.089 359.86C81.129 361.3 79.794 362.44 78.084 363.28C76.404 364.09 74.529 364.495 72.459 364.495C70.659 364.495 68.964 364.165 67.374 363.505C65.814 362.815 64.524 361.87 63.504 360.67C62.484 359.44 61.854 358.075 61.614 356.575L65.934 356.215C66.324 357.475 67.134 358.525 68.364 359.365C69.594 360.175 70.959 360.58 72.459 360.58C74.499 360.58 76.179 360.04 77.499 358.96C78.819 357.85 79.479 356.455 79.479 354.775C79.479 353.095 78.804 351.715 77.454 350.635C76.134 349.525 74.469 348.97 72.459 348.97H70.884V345.505L72.459 345.55C74.229 345.55 75.699 345.085 76.869 344.155C78.039 343.225 78.624 342.04 78.624 340.6C78.624 339.19 78.039 338.02 76.869 337.09C75.699 336.16 74.214 335.695 72.414 335.695C71.154 335.695 69.969 336.025 68.859 336.685C67.749 337.315 66.969 338.11 66.519 339.07L62.424 338.755C62.694 337.465 63.294 336.31 64.224 335.29C65.184 334.24 66.369 333.43 67.779 332.86C69.219 332.26 70.764 331.96 72.414 331.96C74.364 331.96 76.119 332.335 77.679 333.085C79.239 333.835 80.454 334.87 81.324 336.19C82.194 337.48 82.629 338.95 82.629 340.6C82.629 341.95 82.299 343.195 81.639 344.335C81.009 345.475 80.109 346.42 78.939 347.17ZM110.613 360.085V364H88.113V362.785C88.353 359.935 89.268 357.175 90.858 354.505C92.448 351.835 94.668 349.885 97.518 348.655L99.048 347.98C100.668 347.26 101.913 346.66 102.783 346.18C103.683 345.67 104.433 345.04 105.033 344.29C105.633 343.51 105.933 342.565 105.933 341.455C105.933 340.255 105.603 339.22 104.943 338.35C104.283 337.48 103.458 336.835 102.468 336.415C101.478 335.965 100.488 335.74 99.498 335.74C97.458 335.74 95.703 336.16 94.233 337C92.763 337.84 91.893 339.115 91.623 340.825L87.708 340.375C87.978 338.605 88.668 337.09 89.778 335.83C90.918 334.54 92.343 333.58 94.053 332.95C95.763 332.29 97.578 331.96 99.498 331.96C101.238 331.96 102.903 332.335 104.493 333.085C106.083 333.805 107.373 334.87 108.363 336.28C109.383 337.69 109.893 339.355 109.893 341.275C109.893 343.225 109.428 344.845 108.498 346.135C107.568 347.425 106.413 348.46 105.033 349.24C103.653 350.02 101.673 350.95 99.093 352.03C97.563 352.72 96.273 353.785 95.223 355.225C94.173 356.635 93.378 358.255 92.838 360.085H110.613Z" fill="#0B0A33"/>
<circle cx="44" cy="296" r="8" fill="#596AFF"/>
<rect x="63" y="291" width="182" height="10" rx="5" fill="#D9DBE9"/>
<defs>
<linearGradient id="paint0_linear" x1="240.5" y1="129" x2="240.5" y2="233" gradientUnits="userSpaceOnUse">
<stop stop-color="#FFCC69" stop-opacity="0.67"/>
<stop offset="1" stop-color="#FFCC69" stop-opacity="0"/>
</linearGradient>
<linearGradient id="paint1_linear" x1="242.25" y1="325" x2="242.25" y2="410" gradientUnits="userSpaceOnUse">
<stop stop-color="#4457FF" stop-opacity="0.64"/>
<stop offset="0.9999" stop-color="#596AFF" stop-opacity="0"/>
</linearGradient>
</defs>
</svg>
