<svg width="172" height="42" viewBox="0 0 172 42" fill="none" xmlns="http://www.w3.org/2000/svg">
<path d="M18.548 0.279327C16.3348 0.527682 13.015 1.55931 11.1261 2.59094C6.05096 5.32284 2.61666 9.58308 0.899504 15.257C0.556074 16.3651 0.155405 19.3836 0.174484 20.7973C0.174484 22.039 0.556074 25.0766 0.785027 25.8026C0.899504 26.1464 1.14754 26.9679 1.35741 27.5984C1.70084 28.6682 3.36075 32.0305 3.64695 32.2598C3.70418 32.3171 4.00946 32.6992 4.29565 33.1386C5.00159 34.1893 6.8523 36.0615 8.2451 37.1314C9.31355 37.9529 12.3281 39.6913 12.7097 39.7104C12.8051 39.7104 12.8242 38.9845 12.7669 38.0293C12.6334 35.9087 13.034 33.024 13.8926 30.0819C14.0453 29.5852 14.1597 28.9357 14.1597 28.6491C14.1597 28.3625 14.236 28.0569 14.3314 27.9613C14.4268 27.8467 14.5986 27.2927 14.694 26.7196C14.8084 26.1464 14.9992 25.2677 15.1328 24.7709C15.3236 24.0259 15.3045 23.7393 15.0374 22.9369C14.6558 21.7143 14.6367 19.7274 15.0183 18.7722C15.915 16.4988 16.9072 15.6391 18.5862 15.6391C20.6086 15.6391 21.5816 17.1675 21.2001 19.7274C21.0283 20.8928 20.5513 22.7268 20.2461 23.2999C20.1698 23.4719 20.0362 23.9495 19.979 24.3507C19.9026 24.7709 19.75 25.3632 19.6546 25.6879C19.3875 26.433 19.9026 27.8849 20.5895 28.439C21.2382 28.9548 22.5928 29.1076 23.833 28.821C24.7107 28.63 25.0732 28.4007 25.989 27.522C27.0765 26.4521 27.8969 25.2103 27.8969 24.6181C27.8969 24.4462 27.9923 24.2169 28.1068 24.1023C28.641 23.5674 28.9272 19.4027 28.5266 17.6451C28.0877 15.7155 26.7331 13.8242 24.9778 12.7162C23.2225 11.589 19.5974 11.2643 17.3651 12.0284C15.8006 12.5633 14.4078 13.4612 13.511 14.512C12.7097 15.4481 11.8702 16.9764 11.8702 17.5113C11.8702 17.7024 11.7748 17.9507 11.6603 18.0654C11.5458 18.18 11.4123 18.9059 11.355 19.6892C11.2597 20.8546 11.336 21.3895 11.6794 22.5357C11.9084 23.319 12.3281 24.236 12.5761 24.5799C13.0913 25.2677 13.0913 25.5351 12.6143 27.3691C12.4807 27.8658 12.2518 28.3243 12.1182 28.3816C10.9162 28.8401 8.47405 25.9554 7.65363 23.0898C7.34836 22.0008 7.32928 18.1227 7.63455 16.9764C7.76811 16.4988 7.99706 15.8493 8.1497 15.5054C8.30233 15.1806 8.43589 14.8558 8.43589 14.7794C8.43589 14.703 8.81748 14.0535 9.29447 13.3466C11.7748 9.60219 15.8006 7.61535 20.8948 7.61535C22.0586 7.61535 23.2606 7.69177 23.585 7.78729C26.2179 8.60877 26.9239 8.87623 27.9542 9.48756C29.9575 10.6911 31.4076 12.3341 32.8576 15.0851C32.953 15.257 33.0866 15.7155 33.1438 16.0976C33.2201 16.4797 33.3537 16.8427 33.4491 16.9C33.5445 16.9573 33.6208 18.1991 33.6208 19.6701C33.6208 22.3256 33.43 23.3954 32.6286 25.5733C31.7319 27.9613 29.4233 30.5977 27.3246 31.6294C26.1226 32.2025 23.8712 32.8329 22.9744 32.8329C21.7724 32.8329 19.4066 31.8395 18.7579 31.0371C18.4526 30.6742 18.1664 30.8079 18.1664 31.3237C18.1664 31.5147 18.0901 31.8395 17.9756 32.0306C17.8802 32.2025 17.7085 32.7374 17.6131 33.215C17.0598 35.7368 16.2775 37.7809 15.0755 39.6913C14.713 40.2836 15.0183 40.6274 16.0104 40.7612C16.5065 40.8376 17.1743 40.9713 17.4796 41.0668C18.2427 41.3152 22.383 41.277 23.7758 41.0286C25.035 40.7994 27.0765 40.2263 27.9923 39.8442C33.7543 37.4753 38.1235 32.661 40.0124 26.5285C41.0236 23.2617 41.0808 19.46 40.165 15.6391C39.8598 14.3973 39.7644 14.1108 38.944 12.2004C37.761 9.41115 35.0899 6.14432 32.3806 4.13838C30.0529 2.419 27.7634 1.42558 24.1955 0.56589C23.2034 0.33664 19.6737 0.145597 18.548 0.279327ZM69.4329 7.17595C68.6888 7.29058 67.5059 8.51325 67.2006 9.46846C66.8763 10.5192 67.2006 11.6463 68.1164 12.5251C70.1389 14.4929 73.6495 12.6398 73.2107 9.81234C72.9436 8.01654 71.3027 6.87028 69.4329 7.17595ZM48.6363 8.3031C48.4646 8.49414 48.4646 31.5338 48.6554 31.8013C48.7508 31.9541 49.5712 32.0114 51.1739 31.9923L53.5588 31.9732L53.6542 28.0951C53.7305 24.9429 53.8069 24.1787 54.0358 24.045C54.1884 23.9495 55.4858 23.8539 56.9168 23.8539C60.0458 23.8539 61.3623 23.6247 62.7933 22.8605C64.6631 21.848 65.7506 20.3961 66.3421 18.0845C66.7046 16.6325 66.7046 15.5818 66.323 14.0917C65.9795 12.7544 65.8269 12.4296 65.0065 11.3407C63.9953 9.98427 62.965 9.23921 61.286 8.64698C60.3511 8.34131 59.5688 8.284 54.5128 8.22668C51.3647 8.18848 48.7126 8.22668 48.6363 8.3031ZM59.1109 13.0601C60.3893 13.4612 61.0189 14.0344 61.3051 15.066C61.6676 16.4224 61.4005 17.6833 60.5991 18.4474C59.7215 19.2689 58.9392 19.46 56.3826 19.46C54.7036 19.46 54.1884 19.4027 53.9595 19.1543C53.7115 18.9251 53.6542 18.371 53.6542 16.1931C53.6542 12.7544 53.6351 12.7735 56.2872 12.7735C57.4319 12.7735 58.5386 12.8881 59.1109 13.0601ZM92.5763 11.9329C92.5763 13.2511 92.4809 14.4929 92.3855 14.703C92.252 14.9514 91.9849 15.066 91.5269 15.066C91.1835 15.066 90.8592 15.1424 90.821 15.257C90.8019 15.3526 90.8019 16.0212 90.8592 16.7281C90.9546 17.9889 90.9736 18.008 91.546 18.1418C91.8704 18.1991 92.2329 18.3137 92.3474 18.3901C92.5191 18.4857 92.5763 19.9949 92.5763 23.8157C92.5763 28.9548 92.5954 29.1458 93.0151 29.91C93.8928 31.5338 95.2665 32.107 98.0521 32.0306L99.9219 31.9732L99.9791 30.1201L100.036 28.2479H99.5594C98.8344 28.2479 97.7659 27.6748 97.6515 27.2163C97.5942 26.987 97.537 24.962 97.537 22.6886C97.537 19.5555 97.5942 18.5048 97.785 18.3519C97.9186 18.2373 98.4528 18.1227 98.9679 18.0845L99.9219 18.0272V15.1615L98.8725 15.1042C98.3002 15.066 97.7659 14.9323 97.6896 14.8176C97.6133 14.6839 97.537 13.4421 97.537 12.0475V9.52577H92.5763V11.9329ZM163.495 9.6404C163.418 9.71681 163.361 10.9204 163.361 12.315C163.361 15.0278 163.342 15.066 162.293 15.066C161.816 15.066 161.816 15.0851 161.873 16.537C161.93 17.9889 161.949 18.0272 162.445 18.0845C162.712 18.1227 163.037 18.2564 163.132 18.371C163.247 18.5048 163.361 20.8164 163.418 23.7584C163.476 26.5858 163.571 29.1649 163.647 29.4706C163.876 30.3112 165.059 31.381 166.185 31.744C167.444 32.1643 170.649 32.2025 170.974 31.8013C171.126 31.6294 171.184 30.9416 171.146 29.9482L171.088 28.3434L170.421 28.2288C169.696 28.1142 168.875 27.7321 168.665 27.4073C168.589 27.2927 168.513 25.2103 168.513 22.7841C168.513 17.7979 168.398 18.1227 170.058 18.1227C171.146 18.1227 171.241 17.9316 171.146 16.1931L171.088 15.1615L169.848 15.066L168.608 14.9705L168.513 12.2959L168.417 9.62129L166.013 9.56398C164.697 9.54488 163.571 9.58308 163.495 9.6404ZM83.132 14.6075C82.1971 14.8558 81.1096 15.4863 80.3845 16.2314C79.5069 17.1484 79.2779 17.091 79.1825 15.9257L79.1253 15.1615H74.3554V31.9732L76.7594 32.0114C79.1253 32.0688 79.1825 32.0497 79.297 31.6294C79.3542 31.4001 79.4115 28.9739 79.4115 26.2229C79.4115 20.7782 79.4306 20.6253 80.5563 19.5555C81.0523 19.0779 81.3194 18.9824 82.3879 18.925L83.6281 18.8486L84.3721 19.6319C85.2498 20.5489 85.1544 19.6701 85.2307 27.5793C85.2498 29.6807 85.2689 31.5338 85.288 31.7249C85.3261 31.9923 85.6314 32.0306 87.7683 31.9923L90.1914 31.9732V18.5621L89.6381 17.4731C88.6841 15.5818 87.215 14.6839 84.9636 14.5693C84.1623 14.5502 83.3419 14.5502 83.132 14.6075ZM106.981 14.6075C104.921 15.1615 103.929 15.7155 102.65 16.9764C100.933 18.7149 100.151 20.74 100.151 23.4719C100.17 28.267 103.165 31.8204 107.592 32.2407C111.37 32.6037 114.289 31.4956 116.159 28.993C116.426 28.63 116.998 27.4646 116.998 27.2545C116.998 27.1781 115.891 27.1017 114.556 27.1017H112.114L111.541 27.6939C110.874 28.3816 109.939 28.821 109.08 28.821C108.221 28.821 106.905 28.2097 106.294 27.5602C105.837 27.0443 105.169 25.5542 105.169 25.0384C105.169 24.8665 106.562 24.8092 111.045 24.8092C114.27 24.8092 116.998 24.7327 117.132 24.6563C117.418 24.4653 117.151 21.4277 116.731 20.3197C115.872 18.008 114.251 16.0594 112.61 15.3717C112.133 15.1806 111.579 14.9323 111.389 14.8367C110.988 14.6266 107.592 14.4547 106.981 14.6075ZM110.702 18.7913C111.446 19.3071 112.095 20.5298 111.999 21.2176C111.942 21.657 111.904 21.657 108.679 21.7143C104.959 21.7716 104.94 21.7525 105.531 20.377C105.951 19.4218 106.791 18.5621 107.573 18.3137C108.47 18.0272 109.92 18.2564 110.702 18.7913ZM135.219 14.6075C133.006 15.1997 131.46 16.174 130.258 17.6833C129.781 18.2946 129.4 18.8677 129.4 18.9824C129.4 19.0779 129.266 19.4218 129.094 19.7465C128.923 20.0522 128.675 21.0074 128.541 21.8671C127.873 25.9554 129.705 29.7763 133.139 31.4956L134.456 32.1643H137.222C140.084 32.1643 140.332 32.107 142.088 31.1709C143.366 30.4831 145.465 27.8085 145.14 27.2736C145.064 27.1781 143.976 27.1017 142.698 27.1017H140.351L139.874 27.6557C137.966 29.8145 134.398 28.7064 133.635 25.7071C133.521 25.3059 133.521 24.962 133.616 24.8856C133.712 24.8283 136.44 24.79 139.703 24.8092C144.358 24.8092 145.617 24.7709 145.636 24.5799C145.808 22.1919 144.663 18.6576 143.232 17.1293C142.431 16.2696 141.038 15.3144 140.351 15.1424C140.046 15.066 139.703 14.9323 139.569 14.8367C139.302 14.6266 135.81 14.4547 135.219 14.6075ZM138.195 18.3328C139.054 18.6385 140.046 19.7083 140.199 20.5298C140.428 21.7716 140.447 21.7716 136.898 21.7143C133.712 21.657 133.693 21.657 133.635 21.2176C133.559 20.6826 134.227 19.3644 134.799 18.8677C135.62 18.18 137.051 17.9507 138.195 18.3328ZM151.818 14.6075C147.907 15.5436 146.495 16.9382 146.476 19.8421C146.476 22.9751 148.04 24.2933 152.677 25.1148C155.863 25.6688 156.779 26.1656 156.741 27.3691C156.721 28.2288 156.13 28.7828 154.947 29.0312C153.459 29.356 152.295 28.993 151.36 27.9422L150.616 27.1017H148.307C146.438 27.1017 145.999 27.159 145.999 27.3691C145.999 27.9231 146.762 29.3751 147.392 30.101C147.983 30.7315 148.441 31.0371 150.234 31.8968C150.406 31.9923 151.341 32.1452 152.276 32.2598C154.012 32.4699 157.027 32.2789 157.79 31.8968C157.962 31.8204 158.458 31.572 158.877 31.381C159.965 30.8652 160.995 29.6998 161.377 28.5918C161.797 27.3309 161.682 25.5733 161.091 24.3507C160.385 22.9178 158.515 21.8862 155.729 21.3895C152.142 20.7591 152.085 20.74 151.513 20.1859C150.826 19.4791 150.826 19.2307 151.513 18.4665C152.066 17.8552 152.104 17.8361 153.631 17.8361C155.157 17.8361 155.195 17.8552 155.748 18.4665C156.054 18.8104 156.302 19.2116 156.302 19.3644C156.302 19.5937 156.702 19.651 158.687 19.651C161.32 19.651 161.243 19.7083 160.785 18.3519C159.946 15.9448 157.79 14.7221 154.203 14.5884C153.096 14.5502 152.028 14.5502 151.818 14.6075ZM126.442 15.0087C125.603 15.2952 124.439 16.2505 124.077 16.9382C123.714 17.626 123.39 17.3394 123.294 16.1931L123.199 15.1615H118.429L118.372 23.1853C118.353 27.5984 118.372 31.4001 118.429 31.6485C118.524 32.0688 118.582 32.0688 120.871 32.0306C122.188 32.0114 123.256 31.8968 123.332 31.7822C123.409 31.6867 123.485 29.6616 123.485 27.2927C123.485 23.5483 123.523 22.8796 123.848 22.039C124.515 20.3006 125.946 19.2689 127.74 19.2689C128.236 19.2689 128.446 19.1734 128.503 18.925C128.637 18.371 128.656 15.792 128.541 15.2188C128.427 14.7603 128.331 14.6839 127.816 14.703C127.473 14.7221 126.862 14.8558 126.442 15.0087ZM67.6776 15.2952C67.6204 15.429 67.6013 19.1925 67.6204 23.6629L67.6776 31.7822L69.9481 31.8777C71.3218 31.935 72.3139 31.8968 72.4666 31.7822C72.6764 31.6294 72.7337 30.0055 72.7337 23.5101C72.7528 19.0779 72.6955 15.3526 72.6383 15.257C72.4475 14.9705 67.773 15.0087 67.6776 15.2952Z" fill="#E60023"/>
</svg>
