<svg width="331" height="419" viewBox="0 0 331 419" fill="none" xmlns="http://www.w3.org/2000/svg">
<rect x="11.6895" y="14.2896" width="308.685" height="391.099" rx="30" fill="#FF0000" fill-opacity="0.01"/>
<rect width="331" height="419" fill="white"/>
<rect x="105.973" y="205.429" width="119.057" height="8" rx="4" fill="#D9DBE9"/>
<rect x="127.758" y="363.246" width="75.4831" height="21.7717" rx="10.8858" fill="#596AFF"/>
<g filter="url(#filter0_d)">
<rect x="25.7734" y="233.597" width="83.3541" height="105.067" rx="12.045" fill="#FF0000" fill-opacity="0.01"/>
</g>
<rect x="23.4563" y="229.053" width="87.9892" height="118.704" rx="12.4979" fill="white" stroke="#EFF0F7" stroke-width="0.6"/>
<rect x="44.5957" y="286.244" width="45.7113" height="5.2697" rx="2.63485" fill="#D9DBE9"/>
<rect x="38.6543" y="302.014" width="57.5928" height="5.2697" rx="2.63485" fill="#EFF0F7"/>
<rect x="38.6543" y="324.034" width="57.5928" height="5.2697" rx="2.63485" fill="#EFF0F7"/>
<rect x="48.748" y="313.023" width="37.4029" height="5.2697" rx="2.63485" fill="#EFF0F7"/>
<rect x="52.3848" y="245.63" width="30.1325" height="30.1126" rx="8.78569" fill="#596AFF"/>
<g filter="url(#filter1_d)">
<rect x="123.662" y="232.548" width="83.6799" height="107.163" rx="12.045" fill="#FF0000" fill-opacity="0.01"/>
</g>
<rect x="121.505" y="229.053" width="87.9892" height="118.704" rx="12.4979" fill="white" stroke="#EFF0F7" stroke-width="0.6"/>
<rect x="142.643" y="286.129" width="45.7113" height="5.2697" rx="2.63485" fill="#D9DBE9"/>
<rect x="136.703" y="301.899" width="57.5928" height="5.2697" rx="2.63485" fill="#EFF0F7"/>
<rect x="136.703" y="323.919" width="57.5928" height="5.2697" rx="2.63485" fill="#EFF0F7"/>
<rect x="146.799" y="312.909" width="37.4029" height="5.2697" rx="2.63485" fill="#EFF0F7"/>
<rect x="150.314" y="245.631" width="30.1325" height="30.1126" rx="8.78569" fill="#596AFF"/>
<path d="M172.241 254.769C172.099 254.672 171.933 254.616 171.762 254.605C171.59 254.594 171.419 254.63 171.267 254.708C170.475 255.03 169.633 255.21 168.78 255.242C167.806 255.17 166.845 254.972 165.923 254.652C163.899 254.062 163.198 253.922 161.647 254.122C161.429 254.15 161.228 254.257 161.084 254.422C160.939 254.587 160.859 254.8 160.859 255.019V264.067C160.859 264.194 160.886 264.32 160.939 264.436C160.991 264.553 161.067 264.656 161.162 264.741C161.257 264.826 161.369 264.89 161.491 264.928C161.612 264.967 161.741 264.979 161.867 264.964C163.226 264.808 163.859 264.941 165.75 265.494C166.728 265.832 167.747 266.039 168.78 266.109C169.835 266.07 170.873 265.834 171.842 265.415C172.247 265.261 172.613 265.053 172.613 264.494V255.507C172.614 255.363 172.581 255.221 172.516 255.093C172.452 254.964 172.357 254.853 172.241 254.769V254.769Z" fill="white"/>
<path d="M159.051 253.459C158.811 253.459 158.581 253.554 158.411 253.724C158.242 253.893 158.146 254.123 158.146 254.363V267.012C158.146 267.252 158.242 267.481 158.411 267.651C158.581 267.82 158.811 267.916 159.051 267.916C159.29 267.916 159.52 267.82 159.69 267.651C159.859 267.481 159.955 267.252 159.955 267.012V254.363C159.955 254.123 159.859 253.893 159.69 253.724C159.52 253.554 159.29 253.459 159.051 253.459V253.459Z" fill="white"/>
<g filter="url(#filter2_d)">
<rect x="220.83" y="231.085" width="85.4505" height="110.091" rx="12.045" fill="#FF0000" fill-opacity="0.01"/>
</g>
<rect x="219.558" y="229.053" width="87.9892" height="118.704" rx="12.4979" fill="white" stroke="#EFF0F7" stroke-width="0.6"/>
<rect x="240.695" y="286.244" width="45.7113" height="5.2697" rx="2.63485" fill="#D9DBE9"/>
<rect x="234.756" y="302.014" width="57.5928" height="5.2697" rx="2.63485" fill="#EFF0F7"/>
<rect x="234.756" y="324.034" width="57.5928" height="5.2697" rx="2.63485" fill="#EFF0F7"/>
<rect x="244.852" y="313.024" width="37.4029" height="5.2697" rx="2.63485" fill="#EFF0F7"/>
<rect x="248.244" y="245.631" width="30.1325" height="30.1126" rx="8.78569" fill="#596AFF"/>
<path fill-rule="evenodd" clip-rule="evenodd" d="M260.139 252.542H266.969C269.487 252.542 270.889 253.992 270.889 256.476V264.89C270.889 267.415 269.487 268.832 266.969 268.832H260.139C257.661 268.832 256.219 267.415 256.219 264.89V256.476C256.219 253.992 257.661 252.542 260.139 252.542ZM260.359 256.338V256.33H262.795C263.146 256.33 263.432 256.615 263.432 256.965C263.432 257.324 263.146 257.609 262.795 257.609H260.359C260.008 257.609 259.723 257.324 259.723 256.974C259.723 256.623 260.008 256.338 260.359 256.338ZM260.361 261.29H266.75C267.101 261.29 267.386 261.005 267.386 260.655C267.386 260.305 267.101 260.019 266.75 260.019H260.361C260.009 260.019 259.725 260.305 259.725 260.655C259.725 261.005 260.009 261.29 260.361 261.29ZM260.361 265.012H266.75C267.075 264.98 267.321 264.702 267.321 264.377C267.321 264.043 267.075 263.766 266.75 263.733H260.361C260.116 263.709 259.88 263.823 259.749 264.035C259.619 264.238 259.619 264.507 259.749 264.719C259.88 264.923 260.116 265.045 260.361 265.012Z" fill="white"/>
<rect y="45.7075" width="330.999" height="127.862" fill="#E1E4FF"/>
<rect x="266.809" y="15.375" width="41.0749" height="14.9583" rx="7.47917" fill="#596AFF"/>
<rect x="230.662" y="19.3545" width="29.5813" height="7" rx="3.5" fill="#EFF0F7"/>
<rect x="151.627" y="19.3545" width="29.5813" height="7" rx="3.5" fill="#EFF0F7"/>
<rect x="187.111" y="19.3545" width="37.6469" height="7" rx="3.5" fill="#EFF0F7"/>
<path d="M23.0918 21.6756C23.0918 20.8854 23.9625 20.4051 24.6309 20.8265L30.9557 24.815C31.2472 24.9989 31.424 25.3194 31.424 25.664L31.424 32.0707C31.424 32.8626 30.5499 33.3427 29.8817 32.9177L23.5569 28.8955C23.2672 28.7113 23.0918 28.3918 23.0918 28.0485L23.0918 21.6756Z" fill="#4457FF"/>
<path d="M40.9512 21.6756C40.9512 20.8854 40.0804 20.4051 39.412 20.8265L33.0873 24.815C32.7957 24.9989 32.6189 25.3194 32.6189 25.664L32.6189 32.0707C32.6189 32.8626 33.4931 33.3427 34.1613 32.9177L40.4861 28.8955C40.7757 28.7113 40.9512 28.3918 40.9512 28.0485L40.9512 21.6756Z" fill="#4457FF"/>
<path d="M38.9193 17.5142L32.7828 13.6194C32.3608 13.3516 31.8222 13.3515 31.4002 13.6191L25.2763 17.5021C24.4715 18.0123 24.4783 19.1889 25.289 19.6898L31.4981 23.5265C31.9179 23.7859 32.4489 23.7832 32.866 23.5195L38.9172 19.6947C39.7177 19.1887 39.7188 18.0217 38.9193 17.5142Z" fill="#4457FF"/>
<path d="M50.9489 28.3236C49.8871 28.3236 48.9954 28.0865 48.2738 27.6123C47.5521 27.1381 47.047 26.4989 46.7583 25.6948L48.4593 24.6897C48.882 25.7927 49.7273 26.3443 50.9953 26.3443C51.5623 26.3443 52.0004 26.2103 52.3097 25.9422C52.619 25.6742 52.7736 25.3649 52.7736 25.0144C52.7736 24.6639 52.6035 24.3804 52.2633 24.1639C51.9334 23.9474 51.3407 23.7155 50.485 23.4681C49.8149 23.2619 49.2479 23.0403 48.784 22.8031C48.3201 22.5557 47.9387 22.2258 47.6398 21.8135C47.3511 21.4011 47.2068 20.8805 47.2068 20.2517C47.2068 19.6125 47.3666 19.0559 47.6861 18.5816C48.0057 18.0971 48.4284 17.7312 48.9541 17.4837C49.4902 17.226 50.0727 17.0972 50.7015 17.0972C51.5778 17.0972 52.3355 17.3085 52.9746 17.7312C53.6241 18.1435 54.1241 18.726 54.4746 19.4785L52.7427 20.4682C52.3406 19.5507 51.6602 19.0919 50.7015 19.0919C50.2685 19.0919 49.9129 19.2053 49.6345 19.4321C49.3562 19.6589 49.217 19.927 49.217 20.2362C49.217 20.4733 49.2789 20.6744 49.4026 20.8393C49.5366 21.0042 49.7428 21.1537 50.0211 21.2877C50.3098 21.4218 50.7273 21.5712 51.2737 21.7362C51.985 21.963 52.5829 22.2001 53.0674 22.4475C53.5622 22.6949 53.9694 23.0403 54.289 23.4835C54.6189 23.9165 54.7838 24.4629 54.7838 25.1227C54.7838 25.7721 54.6189 26.3391 54.289 26.8236C53.9591 27.3082 53.5004 27.6793 52.9128 27.937C52.3355 28.1947 51.6809 28.3236 50.9489 28.3236ZM61.9975 20.3909H63.915V28.1226H61.9975V27.3649C61.6367 27.6741 61.2398 27.9164 60.8068 28.0916C60.3842 28.2566 59.9357 28.339 59.4615 28.339C58.678 28.339 57.9925 28.1638 57.4049 27.8133C56.8173 27.4628 56.3637 26.9783 56.0441 26.3597C55.7348 25.7412 55.5802 25.0453 55.5802 24.2722C55.5802 23.499 55.7348 22.8031 56.0441 22.1846C56.3637 21.5661 56.8173 21.0816 57.4049 20.7311C57.9925 20.3702 58.678 20.1898 59.4615 20.1898C59.9357 20.1898 60.3842 20.2775 60.8068 20.4527C61.2398 20.6177 61.6367 20.8548 61.9975 21.164V20.3909ZM59.7089 26.4989C60.1316 26.4989 60.513 26.4061 60.8532 26.2206C61.2037 26.0247 61.4769 25.7567 61.6728 25.4165C61.879 25.0763 61.9821 24.6897 61.9821 24.2567C61.9821 23.6072 61.7604 23.0763 61.3171 22.664C60.8842 22.2516 60.3481 22.0454 59.7089 22.0454C59.0595 22.0454 58.5234 22.2568 58.1007 22.6794C57.6884 23.0918 57.4822 23.6227 57.4822 24.2722C57.4822 24.9216 57.6884 25.4577 58.1007 25.8804C58.5234 26.2927 59.0595 26.4989 59.7089 26.4989ZM71.5715 20.3909H73.489V28.1226H71.5715V27.3649C71.2107 27.6741 70.8138 27.9164 70.3809 28.0916C69.9582 28.2566 69.5097 28.339 69.0355 28.339C68.2521 28.339 67.5665 28.1638 66.9789 27.8133C66.3913 27.4628 65.9377 26.9783 65.6181 26.3597C65.3089 25.7412 65.1542 25.0453 65.1542 24.2722C65.1542 23.499 65.3089 22.8031 65.6181 22.1846C65.9377 21.5661 66.3913 21.0816 66.9789 20.7311C67.5665 20.3702 68.2521 20.1898 69.0355 20.1898C69.5097 20.1898 69.9582 20.2775 70.3809 20.4527C70.8138 20.6177 71.2107 20.8548 71.5715 21.164V20.3909ZM69.283 26.4989C69.7056 26.4989 70.087 26.4061 70.4272 26.2206C70.7777 26.0247 71.0509 25.7567 71.2468 25.4165C71.453 25.0763 71.5561 24.6897 71.5561 24.2567C71.5561 23.6072 71.3344 23.0763 70.8911 22.664C70.4582 22.2516 69.9221 22.0454 69.283 22.0454C68.6335 22.0454 68.0974 22.2568 67.6748 22.6794C67.2624 23.0918 67.0562 23.6227 67.0562 24.2722C67.0562 24.9216 67.2624 25.4577 67.6748 25.8804C68.0974 26.2927 68.6335 26.4989 69.283 26.4989ZM79.1726 28.3236C78.1108 28.3236 77.2191 28.0865 76.4975 27.6123C75.7758 27.1381 75.2707 26.4989 74.9821 25.6948L76.683 24.6897C77.1057 25.7927 77.951 26.3443 79.219 26.3443C79.786 26.3443 80.2242 26.2103 80.5334 25.9422C80.8427 25.6742 80.9973 25.3649 80.9973 25.0144C80.9973 24.6639 80.8272 24.3804 80.487 24.1639C80.1571 23.9474 79.5644 23.7155 78.7087 23.4681C78.0387 23.2619 77.4717 23.0403 77.0078 22.8031C76.5439 22.5557 76.1624 22.2258 75.8635 21.8135C75.5748 21.4011 75.4305 20.8805 75.4305 20.2517C75.4305 19.6125 75.5903 19.0559 75.9099 18.5816C76.2294 18.0971 76.6521 17.7312 77.1779 17.4837C77.7139 17.226 78.2964 17.0972 78.9252 17.0972C79.8015 17.0972 80.5592 17.3085 81.1983 17.7312C81.8478 18.1435 82.3478 18.726 82.6983 19.4785L80.9664 20.4682C80.5643 19.5507 79.884 19.0919 78.9252 19.0919C78.4923 19.0919 78.1366 19.2053 77.8583 19.4321C77.5799 19.6589 77.4407 19.927 77.4407 20.2362C77.4407 20.4733 77.5026 20.6744 77.6263 20.8393C77.7603 21.0042 77.9665 21.1537 78.2448 21.2877C78.5335 21.4218 78.951 21.5712 79.4974 21.7362C80.2087 21.963 80.8066 22.2001 81.2911 22.4475C81.786 22.6949 82.1932 23.0403 82.5127 23.4835C82.8426 23.9165 83.0076 24.4629 83.0076 25.1227C83.0076 25.7721 82.8426 26.3391 82.5127 26.8236C82.1828 27.3082 81.7241 27.6793 81.1365 27.937C80.5592 28.1947 79.9046 28.3236 79.1726 28.3236ZM94.0618 22.6949L97.572 28.1226H95.1597L92.6547 24.2412L90.1496 28.1226H87.7373L91.2475 22.6949L87.7528 17.2982H90.1651L92.6547 21.1486L95.1443 17.2982H97.5566L94.0618 22.6949Z" fill="#0B0A33"/>
<defs>
<filter id="filter0_d" x="5.44744" y="222.305" width="124.006" height="145.719" filterUnits="userSpaceOnUse" color-interpolation-filters="sRGB">
<feFlood flood-opacity="0" result="BackgroundImageFix"/>
<feColorMatrix in="SourceAlpha" type="matrix" values="0 0 0 0 0 0 0 0 0 0 0 0 0 0 0 0 0 0 127 0" result="hardAlpha"/>
<feOffset dy="9.03378"/>
<feGaussianBlur stdDeviation="10.163"/>
<feColorMatrix type="matrix" values="0 0 0 0 0.0423448 0 0 0 0 0.0391396 0 0 0 0 0.199398 0 0 0 0.04 0"/>
<feBlend mode="normal" in2="BackgroundImageFix" result="effect1_dropShadow"/>
<feBlend mode="normal" in="SourceGraphic" in2="effect1_dropShadow" result="shape"/>
</filter>
<filter id="filter1_d" x="103.336" y="221.256" width="124.332" height="147.815" filterUnits="userSpaceOnUse" color-interpolation-filters="sRGB">
<feFlood flood-opacity="0" result="BackgroundImageFix"/>
<feColorMatrix in="SourceAlpha" type="matrix" values="0 0 0 0 0 0 0 0 0 0 0 0 0 0 0 0 0 0 127 0" result="hardAlpha"/>
<feOffset dy="9.03378"/>
<feGaussianBlur stdDeviation="10.163"/>
<feColorMatrix type="matrix" values="0 0 0 0 0.0423448 0 0 0 0 0.0391396 0 0 0 0 0.199398 0 0 0 0.04 0"/>
<feBlend mode="normal" in2="BackgroundImageFix" result="effect1_dropShadow"/>
<feBlend mode="normal" in="SourceGraphic" in2="effect1_dropShadow" result="shape"/>
</filter>
<filter id="filter2_d" x="200.504" y="219.793" width="126.103" height="150.743" filterUnits="userSpaceOnUse" color-interpolation-filters="sRGB">
<feFlood flood-opacity="0" result="BackgroundImageFix"/>
<feColorMatrix in="SourceAlpha" type="matrix" values="0 0 0 0 0 0 0 0 0 0 0 0 0 0 0 0 0 0 127 0" result="hardAlpha"/>
<feOffset dy="9.03378"/>
<feGaussianBlur stdDeviation="10.163"/>
<feColorMatrix type="matrix" values="0 0 0 0 0.0423448 0 0 0 0 0.0391396 0 0 0 0 0.199398 0 0 0 0.04 0"/>
<feBlend mode="normal" in2="BackgroundImageFix" result="effect1_dropShadow"/>
<feBlend mode="normal" in="SourceGraphic" in2="effect1_dropShadow" result="shape"/>
</filter>
</defs>
</svg>
