<svg width="144" height="33" viewBox="0 0 144 33" fill="none" xmlns="http://www.w3.org/2000/svg">
<path d="M24.1693 32.6659L14.7995 32.4926C11.7657 32.4324 8.72449 32.5529 5.75033 31.9276C1.22572 30.9934 0.905191 26.413 0.569758 22.5708C0.107607 17.1692 0.286504 11.6696 1.15863 6.3132C1.6506 3.30727 3.58865 1.51426 6.58518 1.31839C16.7003 0.610223 26.8826 0.693093 36.9754 1.02457C38.0413 1.05471 39.1147 1.22045 40.1657 1.40879C45.3537 2.32789 45.4804 7.51858 45.8159 11.8881C46.1513 16.3028 46.0097 20.7401 45.3686 25.1247C44.8543 28.7559 43.8704 31.7995 39.7185 32.0933C34.5155 32.4776 29.4319 32.7864 24.214 32.6885C24.214 32.6659 24.1842 32.6659 24.1693 32.6659ZM18.6607 23.4748C22.5816 21.1997 26.4279 18.9622 30.3263 16.7021C26.3981 14.4269 22.5592 12.1894 18.6607 9.92935V23.4748Z" fill="#FF0000"/>
<path d="M120.97 28.5375C120.791 29.2758 120.635 29.8559 120.478 30.4737H116.811V1.88321H121.089V12.4304C121.313 12.1441 121.425 12.0236 121.522 11.8955C122.252 10.8785 123.199 10.2155 124.421 9.95936C126.367 9.57514 128.029 10.4415 128.618 12.3325C128.998 13.5077 129.244 14.7659 129.274 15.9939C129.334 19.1505 129.289 22.2996 129.177 25.4562C129.132 26.4205 128.842 27.4075 128.476 28.3115C127.276 31.2949 123.355 31.7469 121.41 29.1628C121.291 29.0046 121.179 28.8313 120.97 28.5375ZM121.179 20.6723V25.9007C121.179 26.752 121.626 27.2719 122.468 27.4677C123.296 27.6636 123.967 27.3397 124.302 26.5637C124.444 26.2397 124.585 25.9007 124.593 25.5617C124.675 22.3674 124.749 19.1731 124.772 15.9713C124.772 15.3761 124.63 14.7583 124.451 14.1782C124.116 13.1311 123.191 12.8222 122.282 13.4324C121.596 13.8995 121.179 14.5625 121.179 15.4439V20.6723ZM109.551 10.3662H114.03V30.4888H110.534C110.408 29.7279 110.281 28.9443 110.132 28.0252C109.893 28.3793 109.752 28.6053 109.603 28.8313C108.44 30.5264 106.793 31.1065 104.847 30.7976C103.185 30.5264 102.186 29.2306 101.962 27.1061C101.895 26.4733 101.865 25.8329 101.865 25.2001C101.85 20.4915 101.865 15.7679 101.865 11.0593V10.3511H106.397V11.1723C106.397 15.7227 106.383 20.2655 106.412 24.8159C106.412 25.4638 106.479 26.1343 106.591 26.7822C106.718 27.4451 107.195 27.6862 107.836 27.641C108.872 27.5581 109.588 26.7822 109.588 25.7425V11.2552C109.551 10.9613 109.551 10.6901 109.551 10.3662ZM78.7057 10.3511H83.2079V11.2024C83.2079 15.7302 83.193 20.2504 83.2228 24.7631C83.2228 25.411 83.2825 26.0815 83.4166 26.7144C83.5881 27.4602 84.0204 27.7013 84.7584 27.6033C85.7796 27.4602 86.3982 26.7445 86.4057 25.6973V11.2853V10.3813H90.8856V30.4888H87.4045C87.2778 29.7429 87.1511 28.9745 86.9871 28.0026C86.7635 28.3416 86.6368 28.5375 86.5101 28.7409C85.3472 30.4662 83.7148 31.099 81.7246 30.7901C80.1294 30.549 79.1529 29.3587 78.8548 27.4075C78.7728 26.7972 78.7131 26.1945 78.7131 25.5843C78.6982 20.6949 78.6982 15.7829 78.6982 10.8935L78.7057 10.3511ZM76.3949 21.0942C76.38 21.7722 76.3353 22.4503 76.298 23.1283C76.1266 25.1624 76.0446 28.0478 74.4196 29.532C73.3835 30.4662 72.0716 30.8052 70.7149 30.8504C70.1112 30.8654 69.4999 30.8654 68.8962 30.7826C66.0413 30.3456 64.7144 29.0724 64.2374 25.9007C63.6932 22.2393 63.6485 18.5177 64.297 14.8563C64.9679 11.0668 67.2786 9.72582 70.8715 9.97443C74.2258 10.2155 75.7241 12.438 76.1191 15.6021C76.3353 17.4177 76.4396 19.256 76.3949 21.0942ZM71.833 20.4011C71.833 19.1128 71.8629 17.817 71.8181 16.5288C71.7883 15.7829 71.6914 15.0296 71.5349 14.2913C71.356 13.4399 70.8193 13.0331 70.1484 13.0482C69.4925 13.0633 69.0303 13.4701 68.7918 14.2611C68.7098 14.5549 68.6204 14.8563 68.6204 15.1501C68.6204 17.1691 68.6054 19.1957 68.5905 21.2147C68.5756 23.0982 68.3371 25.072 68.926 26.8726C69.1049 27.4225 69.567 27.7239 70.1708 27.7239C70.7597 27.7239 71.1473 27.4301 71.3634 26.9027C71.5349 26.4959 71.684 26.0514 71.684 25.6144C71.7361 23.8817 71.833 22.1414 71.833 20.4011ZM57.6629 16.6116C58.058 14.6604 58.4307 12.7544 58.8406 10.8408C59.355 8.40741 59.9289 5.97402 60.4358 3.53309C60.5625 2.93793 60.8011 2.79479 61.3601 2.80986C62.5602 2.85506 63.7827 2.82492 65.0648 2.82492C64.6473 4.37687 64.2374 5.85348 63.8349 7.30749C62.5602 11.8729 61.2856 16.4534 60.0258 21.0339C59.9289 21.388 59.8842 21.7722 59.8842 22.1489C59.8693 24.6501 59.8842 27.1438 59.8842 29.645V30.4586H55.5087C55.4938 30.2326 55.464 30.0066 55.464 29.7806C55.464 28.3642 55.3522 26.9404 55.4789 25.5391C55.7994 22.1715 54.7409 19.0752 53.8837 15.9411C52.7507 11.7976 51.6028 7.63897 50.4698 3.49543C50.4101 3.29955 50.3878 3.08861 50.3281 2.84753H54.7931C55.7323 7.4205 56.679 11.9935 57.6629 16.6116ZM143.273 21.8626H135.729C135.811 23.392 135.841 24.846 135.997 26.2849C136.109 27.2869 136.653 27.7163 137.511 27.7239C138.405 27.7389 138.927 27.2869 139.136 26.2925C139.203 25.9685 139.247 25.6446 139.277 25.3131C139.307 25.0193 139.322 24.7029 139.344 24.281C140.619 24.3488 141.864 24.4241 143.094 24.4768C143.809 26.624 142.52 29.3813 140.351 30.2326C138.644 30.9106 136.892 30.9106 135.148 30.3908C133.858 30.0066 132.897 29.1779 132.464 27.9047C132.062 26.7144 131.682 25.4713 131.6 24.2282C131.376 21.162 131.294 18.0656 131.756 14.9919C131.838 14.4796 131.98 13.9899 132.136 13.4927C132.762 11.4435 134.126 10.1854 136.236 9.97443C137.384 9.86142 138.569 9.90663 139.702 10.1025C141.536 10.4265 142.512 11.7599 142.937 13.5077C143.131 14.3289 143.273 15.1727 143.302 16.0089C143.31 17.93 143.273 19.8361 143.273 21.8626ZM138.987 19.2183C138.987 17.704 139.001 16.2802 138.972 14.8487C138.972 14.5097 138.845 14.1556 138.718 13.8317C138.465 13.1989 137.936 13.0256 137.302 13.0256C136.668 13.0256 136.266 13.3495 136.109 13.9296C135.632 15.6699 135.789 17.4479 135.804 19.2334C136.944 19.2183 137.98 19.2183 138.987 19.2183Z" fill="#0B0A33"/>
<path d="M94.3433 6.51679H89.9082V2.88553H103.147V6.49419H98.7412V30.459H94.3508L94.3433 6.51679Z" fill="#0B0A33"/>
</svg>
