<svg width="110" height="110" viewBox="0 0 110 110" fill="none" xmlns="http://www.w3.org/2000/svg">
<circle cx="2.41854" cy="23.2556" r="2.41854" fill="#D0D6FA"/>
<circle cx="64.9322" cy="23.2556" r="2.41854" fill="#D0D6FA"/>
<circle cx="23.2564" cy="23.2556" r="2.41854" fill="#D0D6FA"/>
<circle cx="85.7701" cy="23.2556" r="2.41854" fill="#D0D6FA"/>
<circle cx="44.0943" cy="23.2556" r="2.41854" fill="#D0D6FA"/>
<circle cx="106.608" cy="23.2556" r="2.41854" fill="#D0D6FA"/>
<circle cx="2.42245" cy="2.41854" r="2.41854" fill="#D0D6FA"/>
<circle cx="64.9361" cy="2.41854" r="2.41854" fill="#D0D6FA"/>
<circle cx="23.2603" cy="2.41854" r="2.41854" fill="#D0D6FA"/>
<circle cx="85.774" cy="2.41854" r="2.41854" fill="#D0D6FA"/>
<circle cx="44.0982" cy="2.41854" r="2.41854" fill="#D0D6FA"/>
<circle cx="106.612" cy="2.41854" r="2.41854" fill="#D0D6FA"/>
<circle cx="2.41854" cy="44.0927" r="2.41854" fill="#D0D6FA"/>
<circle cx="64.9322" cy="44.0927" r="2.41854" fill="#D0D6FA"/>
<circle cx="23.2564" cy="44.0927" r="2.41854" fill="#D0D6FA"/>
<circle cx="85.7701" cy="44.0927" r="2.41854" fill="#D0D6FA"/>
<circle cx="44.0943" cy="44.0927" r="2.41854" fill="#D0D6FA"/>
<circle cx="106.608" cy="44.0927" r="2.41854" fill="#D0D6FA"/>
<circle cx="2.41854" cy="64.9298" r="2.41854" fill="#D0D6FA"/>
<circle cx="64.9322" cy="64.9298" r="2.41854" fill="#D0D6FA"/>
<circle cx="23.2564" cy="64.9298" r="2.41854" fill="#D0D6FA"/>
<circle cx="85.7701" cy="64.9298" r="2.41854" fill="#D0D6FA"/>
<circle cx="44.0943" cy="64.9298" r="2.41854" fill="#D0D6FA"/>
<circle cx="106.608" cy="64.9298" r="2.41854" fill="#D0D6FA"/>
<circle cx="2.41854" cy="85.7669" r="2.41854" fill="#D0D6FA"/>
<circle cx="64.9322" cy="85.7669" r="2.41854" fill="#D0D6FA"/>
<circle cx="23.2564" cy="85.7669" r="2.41854" fill="#D0D6FA"/>
<circle cx="85.7701" cy="85.7669" r="2.41854" fill="#D0D6FA"/>
<circle cx="44.0943" cy="85.7669" r="2.41854" fill="#D0D6FA"/>
<circle cx="106.608" cy="85.7669" r="2.41854" fill="#D0D6FA"/>
<circle cx="2.41854" cy="106.604" r="2.41854" fill="#D0D6FA"/>
<circle cx="64.9322" cy="106.604" r="2.41854" fill="#D0D6FA"/>
<circle cx="23.2564" cy="106.604" r="2.41854" fill="#D0D6FA"/>
<circle cx="85.7701" cy="106.604" r="2.41854" fill="#D0D6FA"/>
<circle cx="44.0943" cy="106.604" r="2.41854" fill="#D0D6FA"/>
<circle cx="106.608" cy="106.604" r="2.41854" fill="#D0D6FA"/>
</svg>
