<svg width="52" height="52" viewBox="0 0 52 52" fill="none" xmlns="http://www.w3.org/2000/svg">
<rect width="52" height="52" fill="#FF5F85"/>
<path d="M40.7722 40.0113C40.6342 41.1747 39.6629 42.0404 38.5266 42.0404C37.3606 42.0404 36.3893 41.1747 36.2811 40.0113V31.1373C36.1729 30.2689 36.576 29.4599 37.3092 29C38.0667 28.54 38.9866 28.54 39.7143 29C40.4475 29.4599 40.8506 30.2689 40.7722 31.1373V40.0113Z" fill="white"/>
<path d="M28.325 40.011C28.2168 41.1743 27.2455 42.0401 26.0794 42.0401C24.9431 42.0401 23.9719 41.1743 23.8339 40.011V12.442C23.7554 11.6033 24.1585 10.7619 24.8917 10.3047C25.6195 9.84473 26.5394 9.84473 27.2996 10.3047C28.0301 10.7619 28.4332 11.6033 28.325 12.442V40.011Z" fill="white"/>
<path d="M15.7175 40.011C15.6092 41.1743 14.638 42.0401 13.4719 42.0401C12.3085 42.0401 11.3346 41.1743 11.229 40.011V21.316C11.1479 20.4746 11.551 19.6386 12.2842 19.1787C13.012 18.7188 13.9345 18.7188 14.665 19.1787C15.3928 19.6386 15.8013 20.4746 15.7175 21.316V40.011Z" fill="white"/>
</svg>
