<svg width="458" height="419" viewBox="0 0 458 419" fill="none" xmlns="http://www.w3.org/2000/svg">
<rect x="13.6055" y="14.2896" width="432.213" height="391.099" rx="30" fill="#FF0000" fill-opacity="0.01"/>
<rect width="458" height="419" fill="white"/>
<rect x="21.5996" y="69.6504" width="414.801" height="325.13" rx="20" fill="#F5F6FF"/>
<path d="M50.4615 48.9507H47.9595L47.0235 46.4127H42.0375L41.1015 48.9507H38.5815L43.2615 36.3507H45.7815L50.4615 48.9507ZM44.5395 39.7167L42.8655 44.1807H46.1955L44.5395 39.7167ZM56.0795 39.7167C56.6075 39.7167 57.1415 39.8307 57.6815 40.0587C58.2335 40.2747 58.7015 40.6707 59.0855 41.2467C59.4815 41.8227 59.6795 42.5967 59.6795 43.5687V48.9507H57.4475V43.5687C57.4475 42.8967 57.2555 42.4167 56.8715 42.1287C56.4995 41.8287 56.0615 41.6787 55.5575 41.6787C55.0535 41.6787 54.6215 41.8587 54.2615 42.2187C53.9135 42.5667 53.7395 43.1307 53.7395 43.9107V48.9507H51.5075V39.9507H53.7395V40.7067C54.0635 40.4067 54.4235 40.1667 54.8195 39.9867C55.2155 39.8067 55.6355 39.7167 56.0795 39.7167ZM68.5127 39.9507H70.7447V48.9507H68.5127V48.0687C68.0927 48.4287 67.6307 48.7107 67.1267 48.9147C66.6347 49.1067 66.1127 49.2027 65.5607 49.2027C64.6487 49.2027 63.8507 48.9987 63.1667 48.5907C62.4827 48.1827 61.9547 47.6187 61.5827 46.8987C61.2227 46.1787 61.0427 45.3687 61.0427 44.4687C61.0427 43.5687 61.2227 42.7587 61.5827 42.0387C61.9547 41.3187 62.4827 40.7547 63.1667 40.3467C63.8507 39.9267 64.6487 39.7167 65.5607 39.7167C66.1127 39.7167 66.6347 39.8187 67.1267 40.0227C67.6307 40.2147 68.0927 40.4907 68.5127 40.8507V39.9507ZM65.8487 47.0607C66.3407 47.0607 66.7847 46.9527 67.1807 46.7367C67.5887 46.5087 67.9067 46.1967 68.1347 45.8007C68.3747 45.4047 68.4947 44.9547 68.4947 44.4507C68.4947 43.6947 68.2367 43.0767 67.7207 42.5967C67.2167 42.1167 66.5927 41.8767 65.8487 41.8767C65.0927 41.8767 64.4687 42.1227 63.9767 42.6147C63.4967 43.0947 63.2567 43.7127 63.2567 44.4687C63.2567 45.2247 63.4967 45.8487 63.9767 46.3407C64.4687 46.8207 65.0927 47.0607 65.8487 47.0607ZM75.009 46.4127C75.009 46.6047 75.057 46.7427 75.153 46.8267C75.249 46.9107 75.399 46.9527 75.603 46.9527C75.759 46.9527 75.945 46.9347 76.161 46.8987V48.9507C75.717 49.0227 75.303 49.0587 74.919 49.0587C74.223 49.0587 73.689 48.8787 73.317 48.5187C72.957 48.1467 72.777 47.4927 72.777 46.5567V36.3507H75.009V46.4127ZM83.4995 39.9507H85.8395L82.6895 48.9687C82.2215 50.2047 81.5735 51.1287 80.7455 51.7407C79.9295 52.3647 78.9635 52.6347 77.8475 52.5507V50.3907C77.9195 50.4027 78.0275 50.4087 78.1715 50.4087C79.1315 50.4087 79.8815 49.8267 80.4215 48.6627L76.4615 39.9507H78.8555L81.5015 45.6747L83.4995 39.9507ZM90.2172 45.8727C90.2172 46.2807 90.3132 46.5627 90.5052 46.7187C90.6972 46.8747 91.0032 46.9527 91.4232 46.9527C91.6752 46.9527 91.9512 46.9347 92.2512 46.8987V48.9507C91.6872 49.0107 91.2192 49.0407 90.8472 49.0407C89.8872 49.0407 89.1672 48.8247 88.6872 48.3927C88.2192 47.9487 87.9852 47.1567 87.9852 46.0167V41.9487H86.2932V39.9507H87.9852V37.7367L90.2172 36.9807V39.9507H92.2152V41.9487H90.2172V45.8727ZM95.1985 38.4567C94.7785 38.4567 94.4485 38.3427 94.2085 38.1147C93.9685 37.8867 93.8485 37.5747 93.8485 37.1787C93.8485 36.7707 93.9685 36.4527 94.2085 36.2247C94.4485 35.9967 94.7785 35.8827 95.1985 35.8827C95.6185 35.8827 95.9485 35.9967 96.1885 36.2247C96.4285 36.4527 96.5485 36.7707 96.5485 37.1787C96.5485 37.5627 96.4225 37.8747 96.1705 38.1147C95.9305 38.3427 95.6065 38.4567 95.1985 38.4567ZM94.0645 48.9507V39.9507H96.2965V48.9507H94.0645ZM106.259 47.2047C105.815 47.8167 105.257 48.3027 104.585 48.6627C103.913 49.0227 103.187 49.2027 102.407 49.2027C101.555 49.2027 100.763 48.9927 100.031 48.5727C99.3114 48.1407 98.7354 47.5647 98.3034 46.8447C97.8834 46.1127 97.6734 45.3207 97.6734 44.4687C97.6734 43.6167 97.8834 42.8307 98.3034 42.1107C98.7354 41.3787 99.3114 40.8027 100.031 40.3827C100.763 39.9507 101.555 39.7347 102.407 39.7347C103.175 39.7347 103.895 39.9147 104.567 40.2747C105.239 40.6227 105.797 41.0967 106.241 41.6967L104.405 42.9387C103.841 42.2787 103.175 41.9487 102.407 41.9487C101.951 41.9487 101.531 42.0627 101.147 42.2907C100.763 42.5187 100.457 42.8247 100.229 43.2087C100.001 43.5927 99.8874 44.0127 99.8874 44.4687C99.8874 44.9247 100.001 45.3447 100.229 45.7287C100.457 46.1127 100.763 46.4187 101.147 46.6467C101.531 46.8627 101.951 46.9707 102.407 46.9707C103.175 46.9707 103.841 46.6407 104.405 45.9807L106.259 47.2047ZM109.701 42.4707C109.701 42.7227 109.839 42.9147 110.115 43.0467C110.403 43.1667 110.853 43.2927 111.465 43.4247C112.161 43.5687 112.743 43.7307 113.211 43.9107C113.679 44.0907 114.081 44.3787 114.417 44.7747C114.765 45.1587 114.939 45.6807 114.939 46.3407C114.939 46.9287 114.759 47.4387 114.399 47.8707C114.051 48.3027 113.583 48.6327 112.995 48.8607C112.407 49.0767 111.765 49.1847 111.069 49.1847C110.121 49.1847 109.305 49.0047 108.621 48.6447C107.949 48.2847 107.451 47.7687 107.127 47.0967L108.963 46.1427C109.287 46.9707 109.989 47.3847 111.069 47.3847C111.537 47.3847 111.939 47.2947 112.275 47.1147C112.611 46.9347 112.779 46.6767 112.779 46.3407C112.779 46.0527 112.623 45.8427 112.311 45.7107C112.011 45.5667 111.519 45.4107 110.835 45.2427C110.127 45.0747 109.551 44.9067 109.107 44.7387C108.663 44.5707 108.279 44.3127 107.955 43.9647C107.631 43.6047 107.469 43.1307 107.469 42.5427C107.469 41.9667 107.631 41.4687 107.955 41.0487C108.279 40.6167 108.717 40.2867 109.269 40.0587C109.821 39.8307 110.427 39.7167 111.087 39.7167C111.867 39.7167 112.563 39.8787 113.175 40.2027C113.799 40.5267 114.279 40.9887 114.615 41.5887L112.797 42.5067C112.485 41.8347 111.915 41.4987 111.087 41.4987C110.667 41.4987 110.331 41.5887 110.079 41.7687C109.827 41.9367 109.701 42.1707 109.701 42.4707ZM128.331 36.3507H130.563V48.9507H128.331V48.0867C127.923 48.4467 127.467 48.7227 126.963 48.9147C126.459 49.1067 125.937 49.2027 125.397 49.2027C124.485 49.2027 123.687 48.9987 123.003 48.5907C122.319 48.1827 121.791 47.6187 121.419 46.8987C121.059 46.1787 120.879 45.3687 120.879 44.4687C120.879 43.5687 121.059 42.7587 121.419 42.0387C121.791 41.3187 122.319 40.7547 123.003 40.3467C123.687 39.9267 124.485 39.7167 125.397 39.7167C125.937 39.7167 126.453 39.8187 126.945 40.0227C127.449 40.2147 127.911 40.4847 128.331 40.8327V36.3507ZM125.685 47.0607C126.177 47.0607 126.621 46.9527 127.017 46.7367C127.425 46.5087 127.743 46.1967 127.971 45.8007C128.211 45.4047 128.331 44.9547 128.331 44.4507C128.331 43.6947 128.073 43.0767 127.557 42.5967C127.053 42.1167 126.429 41.8767 125.685 41.8767C124.929 41.8767 124.305 42.1227 123.813 42.6147C123.333 43.0947 123.093 43.7127 123.093 44.4687C123.093 45.2247 123.333 45.8487 123.813 46.3407C124.305 46.8207 124.929 47.0607 125.685 47.0607ZM139.563 39.9507H141.795V48.9507H139.563V48.0687C139.143 48.4287 138.681 48.7107 138.177 48.9147C137.685 49.1067 137.163 49.2027 136.611 49.2027C135.699 49.2027 134.901 48.9987 134.217 48.5907C133.533 48.1827 133.005 47.6187 132.633 46.8987C132.273 46.1787 132.093 45.3687 132.093 44.4687C132.093 43.5687 132.273 42.7587 132.633 42.0387C133.005 41.3187 133.533 40.7547 134.217 40.3467C134.901 39.9267 135.699 39.7167 136.611 39.7167C137.163 39.7167 137.685 39.8187 138.177 40.0227C138.681 40.2147 139.143 40.4907 139.563 40.8507V39.9507ZM136.899 47.0607C137.391 47.0607 137.835 46.9527 138.231 46.7367C138.639 46.5087 138.957 46.1967 139.185 45.8007C139.425 45.4047 139.545 44.9547 139.545 44.4507C139.545 43.6947 139.287 43.0767 138.771 42.5967C138.267 42.1167 137.643 41.8767 136.899 41.8767C136.143 41.8767 135.519 42.1227 135.027 42.6147C134.547 43.0947 134.307 43.7127 134.307 44.4687C134.307 45.2247 134.547 45.8487 135.027 46.3407C135.519 46.8207 136.143 47.0607 136.899 47.0607ZM145.684 42.4707C145.684 42.7227 145.822 42.9147 146.098 43.0467C146.386 43.1667 146.836 43.2927 147.448 43.4247C148.144 43.5687 148.726 43.7307 149.194 43.9107C149.662 44.0907 150.064 44.3787 150.4 44.7747C150.748 45.1587 150.922 45.6807 150.922 46.3407C150.922 46.9287 150.742 47.4387 150.382 47.8707C150.034 48.3027 149.566 48.6327 148.978 48.8607C148.39 49.0767 147.748 49.1847 147.052 49.1847C146.104 49.1847 145.288 49.0047 144.604 48.6447C143.932 48.2847 143.434 47.7687 143.11 47.0967L144.946 46.1427C145.27 46.9707 145.972 47.3847 147.052 47.3847C147.52 47.3847 147.922 47.2947 148.258 47.1147C148.594 46.9347 148.762 46.6767 148.762 46.3407C148.762 46.0527 148.606 45.8427 148.294 45.7107C147.994 45.5667 147.502 45.4107 146.818 45.2427C146.11 45.0747 145.534 44.9067 145.09 44.7387C144.646 44.5707 144.262 44.3127 143.938 43.9647C143.614 43.6047 143.452 43.1307 143.452 42.5427C143.452 41.9667 143.614 41.4687 143.938 41.0487C144.262 40.6167 144.7 40.2867 145.252 40.0587C145.804 39.8307 146.41 39.7167 147.07 39.7167C147.85 39.7167 148.546 39.8787 149.158 40.2027C149.782 40.5267 150.262 40.9887 150.598 41.5887L148.78 42.5067C148.468 41.8347 147.898 41.4987 147.07 41.4987C146.65 41.4987 146.314 41.5887 146.062 41.7687C145.81 41.9367 145.684 42.1707 145.684 42.4707ZM160.277 48.9507H158.063V43.6227C158.063 42.9507 157.871 42.4707 157.487 42.1827C157.115 41.8827 156.671 41.7327 156.155 41.7327C155.747 41.7327 155.375 41.8587 155.039 42.1107C154.715 42.3627 154.505 42.7647 154.409 43.3167V48.9507H152.177V36.3507H154.409V40.7067C154.709 40.4187 155.051 40.1907 155.435 40.0227C155.831 39.8547 156.251 39.7707 156.695 39.7707C157.223 39.7707 157.757 39.8847 158.297 40.1127C158.837 40.3287 159.299 40.7187 159.683 41.2827C160.079 41.8467 160.277 42.6087 160.277 43.5687V48.9507ZM167.807 39.7167C168.719 39.7167 169.517 39.9267 170.201 40.3467C170.885 40.7547 171.407 41.3187 171.767 42.0387C172.139 42.7587 172.325 43.5687 172.325 44.4687C172.325 45.3687 172.139 46.1787 171.767 46.8987C171.407 47.6187 170.885 48.1827 170.201 48.5907C169.517 48.9987 168.719 49.2027 167.807 49.2027C167.219 49.2027 166.655 49.0887 166.115 48.8607C165.575 48.6327 165.095 48.3147 164.675 47.9067V48.9507H162.443V36.3507H164.675V41.0127C165.095 40.6047 165.575 40.2867 166.115 40.0587C166.667 39.8307 167.231 39.7167 167.807 39.7167ZM167.519 47.0607C168.275 47.0607 168.893 46.8207 169.373 46.3407C169.865 45.8487 170.111 45.2247 170.111 44.4687C170.111 43.7127 169.865 43.0947 169.373 42.6147C168.893 42.1227 168.275 41.8767 167.519 41.8767C166.775 41.8767 166.145 42.1167 165.629 42.5967C165.125 43.0767 164.873 43.6947 164.873 44.4507C164.873 44.9547 164.987 45.4047 165.215 45.8007C165.455 46.1967 165.773 46.5087 166.169 46.7367C166.577 46.9527 167.027 47.0607 167.519 47.0607ZM178.134 49.2027C177.282 49.2027 176.49 48.9927 175.758 48.5727C175.038 48.1407 174.462 47.5647 174.03 46.8447C173.61 46.1127 173.4 45.3207 173.4 44.4687C173.4 43.6167 173.61 42.8307 174.03 42.1107C174.462 41.3787 175.038 40.8027 175.758 40.3827C176.49 39.9507 177.282 39.7347 178.134 39.7347C178.986 39.7347 179.772 39.9507 180.492 40.3827C181.224 40.8027 181.8 41.3787 182.22 42.1107C182.652 42.8307 182.868 43.6167 182.868 44.4687C182.868 45.3207 182.652 46.1127 182.22 46.8447C181.8 47.5647 181.224 48.1407 180.492 48.5727C179.772 48.9927 178.986 49.2027 178.134 49.2027ZM178.116 46.9707C178.572 46.9707 178.992 46.8627 179.376 46.6467C179.76 46.4187 180.066 46.1127 180.294 45.7287C180.522 45.3447 180.636 44.9247 180.636 44.4687C180.636 44.0127 180.522 43.5927 180.294 43.2087C180.066 42.8247 179.76 42.5187 179.376 42.2907C178.992 42.0627 178.572 41.9487 178.116 41.9487C177.66 41.9487 177.24 42.0627 176.856 42.2907C176.472 42.5187 176.166 42.8247 175.938 43.2087C175.722 43.5927 175.614 44.0127 175.614 44.4687C175.614 44.9247 175.722 45.3447 175.938 45.7287C176.166 46.1127 176.472 46.4187 176.856 46.6467C177.24 46.8627 177.66 46.9707 178.116 46.9707ZM191.349 39.9507H193.581V48.9507H191.349V48.0687C190.929 48.4287 190.467 48.7107 189.963 48.9147C189.471 49.1067 188.949 49.2027 188.397 49.2027C187.485 49.2027 186.687 48.9987 186.003 48.5907C185.319 48.1827 184.791 47.6187 184.419 46.8987C184.059 46.1787 183.879 45.3687 183.879 44.4687C183.879 43.5687 184.059 42.7587 184.419 42.0387C184.791 41.3187 185.319 40.7547 186.003 40.3467C186.687 39.9267 187.485 39.7167 188.397 39.7167C188.949 39.7167 189.471 39.8187 189.963 40.0227C190.467 40.2147 190.929 40.4907 191.349 40.8507V39.9507ZM188.685 47.0607C189.177 47.0607 189.621 46.9527 190.017 46.7367C190.425 46.5087 190.743 46.1967 190.971 45.8007C191.211 45.4047 191.331 44.9547 191.331 44.4507C191.331 43.6947 191.073 43.0767 190.557 42.5967C190.053 42.1167 189.429 41.8767 188.685 41.8767C187.929 41.8767 187.305 42.1227 186.813 42.6147C186.333 43.0947 186.093 43.7127 186.093 44.4687C186.093 45.2247 186.333 45.8487 186.813 46.3407C187.305 46.8207 187.929 47.0607 188.685 47.0607ZM201.223 39.7707L201.061 41.8767C200.989 41.8527 200.863 41.8407 200.683 41.8407C199.939 41.8407 199.321 42.0567 198.829 42.4887C198.349 42.9207 198.109 43.5087 198.109 44.2527V48.9507H195.877V39.9507H198.109V41.4627C198.313 40.9827 198.661 40.5807 199.153 40.2567C199.645 39.9327 200.239 39.7707 200.935 39.7707H201.223ZM209.313 36.3507H211.545V48.9507H209.313V48.0867C208.905 48.4467 208.449 48.7227 207.945 48.9147C207.441 49.1067 206.919 49.2027 206.379 49.2027C205.467 49.2027 204.669 48.9987 203.985 48.5907C203.301 48.1827 202.773 47.6187 202.401 46.8987C202.041 46.1787 201.861 45.3687 201.861 44.4687C201.861 43.5687 202.041 42.7587 202.401 42.0387C202.773 41.3187 203.301 40.7547 203.985 40.3467C204.669 39.9267 205.467 39.7167 206.379 39.7167C206.919 39.7167 207.435 39.8187 207.927 40.0227C208.431 40.2147 208.893 40.4847 209.313 40.8327V36.3507ZM206.667 47.0607C207.159 47.0607 207.603 46.9527 207.999 46.7367C208.407 46.5087 208.725 46.1967 208.953 45.8007C209.193 45.4047 209.313 44.9547 209.313 44.4507C209.313 43.6947 209.055 43.0767 208.539 42.5967C208.035 42.1167 207.411 41.8767 206.667 41.8767C205.911 41.8767 205.287 42.1227 204.795 42.6147C204.315 43.0947 204.075 43.7127 204.075 44.4687C204.075 45.2247 204.315 45.8487 204.795 46.3407C205.287 46.8207 205.911 47.0607 206.667 47.0607Z" fill="#0B0A33"/>
<g filter="url(#filter0_d)">
<rect x="43.7148" y="91.0698" width="110.539" height="96.8562" rx="16" fill="#FF0000" fill-opacity="0.01"/>
</g>
<rect x="40.2441" y="86.6045" width="117.481" height="105.786" rx="17" fill="white"/>
<rect x="68.6738" y="162.972" width="60.6195" height="7" rx="3.5" fill="#EFF0F7"/>
<rect x="79.0059" y="109.023" width="39.9598" height="40" rx="11.6705" fill="#1877F2"/>
<path d="M100.834 140.273H96.4369V129.182H93.4414V125.572H96.4368V123.002C96.4368 119.958 97.7617 117.774 102.147 117.774C103.075 117.774 104.531 117.963 104.531 117.963V121.316H103.001C101.443 121.316 100.835 121.795 100.835 123.121V125.572H104.472L104.149 129.182H100.834L100.834 140.273Z" fill="white"/>
<g filter="url(#filter1_d)">
<rect x="304.438" y="90.103" width="110.971" height="98.7885" rx="16" fill="#FF0000" fill-opacity="0.01"/>
</g>
<rect x="301.182" y="86.6045" width="117.481" height="105.786" rx="17" fill="white"/>
<rect x="340.195" y="108.799" width="40.1835" height="40.2239" rx="11.6759" fill="#FF0000"/>
<path d="M360.899 137.09L356.017 136.999C354.437 136.967 352.852 137.031 351.303 136.701C348.945 136.209 348.778 133.797 348.604 131.774C348.363 128.93 348.456 126.034 348.91 123.213C349.167 121.631 350.176 120.686 351.738 120.583C357.008 120.21 362.313 120.255 367.571 120.429C368.127 120.445 368.686 120.532 369.234 120.631C371.937 121.115 372.003 123.848 372.178 126.149C372.353 128.474 372.279 130.811 371.945 133.119C371.677 135.031 371.164 136.634 369.001 136.789C366.29 136.991 363.641 137.154 360.922 137.102C360.923 137.09 360.907 137.09 360.899 137.09ZM358.029 132.25C360.072 131.052 362.076 129.874 364.107 128.684C362.06 127.486 360.06 126.308 358.029 125.117V132.25Z" fill="white"/>
<rect x="329.451" y="162.972" width="60.6195" height="7" rx="3.5" fill="#EFF0F7"/>
<g filter="url(#filter2_d)">
<rect x="172.795" y="88.7539" width="113.319" height="101.487" rx="16" fill="#FF0000" fill-opacity="0.01"/>
</g>
<rect x="170.713" y="86.6045" width="117.481" height="105.786" rx="17" fill="white"/>
<rect x="198.824" y="162.972" width="60.6195" height="7" rx="3.5" fill="#EFF0F7"/>
<rect x="209.154" y="109.023" width="39.9598" height="40" rx="11.6705" fill="#1DA1F2"/>
<path d="M225.325 138.137C233.723 138.137 238.316 131.125 238.316 125.045C238.316 124.846 238.312 124.648 238.303 124.45C239.197 123.799 239.968 122.992 240.581 122.068C239.763 122.434 238.882 122.681 237.959 122.792C238.901 122.222 239.625 121.321 239.967 120.247C239.07 120.783 238.09 121.161 237.067 121.364C236.234 120.47 235.048 119.91 233.734 119.91C231.213 119.91 229.168 121.971 229.168 124.511C229.168 124.872 229.208 125.223 229.287 125.56C225.492 125.368 222.127 123.537 219.875 120.753C219.469 121.455 219.256 122.253 219.257 123.065C219.257 124.662 220.063 126.071 221.288 126.895C220.563 126.873 219.854 126.676 219.221 126.32C219.22 126.339 219.22 126.358 219.22 126.379C219.22 128.607 220.794 130.467 222.883 130.889C222.491 130.997 222.086 131.051 221.679 131.051C221.385 131.051 221.099 131.022 220.821 130.968C221.402 132.796 223.088 134.127 225.086 134.164C223.523 135.398 221.555 136.133 219.415 136.133C219.051 136.134 218.688 136.112 218.326 136.07C220.347 137.375 222.746 138.137 225.325 138.137" fill="white"/>
<rect x="40.2285" y="203.89" width="247.511" height="171" rx="17" fill="white"/>
<path d="M55.7734 307.065L79.4693 286.008C83.6395 282.302 89.7092 281.67 94.5534 284.437L110.441 293.514C114.561 295.867 119.636 295.789 123.682 293.311L140.761 282.846C141.435 282.433 142.07 281.959 142.659 281.431L162.199 263.872C168.087 258.582 177.296 259.737 181.695 266.317L192.609 282.641C198.052 290.782 210.199 290.21 214.854 281.595L222.812 266.865C226.321 260.371 235.68 260.488 239.025 267.069V267.069C242.049 273.02 250.221 273.836 254.363 268.601L272.196 246.058" stroke="#596AFF" stroke-width="3" stroke-linecap="round"/>
<path d="M79.492 285.766L54.6367 307.065V349.391C54.6367 353.257 57.7707 356.391 61.6367 356.391H266.331C270.197 356.391 273.331 353.257 273.331 349.391V246.058L254.477 268.919C250.239 274.058 242.121 273.163 239.103 267.225C235.725 260.578 226.273 260.46 222.728 267.019L214.853 281.595C210.199 290.21 198.051 290.782 192.609 282.641L181.694 266.317C177.295 259.737 168.086 258.582 162.198 263.872L142.658 281.431C142.07 281.959 141.435 282.433 140.761 282.846L123.681 293.311C119.635 295.789 114.56 295.867 110.441 293.514L94.3996 284.35C89.6302 281.625 83.663 282.192 79.492 285.766Z" fill="url(#paint0_linear)"/>
<rect x="76.0117" y="225.787" width="54.4748" height="6.17912" rx="3.08956" fill="#D9DBE9"/>
<rect x="300.287" y="203.89" width="117.481" height="171" rx="17" fill="white"/>
<rect x="331.205" y="328.504" width="66.061" height="5" rx="2.5" fill="#EFF0F7"/>
<ellipse cx="319.722" cy="331.004" rx="6.48735" ry="6.4939" fill="#FF5F85"/>
<rect x="331.205" y="347.396" width="51.4405" height="5" rx="2.5" fill="#EFF0F7"/>
<ellipse cx="319.722" cy="349.897" rx="6.48735" ry="6.4939" fill="#596AFF"/>
<path d="M344.88 262.023C346.664 262.023 348.075 262.45 349.112 263.304C350.148 264.143 350.667 265.301 350.667 266.781C350.667 268.473 350.148 269.807 349.112 270.783C348.075 271.744 346.664 272.224 344.88 272.224C343.096 272.224 341.663 271.828 340.58 271.035C339.513 270.242 338.933 269.152 338.842 267.764L341.678 267.421C341.815 268.046 342.166 268.542 342.73 268.908C343.31 269.258 344.026 269.434 344.88 269.434C345.81 269.434 346.542 269.197 347.076 268.725C347.61 268.252 347.876 267.604 347.876 266.781C347.876 266.094 347.61 265.553 347.076 265.157C346.542 264.76 345.81 264.562 344.88 264.562H341.724V264.516L339.551 264.562L340.626 255.962H350.095V258.798H343.119L342.707 262.023H344.88ZM362.46 263.624C363.802 264.387 364.473 265.614 364.473 267.307C364.473 268.847 363.939 270.059 362.871 270.943C361.819 271.828 360.371 272.27 358.526 272.27C356.665 272.27 355.201 271.828 354.134 270.943C353.082 270.059 352.556 268.847 352.556 267.307C352.556 265.614 353.234 264.387 354.592 263.624C353.478 262.938 352.922 261.855 352.922 260.376C352.922 258.912 353.417 257.761 354.409 256.922C355.415 256.084 356.787 255.664 358.526 255.664C360.249 255.664 361.606 256.084 362.597 256.922C363.603 257.761 364.107 258.912 364.107 260.376C364.107 261.855 363.558 262.938 362.46 263.624ZM358.526 258.341C357.687 258.341 357.024 258.524 356.536 258.889C356.063 259.255 355.827 259.751 355.827 260.376C355.827 261.001 356.063 261.497 356.536 261.863C357.024 262.214 357.687 262.389 358.526 262.389C359.364 262.389 360.02 262.214 360.493 261.863C360.965 261.497 361.202 261.001 361.202 260.376C361.202 259.751 360.965 259.255 360.493 258.889C360.02 258.524 359.364 258.341 358.526 258.341ZM358.526 269.525C359.471 269.525 360.226 269.312 360.79 268.885C361.369 268.458 361.659 267.871 361.659 267.124C361.659 266.392 361.377 265.828 360.813 265.431C360.249 265.035 359.486 264.836 358.526 264.836C357.565 264.836 356.795 265.035 356.216 265.431C355.651 265.828 355.369 266.392 355.369 267.124C355.369 267.871 355.659 268.458 356.238 268.885C356.818 269.312 357.58 269.525 358.526 269.525ZM369.838 264.082C369.076 264.082 368.397 263.921 367.803 263.601C367.223 263.266 366.773 262.808 366.453 262.229C366.133 261.649 365.973 261.009 365.973 260.308C365.973 259.591 366.133 258.943 366.453 258.363C366.773 257.784 367.223 257.327 367.803 256.991C368.397 256.656 369.076 256.488 369.838 256.488C370.601 256.488 371.272 256.656 371.851 256.991C372.446 257.327 372.903 257.784 373.223 258.363C373.559 258.943 373.727 259.591 373.727 260.308C373.727 261.009 373.566 261.649 373.246 262.229C372.926 262.808 372.469 263.266 371.874 263.601C371.279 263.921 370.601 264.082 369.838 264.082ZM370.044 271.973H368.351L378.095 256.717H379.811L370.044 271.973ZM369.838 262.343C370.372 262.343 370.814 262.16 371.165 261.794C371.516 261.413 371.691 260.918 371.691 260.308C371.691 259.667 371.516 259.164 371.165 258.798C370.814 258.417 370.372 258.226 369.838 258.226C369.304 258.226 368.862 258.417 368.512 258.798C368.176 259.164 368.008 259.667 368.008 260.308C368.008 260.918 368.176 261.413 368.512 261.794C368.862 262.16 369.304 262.343 369.838 262.343ZM378.21 272.247C377.447 272.247 376.769 272.087 376.174 271.767C375.594 271.431 375.145 270.974 374.824 270.394C374.504 269.815 374.344 269.175 374.344 268.473C374.344 267.756 374.504 267.108 374.824 266.529C375.145 265.95 375.594 265.492 376.174 265.157C376.769 264.821 377.447 264.653 378.21 264.653C378.972 264.653 379.643 264.821 380.222 265.157C380.802 265.492 381.252 265.95 381.572 266.529C381.907 267.108 382.075 267.756 382.075 268.473C382.075 269.175 381.915 269.815 381.595 270.394C381.275 270.974 380.817 271.431 380.222 271.767C379.643 272.087 378.972 272.247 378.21 272.247ZM378.21 270.509C378.743 270.509 379.185 270.326 379.536 269.96C379.887 269.579 380.062 269.083 380.062 268.473C380.062 267.833 379.887 267.329 379.536 266.964C379.185 266.582 378.743 266.392 378.21 266.392C377.661 266.392 377.211 266.582 376.86 266.964C376.525 267.329 376.357 267.833 376.357 268.473C376.357 269.083 376.525 269.579 376.86 269.96C377.211 270.326 377.661 270.509 378.21 270.509Z" fill="#0B0A33"/>
<rect x="345.66" y="279.364" width="29.2523" height="6.17914" rx="3.08957" fill="#D9DBE9"/>
<path d="M393.516 292.624C388.702 299.516 381.955 304.824 374.128 307.876C366.301 310.929 357.746 311.59 349.544 309.776C341.342 307.962 333.861 303.753 328.047 297.682C322.234 291.612 318.349 283.951 316.885 275.67" stroke="#EFF0F7" stroke-width="6"/>
<path d="M332.032 301.345C325.036 295.692 320.012 287.963 317.684 279.27C315.355 270.576 315.842 261.368 319.075 252.969C322.308 244.571 328.119 237.416 335.672 232.535C343.225 227.654 352.13 225.298 361.105 225.806C370.08 226.314 378.663 229.659 385.618 235.361C392.574 241.063 397.543 248.828 399.81 257.537C402.077 266.247 401.524 275.452 398.232 283.828C394.94 292.203 389.078 299.316 381.491 304.143" stroke="#FF5F85" stroke-width="6" stroke-linecap="round"/>
<path d="M332.107 301.406C324.054 294.929 318.634 285.735 316.863 275.546C315.092 265.356 317.092 254.87 322.488 246.051C327.883 237.231 336.304 230.683 346.174 227.632C356.044 224.58 366.687 225.234 376.11 229.471" stroke="#596AFF" stroke-width="6" stroke-linecap="round"/>
<ellipse cx="61.0262" cy="228.876" rx="6.99296" ry="7" fill="#596AFF"/>
<defs>
<filter id="filter0_d" x="16.7148" y="76.0698" width="164.539" height="150.856" filterUnits="userSpaceOnUse" color-interpolation-filters="sRGB">
<feFlood flood-opacity="0" result="BackgroundImageFix"/>
<feColorMatrix in="SourceAlpha" type="matrix" values="0 0 0 0 0 0 0 0 0 0 0 0 0 0 0 0 0 0 127 0" result="hardAlpha"/>
<feOffset dy="12"/>
<feGaussianBlur stdDeviation="13.5"/>
<feColorMatrix type="matrix" values="0 0 0 0 0.0423448 0 0 0 0 0.0391396 0 0 0 0 0.199398 0 0 0 0.04 0"/>
<feBlend mode="normal" in2="BackgroundImageFix" result="effect1_dropShadow"/>
<feBlend mode="normal" in="SourceGraphic" in2="effect1_dropShadow" result="shape"/>
</filter>
<filter id="filter1_d" x="277.438" y="75.103" width="164.971" height="152.788" filterUnits="userSpaceOnUse" color-interpolation-filters="sRGB">
<feFlood flood-opacity="0" result="BackgroundImageFix"/>
<feColorMatrix in="SourceAlpha" type="matrix" values="0 0 0 0 0 0 0 0 0 0 0 0 0 0 0 0 0 0 127 0" result="hardAlpha"/>
<feOffset dy="12"/>
<feGaussianBlur stdDeviation="13.5"/>
<feColorMatrix type="matrix" values="0 0 0 0 0.0423448 0 0 0 0 0.0391396 0 0 0 0 0.199398 0 0 0 0.04 0"/>
<feBlend mode="normal" in2="BackgroundImageFix" result="effect1_dropShadow"/>
<feBlend mode="normal" in="SourceGraphic" in2="effect1_dropShadow" result="shape"/>
</filter>
<filter id="filter2_d" x="145.795" y="73.7539" width="167.319" height="155.487" filterUnits="userSpaceOnUse" color-interpolation-filters="sRGB">
<feFlood flood-opacity="0" result="BackgroundImageFix"/>
<feColorMatrix in="SourceAlpha" type="matrix" values="0 0 0 0 0 0 0 0 0 0 0 0 0 0 0 0 0 0 127 0" result="hardAlpha"/>
<feOffset dy="12"/>
<feGaussianBlur stdDeviation="13.5"/>
<feColorMatrix type="matrix" values="0 0 0 0 0.0423448 0 0 0 0 0.0391396 0 0 0 0 0.199398 0 0 0 0.04 0"/>
<feBlend mode="normal" in2="BackgroundImageFix" result="effect1_dropShadow"/>
<feBlend mode="normal" in="SourceGraphic" in2="effect1_dropShadow" result="shape"/>
</filter>
<linearGradient id="paint0_linear" x1="163.984" y1="246.058" x2="163.984" y2="356.391" gradientUnits="userSpaceOnUse">
<stop stop-color="#4457FF" stop-opacity="0.51"/>
<stop offset="0.645833" stop-color="#5162FF" stop-opacity="0.13"/>
<stop offset="0.9999" stop-color="#596AFF" stop-opacity="0"/>
</linearGradient>
</defs>
</svg>
