<svg width="73" height="73" viewBox="0 0 73 73" fill="none" xmlns="http://www.w3.org/2000/svg">
<rect width="73" height="73" fill="#FF5F85"/>
<path d="M26.1011 26.2414C25.3255 26.6896 24.6857 27.3394 24.2497 28.1218C23.8136 28.9043 23.5975 29.7902 23.6244 30.6856L23.8613 39.1637C23.8662 39.3239 23.9099 39.4806 23.9885 39.6202C24.0672 39.7599 24.1785 39.8785 24.313 39.9657L37.2511 48.3679C37.3856 48.4552 37.5391 48.5087 37.6987 48.5237C37.8583 48.5388 38.0192 48.5149 38.1675 48.4542L46.0223 45.231C46.8506 44.8901 47.5711 44.3313 48.1073 43.6139C48.6436 42.8965 48.9757 42.0473 49.0683 41.1564L51.6218 16.9406C51.6395 16.7698 51.6428 16.5978 51.6315 16.4264C51.6245 16.3225 51.585 16.2235 51.5185 16.1433C51.4521 16.0632 51.3621 16.0059 51.2613 15.9797C51.1605 15.9536 51.0541 15.9597 50.957 15.9974C50.8599 16.0351 50.7772 16.1024 50.7205 16.1897L40.8517 31.3863C40.7564 31.5325 40.7013 31.7012 40.692 31.8755C40.6827 32.0497 40.7195 32.2233 40.7987 32.3788C41.1953 33.1573 41.324 34.0449 41.1648 34.9039C41.0056 35.763 40.5674 36.5455 39.9181 37.1301C39.2688 37.7147 38.4448 38.0687 37.5738 38.1373C36.7028 38.2058 35.8335 37.9851 35.1008 37.5092C34.3681 37.0334 33.8128 36.3291 33.5212 35.5055C33.2295 34.6819 33.2178 33.7851 33.4878 32.9542C33.7578 32.1233 34.2944 31.4047 35.0144 30.9098C35.7344 30.4149 36.5976 30.1715 37.4701 30.2172C37.6444 30.2263 37.818 30.1894 37.9734 30.11C38.1288 30.0306 38.2605 29.9117 38.3553 29.7651L48.2241 14.5685C48.2808 14.4812 48.3086 14.3782 48.3035 14.2742C48.2984 14.1702 48.2608 14.0704 48.1959 13.989C48.131 13.9076 48.0421 13.8487 47.9418 13.8206C47.8416 13.7925 47.735 13.7967 47.6372 13.8325C47.4761 13.8919 47.3203 13.9649 47.1715 14.0506L26.1011 26.2414Z" fill="white"/>
<path d="M23.8789 42.051C23.6932 41.9305 23.4726 41.8755 23.2521 41.8948C23.0317 41.9142 22.824 42.0066 22.6621 42.1576L16.6746 47.7339C16.5644 47.8367 16.479 47.9632 16.425 48.1039C16.3709 48.2446 16.3497 48.3958 16.3628 48.5459C16.3759 48.6961 16.423 48.8413 16.5006 48.9705C16.5782 49.0997 16.6842 49.2095 16.8106 49.2916L31.7892 59.0188C31.9156 59.1009 32.0591 59.1531 32.2087 59.1714C32.3582 59.1897 32.5101 59.1737 32.6526 59.1246C32.795 59.0755 32.9245 58.9946 33.031 58.8881C33.1376 58.7815 33.2185 58.652 33.2675 58.5095L35.9265 50.7715C35.9985 50.5623 35.9985 50.3349 35.9265 50.1256C35.8544 49.9164 35.7145 49.7372 35.5289 49.6166L23.8789 42.051Z" fill="white"/>
</svg>
