<svg width="52" height="52" viewBox="0 0 52 52" fill="none" xmlns="http://www.w3.org/2000/svg">
<rect width="52" height="52" fill="#596AFF"/>
<path fill-rule="evenodd" clip-rule="evenodd" d="M11.6113 24.0863C11.6113 17.1974 17.1365 11.6128 23.9521 11.6128C27.2251 11.6128 30.364 12.927 32.6783 15.2662C34.9927 17.6055 36.2929 20.7782 36.2929 24.0863C36.2929 30.9753 30.7677 36.5599 23.9521 36.5599C17.1365 36.5599 11.6113 30.9753 11.6113 24.0863ZM36.0921 34.1348L39.7676 37.1016H39.8314C40.575 37.8532 40.575 39.0718 39.8314 39.8234C39.0878 40.575 37.8822 40.575 37.1386 39.8234L34.0885 36.3277C33.8002 36.0372 33.6381 35.6427 33.6381 35.2312C33.6381 34.8198 33.8002 34.4252 34.0885 34.1348C34.6446 33.5825 35.5361 33.5825 36.0921 34.1348Z" fill="white"/>
</svg>
