<svg width="86" height="86" viewBox="0 0 86 86" fill="none" xmlns="http://www.w3.org/2000/svg">
<g clip-path="url(#clip0)">
<rect width="86" height="86" fill="white"/>
<rect width="86.126" height="86.126" fill="#1DA1F2"/>
<path d="M33.9419 63.1767C52.4962 63.1767 62.643 47.7017 62.643 34.2823C62.643 33.8428 62.6341 33.4053 62.6144 32.9697C64.5887 31.5315 66.2926 29.7507 67.6462 27.711C65.8387 28.5199 63.8937 29.0644 61.8533 29.3099C63.936 28.0527 65.5348 26.0638 66.2892 23.693C64.309 24.8755 62.1427 25.7092 59.8837 26.158C58.043 24.184 55.4224 22.9495 52.5205 22.9495C46.9499 22.9495 42.4326 27.4974 42.4326 33.1033C42.4326 33.9003 42.5212 34.6753 42.6943 35.4189C34.3105 34.9942 26.8763 30.9532 21.901 24.8086C21.0049 26.3584 20.5335 28.1197 20.5351 29.9128C20.5351 33.4361 22.3159 36.5464 25.0241 38.3661C23.4221 38.3168 21.8554 37.8812 20.4556 37.0959C20.4541 37.1385 20.4541 37.1801 20.4541 37.2256C20.4541 42.1437 23.9311 46.25 28.5468 47.1805C27.6799 47.4181 26.7854 47.5383 25.8869 47.5378C25.238 47.5378 24.6056 47.4735 23.9911 47.3548C25.2753 51.3897 28.9992 54.326 33.4143 54.4081C29.9617 57.1324 25.6126 58.7551 20.8857 58.7551C20.0816 58.7557 19.2781 58.7088 18.4795 58.6144C22.9439 61.4951 28.2449 63.176 33.9424 63.176" fill="white"/>
</g>
<defs>
<clipPath id="clip0">
<rect width="86" height="86" fill="white"/>
</clipPath>
</defs>
</svg>
