<svg width="254" height="268" viewBox="0 0 254 268" fill="none" xmlns="http://www.w3.org/2000/svg">
<rect width="254" height="268" fill="white"/>
<rect width="254" height="268" fill="white"/>
<g filter="url(#filter0_d)">
<circle cx="48" cy="86" r="25" fill="#FF0000" fill-opacity="0.01"/>
</g>
<g filter="url(#filter1_d)">
<circle cx="48" cy="147" r="25" fill="#FF0000" fill-opacity="0.01"/>
</g>
<g filter="url(#filter2_d)">
<circle cx="48.5586" cy="209" r="25" fill="#FF0000" fill-opacity="0.01"/>
</g>
<path d="M33.306 34.286C33.726 34.646 34.05 35.078 34.278 35.582C34.518 36.086 34.638 36.62 34.638 37.184C34.638 37.868 34.47 38.504 34.134 39.092C33.81 39.668 33.366 40.13 32.802 40.478C32.25 40.814 31.644 40.982 30.984 40.982H27.636V41H25.278V28.4H30.696C31.32 28.4 31.896 28.562 32.424 28.886C32.952 29.21 33.372 29.648 33.684 30.2C33.996 30.74 34.152 31.322 34.152 31.946C34.152 32.366 34.074 32.78 33.918 33.188C33.774 33.584 33.57 33.95 33.306 34.286ZM27.636 30.632V33.458L30.696 33.44C31.044 33.44 31.344 33.308 31.596 33.044C31.86 32.768 31.992 32.432 31.992 32.036C31.992 31.628 31.86 31.292 31.596 31.028C31.344 30.764 31.044 30.632 30.696 30.632H27.636ZM30.984 38.75C31.368 38.75 31.698 38.594 31.974 38.282C32.262 37.958 32.406 37.586 32.406 37.166C32.406 36.746 32.262 36.38 31.974 36.068C31.698 35.744 31.368 35.582 30.984 35.582H27.636V38.75H30.984ZM41.6777 31.82L41.5157 33.926C41.4437 33.902 41.3177 33.89 41.1377 33.89C40.3937 33.89 39.7757 34.106 39.2837 34.538C38.8037 34.97 38.5637 35.558 38.5637 36.302V41H36.3317V32H38.5637V33.512C38.7677 33.032 39.1157 32.63 39.6077 32.306C40.0997 31.982 40.6937 31.82 41.3897 31.82H41.6777ZM46.8371 41.252C45.9851 41.252 45.1931 41.042 44.4611 40.622C43.7411 40.19 43.1651 39.614 42.7331 38.894C42.3131 38.162 42.1031 37.37 42.1031 36.518C42.1031 35.666 42.3131 34.88 42.7331 34.16C43.1651 33.428 43.7411 32.852 44.4611 32.432C45.1931 32 45.9851 31.784 46.8371 31.784C47.6891 31.784 48.4751 32 49.1951 32.432C49.9271 32.852 50.5031 33.428 50.9231 34.16C51.3551 34.88 51.5711 35.666 51.5711 36.518C51.5711 37.37 51.3551 38.162 50.9231 38.894C50.5031 39.614 49.9271 40.19 49.1951 40.622C48.4751 41.042 47.6891 41.252 46.8371 41.252ZM46.8191 39.02C47.2751 39.02 47.6951 38.912 48.0791 38.696C48.4631 38.468 48.7691 38.162 48.9971 37.778C49.2251 37.394 49.3391 36.974 49.3391 36.518C49.3391 36.062 49.2251 35.642 48.9971 35.258C48.7691 34.874 48.4631 34.568 48.0791 34.34C47.6951 34.112 47.2751 33.998 46.8191 33.998C46.3631 33.998 45.9431 34.112 45.5591 34.34C45.1751 34.568 44.8691 34.874 44.6411 35.258C44.4251 35.642 44.3171 36.062 44.3171 36.518C44.3171 36.974 44.4251 37.394 44.6411 37.778C44.8691 38.162 45.1751 38.468 45.5591 38.696C45.9431 38.912 46.3631 39.02 46.8191 39.02ZM61.3549 37.454L63.0289 32H65.3689L62.4529 41H60.2389L58.5469 35.654L56.8549 41H54.6769L51.8329 32H54.1549L55.7749 37.418L57.3589 32H59.7349L61.3549 37.454ZM68.7386 34.52C68.7386 34.772 68.8766 34.964 69.1526 35.096C69.4406 35.216 69.8906 35.342 70.5026 35.474C71.1986 35.618 71.7806 35.78 72.2486 35.96C72.7166 36.14 73.1186 36.428 73.4546 36.824C73.8026 37.208 73.9766 37.73 73.9766 38.39C73.9766 38.978 73.7966 39.488 73.4366 39.92C73.0886 40.352 72.6206 40.682 72.0326 40.91C71.4446 41.126 70.8026 41.234 70.1066 41.234C69.1586 41.234 68.3426 41.054 67.6586 40.694C66.9866 40.334 66.4886 39.818 66.1646 39.146L68.0006 38.192C68.3246 39.02 69.0266 39.434 70.1066 39.434C70.5746 39.434 70.9766 39.344 71.3126 39.164C71.6486 38.984 71.8166 38.726 71.8166 38.39C71.8166 38.102 71.6606 37.892 71.3486 37.76C71.0486 37.616 70.5566 37.46 69.8726 37.292C69.1646 37.124 68.5886 36.956 68.1446 36.788C67.7006 36.62 67.3166 36.362 66.9926 36.014C66.6686 35.654 66.5066 35.18 66.5066 34.592C66.5066 34.016 66.6686 33.518 66.9926 33.098C67.3166 32.666 67.7546 32.336 68.3066 32.108C68.8586 31.88 69.4646 31.766 70.1246 31.766C70.9046 31.766 71.6006 31.928 72.2126 32.252C72.8366 32.576 73.3166 33.038 73.6526 33.638L71.8346 34.556C71.5226 33.884 70.9526 33.548 70.1246 33.548C69.7046 33.548 69.3686 33.638 69.1166 33.818C68.8646 33.986 68.7386 34.22 68.7386 34.52ZM79.5851 31.766C80.4491 31.766 81.2231 31.982 81.9071 32.414C82.6031 32.834 83.1431 33.404 83.5271 34.124C83.9111 34.844 84.1031 35.642 84.1031 36.518C84.1031 36.806 84.0791 37.07 84.0311 37.31H77.0831C77.2631 37.946 77.5811 38.444 78.0371 38.804C78.4931 39.152 79.0751 39.326 79.7831 39.326C80.2151 39.326 80.6291 39.23 81.0251 39.038C81.4331 38.846 81.7391 38.6 81.9431 38.3L83.6531 39.308C83.2331 39.932 82.6871 40.412 82.0151 40.748C81.3551 41.072 80.5931 41.234 79.7291 41.234C78.7691 41.234 77.9171 41.03 77.1731 40.622C76.4291 40.214 75.8531 39.65 75.4451 38.93C75.0491 38.21 74.8511 37.4 74.8511 36.5C74.8511 35.612 75.0491 34.808 75.4451 34.088C75.8531 33.368 76.4171 32.804 77.1371 32.396C77.8571 31.976 78.6731 31.766 79.5851 31.766ZM82.0151 35.564C81.9191 34.988 81.6491 34.538 81.2051 34.214C80.7731 33.878 80.2271 33.71 79.5671 33.71C79.1111 33.71 78.6911 33.794 78.3071 33.962C77.9351 34.13 77.6351 34.358 77.4071 34.646C77.1791 34.934 77.0591 35.24 77.0471 35.564H82.0151ZM90.8613 31.82L90.6993 33.926C90.6273 33.902 90.5013 33.89 90.3213 33.89C89.5773 33.89 88.9593 34.106 88.4673 34.538C87.9873 34.97 87.7473 35.558 87.7473 36.302V41H85.5153V32H87.7473V33.512C87.9513 33.032 88.2993 32.63 88.7913 32.306C89.2833 31.982 89.8773 31.82 90.5733 31.82H90.8613ZM102.646 32H104.878V41H102.646V40.244C102.322 40.544 101.962 40.784 101.566 40.964C101.17 41.144 100.75 41.234 100.306 41.234C99.7782 41.234 99.2382 41.126 98.6862 40.91C98.1462 40.682 97.6782 40.28 97.2822 39.704C96.8982 39.128 96.7062 38.354 96.7062 37.382V32H98.9382V37.382C98.9382 38.054 99.1242 38.54 99.4962 38.84C99.8802 39.128 100.324 39.272 100.828 39.272C101.332 39.272 101.758 39.098 102.106 38.75C102.466 38.39 102.646 37.82 102.646 37.04V32ZM108.782 34.52C108.782 34.772 108.92 34.964 109.196 35.096C109.484 35.216 109.934 35.342 110.546 35.474C111.242 35.618 111.824 35.78 112.292 35.96C112.76 36.14 113.162 36.428 113.498 36.824C113.846 37.208 114.02 37.73 114.02 38.39C114.02 38.978 113.84 39.488 113.48 39.92C113.132 40.352 112.664 40.682 112.076 40.91C111.488 41.126 110.846 41.234 110.15 41.234C109.202 41.234 108.386 41.054 107.702 40.694C107.03 40.334 106.532 39.818 106.208 39.146L108.044 38.192C108.368 39.02 109.07 39.434 110.15 39.434C110.618 39.434 111.02 39.344 111.356 39.164C111.692 38.984 111.86 38.726 111.86 38.39C111.86 38.102 111.704 37.892 111.392 37.76C111.092 37.616 110.6 37.46 109.916 37.292C109.208 37.124 108.632 36.956 108.188 36.788C107.744 36.62 107.36 36.362 107.036 36.014C106.712 35.654 106.55 35.18 106.55 34.592C106.55 34.016 106.712 33.518 107.036 33.098C107.36 32.666 107.798 32.336 108.35 32.108C108.902 31.88 109.508 31.766 110.168 31.766C110.948 31.766 111.644 31.928 112.256 32.252C112.88 32.576 113.36 33.038 113.696 33.638L111.878 34.556C111.566 33.884 110.996 33.548 110.168 33.548C109.748 33.548 109.412 33.638 109.16 33.818C108.908 33.986 108.782 34.22 108.782 34.52ZM122.454 32H124.686V41H122.454V40.118C122.034 40.478 121.572 40.76 121.068 40.964C120.576 41.156 120.054 41.252 119.502 41.252C118.59 41.252 117.792 41.048 117.108 40.64C116.424 40.232 115.896 39.668 115.524 38.948C115.164 38.228 114.984 37.418 114.984 36.518C114.984 35.618 115.164 34.808 115.524 34.088C115.896 33.368 116.424 32.804 117.108 32.396C117.792 31.976 118.59 31.766 119.502 31.766C120.054 31.766 120.576 31.868 121.068 32.072C121.572 32.264 122.034 32.54 122.454 32.9V32ZM119.79 39.11C120.282 39.11 120.726 39.002 121.122 38.786C121.53 38.558 121.848 38.246 122.076 37.85C122.316 37.454 122.436 37.004 122.436 36.5C122.436 35.744 122.178 35.126 121.662 34.646C121.158 34.166 120.534 33.926 119.79 33.926C119.034 33.926 118.41 34.172 117.918 34.664C117.438 35.144 117.198 35.762 117.198 36.518C117.198 37.274 117.438 37.898 117.918 38.39C118.41 38.87 119.034 39.11 119.79 39.11ZM133.705 32H135.937V40.55C135.937 41.402 135.721 42.152 135.289 42.8C134.869 43.448 134.281 43.946 133.525 44.294C132.769 44.654 131.923 44.834 130.987 44.834C129.943 44.834 128.995 44.63 128.143 44.222C127.291 43.826 126.691 43.304 126.343 42.656L128.251 41.558C128.431 41.906 128.767 42.194 129.259 42.422C129.751 42.662 130.345 42.782 131.041 42.782C131.809 42.782 132.445 42.572 132.949 42.152C133.453 41.744 133.705 41.21 133.705 40.55V40.136C133.297 40.496 132.841 40.772 132.337 40.964C131.833 41.156 131.311 41.252 130.771 41.252C129.859 41.252 129.061 41.048 128.377 40.64C127.693 40.232 127.165 39.668 126.793 38.948C126.433 38.228 126.253 37.418 126.253 36.518C126.253 35.618 126.433 34.808 126.793 34.088C127.165 33.368 127.693 32.804 128.377 32.396C129.061 31.976 129.859 31.766 130.771 31.766C131.311 31.766 131.827 31.868 132.319 32.072C132.823 32.264 133.285 32.534 133.705 32.882V32ZM131.059 39.11C131.551 39.11 131.995 39.002 132.391 38.786C132.799 38.558 133.117 38.246 133.345 37.85C133.585 37.454 133.705 37.004 133.705 36.5C133.705 35.744 133.447 35.126 132.931 34.646C132.427 34.166 131.803 33.926 131.059 33.926C130.303 33.926 129.679 34.172 129.187 34.664C128.707 35.144 128.467 35.762 128.467 36.518C128.467 37.274 128.707 37.898 129.187 38.39C129.679 38.87 130.303 39.11 131.059 39.11ZM142.111 31.766C142.975 31.766 143.749 31.982 144.433 32.414C145.129 32.834 145.669 33.404 146.053 34.124C146.437 34.844 146.629 35.642 146.629 36.518C146.629 36.806 146.605 37.07 146.557 37.31H139.609C139.789 37.946 140.107 38.444 140.563 38.804C141.019 39.152 141.601 39.326 142.309 39.326C142.741 39.326 143.155 39.23 143.551 39.038C143.959 38.846 144.265 38.6 144.469 38.3L146.179 39.308C145.759 39.932 145.213 40.412 144.541 40.748C143.881 41.072 143.119 41.234 142.255 41.234C141.295 41.234 140.443 41.03 139.699 40.622C138.955 40.214 138.379 39.65 137.971 38.93C137.575 38.21 137.377 37.4 137.377 36.5C137.377 35.612 137.575 34.808 137.971 34.088C138.379 33.368 138.943 32.804 139.663 32.396C140.383 31.976 141.199 31.766 142.111 31.766ZM144.541 35.564C144.445 34.988 144.175 34.538 143.731 34.214C143.299 33.878 142.753 33.71 142.093 33.71C141.637 33.71 141.217 33.794 140.833 33.962C140.461 34.13 140.161 34.358 139.933 34.646C139.705 34.934 139.585 35.24 139.573 35.564H144.541Z" fill="#0B0A33"/>
<rect x="88" y="89" width="99" height="10" rx="5" fill="#EFF0F7"/>
<path d="M204.999 91.368C205.799 91.368 206.514 91.5387 207.143 91.88C207.773 92.2213 208.263 92.6907 208.615 93.288C208.978 93.8747 209.159 94.5413 209.159 95.288C209.159 96.0347 208.978 96.7067 208.615 97.304C208.263 97.8907 207.767 98.3547 207.127 98.696C206.498 99.0267 205.789 99.192 204.999 99.192C204.21 99.192 203.501 99.0267 202.871 98.696C202.242 98.3547 201.746 97.8907 201.383 97.304C201.031 96.7067 200.855 96.0347 200.855 95.288C200.855 94.392 201.117 93.5973 201.639 92.904L204.855 87.8H206.535L204.263 91.416C204.498 91.384 204.743 91.368 204.999 91.368ZM204.999 97.736C205.501 97.736 205.954 97.6293 206.359 97.416C206.765 97.2027 207.079 96.9093 207.303 96.536C207.527 96.1627 207.639 95.7467 207.639 95.288C207.639 94.8293 207.522 94.4133 207.287 94.04C207.063 93.656 206.749 93.3573 206.343 93.144C205.949 92.9307 205.501 92.824 204.999 92.824C204.509 92.824 204.061 92.9307 203.655 93.144C203.261 93.3573 202.946 93.6507 202.711 94.024C202.487 94.3973 202.375 94.8187 202.375 95.288C202.375 95.7573 202.487 96.1787 202.711 96.552C202.946 96.9253 203.261 97.2187 203.655 97.432C204.061 97.6347 204.509 97.736 204.999 97.736ZM215.365 87.8V97.624H218.613V99H210.373V97.624H213.909V89.32L211.765 90.344L211.061 89.192L213.909 87.8H215.365ZM222.275 93.448C221.774 93.448 221.326 93.336 220.931 93.112C220.536 92.8773 220.227 92.5627 220.003 92.168C219.79 91.7627 219.683 91.3147 219.683 90.824C219.683 90.3227 219.79 89.8693 220.003 89.464C220.227 89.0587 220.536 88.744 220.931 88.52C221.326 88.2853 221.774 88.168 222.275 88.168C222.787 88.168 223.24 88.2853 223.635 88.52C224.03 88.744 224.339 89.0587 224.563 89.464C224.787 89.8693 224.899 90.3227 224.899 90.824C224.899 91.3147 224.787 91.7627 224.563 92.168C224.35 92.5627 224.04 92.8773 223.635 93.112C223.24 93.336 222.787 93.448 222.275 93.448ZM222.195 99H221.267L228.083 88.328H229.027L222.195 99ZM222.275 92.536C222.734 92.536 223.107 92.376 223.395 92.056C223.683 91.736 223.827 91.3253 223.827 90.824C223.827 90.3013 223.683 89.88 223.395 89.56C223.107 89.24 222.734 89.08 222.275 89.08C221.838 89.08 221.47 89.2453 221.171 89.576C220.883 89.896 220.739 90.312 220.739 90.824C220.739 91.3147 220.883 91.7253 221.171 92.056C221.47 92.376 221.838 92.536 222.275 92.536ZM227.907 99.192C227.406 99.192 226.958 99.08 226.563 98.856C226.168 98.6213 225.859 98.3067 225.635 97.912C225.422 97.5067 225.315 97.0587 225.315 96.568C225.315 96.0667 225.422 95.6133 225.635 95.208C225.859 94.8027 226.168 94.488 226.563 94.264C226.958 94.0293 227.406 93.912 227.907 93.912C228.419 93.912 228.872 94.0293 229.267 94.264C229.662 94.488 229.966 94.8027 230.179 95.208C230.403 95.6133 230.515 96.0667 230.515 96.568C230.515 97.0587 230.403 97.5067 230.179 97.912C229.966 98.3067 229.662 98.6213 229.267 98.856C228.872 99.08 228.419 99.192 227.907 99.192ZM227.907 98.28C228.366 98.28 228.739 98.12 229.027 97.8C229.315 97.48 229.459 97.0693 229.459 96.568C229.459 96.056 229.315 95.64 229.027 95.32C228.739 94.9893 228.366 94.824 227.907 94.824C227.459 94.824 227.091 94.9893 226.803 95.32C226.515 95.64 226.371 96.056 226.371 96.568C226.371 97.0693 226.51 97.48 226.787 97.8C227.075 98.12 227.448 98.28 227.907 98.28Z" fill="#7A7D9C"/>
<path d="M209.111 157.608V159H201.111V158.568C201.197 157.555 201.522 156.573 202.087 155.624C202.653 154.675 203.442 153.981 204.455 153.544L204.999 153.304C205.575 153.048 206.018 152.835 206.327 152.664C206.647 152.483 206.914 152.259 207.127 151.992C207.341 151.715 207.447 151.379 207.447 150.984C207.447 150.557 207.33 150.189 207.095 149.88C206.861 149.571 206.567 149.341 206.215 149.192C205.863 149.032 205.511 148.952 205.159 148.952C204.434 148.952 203.81 149.101 203.287 149.4C202.765 149.699 202.455 150.152 202.359 150.76L200.967 150.6C201.063 149.971 201.309 149.432 201.703 148.984C202.109 148.525 202.615 148.184 203.223 147.96C203.831 147.725 204.477 147.608 205.159 147.608C205.778 147.608 206.37 147.741 206.935 148.008C207.501 148.264 207.959 148.643 208.311 149.144C208.674 149.645 208.855 150.237 208.855 150.92C208.855 151.613 208.69 152.189 208.359 152.648C208.029 153.107 207.618 153.475 207.127 153.752C206.637 154.029 205.933 154.36 205.015 154.744C204.471 154.989 204.013 155.368 203.639 155.88C203.266 156.381 202.983 156.957 202.791 157.608H209.111ZM210.469 149.176V147.8H218.533V148.904L214.021 159H212.421L216.805 149.176H210.469ZM222.275 153.448C221.774 153.448 221.326 153.336 220.931 153.112C220.536 152.877 220.227 152.563 220.003 152.168C219.79 151.763 219.683 151.315 219.683 150.824C219.683 150.323 219.79 149.869 220.003 149.464C220.227 149.059 220.536 148.744 220.931 148.52C221.326 148.285 221.774 148.168 222.275 148.168C222.787 148.168 223.24 148.285 223.635 148.52C224.03 148.744 224.339 149.059 224.563 149.464C224.787 149.869 224.899 150.323 224.899 150.824C224.899 151.315 224.787 151.763 224.563 152.168C224.35 152.563 224.04 152.877 223.635 153.112C223.24 153.336 222.787 153.448 222.275 153.448ZM222.195 159H221.267L228.083 148.328H229.027L222.195 159ZM222.275 152.536C222.734 152.536 223.107 152.376 223.395 152.056C223.683 151.736 223.827 151.325 223.827 150.824C223.827 150.301 223.683 149.88 223.395 149.56C223.107 149.24 222.734 149.08 222.275 149.08C221.838 149.08 221.47 149.245 221.171 149.576C220.883 149.896 220.739 150.312 220.739 150.824C220.739 151.315 220.883 151.725 221.171 152.056C221.47 152.376 221.838 152.536 222.275 152.536ZM227.907 159.192C227.406 159.192 226.958 159.08 226.563 158.856C226.168 158.621 225.859 158.307 225.635 157.912C225.422 157.507 225.315 157.059 225.315 156.568C225.315 156.067 225.422 155.613 225.635 155.208C225.859 154.803 226.168 154.488 226.563 154.264C226.958 154.029 227.406 153.912 227.907 153.912C228.419 153.912 228.872 154.029 229.267 154.264C229.662 154.488 229.966 154.803 230.179 155.208C230.403 155.613 230.515 156.067 230.515 156.568C230.515 157.059 230.403 157.507 230.179 157.912C229.966 158.307 229.662 158.621 229.267 158.856C228.872 159.08 228.419 159.192 227.907 159.192ZM227.907 158.28C228.366 158.28 228.739 158.12 229.027 157.8C229.315 157.48 229.459 157.069 229.459 156.568C229.459 156.056 229.315 155.64 229.027 155.32C228.739 154.989 228.366 154.824 227.907 154.824C227.459 154.824 227.091 154.989 226.803 155.32C226.515 155.64 226.371 156.056 226.371 156.568C226.371 157.069 226.51 157.48 226.787 157.8C227.075 158.12 227.448 158.28 227.907 158.28Z" fill="#7A7D9C"/>
<path d="M205.943 210.8V220.624H209.191V222H200.951V220.624H204.487V212.32L202.343 213.344L201.639 212.192L204.487 210.8H205.943ZM218.533 220.608V222H210.533V221.568C210.619 220.555 210.944 219.573 211.509 218.624C212.075 217.675 212.864 216.981 213.877 216.544L214.421 216.304C214.997 216.048 215.44 215.835 215.749 215.664C216.069 215.483 216.336 215.259 216.549 214.992C216.763 214.715 216.869 214.379 216.869 213.984C216.869 213.557 216.752 213.189 216.517 212.88C216.283 212.571 215.989 212.341 215.637 212.192C215.285 212.032 214.933 211.952 214.581 211.952C213.856 211.952 213.232 212.101 212.709 212.4C212.187 212.699 211.877 213.152 211.781 213.76L210.389 213.6C210.485 212.971 210.731 212.432 211.125 211.984C211.531 211.525 212.037 211.184 212.645 210.96C213.253 210.725 213.899 210.608 214.581 210.608C215.2 210.608 215.792 210.741 216.357 211.008C216.923 211.264 217.381 211.643 217.733 212.144C218.096 212.645 218.277 213.237 218.277 213.92C218.277 214.613 218.112 215.189 217.781 215.648C217.451 216.107 217.04 216.475 216.549 216.752C216.059 217.029 215.355 217.36 214.437 217.744C213.893 217.989 213.435 218.368 213.061 218.88C212.688 219.381 212.405 219.957 212.213 220.608H218.533ZM222.275 216.448C221.774 216.448 221.326 216.336 220.931 216.112C220.536 215.877 220.227 215.563 220.003 215.168C219.79 214.763 219.683 214.315 219.683 213.824C219.683 213.323 219.79 212.869 220.003 212.464C220.227 212.059 220.536 211.744 220.931 211.52C221.326 211.285 221.774 211.168 222.275 211.168C222.787 211.168 223.24 211.285 223.635 211.52C224.03 211.744 224.339 212.059 224.563 212.464C224.787 212.869 224.899 213.323 224.899 213.824C224.899 214.315 224.787 214.763 224.563 215.168C224.35 215.563 224.04 215.877 223.635 216.112C223.24 216.336 222.787 216.448 222.275 216.448ZM222.195 222H221.267L228.083 211.328H229.027L222.195 222ZM222.275 215.536C222.734 215.536 223.107 215.376 223.395 215.056C223.683 214.736 223.827 214.325 223.827 213.824C223.827 213.301 223.683 212.88 223.395 212.56C223.107 212.24 222.734 212.08 222.275 212.08C221.838 212.08 221.47 212.245 221.171 212.576C220.883 212.896 220.739 213.312 220.739 213.824C220.739 214.315 220.883 214.725 221.171 215.056C221.47 215.376 221.838 215.536 222.275 215.536ZM227.907 222.192C227.406 222.192 226.958 222.08 226.563 221.856C226.168 221.621 225.859 221.307 225.635 220.912C225.422 220.507 225.315 220.059 225.315 219.568C225.315 219.067 225.422 218.613 225.635 218.208C225.859 217.803 226.168 217.488 226.563 217.264C226.958 217.029 227.406 216.912 227.907 216.912C228.419 216.912 228.872 217.029 229.267 217.264C229.662 217.488 229.966 217.803 230.179 218.208C230.403 218.613 230.515 219.067 230.515 219.568C230.515 220.059 230.403 220.507 230.179 220.912C229.966 221.307 229.662 221.621 229.267 221.856C228.872 222.08 228.419 222.192 227.907 222.192ZM227.907 221.28C228.366 221.28 228.739 221.12 229.027 220.8C229.315 220.48 229.459 220.069 229.459 219.568C229.459 219.056 229.315 218.64 229.027 218.32C228.739 217.989 228.366 217.824 227.907 217.824C227.459 217.824 227.091 217.989 226.803 218.32C226.515 218.64 226.371 219.056 226.371 219.568C226.371 220.069 226.51 220.48 226.787 220.8C227.075 221.12 227.448 221.28 227.907 221.28Z" fill="#7A7D9C"/>
<rect x="88" y="89" width="74" height="10" rx="5" fill="#FF5F85"/>
<rect x="88" y="74" width="60" height="8" rx="4" fill="#D9DBE9"/>
<circle cx="48" cy="86" r="25" fill="white"/>
<path d="M47.8914 69.003C47.8914 69.003 57.8768 68.5536 63.169 78.5889H47.0423C47.0423 78.5889 43.9965 78.4887 41.4003 82.1839C40.6515 83.7318 39.8528 85.3295 40.7514 88.4744C39.4534 86.2781 33.8613 76.5421 33.8613 76.5421C33.8613 76.5421 37.8061 69.4023 47.8914 69.003Z" fill="#EA4335"/>
<path d="M62.649 94.4825C62.649 94.4825 58.0443 103.354 46.707 102.918C48.1056 100.497 54.7723 88.9528 54.7723 88.9528C54.7723 88.9528 56.3818 86.3655 54.4813 82.2695C53.5152 80.8468 52.5313 79.356 49.358 78.5611C51.9101 78.5358 63.1368 78.5628 63.1368 78.5628C63.1368 78.5628 67.3468 85.5492 62.649 94.4825Z" fill="#FFC147"/>
<path d="M33.2052 94.5495C33.2052 94.5495 27.825 86.125 33.8721 76.5254C35.2694 78.9472 41.9325 90.4934 41.9325 90.4934C41.9325 90.4934 43.3679 93.1809 47.8658 93.5833C49.5804 93.4583 51.3638 93.3515 53.6389 91.0012C52.3845 93.2235 46.7471 102.933 46.7471 102.933C46.7471 102.933 38.5919 103.085 33.2052 94.5495Z" fill="#17A05D"/>
<path d="M46.707 103L48.9755 93.5338C48.9755 93.5338 51.4697 93.3392 53.5596 91.0454C52.2622 93.3277 46.707 103 46.707 103Z" fill="#17A05D"/>
<path d="M40.2949 86.106C40.2949 81.9331 43.6773 78.5503 47.8506 78.5503C52.0234 78.5503 55.4062 81.933 55.4062 86.106C55.4062 90.279 52.0236 93.6619 47.8506 93.6619C43.6773 93.6619 40.2949 90.2791 40.2949 86.106Z" fill="white"/>
<path d="M41.5586 86.1058C41.5586 82.6315 44.3751 79.8149 47.8497 79.8149C51.3237 79.8149 54.1405 82.6315 54.1405 86.1058C54.1405 89.5801 51.3237 92.3969 47.8497 92.3969C44.3751 92.397 41.5586 89.58 41.5586 86.1058Z" fill="#4C8BF4"/>
<path d="M63.1383 78.5624L53.7976 81.301C53.7976 81.301 52.389 79.2339 49.3594 78.5607C51.9845 78.5518 63.1383 78.5624 63.1383 78.5624Z" fill="#FFC147"/>
<path d="M40.5694 88.1344C39.2567 85.861 33.8613 76.5415 33.8613 76.5415L40.7808 83.3864C40.7808 83.3864 40.0697 84.8491 40.3393 86.9383L40.5694 88.1344Z" fill="#EA4335"/>
<circle cx="48" cy="147" r="25" fill="white"/>
<path d="M65 147C65 151.509 63.2089 155.833 60.0208 159.021C56.8327 162.209 52.5087 164 48 164C43.4913 164 39.1673 162.209 35.9792 159.021C32.7911 155.833 31 151.509 31 147C31 142.491 32.7911 138.167 35.9792 134.979C39.1673 131.791 43.4913 130 48 130C52.5087 130 56.8327 131.791 60.0208 134.979C63.2089 138.167 65 142.491 65 147Z" fill="url(#paint0_radial)"/>
<path d="M48.0002 130.887C47.8629 130.887 47.7524 130.997 47.7524 131.135V133.993C47.7524 134.131 47.8629 134.241 48.0002 134.241C48.1375 134.241 48.2481 134.131 48.2481 133.993V131.135C48.2481 130.997 48.1375 130.887 48.0002 130.887ZM46.3788 130.989C46.3623 130.987 46.3454 130.987 46.3284 130.989C46.1918 131.004 46.0933 131.125 46.1076 131.262L46.2325 132.458C46.2468 132.594 46.3682 132.693 46.5048 132.678C46.6413 132.664 46.7398 132.543 46.7256 132.406L46.6007 131.21C46.5882 131.091 46.4937 131 46.3788 130.989H46.3788ZM49.633 130.99C49.5181 131.001 49.4235 131.092 49.4109 131.211L49.2852 132.407C49.2708 132.544 49.3693 132.665 49.5058 132.68C49.6424 132.694 49.7638 132.596 49.7782 132.459L49.904 131.263C49.9184 131.126 49.8199 131.005 49.6833 130.991C49.6662 130.989 49.6494 130.989 49.633 130.99V130.99ZM44.7131 131.231C44.6966 131.231 44.6799 131.233 44.6631 131.236C44.5288 131.264 44.4435 131.396 44.4719 131.53L45.064 134.327C45.0925 134.461 45.2235 134.546 45.3579 134.518C45.4922 134.489 45.5775 134.358 45.549 134.224L44.9569 131.427C44.932 131.31 44.8286 131.23 44.7132 131.231L44.7131 131.231ZM51.2986 131.233C51.1831 131.232 51.0796 131.312 51.0547 131.429L50.4605 134.226C50.432 134.36 50.5172 134.491 50.6515 134.52C50.7858 134.549 50.9169 134.463 50.9454 134.329L51.5396 131.532C51.5681 131.398 51.4829 131.267 51.3486 131.239C51.3318 131.235 51.3151 131.233 51.2986 131.233L51.2986 131.233ZM43.1235 131.679C43.0915 131.676 43.0583 131.68 43.0257 131.69C42.8951 131.733 42.8241 131.872 42.8665 132.003L43.2381 133.146C43.2806 133.277 43.4199 133.348 43.5505 133.306C43.6811 133.263 43.752 133.124 43.7095 132.993L43.3379 131.849C43.3061 131.751 43.2198 131.687 43.1235 131.679V131.679ZM52.8792 131.68C52.7829 131.688 52.6966 131.752 52.6648 131.85L52.2929 132.994C52.2505 133.124 52.3214 133.264 52.452 133.306C52.5826 133.348 52.7219 133.278 52.7644 133.147L53.1362 132.003C53.1787 131.873 53.1077 131.733 52.9771 131.691C52.9445 131.68 52.9112 131.677 52.8792 131.68V131.68ZM41.5516 132.254C41.5194 132.255 41.4868 132.262 41.4555 132.276C41.33 132.332 41.2739 132.477 41.3297 132.603L42.4908 135.215C42.5466 135.341 42.6925 135.397 42.8179 135.341C42.9433 135.285 42.9996 135.139 42.9438 135.014L41.7826 132.402C41.7408 132.307 41.6482 132.252 41.5516 132.254ZM54.4688 132.263C54.3723 132.261 54.2796 132.316 54.2377 132.41L53.073 135.021C53.017 135.146 53.073 135.292 53.1984 135.348C53.3238 135.404 53.4697 135.348 53.5257 135.223L54.6904 132.612C54.7463 132.487 54.6904 132.341 54.565 132.285C54.5337 132.271 54.501 132.264 54.4688 132.263V132.263ZM40.0925 133.026C40.045 133.023 39.9959 133.033 39.9513 133.059C39.8324 133.128 39.792 133.279 39.8606 133.398L40.4619 134.439C40.5306 134.558 40.6816 134.598 40.8005 134.53C40.9194 134.461 40.9598 134.31 40.8912 134.191L40.2899 133.15C40.247 133.075 40.1719 133.032 40.0925 133.026V133.026ZM55.9079 133.026C55.8286 133.031 55.7536 133.075 55.7107 133.15L55.1093 134.191C55.0406 134.31 55.0812 134.461 55.2001 134.53C55.319 134.598 55.47 134.558 55.5387 134.439L56.1399 133.398C56.2086 133.279 56.1682 133.128 56.0492 133.059C56.0047 133.033 55.9555 133.023 55.9079 133.026V133.026ZM38.6757 133.91C38.628 133.912 38.5803 133.927 38.5386 133.957C38.4274 134.038 38.4029 134.192 38.4835 134.303L40.1622 136.617C40.2428 136.729 40.3973 136.753 40.5085 136.673C40.6196 136.592 40.6442 136.438 40.5635 136.326L38.8847 134.012C38.8343 133.943 38.7552 133.907 38.6757 133.91V133.91ZM57.3425 133.922C57.2631 133.92 57.1839 133.955 57.1334 134.025L55.4515 136.336C55.3707 136.447 55.3951 136.602 55.5061 136.683C55.6172 136.763 55.7716 136.739 55.8524 136.628L57.5342 134.316C57.615 134.205 57.5905 134.051 57.4795 133.97C57.4379 133.94 57.3902 133.924 57.3425 133.922ZM37.4093 134.972C37.346 134.968 37.2815 134.99 37.2304 135.035C37.1284 135.127 37.1202 135.283 37.2121 135.386L38.0167 136.279C38.1086 136.381 38.2646 136.39 38.3667 136.298C38.4688 136.206 38.477 136.05 38.3851 135.948L37.5806 135.054C37.5346 135.003 37.4726 134.975 37.4093 134.972V134.972ZM58.593 134.974C58.5297 134.977 58.4677 135.005 58.4217 135.056L57.6171 135.949C57.5252 136.051 57.5333 136.208 57.6354 136.299C57.7374 136.391 57.8935 136.383 57.9854 136.281L58.7902 135.387C58.8821 135.285 58.8738 135.129 58.7718 135.037C58.7207 134.991 58.6563 134.97 58.593 134.974L58.593 134.974ZM36.1955 136.138C36.1322 136.141 36.0703 136.169 36.0243 136.22C35.9325 136.322 35.9407 136.478 36.0427 136.57L38.1675 138.483C38.2695 138.574 38.4256 138.566 38.5175 138.464C38.6093 138.362 38.6012 138.206 38.4992 138.114L36.3743 136.201C36.3232 136.156 36.2587 136.135 36.1954 136.138L36.1955 136.138ZM59.8127 136.146C59.7494 136.143 59.6848 136.164 59.6337 136.21L57.5077 138.121C57.4055 138.213 57.3972 138.369 57.4889 138.471C57.5807 138.573 57.7369 138.581 57.8391 138.49L59.9652 136.578C60.0673 136.486 60.0756 136.33 59.9838 136.228C59.9379 136.177 59.8759 136.15 59.8127 136.146H59.8127ZM35.1861 137.436C35.1067 137.433 35.0274 137.469 34.977 137.538C34.8963 137.649 34.9208 137.803 35.0319 137.884L36.0048 138.591C36.1159 138.672 36.2702 138.647 36.3509 138.536C36.4316 138.425 36.4072 138.271 36.2962 138.19L35.3233 137.483C35.2816 137.453 35.2338 137.437 35.1861 137.436L35.1861 137.436ZM60.8211 137.445C60.7734 137.447 60.7256 137.462 60.684 137.492L59.7106 138.198C59.5995 138.279 59.5749 138.433 59.6555 138.545C59.7361 138.656 59.8905 138.68 60.0017 138.6L60.9751 137.893C61.0862 137.813 61.1107 137.658 61.0301 137.547C60.9797 137.478 60.9005 137.442 60.8211 137.445V137.445ZM34.2429 138.82C34.1635 138.826 34.0885 138.869 34.0456 138.944C33.9769 139.063 34.0174 139.214 34.1363 139.282L36.6121 140.712C36.7311 140.78 36.8821 140.74 36.9507 140.621C37.0194 140.502 36.9789 140.351 36.86 140.282L34.3842 138.853C34.3396 138.827 34.2904 138.817 34.2429 138.82V138.82ZM61.7576 138.82C61.71 138.817 61.6609 138.827 61.6163 138.853L59.1405 140.283C59.0216 140.351 58.9811 140.502 59.0498 140.621C59.1184 140.74 59.2694 140.78 59.3883 140.712L61.8643 139.282C61.9832 139.214 62.0236 139.063 61.955 138.944C61.912 138.869 61.8369 138.826 61.7576 138.82V138.82ZM33.5297 140.296C33.4331 140.294 33.3405 140.349 33.2985 140.443C33.2426 140.568 33.2985 140.714 33.4239 140.77L34.5223 141.26C34.6477 141.316 34.7937 141.26 34.8496 141.135C34.9055 141.009 34.8495 140.863 34.7241 140.807L33.6258 140.317C33.5945 140.303 33.5619 140.297 33.5297 140.296ZM62.4756 140.306C62.4434 140.307 62.4107 140.314 62.3793 140.328L61.2807 140.817C61.1553 140.873 61.0992 141.019 61.155 141.144C61.2109 141.269 61.3569 141.325 61.4824 141.27L62.581 140.78C62.7064 140.725 62.7624 140.579 62.7065 140.453C62.6647 140.359 62.5722 140.304 62.4756 140.306ZM32.8941 141.838C32.7978 141.846 32.7115 141.911 32.6796 142.009C32.6371 142.139 32.7078 142.278 32.8384 142.321L35.5567 143.207C35.6872 143.249 35.8266 143.178 35.8691 143.048C35.9116 142.917 35.8409 142.778 35.7103 142.735L32.9921 141.85C32.9594 141.839 32.9261 141.836 32.8941 141.838V141.838ZM63.11 141.849C63.0779 141.846 63.0448 141.849 63.0122 141.86L60.2933 142.744C60.1627 142.786 60.0918 142.926 60.1342 143.056C60.1767 143.187 60.316 143.258 60.4466 143.215L63.1653 142.332C63.2959 142.289 63.367 142.15 63.3245 142.019C63.2927 141.921 63.2063 141.857 63.11 141.849V141.849ZM32.4981 143.457C32.3826 143.456 32.279 143.536 32.254 143.654C32.2255 143.788 32.3107 143.919 32.445 143.948L33.6214 144.198C33.7557 144.226 33.8868 144.141 33.9153 144.007C33.9439 143.872 33.8587 143.741 33.7244 143.713L32.5481 143.463C32.5313 143.459 32.5145 143.457 32.4981 143.457V143.457ZM63.5029 143.46C63.4864 143.46 63.4698 143.462 63.453 143.465L62.2767 143.715C62.1423 143.743 62.0572 143.874 62.0857 144.009C62.1143 144.143 62.2453 144.228 62.3797 144.2L63.5559 143.95C63.6902 143.921 63.7755 143.79 63.747 143.656C63.722 143.538 63.6184 143.458 63.503 143.459L63.5029 143.46ZM32.1983 145.086C32.0834 145.097 31.9888 145.187 31.9761 145.306C31.9617 145.443 32.06 145.565 32.1965 145.579L35.0396 145.88C35.1761 145.894 35.2977 145.796 35.3121 145.659C35.3266 145.523 35.2282 145.401 35.0917 145.387L32.2486 145.086C32.2315 145.084 32.2148 145.084 32.1983 145.086V145.086ZM63.8048 145.107C63.7884 145.105 63.7715 145.105 63.7544 145.107L60.911 145.404C60.7744 145.418 60.676 145.54 60.6902 145.676C60.7045 145.813 60.8259 145.911 60.9625 145.897L63.8059 145.6C63.9424 145.586 64.0409 145.465 64.0266 145.328C64.0142 145.209 63.9197 145.118 63.8048 145.107L63.8048 145.107ZM32.1502 146.753C32.0129 146.753 31.9023 146.863 31.9023 147.001C31.9023 147.138 32.0129 147.248 32.1502 147.248H33.3528C33.4901 147.248 33.6007 147.138 33.6007 147.001C33.6007 146.863 33.4901 146.753 33.3528 146.753H32.1502ZM62.6477 146.753C62.5104 146.753 62.3999 146.863 62.3999 147.001C62.3999 147.138 62.5104 147.248 62.6477 147.248H63.8503C63.9876 147.248 64.0981 147.138 64.0981 147.001C64.0981 146.863 63.9876 146.753 63.8503 146.753H62.6477ZM35.0884 148.104C35.0719 148.102 35.0551 148.102 35.0381 148.104L32.1946 148.401C32.058 148.415 31.9596 148.537 31.9738 148.673C31.988 148.81 32.1094 148.908 32.246 148.894L35.0895 148.597C35.2261 148.583 35.3245 148.461 35.3103 148.325C35.2978 148.205 35.2033 148.115 35.0883 148.104H35.0884ZM60.9106 148.121C60.7957 148.132 60.7011 148.223 60.6884 148.342C60.674 148.479 60.7722 148.6 60.9088 148.615L63.7519 148.915C63.8884 148.93 64.01 148.831 64.0244 148.695C64.0388 148.558 63.9405 148.437 63.8039 148.422L60.961 148.122C60.9439 148.12 60.927 148.12 60.9106 148.121L60.9106 148.121ZM33.671 149.796C33.6545 149.796 33.6377 149.798 33.6209 149.801L32.4446 150.051C32.3103 150.08 32.2251 150.211 32.2536 150.345C32.2822 150.479 32.4133 150.564 32.5476 150.536L33.724 150.286C33.8583 150.258 33.9434 150.127 33.9149 149.992C33.8899 149.875 33.7865 149.795 33.671 149.796L33.671 149.796ZM62.3291 149.798C62.2137 149.797 62.1102 149.877 62.0853 149.995C62.0567 150.129 62.1418 150.26 62.2761 150.289L63.4525 150.539C63.5868 150.567 63.7179 150.482 63.7464 150.348C63.775 150.213 63.6897 150.082 63.5555 150.054L62.3792 149.804C62.3624 149.8 62.3456 149.798 62.3292 149.798L62.3291 149.798ZM35.6519 150.774C35.6198 150.771 35.5866 150.775 35.554 150.786L32.8351 151.67C32.7045 151.712 32.6336 151.851 32.6761 151.982C32.7185 152.113 32.8578 152.183 32.9884 152.141L35.7072 151.257C35.8378 151.215 35.9088 151.075 35.8663 150.945C35.8345 150.847 35.7481 150.783 35.6519 150.774V150.774ZM60.3459 150.783C60.2497 150.791 60.1633 150.856 60.1314 150.953C60.0889 151.084 60.1597 151.223 60.2903 151.266L63.0085 152.152C63.1391 152.194 63.2785 152.123 63.321 151.993C63.3636 151.862 63.2927 151.723 63.1621 151.68L60.4439 150.795C60.4113 150.784 60.378 150.781 60.3459 150.783V150.783ZM34.6144 152.71C34.5822 152.711 34.5496 152.718 34.5182 152.732L33.4195 153.221C33.2941 153.277 33.2381 153.423 33.2939 153.548C33.3498 153.673 33.4957 153.729 33.6211 153.674L34.7198 153.185C34.8453 153.129 34.9013 152.983 34.8454 152.857C34.8036 152.763 34.711 152.708 34.6144 152.71V152.71ZM61.3821 152.72C61.2855 152.717 61.1929 152.773 61.151 152.867C61.095 152.992 61.1509 153.138 61.2763 153.194L62.3746 153.684C62.5 153.74 62.646 153.684 62.7019 153.558C62.7579 153.433 62.702 153.287 62.5766 153.231L61.4783 152.741C61.447 152.727 61.4143 152.72 61.3821 152.72V152.72ZM36.7535 153.257C36.7059 153.253 36.6567 153.264 36.6121 153.29L34.1363 154.719C34.0174 154.788 33.9769 154.939 34.0456 155.058C34.1143 155.176 34.2652 155.217 34.3842 155.148L36.86 153.719C36.9789 153.65 37.0194 153.499 36.9507 153.38C36.9078 153.306 36.8328 153.262 36.7535 153.257V153.257ZM59.2471 153.257C59.1678 153.262 59.0927 153.306 59.0498 153.38C58.9811 153.499 59.0216 153.65 59.1405 153.719L61.6163 155.148C61.7352 155.217 61.8863 155.176 61.955 155.058C62.0236 154.939 61.9832 154.788 61.8643 154.719L59.3883 153.29C59.3437 153.264 59.2947 153.253 59.2471 153.257V153.257ZM36.1359 155.354C36.0882 155.356 36.0405 155.372 35.9988 155.402L35.0254 156.108C34.9143 156.189 34.8897 156.343 34.9703 156.454C35.051 156.565 35.2054 156.59 35.3165 156.509L36.2899 155.803C36.4011 155.722 36.4257 155.568 36.345 155.457C36.2946 155.387 36.2154 155.352 36.1359 155.354V155.354ZM59.8587 155.363C59.7792 155.36 59.7 155.396 59.6495 155.465C59.5688 155.576 59.5933 155.731 59.7044 155.811L60.6773 156.518C60.7884 156.599 60.9428 156.574 61.0235 156.463C61.1042 156.352 61.0798 156.198 60.9687 156.117L59.9958 155.41C59.9542 155.38 59.9064 155.364 59.8587 155.363L59.8587 155.363ZM38.3404 155.448C38.2771 155.445 38.2126 155.466 38.1615 155.512L36.0354 157.423C35.9333 157.515 35.9249 157.671 36.0167 157.773C36.1085 157.875 36.2646 157.883 36.3668 157.792L38.4929 155.88C38.595 155.789 38.6033 155.632 38.5115 155.53C38.4656 155.479 38.4036 155.452 38.3404 155.448ZM57.6542 155.455C57.5909 155.459 57.5289 155.486 57.483 155.537C57.3911 155.639 57.3993 155.795 57.5013 155.887L59.6261 157.8C59.7281 157.892 59.8843 157.883 59.9762 157.781C60.0681 157.679 60.0599 157.523 59.9578 157.431L57.833 155.519C57.7819 155.473 57.7175 155.452 57.6542 155.455V155.455ZM40.3574 157.271C40.2779 157.268 40.1986 157.303 40.1482 157.373L38.4664 159.685C38.3856 159.796 38.4099 159.95 38.5209 160.031C38.6319 160.112 38.7864 160.087 38.8672 159.976L40.549 157.665C40.6297 157.554 40.6054 157.399 40.4944 157.318C40.4528 157.288 40.4051 157.273 40.3574 157.271ZM55.6293 157.281C55.5816 157.283 55.5338 157.298 55.4921 157.329C55.381 157.409 55.3564 157.564 55.437 157.675L57.1157 159.989C57.1963 160.1 57.3507 160.124 57.4619 160.044C57.573 159.963 57.5976 159.809 57.517 159.698L55.8383 157.384C55.7879 157.314 55.7087 157.279 55.6293 157.281V157.281ZM38.1863 157.638C38.123 157.642 38.061 157.669 38.0151 157.72L37.2104 158.614C37.1185 158.716 37.1267 158.872 37.2287 158.964C37.3308 159.056 37.4869 159.048 37.5787 158.946L38.3835 158.052C38.4754 157.95 38.4671 157.794 38.3651 157.702C38.3141 157.656 38.2496 157.635 38.1864 157.638L38.1863 157.638ZM57.8126 157.639C57.7494 157.636 57.6849 157.657 57.6339 157.703C57.5318 157.795 57.5236 157.951 57.6155 158.053L58.42 158.947C58.5119 159.049 58.6679 159.057 58.77 158.965C58.8721 158.873 58.8803 158.717 58.7884 158.615L57.9838 157.721C57.9379 157.67 57.8759 157.643 57.8126 157.639L57.8126 157.639ZM42.7059 158.631C42.6094 158.629 42.5168 158.684 42.4749 158.778L41.3101 161.389C41.2541 161.514 41.3101 161.66 41.4355 161.716C41.5609 161.772 41.7068 161.716 41.7628 161.591L42.9276 158.98C42.9835 158.854 42.9276 158.708 42.8022 158.652C42.7709 158.638 42.7381 158.632 42.7059 158.631ZM53.2788 158.638C53.2466 158.639 53.2139 158.646 53.1825 158.66C53.0571 158.715 53.001 158.861 53.0567 158.987L54.2179 161.599C54.2737 161.725 54.4196 161.781 54.5451 161.725C54.6705 161.669 54.7267 161.523 54.6709 161.398L53.5097 158.785C53.4679 158.691 53.3754 158.636 53.2788 158.638ZM40.6592 159.438C40.5799 159.443 40.5048 159.487 40.4619 159.562L39.8606 160.603C39.792 160.722 39.8324 160.873 39.9513 160.942C40.0702 161.01 40.2212 160.97 40.2899 160.851L40.8912 159.809C40.9598 159.691 40.9194 159.54 40.8005 159.471C40.7559 159.445 40.7068 159.435 40.6592 159.438V159.438ZM55.3413 159.438C55.2937 159.435 55.2447 159.445 55.2001 159.471C55.0812 159.54 55.0407 159.691 55.1094 159.809L55.7107 160.851C55.7793 160.97 55.9303 161.01 56.0492 160.942C56.1682 160.873 56.2086 160.722 56.1399 160.603L55.5387 159.562C55.4957 159.487 55.4206 159.444 55.3413 159.438V159.438ZM45.299 159.475C45.1835 159.474 45.0801 159.554 45.0551 159.672L44.461 162.468C44.4324 162.603 44.5177 162.734 44.6519 162.762C44.7863 162.791 44.9174 162.706 44.9459 162.571L45.54 159.775C45.5686 159.641 45.4834 159.509 45.3491 159.481C45.3323 159.477 45.3155 159.476 45.299 159.476L45.299 159.475ZM50.6927 159.477C50.6762 159.477 50.6595 159.479 50.6427 159.482C50.5084 159.511 50.4231 159.642 50.4516 159.776L51.0437 162.573C51.0721 162.708 51.2032 162.793 51.3375 162.764C51.4718 162.736 51.5571 162.605 51.5287 162.47L50.9365 159.674C50.9116 159.556 50.8082 159.476 50.6927 159.477L50.6927 159.477ZM48.0002 159.759C47.8629 159.759 47.7524 159.87 47.7524 160.007V162.866C47.7524 163.003 47.8629 163.114 48.0002 163.114C48.1375 163.114 48.2481 163.003 48.2481 162.866V160.007C48.2481 159.87 48.1375 159.759 48.0002 159.759ZM43.4506 160.683C43.3543 160.691 43.2679 160.756 43.2361 160.854L42.8644 161.997C42.8219 162.128 42.8929 162.267 43.0234 162.31C43.154 162.352 43.2933 162.281 43.3358 162.15L43.7075 161.007C43.75 160.876 43.679 160.737 43.5484 160.695C43.5158 160.684 43.4826 160.68 43.4506 160.683V160.683ZM52.548 160.684C52.5159 160.681 52.4828 160.684 52.4501 160.695C52.3195 160.737 52.2485 160.877 52.2909 161.007L52.6626 162.151C52.705 162.282 52.8443 162.353 52.9749 162.31C53.1055 162.268 53.1765 162.129 53.1341 161.998L52.7624 160.854C52.7305 160.756 52.6442 160.692 52.548 160.684V160.684ZM46.4445 161.321C46.3295 161.332 46.2348 161.422 46.2223 161.541L46.0966 162.737C46.0822 162.874 46.1806 162.995 46.3172 163.01C46.4537 163.024 46.5752 162.926 46.5896 162.789L46.7153 161.593C46.7297 161.457 46.6313 161.335 46.4947 161.321C46.4777 161.319 46.4609 161.319 46.4444 161.321L46.4445 161.321ZM49.5461 161.322C49.5296 161.32 49.5127 161.32 49.4957 161.322C49.3591 161.336 49.2606 161.458 49.2749 161.594L49.3998 162.79C49.4141 162.927 49.5355 163.025 49.6721 163.011C49.8086 162.997 49.9071 162.875 49.8928 162.739L49.768 161.543C49.7555 161.423 49.661 161.333 49.546 161.322L49.5461 161.322Z" fill="#F4F2F3"/>
<g opacity="0.409" filter="url(#filter3_f)">
<path d="M59.6169 137.086L46.0563 144.965L37.4824 158.462L50.0254 149.172L59.6169 137.086Z" fill="black"/>
</g>
<path d="M49.9428 149.035L46.0559 144.965L59.8441 135.689L49.9428 149.035Z" fill="#FF5F85"/>
<path d="M49.9431 149.036L46.0562 144.965L36.1549 158.311L49.9431 149.036Z" fill="#F1F1F1"/>
<path opacity="0.243" d="M36.1543 158.312L49.9425 149.037L59.8438 135.691L36.1543 158.312Z" fill="black"/>
<rect x="88" y="150" width="99" height="10" rx="5" fill="#EFF0F7"/>
<rect x="88" y="150" width="43" height="10" rx="5" fill="#FF5F85"/>
<rect x="88" y="135" width="37" height="8" rx="4" fill="#D9DBE9"/>
<circle cx="48" cy="209" r="25" fill="white"/>
<path d="M64.7344 203.13C63.9661 201.295 62.4295 199.32 61.2182 198.701C62.0807 200.369 62.6798 202.16 62.9944 204.011V204.043C61.0194 199.103 57.6614 197.115 54.918 192.776C54.7734 192.559 54.6378 192.337 54.5022 192.107C54.4254 191.971 54.3666 191.854 54.3079 191.745C54.1936 191.524 54.1057 191.291 54.0457 191.049C54.046 191.039 54.0425 191.028 54.0359 191.02C54.0292 191.012 54.02 191.006 54.0096 191.004C53.995 190.999 53.9789 190.999 53.9644 191.004V191.013C53.9644 191.022 53.9508 191.013 53.9508 191.013V191.004C49.5579 193.58 48.0619 198.353 47.9263 200.735C46.1683 200.857 44.4878 201.506 43.104 202.597C42.9597 202.474 42.8088 202.36 42.652 202.253C42.2521 200.852 42.2365 199.369 42.6068 197.96C40.9889 198.743 39.5514 199.854 38.3856 201.223C37.6851 200.346 37.7348 197.444 37.7755 196.839C37.5693 196.92 37.3724 197.023 37.1879 197.146C36.5732 197.584 35.9984 198.076 35.4705 198.615C34.8744 199.224 34.3301 199.882 33.8435 200.581C32.7175 202.177 31.9187 203.98 31.4934 205.887L31.4617 206.009C31.4301 206.158 31.3081 206.931 31.29 207.094V207.139C31.1381 207.935 31.0444 208.742 31.0098 209.552V209.643C31.0168 214.026 32.6671 218.248 35.6347 221.474C38.6024 224.7 42.6717 226.696 47.0394 227.069C51.4071 227.441 55.7556 226.162 59.2265 223.485C62.6975 220.808 65.0385 216.927 65.7875 212.607C65.8191 212.381 65.8417 212.156 65.8688 211.93C66.2316 208.948 65.8432 205.923 64.7389 203.13H64.7344ZM44.5457 216.838C44.6271 216.883 44.7039 216.928 44.7853 216.96L44.7988 216.969C44.7175 216.927 44.6346 216.881 44.5502 216.833L44.5457 216.838ZM62.9989 204.038V204.025V204.043V204.038Z" fill="url(#paint1_linear)"/>
<path d="M64.7344 203.13C63.9661 201.295 62.4295 199.32 61.2182 198.701C62.0807 200.369 62.6798 202.16 62.9944 204.012V204.048C64.3456 207.911 64.1513 212.147 62.4521 215.871C60.4454 220.178 55.5824 224.593 47.976 224.377C39.7596 224.151 32.5193 218.049 31.1634 210.059C30.9194 208.793 31.1634 208.161 31.29 207.135C31.1217 207.929 31.0279 208.737 31.0098 209.548V209.638C31.0168 214.022 32.6671 218.243 35.6347 221.47C38.6024 224.696 42.6717 226.692 47.0394 227.064C51.4071 227.437 55.7556 226.158 59.2265 223.481C62.6975 220.804 65.0385 216.922 65.7875 212.603C65.8191 212.377 65.8417 212.151 65.8688 211.925C66.2316 208.944 65.8432 205.919 64.7389 203.126L64.7344 203.13Z" fill="url(#paint2_radial)"/>
<path d="M64.7344 203.13C63.9661 201.295 62.4295 199.32 61.2182 198.701C62.0807 200.369 62.6798 202.16 62.9944 204.012V204.048C64.3456 207.911 64.1513 212.147 62.4521 215.871C60.4454 220.178 55.5824 224.593 47.976 224.377C39.7596 224.151 32.5193 218.049 31.1634 210.059C30.9194 208.793 31.1634 208.161 31.29 207.135C31.1217 207.929 31.0279 208.737 31.0098 209.548V209.638C31.0168 214.022 32.6671 218.243 35.6347 221.47C38.6024 224.696 42.6717 226.692 47.0394 227.064C51.4071 227.437 55.7556 226.158 59.2265 223.481C62.6975 220.804 65.0385 216.922 65.7875 212.603C65.8191 212.377 65.8417 212.151 65.8688 211.925C66.2316 208.944 65.8432 205.919 64.7389 203.126L64.7344 203.13Z" fill="url(#paint3_radial)"/>
<path d="M56.2185 205.186C56.2637 205.213 56.2908 205.24 56.327 205.268C55.8871 204.487 55.3394 203.771 54.6999 203.143C49.2584 197.702 53.2763 191.338 53.9542 191.017V191.004C49.5612 193.58 48.0653 198.353 47.9297 200.734C48.1331 200.721 48.3364 200.707 48.5443 200.707C50.1046 200.71 51.6364 201.125 52.9842 201.911C54.3321 202.696 55.4479 203.825 56.2185 205.182V205.186Z" fill="url(#paint4_radial)"/>
<path d="M48.5577 206.28C48.5261 206.709 46.9894 208.214 46.4471 208.214C41.4666 208.214 40.6621 211.224 40.6621 211.224C40.879 213.764 42.6507 215.852 44.7839 216.964L45.0822 217.099C45.2539 217.175 45.4257 217.246 45.5974 217.312C46.3303 217.572 47.0981 217.722 47.8753 217.755C56.607 218.162 58.2973 207.315 51.9971 204.165C53.4832 203.973 54.9875 204.34 56.2183 205.195C55.4478 203.838 54.3319 202.71 52.984 201.924C51.6362 201.138 50.1044 200.723 48.5441 200.721C48.3363 200.721 48.1374 200.73 47.9295 200.743C46.1715 200.865 44.491 201.514 43.1072 202.605C43.3783 202.831 43.6766 203.13 44.3139 203.758C45.5025 204.933 48.5487 206.14 48.5622 206.289L48.5577 206.28Z" fill="url(#paint5_radial)"/>
<path d="M48.5577 206.28C48.5261 206.709 46.9894 208.214 46.4471 208.214C41.4666 208.214 40.6621 211.224 40.6621 211.224C40.879 213.764 42.6507 215.852 44.7839 216.964L45.0822 217.099C45.2539 217.175 45.4257 217.246 45.5974 217.312C46.3303 217.572 47.0981 217.722 47.8753 217.755C56.607 218.162 58.2973 207.315 51.9971 204.165C53.4832 203.973 54.9875 204.34 56.2183 205.195C55.4478 203.838 54.3319 202.71 52.984 201.924C51.6362 201.138 50.1044 200.723 48.5441 200.721C48.3363 200.721 48.1374 200.73 47.9295 200.743C46.1715 200.865 44.491 201.514 43.1072 202.605C43.3783 202.831 43.6766 203.13 44.3139 203.758C45.5025 204.933 48.5487 206.14 48.5622 206.289L48.5577 206.28Z" fill="url(#paint6_radial)"/>
<path d="M42.2935 202.013C42.4291 202.104 42.5511 202.181 42.6551 202.253C42.2551 200.852 42.2395 199.369 42.6099 197.959C40.9919 198.743 39.5544 199.854 38.3887 201.223C38.4791 201.223 41.01 201.177 42.2935 202.009V202.013Z" fill="url(#paint7_radial)"/>
<path d="M31.167 210.059C32.5228 218.045 39.7541 224.146 47.9796 224.377C55.5859 224.593 60.4444 220.173 62.4511 215.871C64.1503 212.147 64.3446 207.911 62.9934 204.048V204.03V204.012L63.0025 204.043C63.6171 208.102 61.5562 212.029 58.3293 214.687L58.3157 214.709C52.0336 219.83 46.0226 217.801 44.8024 216.969C44.712 216.93 44.6261 216.888 44.5447 216.842C40.8839 215.093 39.3654 211.754 39.6908 208.888C38.8211 208.901 37.9663 208.662 37.2299 208.199C36.4935 207.736 35.9072 207.07 35.5419 206.28C36.5041 205.691 37.6011 205.358 38.7285 205.313C39.8559 205.268 40.976 205.512 41.9822 206.023C44.0551 206.963 46.4134 207.055 48.5536 206.28C48.5445 206.136 45.4984 204.925 44.3052 203.749C43.6725 203.126 43.3742 202.827 43.103 202.601C42.9587 202.479 42.8078 202.364 42.6511 202.258C42.5471 202.186 42.4341 202.109 42.2895 202.018C41.015 201.187 38.475 201.232 38.3892 201.232H38.3801C37.6886 200.355 37.7338 197.454 37.7745 196.848C37.5683 196.93 37.3714 197.033 37.187 197.155C36.572 197.595 35.9973 198.088 35.4696 198.629C34.8689 199.236 34.3201 199.892 33.829 200.59C32.7029 202.186 31.9042 203.99 31.4788 205.896C31.4698 205.932 30.8461 208.653 31.1534 210.063L31.167 210.059Z" fill="url(#paint8_radial)"/>
<path d="M54.7043 203.144C55.3437 203.772 55.8915 204.487 56.3313 205.268C56.4217 205.345 56.5121 205.417 56.5934 205.485C60.5706 209.146 58.4916 214.32 58.3334 214.691C61.5559 212.033 63.6213 208.106 63.0021 204.048C61.0135 199.108 57.66 197.119 54.9122 192.78C54.7766 192.563 54.641 192.342 54.5054 192.111C54.4286 191.976 54.3698 191.858 54.3111 191.75C54.1949 191.528 54.1054 191.293 54.0444 191.049C54.0446 191.039 54.0411 191.028 54.0345 191.02C54.0279 191.012 54.0186 191.006 54.0083 191.004C53.9937 190.999 53.9776 190.999 53.9631 191.004V191.013C53.9631 191.022 53.9495 191.013 53.9495 191.013C53.2716 191.339 49.2492 197.702 54.6997 203.144H54.7043Z" fill="url(#paint9_radial)"/>
<path d="M56.5895 205.485C56.5127 205.413 56.4223 205.34 56.3274 205.268L56.2189 205.187C54.9863 204.332 53.4802 203.967 51.9932 204.161C58.2934 207.315 56.6031 218.171 47.8714 217.755C47.096 217.723 46.3298 217.576 45.5981 217.317C45.4263 217.257 45.2546 217.187 45.0828 217.109C44.9834 217.064 44.8885 217.019 44.7891 216.973H44.8026C46.0229 217.805 52.0338 219.839 58.325 214.714L58.3341 214.696C58.4922 214.334 60.5712 209.15 56.5986 205.494L56.5895 205.485Z" fill="url(#paint10_radial)"/>
<path d="M40.6577 211.224C40.6577 211.224 41.4712 208.214 46.4427 208.214C46.9851 208.214 48.5217 206.709 48.5578 206.271C46.4156 207.05 44.0536 206.959 41.9774 206.018C40.9712 205.507 39.8511 205.263 38.7237 205.308C37.5964 205.353 36.4993 205.686 35.5371 206.275C35.9037 207.065 36.4917 207.732 37.2298 208.194C37.968 208.656 38.8244 208.894 39.6951 208.879C39.3651 211.744 40.8792 215.084 44.5445 216.833C44.6259 216.878 44.7027 216.914 44.784 216.955C42.6463 215.848 40.8792 213.76 40.6577 211.215V211.224Z" fill="url(#paint11_radial)"/>
<path d="M64.7337 203.13C63.9654 201.295 62.4287 199.32 61.2175 198.701C62.0799 200.369 62.6791 202.16 62.9937 204.011V204.043C61.0186 199.103 57.6606 197.115 54.9173 192.776C54.7727 192.559 54.6371 192.337 54.5015 192.107C54.4247 191.971 54.3659 191.854 54.3072 191.745C54.1929 191.524 54.1049 191.291 54.045 191.049C54.0452 191.039 54.0417 191.028 54.0351 191.02C54.0285 191.012 54.0192 191.006 54.0089 191.004C53.9943 190.999 53.9782 190.999 53.9637 191.004V191.013C53.9637 191.022 53.9501 191.013 53.9501 191.013V191.004C49.5571 193.58 48.0612 198.353 47.9256 200.735C48.129 200.721 48.3324 200.708 48.5403 200.708C50.1005 200.71 51.6323 201.125 52.9801 201.911C54.328 202.697 55.4439 203.825 56.2144 205.182C54.9823 204.33 53.4782 203.966 51.9932 204.16C58.2934 207.315 56.6031 218.171 47.8714 217.755C47.0945 217.724 46.3267 217.576 45.5935 217.317C45.4218 217.257 45.25 217.187 45.0783 217.109L44.78 216.973H44.7936C44.7122 216.934 44.6294 216.892 44.545 216.847C44.6263 216.892 44.7032 216.937 44.7845 216.969C42.6468 215.862 40.8797 213.774 40.6582 211.229C40.6582 211.229 41.4717 208.224 46.4432 208.224C46.9855 208.224 48.5222 206.719 48.5583 206.28C48.5493 206.145 45.5031 204.924 44.31 203.758C43.6772 203.126 43.3744 202.832 43.1078 202.606C42.9635 202.483 42.8126 202.369 42.6558 202.262C42.2559 200.861 42.2403 199.378 42.6106 197.969C40.9926 198.752 39.5552 199.863 38.3894 201.232C37.6889 200.355 37.7386 197.454 37.7793 196.848C37.5731 196.929 37.3762 197.032 37.1917 197.155C36.5769 197.593 36.0022 198.085 35.4743 198.624C34.8782 199.233 34.3339 199.891 33.8473 200.59C32.7213 202.186 31.9225 203.99 31.4971 205.896L31.461 206.009C31.4294 206.158 31.2802 206.945 31.2576 207.112C31.1228 207.919 31.0368 208.734 31 209.552V209.643C31.0071 214.026 32.6573 218.248 35.625 221.474C38.5926 224.7 42.662 226.696 47.0296 227.069C51.3973 227.441 55.7459 226.162 59.2168 223.485C62.6877 220.808 65.0287 216.927 65.7777 212.607C65.8093 212.381 65.8319 212.156 65.859 211.93C66.2218 208.948 65.8334 205.923 64.7292 203.13H64.7337ZM62.9937 204.034V204.048V204.034Z" fill="url(#paint12_linear)"/>
<rect x="88" y="212" width="99" height="10" rx="5" fill="#EFF0F7"/>
<rect x="88" y="212" width="19" height="10" rx="5" fill="#FF5F85"/>
<rect x="90" y="198" width="53" height="8" rx="4" fill="#D9DBE9"/>
<defs>
<filter id="filter0_d" x="10" y="52" width="76" height="76" filterUnits="userSpaceOnUse" color-interpolation-filters="sRGB">
<feFlood flood-opacity="0" result="BackgroundImageFix"/>
<feColorMatrix in="SourceAlpha" type="matrix" values="0 0 0 0 0 0 0 0 0 0 0 0 0 0 0 0 0 0 127 0" result="hardAlpha"/>
<feOffset dy="4"/>
<feGaussianBlur stdDeviation="6.5"/>
<feColorMatrix type="matrix" values="0 0 0 0 0.0423448 0 0 0 0 0.0391396 0 0 0 0 0.199398 0 0 0 0.07 0"/>
<feBlend mode="normal" in2="BackgroundImageFix" result="effect1_dropShadow"/>
<feBlend mode="normal" in="SourceGraphic" in2="effect1_dropShadow" result="shape"/>
</filter>
<filter id="filter1_d" x="10" y="113" width="76" height="76" filterUnits="userSpaceOnUse" color-interpolation-filters="sRGB">
<feFlood flood-opacity="0" result="BackgroundImageFix"/>
<feColorMatrix in="SourceAlpha" type="matrix" values="0 0 0 0 0 0 0 0 0 0 0 0 0 0 0 0 0 0 127 0" result="hardAlpha"/>
<feOffset dy="4"/>
<feGaussianBlur stdDeviation="6.5"/>
<feColorMatrix type="matrix" values="0 0 0 0 0.0423448 0 0 0 0 0.0391396 0 0 0 0 0.199398 0 0 0 0.07 0"/>
<feBlend mode="normal" in2="BackgroundImageFix" result="effect1_dropShadow"/>
<feBlend mode="normal" in="SourceGraphic" in2="effect1_dropShadow" result="shape"/>
</filter>
<filter id="filter2_d" x="10.5586" y="175" width="76" height="76" filterUnits="userSpaceOnUse" color-interpolation-filters="sRGB">
<feFlood flood-opacity="0" result="BackgroundImageFix"/>
<feColorMatrix in="SourceAlpha" type="matrix" values="0 0 0 0 0 0 0 0 0 0 0 0 0 0 0 0 0 0 127 0" result="hardAlpha"/>
<feOffset dy="4"/>
<feGaussianBlur stdDeviation="6.5"/>
<feColorMatrix type="matrix" values="0 0 0 0 0.0423448 0 0 0 0 0.0391396 0 0 0 0 0.199398 0 0 0 0.07 0"/>
<feBlend mode="normal" in2="BackgroundImageFix" result="effect1_dropShadow"/>
<feBlend mode="normal" in="SourceGraphic" in2="effect1_dropShadow" result="shape"/>
</filter>
<filter id="filter3_f" x="37.0848" y="136.688" width="22.9298" height="22.1718" filterUnits="userSpaceOnUse" color-interpolation-filters="sRGB">
<feFlood flood-opacity="0" result="BackgroundImageFix"/>
<feBlend mode="normal" in="SourceGraphic" in2="BackgroundImageFix" result="shape"/>
<feGaussianBlur stdDeviation="0.198826" result="effect1_foregroundBlur"/>
</filter>
<radialGradient id="paint0_radial" cx="0" cy="0" r="1" gradientUnits="userSpaceOnUse" gradientTransform="translate(48.0774 144.521) scale(18.4455)">
<stop stop-color="#06C2E7"/>
<stop offset="0.25" stop-color="#0DB8EC"/>
<stop offset="0.5" stop-color="#12AEF1"/>
<stop offset="0.75" stop-color="#1F86F9"/>
<stop offset="1" stop-color="#107DDD"/>
</radialGradient>
<linearGradient id="paint1_linear" x1="62.4316" y1="196.6" x2="32.4521" y2="223.679" gradientUnits="userSpaceOnUse">
<stop offset="0.048" stop-color="#FFF44F"/>
<stop offset="0.111" stop-color="#FFE847"/>
<stop offset="0.225" stop-color="#FFC830"/>
<stop offset="0.368" stop-color="#FF980E"/>
<stop offset="0.401" stop-color="#FF8B16"/>
<stop offset="0.462" stop-color="#FF672A"/>
<stop offset="0.534" stop-color="#FF3647"/>
<stop offset="0.705" stop-color="#E31587"/>
</linearGradient>
<radialGradient id="paint2_radial" cx="0" cy="0" r="1" gradientUnits="userSpaceOnUse" gradientTransform="translate(61.658 195.017) scale(36.5164)">
<stop offset="0.129" stop-color="#FFBD4F"/>
<stop offset="0.186" stop-color="#FFAC31"/>
<stop offset="0.247" stop-color="#FF9D17"/>
<stop offset="0.283" stop-color="#FF980E"/>
<stop offset="0.403" stop-color="#FF563B"/>
<stop offset="0.467" stop-color="#FF3750"/>
<stop offset="0.71" stop-color="#F5156C"/>
<stop offset="0.782" stop-color="#EB0878"/>
<stop offset="0.86" stop-color="#E50080"/>
</radialGradient>
<radialGradient id="paint3_radial" cx="0" cy="0" r="1" gradientUnits="userSpaceOnUse" gradientTransform="translate(48.3145 209.946) scale(36.5164)">
<stop offset="0.3" stop-color="#960E18"/>
<stop offset="0.351" stop-color="#B11927" stop-opacity="0.74"/>
<stop offset="0.435" stop-color="#DB293D" stop-opacity="0.343"/>
<stop offset="0.497" stop-color="#F5334B" stop-opacity="0.094"/>
<stop offset="0.53" stop-color="#FF3750" stop-opacity="0"/>
</radialGradient>
<radialGradient id="paint4_radial" cx="0" cy="0" r="1" gradientUnits="userSpaceOnUse" gradientTransform="translate(52.7159 186.73) scale(26.4545)">
<stop offset="0.132" stop-color="#FFF44F"/>
<stop offset="0.252" stop-color="#FFDC3E"/>
<stop offset="0.506" stop-color="#FF9D12"/>
<stop offset="0.526" stop-color="#FF980E"/>
</radialGradient>
<radialGradient id="paint5_radial" cx="0" cy="0" r="1" gradientUnits="userSpaceOnUse" gradientTransform="translate(44.2741 219.484) scale(17.387)">
<stop offset="0.353" stop-color="#3A8EE6"/>
<stop offset="0.472" stop-color="#5C79F0"/>
<stop offset="0.669" stop-color="#9059FF"/>
<stop offset="1" stop-color="#C139E6"/>
</radialGradient>
<radialGradient id="paint6_radial" cx="0" cy="0" r="1" gradientUnits="userSpaceOnUse" gradientTransform="translate(50.3087 206.953) rotate(-13.5916) scale(9.2185 10.7926)">
<stop offset="0.206" stop-color="#9059FF" stop-opacity="0"/>
<stop offset="0.278" stop-color="#8C4FF3" stop-opacity="0.064"/>
<stop offset="0.747" stop-color="#7716A8" stop-opacity="0.45"/>
<stop offset="0.975" stop-color="#6E008B" stop-opacity="0.6"/>
</radialGradient>
<radialGradient id="paint7_radial" cx="0" cy="0" r="1" gradientUnits="userSpaceOnUse" gradientTransform="translate(47.8521 193.523) scale(12.5082)">
<stop stop-color="#FFE226"/>
<stop offset="0.121" stop-color="#FFDB27"/>
<stop offset="0.295" stop-color="#FFC82A"/>
<stop offset="0.502" stop-color="#FFA930"/>
<stop offset="0.732" stop-color="#FF7E37"/>
<stop offset="0.792" stop-color="#FF7139"/>
</radialGradient>
<radialGradient id="paint8_radial" cx="0" cy="0" r="1" gradientUnits="userSpaceOnUse" gradientTransform="translate(57.6843 185.59) scale(53.3669)">
<stop offset="0.113" stop-color="#FFF44F"/>
<stop offset="0.456" stop-color="#FF980E"/>
<stop offset="0.622" stop-color="#FF5634"/>
<stop offset="0.716" stop-color="#FF3647"/>
<stop offset="0.904" stop-color="#E31587"/>
</radialGradient>
<radialGradient id="paint9_radial" cx="0" cy="0" r="1" gradientUnits="userSpaceOnUse" gradientTransform="translate(53.186 188.557) rotate(83.976) scale(39.1139 25.6701)">
<stop stop-color="#FFF44F"/>
<stop offset="0.06" stop-color="#FFE847"/>
<stop offset="0.168" stop-color="#FFC830"/>
<stop offset="0.304" stop-color="#FF980E"/>
<stop offset="0.356" stop-color="#FF8B16"/>
<stop offset="0.455" stop-color="#FF672A"/>
<stop offset="0.57" stop-color="#FF3647"/>
<stop offset="0.737" stop-color="#E31587"/>
</radialGradient>
<radialGradient id="paint10_radial" cx="0" cy="0" r="1" gradientUnits="userSpaceOnUse" gradientTransform="translate(47.5582 198.156) scale(33.3179)">
<stop offset="0.137" stop-color="#FFF44F"/>
<stop offset="0.48" stop-color="#FF980E"/>
<stop offset="0.592" stop-color="#FF5634"/>
<stop offset="0.655" stop-color="#FF3647"/>
<stop offset="0.904" stop-color="#E31587"/>
</radialGradient>
<radialGradient id="paint11_radial" cx="0" cy="0" r="1" gradientUnits="userSpaceOnUse" gradientTransform="translate(56.3527 200.106) scale(36.4662)">
<stop offset="0.094" stop-color="#FFF44F"/>
<stop offset="0.231" stop-color="#FFE141"/>
<stop offset="0.509" stop-color="#FFAF1E"/>
<stop offset="0.626" stop-color="#FF980E"/>
</radialGradient>
<linearGradient id="paint12_linear" x1="62.072" y1="196.456" x2="36.5319" y2="220.351" gradientUnits="userSpaceOnUse">
<stop offset="0.167" stop-color="#FFF44F" stop-opacity="0.8"/>
<stop offset="0.266" stop-color="#FFF44F" stop-opacity="0.634"/>
<stop offset="0.489" stop-color="#FFF44F" stop-opacity="0.217"/>
<stop offset="0.6" stop-color="#FFF44F" stop-opacity="0"/>
</linearGradient>
</defs>
</svg>
