<svg width="19" height="18" viewBox="0 0 19 18" fill="none" xmlns="http://www.w3.org/2000/svg">
<path d="M9.81766 0.211914C4.99794 0.211914 1.09036 4.08894 1.09036 8.87191C1.09036 10.508 1.54797 12.0382 2.3427 13.3436L0.767578 17.9897L5.59948 16.4547C6.8498 17.1406 8.28778 17.5319 9.81766 17.5319C14.638 17.5319 18.5454 13.6543 18.5454 8.87191C18.5454 4.08894 14.638 0.211914 9.81766 0.211914ZM14.1574 12.1607C13.9521 12.6697 13.0235 13.1343 12.6138 13.1556C12.2045 13.1774 12.1929 13.4729 9.96143 12.5035C7.73028 11.5339 6.38794 9.17636 6.2821 9.02453C6.17619 8.87326 5.41782 7.79251 5.45873 6.70489C5.49992 5.61707 6.09551 5.10386 6.30809 4.89041C6.52044 4.67664 6.76389 4.63834 6.91254 4.63592C7.08825 4.63307 7.20206 4.63068 7.3321 4.63549C7.46202 4.64041 7.65718 4.6083 7.82615 5.05767C7.99504 5.50699 8.39928 6.61136 8.45099 6.7239C8.50266 6.83656 8.53464 6.96699 8.45504 7.11164C8.3752 7.2566 8.33432 7.34715 8.21849 7.47207C8.10202 7.59699 7.97349 7.75152 7.8696 7.84703C7.75373 7.95279 7.6327 8.06814 7.75452 8.29422C7.87627 8.52013 8.29631 9.26072 8.93623 9.87104C9.75865 10.6556 10.4679 10.9158 10.6861 11.0344C10.905 11.1536 11.0356 11.1404 11.1713 10.9975C11.3064 10.8547 11.7522 10.3727 11.9092 10.1575C12.0662 9.94172 12.2133 9.98398 12.4149 10.0651C12.6164 10.1465 13.691 10.7221 13.9098 10.8409C14.1285 10.9595 14.2746 11.0206 14.3269 11.1147C14.3792 11.2092 14.3627 11.6517 14.1574 12.1607V12.1607Z" fill="#30CC6B"/>
</svg>
