<svg width="292" height="381" viewBox="0 0 292 381" fill="none" xmlns="http://www.w3.org/2000/svg">
<rect width="292" height="381" fill="white"/>
<rect x="10.3125" y="14.3008" width="272.314" height="355.496" rx="30" fill="#FF0000" fill-opacity="0.01"/>
<rect width="292" height="381" fill="white"/>
<rect x="117.156" y="328.853" width="58.6307" height="18.0143" rx="9.00714" fill="#FF5F85"/>
<rect x="150.266" y="66.7847" width="113.699" height="109.766" rx="17.4397" fill="#FF0000" fill-opacity="0.01"/>
<path opacity="0.2" d="M50.8945 225.574C50.8945 214.975 59.1631 206.216 69.7446 205.607L220.895 196.902C232.374 196.241 242.045 205.371 242.045 216.869V329.374C242.045 339.973 233.776 348.732 223.195 349.341L72.0445 358.046C60.5658 358.707 50.8945 349.577 50.8945 338.079V225.574Z" fill="#FFC9D6"/>
<rect x="26.457" y="146.562" width="58.6307" height="18.0143" rx="9.00714" fill="#FF5F85"/>
<rect x="26.457" y="78.7588" width="77.2381" height="6.94297" rx="3.47148" fill="#D9DBE9"/>
<rect x="26.457" y="97.7114" width="97.3141" height="6.94297" rx="3.47148" fill="#EFF0F7"/>
<rect x="26.457" y="123.607" width="97.3141" height="6.94297" rx="3.47148" fill="#EFF0F7"/>
<rect x="26.457" y="110.659" width="63.1994" height="6.94297" rx="3.47148" fill="#EFF0F7"/>
<g filter="url(#filter0_d)">
<rect x="109.697" y="219.249" width="73.5431" height="86.6817" rx="12.045" fill="#FF0000" fill-opacity="0.01"/>
</g>
<rect x="107.691" y="215.552" width="77.562" height="97.8273" rx="12.4979" fill="white" stroke="#EFF0F7" stroke-width="0.6"/>
<rect x="126.305" y="266.077" width="40.331" height="4.6587" rx="2.32935" fill="#D9DBE9"/>
<rect x="121.064" y="280.019" width="50.814" height="4.6587" rx="2.32935" fill="#EFF0F7"/>
<rect x="129.971" y="289.751" width="33.0005" height="4.6587" rx="2.32935" fill="#EFF0F7"/>
<rect x="133.178" y="230.173" width="26.5858" height="26.6211" rx="8.78569" fill="#FF5F85"/>
<path d="M153.323 237.559C153.181 237.463 153.016 237.406 152.845 237.396C152.673 237.385 152.502 237.421 152.35 237.499C151.559 237.821 150.719 238.001 149.866 238.033C148.893 237.961 147.934 237.762 147.012 237.442C144.991 236.852 144.291 236.712 142.741 236.912C142.524 236.94 142.324 237.047 142.179 237.213C142.034 237.378 141.955 237.59 141.955 237.81V246.865C141.955 246.992 141.982 247.118 142.034 247.235C142.086 247.351 142.162 247.455 142.257 247.54C142.352 247.625 142.464 247.688 142.586 247.727C142.707 247.765 142.835 247.778 142.962 247.763C144.319 247.607 144.951 247.739 146.84 248.293C147.817 248.632 148.834 248.839 149.866 248.908C150.92 248.869 151.957 248.634 152.924 248.214C153.329 248.06 153.695 247.852 153.695 247.293V238.298C153.696 238.154 153.663 238.012 153.598 237.884C153.533 237.755 153.439 237.644 153.323 237.559Z" fill="white"/>
<path d="M140.148 236.249C139.908 236.249 139.678 236.344 139.509 236.514C139.339 236.683 139.244 236.913 139.244 237.153V249.813C139.244 250.053 139.339 250.283 139.509 250.452C139.678 250.622 139.908 250.717 140.148 250.717C140.387 250.717 140.617 250.622 140.787 250.452C140.956 250.283 141.051 250.053 141.051 249.813V237.153C141.051 236.913 140.956 236.683 140.787 236.514C140.617 236.344 140.387 236.249 140.148 236.249V236.249Z" fill="white"/>
<g filter="url(#filter1_d)">
<rect x="23.4492" y="218.382" width="73.8305" height="88.4111" rx="12.045" fill="#FF0000" fill-opacity="0.01"/>
</g>
<rect x="21.5813" y="215.552" width="77.562" height="97.8273" rx="12.4979" fill="white" stroke="#EFF0F7" stroke-width="0.6"/>
<rect x="40.1953" y="265.976" width="40.331" height="4.6587" rx="2.32935" fill="#D9DBE9"/>
<rect x="34.9551" y="279.917" width="50.814" height="4.6587" rx="2.32935" fill="#EFF0F7"/>
<rect x="43.8613" y="289.65" width="33.0005" height="4.6587" rx="2.32935" fill="#EFF0F7"/>
<rect x="46.9629" y="230.173" width="26.5858" height="26.6211" rx="8.78569" fill="#FF5F85"/>
<path d="M67.1632 249.941C67.0997 250.478 66.6526 250.877 66.1296 250.877C65.5928 250.877 65.1457 250.478 65.0959 249.941V245.851C65.0461 245.451 65.2316 245.078 65.5691 244.866C65.9178 244.654 66.3413 244.654 66.6763 244.866C67.0138 245.078 67.1993 245.451 67.1632 245.851V249.941Z" fill="white"/>
<path d="M61.435 249.941C61.3852 250.477 60.9381 250.876 60.4014 250.876C59.8783 250.876 59.4312 250.477 59.3677 249.941V237.234C59.3316 236.847 59.5172 236.46 59.8547 236.249C60.1897 236.037 60.6131 236.037 60.963 236.249C61.2993 236.46 61.4849 236.847 61.435 237.234V249.941Z" fill="white"/>
<path d="M55.6294 249.941C55.5796 250.477 55.1325 250.877 54.5957 250.877C54.0602 250.877 53.6119 250.477 53.5633 249.941V241.324C53.526 240.936 53.7115 240.551 54.049 240.339C54.384 240.127 54.8087 240.127 55.1449 240.339C55.48 240.551 55.668 240.936 55.6294 241.324V249.941Z" fill="white"/>
<g filter="url(#filter2_d)">
<rect x="194.885" y="217.176" width="75.3927" height="90.8265" rx="12.045" fill="#FF0000" fill-opacity="0.01"/>
</g>
<rect x="193.798" y="215.552" width="77.562" height="97.8273" rx="12.4979" fill="white" stroke="#EFF0F7" stroke-width="0.6"/>
<rect x="212.412" y="266.077" width="40.331" height="4.6587" rx="2.32935" fill="#D9DBE9"/>
<rect x="207.172" y="280.019" width="50.814" height="4.6587" rx="2.32935" fill="#EFF0F7"/>
<rect x="216.078" y="289.751" width="33.0005" height="4.6587" rx="2.32935" fill="#EFF0F7"/>
<rect x="219.072" y="230.173" width="26.5858" height="26.6211" rx="8.78569" fill="#FF5F85"/>
<path fill-rule="evenodd" clip-rule="evenodd" d="M229.169 235.775H235.992C238.506 235.775 239.906 237.226 239.906 239.712V248.132C239.906 250.659 238.506 252.078 235.992 252.078H229.169C226.695 252.078 225.254 250.659 225.254 248.132V239.712C225.254 237.226 226.695 235.775 229.169 235.775ZM229.389 239.574V239.566H231.822C232.173 239.566 232.458 239.851 232.458 240.201C232.458 240.56 232.173 240.846 231.822 240.846H229.389C229.038 240.846 228.754 240.56 228.754 240.21C228.754 239.859 229.038 239.574 229.389 239.574ZM229.391 244.53H235.773C236.123 244.53 236.408 244.244 236.408 243.894C236.408 243.543 236.123 243.257 235.773 243.257H229.391C229.04 243.257 228.756 243.543 228.756 243.894C228.756 244.244 229.04 244.53 229.391 244.53ZM229.39 248.255H235.772C236.097 248.222 236.342 247.944 236.342 247.619C236.342 247.285 236.097 247.007 235.772 246.975H229.39C229.146 246.95 228.91 247.064 228.779 247.276C228.649 247.48 228.649 247.749 228.779 247.961C228.91 248.165 229.146 248.287 229.39 248.255Z" fill="white"/>
<path d="M108.664 30.8748C108.664 30.0842 109.536 29.6039 110.204 30.0262L116.519 34.0163C116.81 34.2003 116.986 34.5206 116.986 34.8649L116.986 41.2772C116.986 42.0695 116.111 42.5495 115.443 42.1237L109.128 38.0998C108.839 37.9155 108.664 37.5963 108.664 37.2533L108.664 30.8748Z" fill="#FF5F85"/>
<path d="M126.502 30.8748C126.502 30.0842 125.63 29.6039 124.962 30.0262L118.647 34.0163C118.356 34.2003 118.18 34.5206 118.18 34.8649L118.18 41.2772C118.18 42.0695 119.055 42.5495 119.723 42.1237L126.038 38.0998C126.327 37.9155 126.502 37.5963 126.502 37.2533L126.502 30.8748Z" fill="#FF5F85"/>
<path d="M124.476 26.7111L118.346 22.8128C117.923 22.5441 117.384 22.544 116.961 22.8125L110.844 26.6989C110.041 27.2093 110.047 28.3843 110.857 28.8854L117.059 32.7255C117.479 32.9857 118.011 32.983 118.429 32.7185L124.473 28.8902C125.273 28.3841 125.274 27.2187 124.476 26.7111Z" fill="#FF5F85"/>
<path d="M136.494 37.5169C135.432 37.5169 134.54 37.2798 133.819 36.8056C133.097 36.3314 132.592 35.6923 132.303 34.8882L134.004 33.883C134.427 34.9861 135.272 35.5376 136.54 35.5376C137.107 35.5376 137.545 35.4036 137.855 35.1356C138.164 34.8675 138.319 34.5583 138.319 34.2078C138.319 33.8573 138.148 33.5738 137.808 33.3573C137.478 33.1408 136.886 32.9088 136.03 32.6614C135.36 32.4553 134.793 32.2336 134.329 31.9965C133.865 31.7491 133.484 31.4192 133.185 31.0069C132.896 30.5945 132.752 30.0739 132.752 29.445C132.752 28.8059 132.911 28.2492 133.231 27.775C133.551 27.2905 133.973 26.9245 134.499 26.6771C135.035 26.4194 135.618 26.2905 136.246 26.2905C137.123 26.2905 137.88 26.5018 138.52 26.9245C139.169 27.3369 139.669 27.9193 140.019 28.6719L138.288 29.6615C137.886 28.744 137.205 28.2853 136.246 28.2853C135.813 28.2853 135.458 28.3987 135.179 28.6255C134.901 28.8523 134.762 29.1203 134.762 29.4296C134.762 29.6667 134.824 29.8677 134.948 30.0327C135.082 30.1976 135.288 30.3471 135.566 30.4811C135.855 30.6151 136.272 30.7646 136.819 30.9295C137.53 31.1563 138.128 31.3934 138.612 31.6409C139.107 31.8883 139.514 32.2336 139.834 32.6769C140.164 33.1099 140.329 33.6562 140.329 34.316C140.329 34.9655 140.164 35.5325 139.834 36.017C139.504 36.5015 139.045 36.8726 138.458 37.1304C137.88 37.3881 137.226 37.5169 136.494 37.5169ZM147.542 29.5842H149.46V37.3159H147.542V36.5582C147.182 36.8675 146.785 37.1097 146.352 37.285C145.929 37.4499 145.481 37.5324 145.006 37.5324C144.223 37.5324 143.537 37.3572 142.95 37.0066C142.362 36.6561 141.909 36.1716 141.589 35.5531C141.28 34.9346 141.125 34.2387 141.125 33.4655C141.125 32.6924 141.28 31.9965 141.589 31.378C141.909 30.7594 142.362 30.2749 142.95 29.9244C143.537 29.5636 144.223 29.3832 145.006 29.3832C145.481 29.3832 145.929 29.4708 146.352 29.6461C146.785 29.811 147.182 30.0481 147.542 30.3574V29.5842ZM145.254 35.6923C145.677 35.6923 146.058 35.5995 146.398 35.4139C146.749 35.2181 147.022 34.95 147.218 34.6098C147.424 34.2696 147.527 33.883 147.527 33.4501C147.527 32.8006 147.305 32.2697 146.862 31.8573C146.429 31.445 145.893 31.2388 145.254 31.2388C144.604 31.2388 144.068 31.4501 143.646 31.8728C143.233 32.2852 143.027 32.8161 143.027 33.4655C143.027 34.115 143.233 34.6511 143.646 35.0737C144.068 35.4861 144.604 35.6923 145.254 35.6923ZM157.116 29.5842H159.034V37.3159H157.116V36.5582C156.756 36.8675 156.359 37.1097 155.926 37.285C155.503 37.4499 155.055 37.5324 154.58 37.5324C153.797 37.5324 153.111 37.3572 152.524 37.0066C151.936 36.6561 151.483 36.1716 151.163 35.5531C150.854 34.9346 150.699 34.2387 150.699 33.4655C150.699 32.6924 150.854 31.9965 151.163 31.378C151.483 30.7594 151.936 30.2749 152.524 29.9244C153.111 29.5636 153.797 29.3832 154.58 29.3832C155.055 29.3832 155.503 29.4708 155.926 29.6461C156.359 29.811 156.756 30.0481 157.116 30.3574V29.5842ZM154.828 35.6923C155.251 35.6923 155.632 35.5995 155.972 35.4139C156.323 35.2181 156.596 34.95 156.792 34.6098C156.998 34.2696 157.101 33.883 157.101 33.4501C157.101 32.8006 156.879 32.2697 156.436 31.8573C156.003 31.445 155.467 31.2388 154.828 31.2388C154.178 31.2388 153.642 31.4501 153.22 31.8728C152.807 32.2852 152.601 32.8161 152.601 33.4655C152.601 34.115 152.807 34.6511 153.22 35.0737C153.642 35.4861 154.178 35.6923 154.828 35.6923ZM164.718 37.5169C163.656 37.5169 162.764 37.2798 162.042 36.8056C161.321 36.3314 160.816 35.6923 160.527 34.8882L162.228 33.883C162.651 34.9861 163.496 35.5376 164.764 35.5376C165.331 35.5376 165.769 35.4036 166.078 35.1356C166.388 34.8675 166.542 34.5583 166.542 34.2078C166.542 33.8573 166.372 33.5738 166.032 33.3573C165.702 33.1408 165.109 32.9088 164.254 32.6614C163.584 32.4553 163.017 32.2336 162.553 31.9965C162.089 31.7491 161.707 31.4192 161.408 31.0069C161.12 30.5945 160.975 30.0739 160.975 29.445C160.975 28.8059 161.135 28.2492 161.455 27.775C161.774 27.2905 162.197 26.9245 162.723 26.6771C163.259 26.4194 163.841 26.2905 164.47 26.2905C165.346 26.2905 166.104 26.5018 166.743 26.9245C167.393 27.3369 167.893 27.9193 168.243 28.6719L166.511 29.6615C166.109 28.744 165.429 28.2853 164.47 28.2853C164.037 28.2853 163.682 28.3987 163.403 28.6255C163.125 28.8523 162.986 29.1203 162.986 29.4296C162.986 29.6667 163.048 29.8677 163.171 30.0327C163.305 30.1976 163.511 30.3471 163.79 30.4811C164.078 30.6151 164.496 30.7646 165.042 30.9295C165.754 31.1563 166.352 31.3934 166.836 31.6409C167.331 31.8883 167.738 32.2336 168.058 32.6769C168.388 33.1099 168.552 33.6562 168.552 34.316C168.552 34.9655 168.388 35.5325 168.058 36.017C167.728 36.5015 167.269 36.8726 166.681 37.1304C166.104 37.3881 165.449 37.5169 164.718 37.5169ZM179.607 31.8883L183.117 37.3159H180.705L178.2 33.4346L175.695 37.3159H173.282L176.792 31.8883L173.298 26.4915H175.71L178.2 30.3419L180.689 26.4915H183.101L179.607 31.8883Z" fill="#0B0A33"/>
<rect x="143.867" y="60.7476" width="126.496" height="121.841" rx="11.5" fill="white" stroke="#EFF0F7"/>
<path d="M195.618 158.75C190.213 157.069 185.24 154.222 181.049 150.41C176.859 146.597 173.552 141.911 171.363 136.681C169.173 131.45 168.154 125.803 168.378 120.135C168.601 114.467 170.062 108.918 172.656 103.877" stroke="#F3F5FF" stroke-width="16" stroke-linecap="round"/>
<path d="M170.865 107.903C174.082 99.4061 180.17 92.3102 188.069 87.8477C195.968 83.3854 205.178 81.8381 214.097 83.4739C223.016 85.1096 231.082 89.8255 236.89 96.8035C242.699 103.782 245.881 112.58 245.881 121.668" stroke="#FFE5E9" stroke-width="16" stroke-linecap="round"/>
<path d="M245.881 121.668C245.881 128.653 244 135.508 240.436 141.511C236.872 147.515 231.759 152.443 225.635 155.779C219.511 159.114 212.603 160.734 205.638 160.468C198.674 160.202 191.909 158.061 186.056 154.268" stroke="#FF5F85" stroke-width="16" stroke-linecap="round"/>
<defs>
<filter id="filter0_d" x="89.3713" y="207.956" width="114.195" height="127.334" filterUnits="userSpaceOnUse" color-interpolation-filters="sRGB">
<feFlood flood-opacity="0" result="BackgroundImageFix"/>
<feColorMatrix in="SourceAlpha" type="matrix" values="0 0 0 0 0 0 0 0 0 0 0 0 0 0 0 0 0 0 127 0" result="hardAlpha"/>
<feOffset dy="9.03378"/>
<feGaussianBlur stdDeviation="10.163"/>
<feColorMatrix type="matrix" values="0 0 0 0 0.0423448 0 0 0 0 0.0391396 0 0 0 0 0.199398 0 0 0 0.04 0"/>
<feBlend mode="normal" in2="BackgroundImageFix" result="effect1_dropShadow"/>
<feBlend mode="normal" in="SourceGraphic" in2="effect1_dropShadow" result="shape"/>
</filter>
<filter id="filter1_d" x="3.12322" y="207.09" width="114.483" height="129.063" filterUnits="userSpaceOnUse" color-interpolation-filters="sRGB">
<feFlood flood-opacity="0" result="BackgroundImageFix"/>
<feColorMatrix in="SourceAlpha" type="matrix" values="0 0 0 0 0 0 0 0 0 0 0 0 0 0 0 0 0 0 127 0" result="hardAlpha"/>
<feOffset dy="9.03378"/>
<feGaussianBlur stdDeviation="10.163"/>
<feColorMatrix type="matrix" values="0 0 0 0 0.0423448 0 0 0 0 0.0391396 0 0 0 0 0.199398 0 0 0 0.04 0"/>
<feBlend mode="normal" in2="BackgroundImageFix" result="effect1_dropShadow"/>
<feBlend mode="normal" in="SourceGraphic" in2="effect1_dropShadow" result="shape"/>
</filter>
<filter id="filter2_d" x="174.559" y="205.884" width="116.045" height="131.479" filterUnits="userSpaceOnUse" color-interpolation-filters="sRGB">
<feFlood flood-opacity="0" result="BackgroundImageFix"/>
<feColorMatrix in="SourceAlpha" type="matrix" values="0 0 0 0 0 0 0 0 0 0 0 0 0 0 0 0 0 0 127 0" result="hardAlpha"/>
<feOffset dy="9.03378"/>
<feGaussianBlur stdDeviation="10.163"/>
<feColorMatrix type="matrix" values="0 0 0 0 0.0423448 0 0 0 0 0.0391396 0 0 0 0 0.199398 0 0 0 0.04 0"/>
<feBlend mode="normal" in2="BackgroundImageFix" result="effect1_dropShadow"/>
<feBlend mode="normal" in="SourceGraphic" in2="effect1_dropShadow" result="shape"/>
</filter>
</defs>
</svg>
