<svg width="20" height="18" viewBox="0 0 20 18" fill="none" xmlns="http://www.w3.org/2000/svg">
<path d="M0.433594 2.27701C0.433594 1.67842 0.64381 1.18459 1.06422 0.795528C1.48464 0.406446 2.0312 0.211914 2.70386 0.211914C3.36453 0.211914 3.89905 0.403447 4.30747 0.786549C4.72788 1.18161 4.9381 1.69638 4.9381 2.33088C4.9381 2.90552 4.7339 3.38437 4.32549 3.76747C3.90507 4.16253 3.35251 4.36006 2.66783 4.36006H2.64981C1.98914 4.36006 1.45462 4.16253 1.04621 3.76747C0.637792 3.37241 0.433594 2.87558 0.433594 2.27701ZM0.667828 17.9897V5.99418H4.66783V17.9897H0.667828ZM6.88405 17.9897H10.884V11.2916C10.884 10.8726 10.9321 10.5494 11.0282 10.3219C11.1964 9.91486 11.4516 9.57068 11.794 9.28936C12.1363 9.00802 12.5657 8.86736 13.0822 8.86736C14.4276 8.86736 15.1003 9.7712 15.1003 11.5789V17.9897H19.1003V11.112C19.1003 9.34023 18.6798 7.99643 17.839 7.0806C16.9982 6.16478 15.8871 5.70686 14.5057 5.70686C12.9561 5.70686 11.7489 6.37129 10.884 7.70013V7.73604H10.866L10.884 7.70013V5.99418H6.88405C6.90806 6.37727 6.92008 7.56843 6.92008 9.56769C6.92008 11.5669 6.90806 14.3743 6.88405 17.9897Z" fill="#0074B4"/>
</svg>
