<svg width="86" height="86" viewBox="0 0 86 86" fill="none" xmlns="http://www.w3.org/2000/svg">
<g clip-path="url(#clip0)">
<rect width="86" height="86" fill="white"/>
<rect width="86.126" height="86.126" fill="#E60023"/>
<path d="M43.0516 18.2402C28.9004 18.2402 17.4648 29.6963 17.4648 43.827C17.4648 54.6729 24.2039 63.9387 33.7228 67.6654C33.4916 65.6447 33.3014 62.5269 33.8076 60.3174C34.27 58.316 36.7981 47.596 36.7981 47.596C36.7981 47.596 36.0402 46.0596 36.0402 43.8064C36.0402 40.2481 38.1033 37.5941 40.6725 37.5941C42.8627 37.5941 43.9161 39.2358 43.9161 41.1948C43.9161 43.3851 42.5262 46.6698 41.7888 49.7246C41.1773 52.272 43.0734 54.3569 45.5784 54.3569C50.1285 54.3569 53.6239 49.555 53.6239 42.6477C53.6239 36.5201 49.2228 32.245 42.9257 32.245C35.6394 32.245 31.3643 37.6994 31.3643 43.3427C31.3643 45.5329 32.207 47.8915 33.259 49.1761C33.4697 49.4291 33.4903 49.6604 33.4286 49.9134C33.2385 50.7137 32.7966 52.4608 32.7118 52.8192C32.6065 53.2817 32.3328 53.3883 31.8486 53.1558C28.6897 51.6399 26.7101 46.964 26.7101 43.2168C26.7101 35.1495 32.5641 27.7373 43.6207 27.7373C52.487 27.7373 59.3943 34.055 59.3943 42.5218C59.3943 51.3445 53.8345 58.4419 46.1269 58.4419C43.5359 58.4419 41.0938 57.0931 40.2717 55.4937L38.6724 61.5802C38.1033 63.8116 36.5451 66.5914 35.4917 68.2987C37.8926 69.0347 40.4194 69.4343 43.0734 69.4343C57.2041 69.4343 68.6602 57.9782 68.6602 43.8475C68.6383 29.6963 57.1822 18.2402 43.0516 18.2402Z" fill="white"/>
</g>
<defs>
<clipPath id="clip0">
<rect width="86" height="86" fill="white"/>
</clipPath>
</defs>
</svg>
