<svg width="86" height="86" viewBox="0 0 86 86" fill="none" xmlns="http://www.w3.org/2000/svg">
<g clip-path="url(#clip0)">
<rect width="86" height="86" fill="white"/>
<rect width="86.126" height="86.126" fill="#4353FF"/>
<path d="M55.3588 35.6368C55.3588 35.6368 51.2345 48.8112 50.8984 49.8987C50.7762 48.7801 47.7517 25.1345 47.7517 25.1345C40.7251 25.1345 36.9674 30.2303 34.9816 35.6057C34.9816 35.6057 29.9713 48.8112 29.5436 49.9298C29.5131 48.9044 28.7799 35.7611 28.7799 35.7611C28.3521 29.1738 22.4253 25.1656 17.6289 25.1656L23.4335 60.9913C30.7962 60.9603 34.7678 55.8956 36.8452 50.5202C36.8452 50.5202 41.275 38.8682 41.4583 38.34C41.4889 38.8372 44.6356 60.9913 44.6356 60.9913C52.0288 60.9913 56.0004 56.2374 58.1389 51.0484L68.4955 25.1656C61.194 25.1656 57.3446 30.2303 55.3588 35.6368Z" fill="white"/>
</g>
<defs>
<clipPath id="clip0">
<rect width="86" height="86" fill="white"/>
</clipPath>
</defs>
</svg>
