<svg width="24" height="23" viewBox="0 0 24 23" fill="none" xmlns="http://www.w3.org/2000/svg">
<path d="M12.0855 0C7.44993 0 6.09422 0.00478207 5.83069 0.026643C4.8794 0.105718 4.28745 0.255499 3.64255 0.576582C3.14555 0.823371 2.7536 1.10944 2.36676 1.51045C1.66226 2.24177 1.23529 3.14148 1.08072 4.21096C1.00558 4.73015 0.983715 4.83604 0.979275 7.48805C0.977567 8.37205 0.979275 9.53546 0.979275 11.096C0.979275 15.7277 0.984398 17.0821 1.0066 17.3451C1.08346 18.2708 1.22863 18.8532 1.53604 19.4902C2.12356 20.7096 3.24564 21.6251 4.56754 21.9666C5.02525 22.0845 5.53078 22.1494 6.17978 22.1801C6.45475 22.1921 9.25739 22.2006 12.0617 22.2006C14.8661 22.2006 17.6704 22.1972 17.9386 22.1835C18.69 22.1482 19.1264 22.0896 19.6089 21.9649C20.2643 21.7968 20.8752 21.4877 21.3988 21.0591C21.9224 20.6305 22.3461 20.0927 22.6404 19.4834C22.9418 18.8617 23.0947 18.2571 23.1638 17.3798C23.1789 17.1885 23.1852 14.1387 23.1852 11.093C23.1852 8.04687 23.1783 5.00273 23.1633 4.81145C23.0933 3.91994 22.9404 3.32047 22.6293 2.68684C22.3739 2.16816 22.0904 1.78081 21.6788 1.38475C20.9444 0.683154 20.0461 0.256183 18.9754 0.10179C18.4567 0.0268138 18.3534 0.00461129 15.6994 0H12.0855Z" fill="url(#paint0_radial)"/>
<path d="M12.0855 0C7.44993 0 6.09422 0.00478207 5.83069 0.026643C4.8794 0.105718 4.28745 0.255499 3.64255 0.576582C3.14555 0.823371 2.7536 1.10944 2.36676 1.51045C1.66226 2.24177 1.23529 3.14148 1.08072 4.21096C1.00558 4.73015 0.983715 4.83604 0.979275 7.48805C0.977567 8.37205 0.979275 9.53546 0.979275 11.096C0.979275 15.7277 0.984398 17.0821 1.0066 17.3451C1.08346 18.2708 1.22863 18.8532 1.53604 19.4902C2.12356 20.7096 3.24564 21.6251 4.56754 21.9666C5.02525 22.0845 5.53078 22.1494 6.17978 22.1801C6.45475 22.1921 9.25739 22.2006 12.0617 22.2006C14.8661 22.2006 17.6704 22.1972 17.9386 22.1835C18.69 22.1482 19.1264 22.0896 19.6089 21.9649C20.2643 21.7968 20.8752 21.4877 21.3988 21.0591C21.9224 20.6305 22.3461 20.0927 22.6404 19.4834C22.9418 18.8617 23.0947 18.2571 23.1638 17.3798C23.1789 17.1885 23.1852 14.1387 23.1852 11.093C23.1852 8.04687 23.1783 5.00273 23.1633 4.81145C23.0933 3.91994 22.9404 3.32047 22.6293 2.68684C22.3739 2.16816 22.0904 1.78081 21.6788 1.38475C20.9444 0.683154 20.0461 0.256183 18.9754 0.10179C18.4567 0.0268138 18.3534 0.00461129 15.6994 0H12.0855Z" fill="url(#paint1_radial)"/>
<path d="M12.0792 2.90332C9.85282 2.90332 9.57341 2.91306 8.69897 2.95285C7.82624 2.99281 7.23053 3.13098 6.70929 3.33371C6.17011 3.54309 5.71274 3.82319 5.25707 4.27902C4.80107 4.73468 4.52097 5.19206 4.3109 5.73106C4.10767 6.25248 3.96933 6.84836 3.93005 7.72075C3.89111 8.59519 3.88086 8.87477 3.88086 11.1012C3.88086 13.3276 3.89077 13.6061 3.93039 14.4806C3.97052 15.3533 4.10869 15.949 4.31125 16.4702C4.5208 17.0094 4.8009 17.4668 5.25673 17.9225C5.71222 18.3785 6.16959 18.6592 6.70843 18.8686C7.23002 19.0713 7.8259 19.2095 8.69846 19.2495C9.57289 19.2893 9.85213 19.299 12.0784 19.299C14.3049 19.299 14.5835 19.2893 15.4579 19.2495C16.3306 19.2095 16.927 19.0713 17.4486 18.8686C17.9876 18.6592 18.4443 18.3785 18.8998 17.9225C19.3558 17.4668 19.6359 17.0094 19.846 16.4704C20.0475 15.949 20.1859 15.3531 20.2268 14.4807C20.2661 13.6063 20.2764 13.3276 20.2764 11.1012C20.2764 8.87477 20.2661 8.59536 20.2268 7.72092C20.1859 6.84819 20.0475 6.25248 19.846 5.73123C19.6359 5.19206 19.3558 4.73468 18.8998 4.27902C18.4438 3.82302 17.9878 3.54292 17.4481 3.33371C16.9255 3.13098 16.3295 2.99281 15.4567 2.95285C14.5823 2.91306 14.3039 2.90332 12.0768 2.90332H12.0792ZM11.3438 4.38064C11.5621 4.3803 11.8056 4.38064 12.0792 4.38064C14.268 4.38064 14.5275 4.3885 15.3918 4.42778C16.1911 4.46433 16.6249 4.59788 16.9139 4.71009C17.2965 4.85868 17.5692 5.0363 17.856 5.32322C18.1429 5.61015 18.3205 5.88341 18.4694 6.26597C18.5816 6.55461 18.7154 6.98841 18.7517 7.7877C18.791 8.65189 18.7996 8.91148 18.7996 11.0993C18.7996 13.2871 18.791 13.5467 18.7517 14.4109C18.7152 15.2102 18.5816 15.644 18.4694 15.9326C18.3208 16.3152 18.1429 16.5876 17.856 16.8743C17.569 17.1612 17.2966 17.3389 16.9139 17.4875C16.6253 17.6002 16.1911 17.7334 15.3918 17.7699C14.5276 17.8092 14.268 17.8178 12.0792 17.8178C9.89022 17.8178 9.63079 17.8092 8.7666 17.7699C7.96731 17.733 7.53351 17.5995 7.24437 17.4873C6.8618 17.3387 6.58854 17.1611 6.30161 16.8742C6.01469 16.5872 5.83707 16.3147 5.68814 15.9319C5.57593 15.6433 5.44221 15.2095 5.40583 14.4102C5.36655 13.546 5.35869 13.2864 5.35869 11.0972C5.35869 8.90807 5.36655 8.64984 5.40583 7.78565C5.44238 6.98636 5.57593 6.55256 5.68814 6.26358C5.83673 5.88102 6.01469 5.60775 6.30161 5.32083C6.58854 5.03391 6.8618 4.85629 7.24437 4.70736C7.53334 4.59464 7.96731 4.46142 8.7666 4.4247C9.52285 4.39055 9.81593 4.3803 11.3438 4.37859V4.38064ZM16.4552 5.74182C16.2606 5.74182 16.0704 5.79953 15.9086 5.90764C15.7468 6.01575 15.6207 6.16941 15.5463 6.34918C15.4718 6.52896 15.4524 6.72677 15.4903 6.91761C15.5283 7.10844 15.6221 7.28373 15.7597 7.4213C15.8973 7.55886 16.0726 7.65253 16.2634 7.69045C16.4543 7.72836 16.6521 7.70883 16.8319 7.63433C17.0116 7.55982 17.1652 7.43367 17.2733 7.27185C17.3813 7.11003 17.439 6.9198 17.4389 6.72522C17.4389 6.18212 16.9983 5.74148 16.4552 5.74148V5.74182ZM12.0792 6.89123C9.75427 6.89123 7.86928 8.77622 7.86928 11.1012C7.86928 13.4261 9.75427 15.3102 12.0792 15.3102C14.4042 15.3102 16.2886 13.4261 16.2886 11.1012C16.2886 8.77622 14.404 6.89123 12.079 6.89123H12.0792ZM12.0792 8.36855C13.5883 8.36855 14.8118 9.59191 14.8118 11.1012C14.8118 12.6102 13.5883 13.8338 12.0792 13.8338C10.57 13.8338 9.3466 12.6102 9.3466 11.1012C9.3466 9.59191 10.57 8.36855 12.0792 8.36855V8.36855Z" fill="white"/>
<defs>
<radialGradient id="paint0_radial" cx="0" cy="0" r="1" gradientUnits="userSpaceOnUse" gradientTransform="translate(6.87719 23.9105) rotate(-90) scale(22.0024 20.4696)">
<stop stop-color="#FFDD55"/>
<stop offset="0.1" stop-color="#FFDD55"/>
<stop offset="0.5" stop-color="#FF543E"/>
<stop offset="1" stop-color="#C837AB"/>
</radialGradient>
<radialGradient id="paint1_radial" cx="0" cy="0" r="1" gradientUnits="userSpaceOnUse" gradientTransform="translate(-2.74122 1.59929) rotate(78.6776) scale(9.83529 40.5517)">
<stop stop-color="#3771C8"/>
<stop offset="0.128" stop-color="#3771C8"/>
<stop offset="1" stop-color="#6600FF" stop-opacity="0"/>
</radialGradient>
</defs>
</svg>
