<svg width="237" height="299" viewBox="0 0 237 299" fill="none" xmlns="http://www.w3.org/2000/svg">
<rect width="237" height="299" fill="white"/>
<rect width="237" height="299" fill="white"/>
<path d="M93.7266 130.684C95.5266 130.684 97.1346 131.08 98.5506 131.872C99.9906 132.64 101.119 133.696 101.935 135.04C102.751 136.384 103.159 137.896 103.159 139.576C103.159 141.256 102.751 142.768 101.935 144.112C101.119 145.456 99.9906 146.512 98.5506 147.28C97.1346 148.048 95.5266 148.432 93.7266 148.432C91.9506 148.432 90.3426 148.048 88.9026 147.28C87.4626 146.512 86.3346 145.456 85.5186 144.112C84.7266 142.768 84.3306 141.256 84.3306 139.576C84.3306 137.92 84.7146 136.432 85.4826 135.112C85.6746 134.776 85.7946 134.584 85.8426 134.536L93.2226 122.8H97.8306L92.8266 130.72C93.0186 130.696 93.3186 130.684 93.7266 130.684ZM93.7266 144.472C94.7346 144.472 95.6346 144.256 96.4266 143.824C97.2426 143.392 97.8786 142.804 98.3346 142.06C98.8146 141.316 99.0546 140.488 99.0546 139.576C99.0546 138.664 98.8146 137.824 98.3346 137.056C97.8786 136.288 97.2426 135.688 96.4266 135.256C95.6106 134.824 94.7106 134.608 93.7266 134.608C92.7426 134.608 91.8426 134.824 91.0266 135.256C90.2346 135.688 89.5986 136.288 89.1186 137.056C88.6626 137.8 88.4346 138.64 88.4346 139.576C88.4346 140.992 88.9386 142.168 89.9466 143.104C90.9786 144.016 92.2386 144.472 93.7266 144.472ZM122.049 139H124.929V142.78H122.049V148H118.053V142.78H105.417V139L113.625 122.8H118.053L109.881 139H118.053V132.952H122.049V139ZM132.947 135.544C131.771 135.544 130.727 135.292 129.815 134.788C128.927 134.26 128.231 133.54 127.727 132.628C127.223 131.716 126.971 130.708 126.971 129.604C126.971 128.476 127.223 127.456 127.727 126.544C128.231 125.632 128.927 124.924 129.815 124.42C130.727 123.892 131.771 123.628 132.947 123.628C134.123 123.628 135.155 123.892 136.043 124.42C136.955 124.924 137.663 125.632 138.167 126.544C138.671 127.456 138.923 128.476 138.923 129.604C138.923 130.708 138.671 131.716 138.167 132.628C137.663 133.54 136.955 134.26 136.043 134.788C135.155 135.292 134.123 135.544 132.947 135.544ZM133.019 148H130.607L145.943 123.988H148.391L133.019 148ZM132.947 133.132C133.883 133.132 134.651 132.808 135.251 132.16C135.851 131.512 136.151 130.66 136.151 129.604C136.151 128.524 135.851 127.66 135.251 127.012C134.651 126.34 133.883 126.004 132.947 126.004C132.035 126.004 131.279 126.34 130.679 127.012C130.079 127.684 129.779 128.548 129.779 129.604C129.779 130.636 130.079 131.488 130.679 132.16C131.279 132.808 132.035 133.132 132.947 133.132ZM145.871 148.432C144.695 148.432 143.651 148.18 142.739 147.676C141.851 147.148 141.155 146.428 140.651 145.516C140.147 144.604 139.895 143.596 139.895 142.492C139.895 141.364 140.147 140.344 140.651 139.432C141.155 138.52 141.851 137.812 142.739 137.308C143.651 136.78 144.695 136.516 145.871 136.516C147.047 136.516 148.079 136.78 148.967 137.308C149.879 137.812 150.587 138.52 151.091 139.432C151.595 140.344 151.847 141.364 151.847 142.492C151.847 143.596 151.595 144.604 151.091 145.516C150.587 146.428 149.879 147.148 148.967 147.676C148.079 148.18 147.047 148.432 145.871 148.432ZM145.871 146.02C146.807 146.02 147.575 145.696 148.175 145.048C148.775 144.4 149.075 143.548 149.075 142.492C149.075 141.412 148.775 140.548 148.175 139.9C147.575 139.228 146.807 138.892 145.871 138.892C144.935 138.892 144.167 139.228 143.567 139.9C142.967 140.548 142.667 141.412 142.667 142.492C142.667 143.548 142.955 144.4 143.531 145.048C144.131 145.696 144.911 146.02 145.871 146.02Z" fill="#0B0A33"/>
<path d="M73.0876 225.943H74.3167V232.196C74.3167 232.863 74.1682 233.452 73.871 233.966C73.5739 234.47 73.1597 234.862 72.6284 235.141C72.0971 235.42 71.4893 235.56 70.8049 235.56C70.1206 235.56 69.5128 235.42 68.9815 235.141C68.4502 234.862 68.036 234.47 67.7389 233.966C67.4507 233.452 67.3066 232.863 67.3066 232.196V225.943H68.5358V232.196C68.5358 232.845 68.7384 233.362 69.1436 233.75C69.5578 234.137 70.1116 234.33 70.8049 234.33C71.5163 234.33 72.0746 234.141 72.4798 233.763C72.885 233.376 73.0876 232.854 73.0876 232.196V225.943ZM79.1063 235.56C78.1969 235.56 77.4315 235.357 76.8102 234.952C76.1888 234.547 75.7611 233.993 75.527 233.29L76.5805 232.683C76.7606 233.205 77.0623 233.615 77.4855 233.912C77.9177 234.209 78.4625 234.357 79.1198 234.357C79.5611 234.357 79.9303 234.285 80.2274 234.141C80.5336 233.988 80.7587 233.795 80.9028 233.561C81.0558 233.317 81.1324 233.061 81.1324 232.791C81.1324 232.403 80.9478 232.088 80.5786 231.845C80.2094 231.602 79.6286 231.359 78.8362 231.116C78.2059 230.927 77.6881 230.738 77.2829 230.548C76.8867 230.359 76.558 230.098 76.2969 229.765C76.0448 229.423 75.9187 228.982 75.9187 228.441C75.9187 227.91 76.0493 227.442 76.3104 227.037C76.5805 226.631 76.9407 226.321 77.3909 226.105C77.8502 225.889 78.3499 225.781 78.8902 225.781C79.6376 225.781 80.2859 225.965 80.8352 226.334C81.3845 226.694 81.8032 227.19 82.0914 227.82L81.0243 228.414C80.8352 227.964 80.5606 227.617 80.2004 227.374C79.8402 227.122 79.4035 226.996 78.8902 226.996C78.3589 226.996 77.9357 227.14 77.6206 227.428C77.3054 227.708 77.1478 228.045 77.1478 228.441C77.1478 228.73 77.2244 228.964 77.3774 229.144C77.5395 229.324 77.7556 229.477 78.0258 229.603C78.3049 229.72 78.7146 229.864 79.2549 230.035C79.9393 230.251 80.4885 230.463 80.9028 230.67C81.317 230.868 81.6636 231.143 81.9428 231.494C82.2219 231.845 82.3615 232.295 82.3615 232.845C82.3615 233.394 82.2219 233.876 81.9428 234.29C81.6636 234.695 81.2764 235.01 80.7812 235.235C80.2949 235.451 79.7367 235.56 79.1063 235.56ZM91.1368 235.397H89.8131L89.0027 233.236H84.8155L84.0051 235.397H82.6814L86.2338 225.943H87.571L91.1368 235.397ZM86.9091 227.685L85.2613 232.075H88.5705L86.9091 227.685Z" fill="#7A7D9C"/>
<circle cx="51.2969" cy="230.297" r="8.29692" fill="#FF5F85"/>
<path d="M73.0876 256.7H74.3167V262.954C74.3167 263.62 74.1682 264.21 73.871 264.724C73.5739 265.228 73.1597 265.619 72.6284 265.899C72.0971 266.178 71.4893 266.317 70.8049 266.317C70.1206 266.317 69.5128 266.178 68.9815 265.899C68.4502 265.619 68.036 265.228 67.7389 264.724C67.4507 264.21 67.3066 263.62 67.3066 262.954V256.7H68.5358V262.954C68.5358 263.602 68.7384 264.12 69.1436 264.507C69.5578 264.895 70.1116 265.088 70.8049 265.088C71.5163 265.088 72.0746 264.899 72.4798 264.521C72.885 264.134 73.0876 263.611 73.0876 262.954V256.7ZM83.6113 266.142L82.0715 266.155L78.5597 261.941L77.5737 263.008V266.155H76.3446V256.7H77.5737V261.171L81.7879 256.7H83.3952L79.3972 261.036L83.6113 266.142Z" fill="#7A7D9C"/>
<circle cx="51.2969" cy="261.055" r="8.29692" fill="#596AFF"/>
<path d="M138.122 230.843C138.122 229.96 138.338 229.145 138.77 228.398C139.211 227.65 139.806 227.061 140.553 226.628C141.3 226.187 142.115 225.967 142.998 225.967C143.898 225.967 144.727 226.196 145.483 226.655C146.239 227.106 146.829 227.709 147.253 228.465L146.172 229.046C145.848 228.488 145.402 228.042 144.835 227.709C144.276 227.367 143.664 227.196 142.998 227.196C142.34 227.196 141.733 227.362 141.174 227.695C140.616 228.02 140.17 228.461 139.837 229.019C139.513 229.577 139.351 230.185 139.351 230.843C139.351 231.5 139.513 232.108 139.837 232.666C140.17 233.224 140.616 233.666 141.174 233.99C141.733 234.314 142.34 234.476 142.998 234.476C143.673 234.476 144.29 234.305 144.848 233.963C145.416 233.62 145.857 233.166 146.172 232.598L147.266 233.193C146.843 233.958 146.248 234.57 145.483 235.03C144.727 235.489 143.898 235.719 142.998 235.719C142.115 235.719 141.3 235.502 140.553 235.07C139.806 234.629 139.211 234.035 138.77 233.287C138.338 232.54 138.122 231.725 138.122 230.843ZM154.05 228.79H155.225V235.543H154.05V234.53C153.734 234.899 153.356 235.192 152.915 235.408C152.483 235.615 152.019 235.719 151.524 235.719C150.867 235.719 150.277 235.565 149.754 235.259C149.232 234.944 148.827 234.516 148.539 233.976C148.251 233.436 148.107 232.837 148.107 232.18C148.107 231.513 148.251 230.915 148.539 230.383C148.827 229.843 149.228 229.42 149.741 229.114C150.263 228.799 150.858 228.641 151.524 228.641C152.019 228.641 152.483 228.749 152.915 228.965C153.356 229.172 153.734 229.46 154.05 229.83V228.79ZM151.645 234.597C152.087 234.597 152.492 234.494 152.861 234.287C153.23 234.071 153.518 233.778 153.725 233.409C153.942 233.04 154.05 232.625 154.05 232.166C154.05 231.716 153.942 231.311 153.725 230.951C153.518 230.581 153.23 230.293 152.861 230.086C152.492 229.879 152.087 229.776 151.645 229.776C151.204 229.776 150.803 229.879 150.443 230.086C150.083 230.293 149.799 230.581 149.592 230.951C149.385 231.32 149.282 231.73 149.282 232.18C149.282 232.639 149.385 233.053 149.592 233.422C149.799 233.783 150.083 234.071 150.443 234.287C150.803 234.494 151.204 234.597 151.645 234.597ZM160.285 228.627C160.682 228.627 161.087 228.713 161.501 228.884C161.915 229.046 162.271 229.343 162.568 229.776C162.865 230.199 163.014 230.775 163.014 231.504V235.543H161.852V231.504C161.852 230.847 161.672 230.379 161.312 230.1C160.952 229.812 160.529 229.667 160.042 229.667C159.574 229.667 159.164 229.834 158.813 230.167C158.462 230.491 158.286 231.027 158.286 231.775V235.543H157.125V228.79H158.286V229.586C158.53 229.298 158.822 229.069 159.164 228.898C159.507 228.717 159.88 228.627 160.285 228.627ZM170.063 228.79H171.238V235.543H170.063V234.53C169.748 234.899 169.369 235.192 168.928 235.408C168.496 235.615 168.032 235.719 167.537 235.719C166.88 235.719 166.29 235.565 165.768 235.259C165.245 234.944 164.84 234.516 164.552 233.976C164.264 233.436 164.12 232.837 164.12 232.18C164.12 231.513 164.264 230.915 164.552 230.383C164.84 229.843 165.241 229.42 165.754 229.114C166.276 228.799 166.871 228.641 167.537 228.641C168.032 228.641 168.496 228.749 168.928 228.965C169.369 229.172 169.748 229.46 170.063 229.83V228.79ZM167.659 234.597C168.1 234.597 168.505 234.494 168.874 234.287C169.243 234.071 169.531 233.778 169.739 233.409C169.955 233.04 170.063 232.625 170.063 232.166C170.063 231.716 169.955 231.311 169.739 230.951C169.531 230.581 169.243 230.293 168.874 230.086C168.505 229.879 168.1 229.776 167.659 229.776C167.217 229.776 166.817 229.879 166.456 230.086C166.096 230.293 165.813 230.581 165.605 230.951C165.398 231.32 165.295 231.73 165.295 232.18C165.295 232.639 165.398 233.053 165.605 233.422C165.813 233.783 166.096 234.071 166.456 234.287C166.817 234.494 167.217 234.597 167.659 234.597ZM178.425 226.088H179.587V235.543H178.425V234.53C178.11 234.899 177.732 235.192 177.291 235.408C176.859 235.615 176.395 235.719 175.9 235.719C175.242 235.719 174.653 235.565 174.13 235.259C173.608 234.944 173.203 234.516 172.915 233.976C172.626 233.436 172.482 232.837 172.482 232.18C172.482 231.513 172.626 230.915 172.915 230.383C173.203 229.843 173.603 229.42 174.117 229.114C174.639 228.799 175.233 228.641 175.9 228.641C176.395 228.641 176.859 228.749 177.291 228.965C177.732 229.172 178.11 229.46 178.425 229.83V226.088ZM176.021 234.597C176.462 234.597 176.868 234.494 177.237 234.287C177.606 234.071 177.894 233.778 178.101 233.409C178.317 233.04 178.425 232.625 178.425 232.166C178.425 231.716 178.317 231.311 178.101 230.951C177.894 230.581 177.606 230.293 177.237 230.086C176.868 229.879 176.462 229.776 176.021 229.776C175.58 229.776 175.179 229.879 174.819 230.086C174.459 230.293 174.175 230.581 173.968 230.951C173.761 231.32 173.658 231.73 173.658 232.18C173.658 232.639 173.761 233.053 173.968 233.422C174.175 233.783 174.459 234.071 174.819 234.287C175.179 234.494 175.58 234.597 176.021 234.597ZM186.788 228.79H187.963V235.543H186.788V234.53C186.473 234.899 186.095 235.192 185.654 235.408C185.221 235.615 184.758 235.719 184.262 235.719C183.605 235.719 183.015 235.565 182.493 235.259C181.971 234.944 181.565 234.516 181.277 233.976C180.989 233.436 180.845 232.837 180.845 232.18C180.845 231.513 180.989 230.915 181.277 230.383C181.565 229.843 181.966 229.42 182.479 229.114C183.002 228.799 183.596 228.641 184.262 228.641C184.758 228.641 185.221 228.749 185.654 228.965C186.095 229.172 186.473 229.46 186.788 229.83V228.79ZM184.384 234.597C184.825 234.597 185.23 234.494 185.6 234.287C185.969 234.071 186.257 233.778 186.464 233.409C186.68 233.04 186.788 232.625 186.788 232.166C186.788 231.716 186.68 231.311 186.464 230.951C186.257 230.581 185.969 230.293 185.6 230.086C185.23 229.879 184.825 229.776 184.384 229.776C183.943 229.776 183.542 229.879 183.182 230.086C182.822 230.293 182.538 230.581 182.331 230.951C182.124 231.32 182.02 231.73 182.02 232.18C182.02 232.639 182.124 233.053 182.331 233.422C182.538 233.783 182.822 234.071 183.182 234.287C183.542 234.494 183.943 234.597 184.384 234.597Z" fill="#7A7D9C"/>
<circle cx="122.492" cy="230.297" r="8.29692" fill="#FFC147"/>
<path d="M146.174 265.214H144.85L144.04 263.053H139.853L139.042 265.214H137.719L141.271 255.759H142.608L146.174 265.214ZM141.946 257.501L140.298 261.891H143.608L141.946 257.501ZM151.416 258.46H152.577V265.214H151.416V264.417C151.173 264.705 150.88 264.939 150.538 265.119C150.196 265.29 149.822 265.376 149.417 265.376C149.021 265.376 148.615 265.295 148.201 265.133C147.787 264.962 147.431 264.665 147.134 264.241C146.837 263.809 146.688 263.228 146.688 262.499V258.46H147.85V262.499C147.85 263.156 148.03 263.629 148.39 263.917C148.759 264.196 149.183 264.336 149.66 264.336C150.128 264.336 150.538 264.174 150.889 263.85C151.24 263.516 151.416 262.976 151.416 262.229V258.46ZM155.17 260.311C155.17 260.572 155.292 260.761 155.535 260.878C155.787 260.995 156.188 261.121 156.737 261.256C157.268 261.382 157.7 261.508 158.034 261.635C158.376 261.761 158.664 261.959 158.898 262.229C159.141 262.499 159.263 262.864 159.263 263.323C159.263 263.944 159.006 264.444 158.493 264.822C157.979 265.191 157.336 265.376 156.561 265.376C155.868 265.376 155.283 265.241 154.805 264.971C154.328 264.701 153.981 264.322 153.765 263.836L154.724 263.336C154.868 263.697 155.098 263.967 155.413 264.147C155.728 264.318 156.111 264.403 156.561 264.403C156.984 264.403 157.349 264.309 157.655 264.12C157.97 263.931 158.128 263.67 158.128 263.336C158.128 263.129 158.052 262.958 157.898 262.823C157.754 262.688 157.57 262.585 157.345 262.512C157.129 262.44 156.818 262.35 156.413 262.242C155.899 262.116 155.481 261.995 155.157 261.878C154.841 261.752 154.567 261.567 154.333 261.324C154.108 261.081 153.995 260.752 153.995 260.338C153.995 259.942 154.108 259.59 154.333 259.284C154.558 258.969 154.864 258.726 155.251 258.555C155.638 258.384 156.071 258.298 156.548 258.298C157.115 258.298 157.615 258.42 158.047 258.663C158.488 258.906 158.826 259.244 159.06 259.676L158.101 260.162C157.966 259.874 157.768 259.654 157.507 259.5C157.246 259.338 156.926 259.257 156.548 259.257C156.125 259.257 155.787 259.356 155.535 259.554C155.292 259.744 155.17 259.996 155.17 260.311ZM162.463 263.107C162.463 263.521 162.539 263.809 162.692 263.971C162.854 264.124 163.111 264.201 163.462 264.201C163.57 264.201 163.795 264.183 164.137 264.147V265.214C163.75 265.259 163.426 265.281 163.165 265.281C162.526 265.281 162.053 265.128 161.747 264.822C161.45 264.516 161.301 263.967 161.301 263.174V259.527H159.802V258.46H161.301V256.623L162.463 256.205V258.46H164.11V259.527H162.463V263.107ZM169.01 258.312C169.118 258.312 169.199 258.316 169.253 258.325L169.158 259.433C169.05 259.415 168.965 259.406 168.902 259.406C168.325 259.406 167.839 259.581 167.443 259.933C167.056 260.284 166.862 260.793 166.862 261.459V265.214H165.701V258.46H166.862V259.622C167.015 259.253 167.276 258.942 167.645 258.69C168.024 258.438 168.478 258.312 169.01 258.312ZM175.526 258.46H176.701V265.214H175.526V264.201C175.21 264.57 174.832 264.863 174.391 265.079C173.959 265.286 173.495 265.389 173 265.389C172.342 265.389 171.753 265.236 171.23 264.93C170.708 264.615 170.303 264.187 170.015 263.647C169.727 263.107 169.582 262.508 169.582 261.851C169.582 261.184 169.727 260.585 170.015 260.054C170.303 259.514 170.704 259.091 171.217 258.785C171.739 258.469 172.333 258.312 173 258.312C173.495 258.312 173.959 258.42 174.391 258.636C174.832 258.843 175.21 259.131 175.526 259.5V258.46ZM173.121 264.268C173.563 264.268 173.968 264.165 174.337 263.958C174.706 263.742 174.994 263.449 175.201 263.08C175.417 262.711 175.526 262.296 175.526 261.837C175.526 261.387 175.417 260.982 175.201 260.622C174.994 260.252 174.706 259.964 174.337 259.757C173.968 259.55 173.563 259.446 173.121 259.446C172.68 259.446 172.279 259.55 171.919 259.757C171.559 259.964 171.275 260.252 171.068 260.622C170.861 260.991 170.758 261.4 170.758 261.851C170.758 262.31 170.861 262.724 171.068 263.093C171.275 263.453 171.559 263.742 171.919 263.958C172.279 264.165 172.68 264.268 173.121 264.268ZM179.538 263.782C179.538 263.935 179.57 264.043 179.633 264.106C179.705 264.16 179.813 264.187 179.957 264.187C180.038 264.187 180.114 264.183 180.186 264.174C180.258 264.165 180.326 264.156 180.389 264.147V265.214C180.101 265.259 179.858 265.281 179.66 265.281C179.254 265.281 178.939 265.178 178.714 264.971C178.489 264.755 178.376 264.381 178.376 263.85V255.759H179.538V263.782ZM182.32 256.921C182.095 256.921 181.915 256.858 181.78 256.732C181.645 256.605 181.578 256.43 181.578 256.205C181.578 255.989 181.645 255.818 181.78 255.691C181.915 255.556 182.095 255.489 182.32 255.489C182.546 255.489 182.726 255.556 182.861 255.691C182.996 255.818 183.063 255.989 183.063 256.205C183.063 256.43 182.996 256.605 182.861 256.732C182.735 256.858 182.555 256.921 182.32 256.921ZM181.74 265.214V258.46H182.901V265.214H181.74ZM190.286 258.46H191.461V265.214H190.286V264.201C189.97 264.57 189.592 264.863 189.151 265.079C188.719 265.286 188.255 265.389 187.76 265.389C187.102 265.389 186.513 265.236 185.99 264.93C185.468 264.615 185.063 264.187 184.775 263.647C184.487 263.107 184.342 262.508 184.342 261.851C184.342 261.184 184.487 260.585 184.775 260.054C185.063 259.514 185.464 259.091 185.977 258.785C186.499 258.469 187.093 258.312 187.76 258.312C188.255 258.312 188.719 258.42 189.151 258.636C189.592 258.843 189.97 259.131 190.286 259.5V258.46ZM187.881 264.268C188.323 264.268 188.728 264.165 189.097 263.958C189.466 263.742 189.754 263.449 189.961 263.08C190.177 262.711 190.286 262.296 190.286 261.837C190.286 261.387 190.177 260.982 189.961 260.622C189.754 260.252 189.466 259.964 189.097 259.757C188.728 259.55 188.323 259.446 187.881 259.446C187.44 259.446 187.039 259.55 186.679 259.757C186.319 259.964 186.035 260.252 185.828 260.622C185.621 260.991 185.518 261.4 185.518 261.851C185.518 262.31 185.621 262.724 185.828 263.093C186.035 263.453 186.319 263.742 186.679 263.958C187.039 264.165 187.44 264.268 187.881 264.268Z" fill="#7A7D9C"/>
<circle cx="122.492" cy="260.113" r="8.29692" fill="#46BCFF"/>
<path d="M60.9908 165.085C55.014 153.37 52.7914 140.099 54.6253 127.076C56.4592 114.053 62.2606 101.911 71.2402 92.302C80.2198 82.6932 91.9416 76.0841 104.811 73.3738C117.68 70.6635 131.072 71.9836 143.164 77.1546C155.256 82.3256 165.462 91.0964 172.392 102.274C179.323 113.451 182.642 126.492 181.897 139.622C181.153 152.752 176.382 165.335 168.233 175.657C160.083 185.98 148.952 193.541 136.353 197.312" stroke="#FF5F85" stroke-width="12" stroke-linecap="round"/>
<path d="M170.792 172.179C165.778 179.497 159.297 185.692 151.761 190.371C144.224 195.051 135.798 198.112 127.015 199.362" stroke="#46BCFF" stroke-width="12" stroke-linecap="round"/>
<path d="M153.735 189.094C146.215 194.156 137.704 197.562 128.768 199.088C119.832 200.613 110.674 200.222 101.9 197.942" stroke="#596AFF" stroke-width="12" stroke-linecap="round"/>
<path d="M106.097 198.883C96.9496 197.152 88.2903 193.446 80.7228 188.023C73.1554 182.601 66.862 175.593 62.2817 167.488" stroke="#FFC147" stroke-width="12" stroke-linecap="round"/>
<path d="M69.4933 37.7V40.056H65.8263V51H63.3563V40.056H59.7083V37.7H69.4933ZM73.1009 51.266C72.2016 51.266 71.3656 51.0443 70.5929 50.601C69.8329 50.145 69.2249 49.537 68.7689 48.777C68.3256 48.0043 68.1039 47.1683 68.1039 46.269C68.1039 45.3697 68.3256 44.54 68.7689 43.78C69.2249 43.0073 69.8329 42.3993 70.5929 41.956C71.3656 41.5 72.2016 41.272 73.1009 41.272C74.0003 41.272 74.8299 41.5 75.5899 41.956C76.3626 42.3993 76.9706 43.0073 77.4139 43.78C77.8699 44.54 78.0979 45.3697 78.0979 46.269C78.0979 47.1683 77.8699 48.0043 77.4139 48.777C76.9706 49.537 76.3626 50.145 75.5899 50.601C74.8299 51.0443 74.0003 51.266 73.1009 51.266ZM73.0819 48.91C73.5633 48.91 74.0066 48.796 74.4119 48.568C74.8173 48.3273 75.1403 48.0043 75.3809 47.599C75.6216 47.1937 75.7419 46.7503 75.7419 46.269C75.7419 45.7877 75.6216 45.3443 75.3809 44.939C75.1403 44.5337 74.8173 44.2107 74.4119 43.97C74.0066 43.7293 73.5633 43.609 73.0819 43.609C72.6006 43.609 72.1573 43.7293 71.7519 43.97C71.3466 44.2107 71.0236 44.5337 70.7829 44.939C70.5549 45.3443 70.4409 45.7877 70.4409 46.269C70.4409 46.7503 70.5549 47.1937 70.7829 47.599C71.0236 48.0043 71.3466 48.3273 71.7519 48.568C72.1573 48.796 72.6006 48.91 73.0819 48.91ZM85.0547 41.253C86.0174 41.253 86.8597 41.4683 87.5817 41.899C88.3164 42.3297 88.8737 42.925 89.2537 43.685C89.6464 44.445 89.8427 45.3 89.8427 46.25C89.8427 47.2 89.6464 48.055 89.2537 48.815C88.8737 49.575 88.3164 50.1767 87.5817 50.62C86.8597 51.0507 86.0174 51.266 85.0547 51.266C84.4847 51.266 83.9337 51.1647 83.4017 50.962C82.8824 50.7467 82.4011 50.449 81.9577 50.069V54.8H79.6017V41.5H81.9577V42.431C82.3884 42.051 82.8697 41.7597 83.4017 41.557C83.9337 41.3543 84.4847 41.253 85.0547 41.253ZM84.7697 48.986C85.5551 48.986 86.2011 48.7327 86.7077 48.226C87.2271 47.7067 87.4867 47.048 87.4867 46.25C87.4867 45.452 87.2271 44.7997 86.7077 44.293C86.2011 43.7737 85.5551 43.514 84.7697 43.514C84.2504 43.514 83.7754 43.6343 83.3447 43.875C82.9141 44.103 82.5721 44.426 82.3187 44.844C82.0781 45.262 81.9577 45.737 81.9577 46.269C81.9577 47.067 82.2237 47.7193 82.7557 48.226C83.3004 48.7327 83.9717 48.986 84.7697 48.986ZM105.222 49.157C104.753 49.803 104.164 50.316 103.455 50.696C102.745 51.076 101.979 51.266 101.156 51.266C100.256 51.266 99.4203 51.0443 98.6476 50.601C97.8876 50.145 97.2796 49.537 96.8236 48.777C96.3803 48.0043 96.1586 47.1683 96.1586 46.269C96.1586 45.3697 96.3803 44.54 96.8236 43.78C97.2796 43.0073 97.8876 42.3993 98.6476 41.956C99.4203 41.5 100.256 41.272 101.156 41.272C101.966 41.272 102.726 41.462 103.436 41.842C104.145 42.2093 104.734 42.7097 105.203 43.343L103.265 44.654C102.669 43.9573 101.966 43.609 101.156 43.609C100.674 43.609 100.231 43.7293 99.8256 43.97C99.4203 44.2107 99.0973 44.5337 98.8566 44.939C98.6159 45.3443 98.4956 45.7877 98.4956 46.269C98.4956 46.7503 98.6159 47.1937 98.8566 47.599C99.0973 48.0043 99.4203 48.3273 99.8256 48.568C100.231 48.796 100.674 48.91 101.156 48.91C101.966 48.91 102.669 48.5617 103.265 47.865L105.222 49.157ZM110.897 51.266C109.997 51.266 109.161 51.0443 108.389 50.601C107.629 50.145 107.021 49.537 106.565 48.777C106.121 48.0043 105.9 47.1683 105.9 46.269C105.9 45.3697 106.121 44.54 106.565 43.78C107.021 43.0073 107.629 42.3993 108.389 41.956C109.161 41.5 109.997 41.272 110.897 41.272C111.796 41.272 112.626 41.5 113.386 41.956C114.158 42.3993 114.766 43.0073 115.21 43.78C115.666 44.54 115.894 45.3697 115.894 46.269C115.894 47.1683 115.666 48.0043 115.21 48.777C114.766 49.537 114.158 50.145 113.386 50.601C112.626 51.0443 111.796 51.266 110.897 51.266ZM110.878 48.91C111.359 48.91 111.802 48.796 112.208 48.568C112.613 48.3273 112.936 48.0043 113.177 47.599C113.417 47.1937 113.538 46.7503 113.538 46.269C113.538 45.7877 113.417 45.3443 113.177 44.939C112.936 44.5337 112.613 44.2107 112.208 43.97C111.802 43.7293 111.359 43.609 110.878 43.609C110.396 43.609 109.953 43.7293 109.548 43.97C109.142 44.2107 108.819 44.5337 108.579 44.939C108.351 45.3443 108.237 45.7877 108.237 46.269C108.237 46.7503 108.351 47.1937 108.579 47.599C108.819 48.0043 109.142 48.3273 109.548 48.568C109.953 48.796 110.396 48.91 110.878 48.91ZM123.383 41.5H125.739V51H123.383V50.202C123.041 50.5187 122.661 50.772 122.243 50.962C121.825 51.152 121.381 51.247 120.913 51.247C120.355 51.247 119.785 51.133 119.203 50.905C118.633 50.6643 118.139 50.24 117.721 49.632C117.315 49.024 117.113 48.207 117.113 47.181V41.5H119.469V47.181C119.469 47.8903 119.665 48.4033 120.058 48.72C120.463 49.024 120.932 49.176 121.464 49.176C121.996 49.176 122.445 48.9923 122.813 48.625C123.193 48.245 123.383 47.6433 123.383 46.82V41.5ZM133.004 41.253C133.561 41.253 134.125 41.3733 134.695 41.614C135.278 41.842 135.772 42.26 136.177 42.868C136.595 43.476 136.804 44.293 136.804 45.319V51H134.448V45.319C134.448 44.6097 134.245 44.103 133.84 43.799C133.447 43.4823 132.985 43.324 132.453 43.324C131.921 43.324 131.465 43.514 131.085 43.894C130.718 44.2613 130.534 44.8567 130.534 45.68V51H128.178V41.5H130.534V42.298C130.876 41.9813 131.256 41.728 131.674 41.538C132.092 41.348 132.535 41.253 133.004 41.253ZM141.8 47.751C141.8 48.1817 141.901 48.4793 142.104 48.644C142.307 48.8087 142.63 48.891 143.073 48.891C143.339 48.891 143.63 48.872 143.947 48.834V51C143.352 51.0633 142.858 51.095 142.465 51.095C141.452 51.095 140.692 50.867 140.185 50.411C139.691 49.9423 139.444 49.1063 139.444 47.903V43.609H137.658V41.5H139.444V39.163L141.8 38.365V41.5H143.909V43.609H141.8V47.751ZM151.633 41.31L151.462 43.533C151.386 43.5077 151.253 43.495 151.063 43.495C150.278 43.495 149.626 43.723 149.106 44.179C148.6 44.635 148.346 45.2557 148.346 46.041V51H145.99V41.5H148.346V43.096C148.562 42.5893 148.929 42.165 149.448 41.823C149.968 41.481 150.595 41.31 151.329 41.31H151.633ZM154.536 39.923C154.092 39.923 153.744 39.8027 153.491 39.562C153.237 39.3213 153.111 38.992 153.111 38.574C153.111 38.1433 153.237 37.8077 153.491 37.567C153.744 37.3263 154.092 37.206 154.536 37.206C154.979 37.206 155.327 37.3263 155.581 37.567C155.834 37.8077 155.961 38.1433 155.961 38.574C155.961 38.9793 155.828 39.3087 155.562 39.562C155.308 39.8027 154.966 39.923 154.536 39.923ZM153.339 51V41.5H155.695V51H153.339ZM162.145 41.253C163.057 41.253 163.874 41.481 164.596 41.937C165.331 42.3803 165.901 42.982 166.306 43.742C166.711 44.502 166.914 45.3443 166.914 46.269C166.914 46.573 166.889 46.8517 166.838 47.105H159.504C159.694 47.7763 160.03 48.302 160.511 48.682C160.992 49.0493 161.607 49.233 162.354 49.233C162.81 49.233 163.247 49.1317 163.665 48.929C164.096 48.7263 164.419 48.4667 164.634 48.15L166.439 49.214C165.996 49.8727 165.419 50.3793 164.71 50.734C164.013 51.076 163.209 51.247 162.297 51.247C161.284 51.247 160.384 51.0317 159.599 50.601C158.814 50.1703 158.206 49.575 157.775 48.815C157.357 48.055 157.148 47.2 157.148 46.25C157.148 45.3127 157.357 44.464 157.775 43.704C158.206 42.944 158.801 42.3487 159.561 41.918C160.321 41.4747 161.182 41.253 162.145 41.253ZM164.71 45.262C164.609 44.654 164.324 44.179 163.855 43.837C163.399 43.4823 162.823 43.305 162.126 43.305C161.645 43.305 161.201 43.3937 160.796 43.571C160.403 43.7483 160.087 43.989 159.846 44.293C159.605 44.597 159.479 44.92 159.466 45.262H164.71ZM170.456 44.16C170.456 44.426 170.602 44.6287 170.893 44.768C171.197 44.8947 171.672 45.0277 172.318 45.167C173.053 45.319 173.667 45.49 174.161 45.68C174.655 45.87 175.08 46.174 175.434 46.592C175.802 46.9973 175.985 47.5483 175.985 48.245C175.985 48.8657 175.795 49.404 175.415 49.86C175.048 50.316 174.554 50.6643 173.933 50.905C173.313 51.133 172.635 51.247 171.9 51.247C170.9 51.247 170.038 51.057 169.316 50.677C168.607 50.297 168.081 49.7523 167.739 49.043L169.677 48.036C170.019 48.91 170.76 49.347 171.9 49.347C172.394 49.347 172.819 49.252 173.173 49.062C173.528 48.872 173.705 48.5997 173.705 48.245C173.705 47.941 173.541 47.7193 173.211 47.58C172.895 47.428 172.375 47.2633 171.653 47.086C170.906 46.9087 170.298 46.7313 169.829 46.554C169.361 46.3767 168.955 46.1043 168.613 45.737C168.271 45.357 168.1 44.8567 168.1 44.236C168.1 43.628 168.271 43.1023 168.613 42.659C168.955 42.203 169.418 41.8547 170 41.614C170.583 41.3733 171.223 41.253 171.919 41.253C172.743 41.253 173.477 41.424 174.123 41.766C174.782 42.108 175.289 42.5957 175.643 43.229L173.724 44.198C173.395 43.4887 172.793 43.134 171.919 43.134C171.476 43.134 171.121 43.229 170.855 43.419C170.589 43.5963 170.456 43.8433 170.456 44.16Z" fill="#0B0A33"/>
</svg>
