<svg width="21" height="18" viewBox="0 0 21 18" fill="none" xmlns="http://www.w3.org/2000/svg">
<path d="M14.131 0.990907V0.987305H15.0687L15.4114 1.05574C15.6398 1.10017 15.8472 1.15839 16.0336 1.23043C16.2199 1.30247 16.4003 1.38652 16.5746 1.48256C16.7489 1.57861 16.9071 1.67647 17.0489 1.77611C17.1896 1.87457 17.3158 1.97903 17.4277 2.08948C17.5382 2.20113 17.7108 2.22995 17.9452 2.17592C18.1797 2.12189 18.4321 2.04685 18.7027 1.9508C18.9732 1.85476 19.2407 1.7467 19.5052 1.62664C19.7697 1.50657 19.9308 1.43033 19.9885 1.39792C20.045 1.36431 20.0751 1.3463 20.0787 1.34389L20.0823 1.33849L20.1003 1.32948L20.1183 1.32048L20.1364 1.31147L20.1544 1.30247L20.158 1.29707L20.1634 1.29346L20.1689 1.28986L20.1724 1.28446L20.1905 1.27906L20.2085 1.27545L20.2049 1.30247L20.1995 1.32948L20.1905 1.3565L20.1815 1.38351L20.1724 1.40152L20.1634 1.41953L20.1544 1.44654C20.1484 1.46455 20.1424 1.48856 20.1364 1.51858C20.1304 1.5486 20.0733 1.66865 19.9651 1.87877C19.8568 2.08888 19.7216 2.30199 19.5593 2.5181C19.397 2.73421 19.2515 2.89748 19.1229 3.00795C18.993 3.11961 18.9071 3.19765 18.865 3.24207C18.8229 3.28769 18.7718 3.32971 18.7117 3.36814L18.6215 3.42757L18.6035 3.43658L18.5854 3.44558L18.5818 3.45098L18.5764 3.45458L18.571 3.45819L18.5674 3.46359L18.5494 3.47259L18.5313 3.4816L18.5277 3.487L18.5223 3.4906L18.5169 3.49421L18.5133 3.49961L18.5097 3.50501L18.5043 3.50861L18.4989 3.51221L18.4953 3.51762H18.5854L19.0904 3.40956C19.427 3.33752 19.7486 3.25048 20.0552 3.14843L20.5421 2.98634L20.5963 2.96833L20.6233 2.95933L20.6413 2.95032L20.6594 2.94132L20.6774 2.93231L20.6954 2.92331L20.7315 2.91791L20.7676 2.9143V2.95032L20.7586 2.95392L20.7495 2.95933L20.746 2.96473L20.7405 2.96833L20.7351 2.97193L20.7315 2.97734L20.7279 2.98274L20.7225 2.98634L20.7171 2.98994L20.7135 2.99535L20.7099 3.00075L20.7045 3.00435L20.6954 3.02236L20.6864 3.04037L20.681 3.04397C20.6786 3.04757 20.6023 3.14961 20.452 3.35013C20.3017 3.55183 20.2205 3.65388 20.2085 3.65629C20.1965 3.65989 20.1797 3.6779 20.158 3.71032C20.1376 3.74392 20.0101 3.8778 19.7757 4.11193C19.5412 4.34605 19.3116 4.55434 19.0868 4.73685C18.8608 4.92054 18.7465 5.14626 18.7442 5.414C18.7405 5.68054 18.7267 5.98191 18.7027 6.31807C18.6786 6.65425 18.6335 7.01743 18.5674 7.40764C18.5013 7.79784 18.3991 8.23907 18.2608 8.73132C18.1226 9.22357 17.9542 9.70383 17.7559 10.1721C17.5575 10.6403 17.3501 11.0605 17.1337 11.4327C16.9173 11.8049 16.7189 12.1201 16.5385 12.3782C16.3582 12.6363 16.1749 12.8795 15.9885 13.1076C15.8021 13.3357 15.5665 13.5927 15.2816 13.8784C14.9954 14.1629 14.8391 14.319 14.8127 14.3466C14.785 14.3731 14.6672 14.4715 14.4592 14.642C14.2524 14.8137 14.03 14.9854 13.7919 15.1571C13.5551 15.3275 13.3375 15.4698 13.1391 15.5839C12.9407 15.6979 12.7015 15.8282 12.4213 15.9747C12.1424 16.1224 11.8406 16.2592 11.516 16.3853C11.1914 16.5114 10.8487 16.6284 10.488 16.7365C10.1274 16.8445 9.7787 16.9286 9.44206 16.9886C9.10543 17.0486 8.7237 17.0997 8.29688 17.1417L7.65667 17.2047V17.2137H6.48444V17.2047L6.33115 17.1957C6.22897 17.1897 6.1448 17.1837 6.07867 17.1777C6.01256 17.1717 5.76307 17.1387 5.33025 17.0787C4.89742 17.0186 4.55779 16.9586 4.31131 16.8986C4.06485 16.8385 3.69815 16.7245 3.21122 16.5564C2.7243 16.3883 2.3077 16.2184 1.96145 16.0467C1.6164 15.8762 1.39999 15.7682 1.31221 15.7225C1.22565 15.6781 1.12826 15.6229 1.02006 15.5569L0.857749 15.4578L0.854161 15.4524L0.848732 15.4488L0.843322 15.4452L0.839715 15.4398L0.821681 15.4308L0.803647 15.4218L0.800058 15.4164L0.79463 15.4128L0.789219 15.4092L0.785612 15.4038L0.782024 15.3984L0.776595 15.3948H0.767578V15.3588L0.785612 15.3624L0.803647 15.3678L0.884801 15.3768C0.938904 15.3828 1.08619 15.3918 1.32664 15.4038C1.56711 15.4158 1.82258 15.4158 2.0931 15.4038C2.36361 15.3918 2.64015 15.3648 2.92267 15.3227C3.20522 15.2807 3.53885 15.2087 3.92357 15.1066C4.30832 15.0046 4.66179 14.8833 4.98401 14.7428C5.30502 14.6012 5.53344 14.4955 5.66931 14.4259C5.80395 14.3574 6.00954 14.2302 6.28606 14.0441L6.70085 13.7649L6.70446 13.7595L6.70987 13.7559L6.7153 13.7523L6.71889 13.7469L6.72249 13.7415L6.7279 13.7379L6.73333 13.7343L6.73692 13.7289L6.75495 13.7235L6.77299 13.7199L6.7766 13.7019L6.78201 13.6839L6.78743 13.6803L6.79102 13.6749L6.64675 13.6659C6.55057 13.6599 6.45739 13.6539 6.36722 13.6479C6.27705 13.6419 6.13578 13.6149 5.94341 13.5668C5.75106 13.5188 5.54366 13.4468 5.32123 13.3507C5.09881 13.2547 4.8824 13.1406 4.672 13.0085C4.46161 12.8765 4.30951 12.7666 4.21573 12.679C4.12316 12.5925 4.00293 12.4701 3.85504 12.3116C3.70837 12.1519 3.58092 11.988 3.47272 11.8199C3.36451 11.6518 3.26112 11.4579 3.16255 11.2382L3.01284 10.9105L3.00383 10.8834L2.99481 10.8564L2.9894 10.8384L2.98579 10.8204L3.01284 10.824L3.0399 10.8294L3.23827 10.8564C3.37054 10.8744 3.57793 10.8804 3.86045 10.8744C4.143 10.8684 4.33836 10.8564 4.44657 10.8384C4.55477 10.8204 4.62091 10.8084 4.64494 10.8024L4.68101 10.7934L4.7261 10.7844L4.77118 10.7754L4.77479 10.77L4.7802 10.7664L4.78563 10.7628L4.78922 10.7574L4.75315 10.7484L4.71708 10.7394L4.68101 10.7304L4.64494 10.7214L4.60888 10.7123C4.58484 10.7064 4.54276 10.6943 4.48264 10.6763C4.42253 10.6583 4.26022 10.5923 3.99571 10.4782C3.73122 10.3642 3.52082 10.2531 3.36451 10.1451C3.20782 10.0367 3.05842 9.91817 2.91726 9.79027C2.7766 9.6606 2.62211 9.49371 2.45378 9.28961C2.28547 9.08551 2.13519 8.84838 2.00293 8.57824C1.87068 8.3081 1.77149 8.04997 1.70536 7.80384C1.63949 7.55915 1.59604 7.309 1.57553 7.05645L1.54305 6.67826L1.56109 6.68186L1.57912 6.68726L1.59715 6.69627L1.61519 6.70527L1.63322 6.71428L1.65126 6.72328L1.93079 6.84935C2.11715 6.9334 2.34859 7.00543 2.62511 7.06546C2.90164 7.12548 3.06695 7.15851 3.12105 7.16451L3.2022 7.17351H3.36451L3.36092 7.16811L3.3555 7.16451L3.35008 7.16091L3.34648 7.1555L3.34289 7.1501L3.33746 7.1465L3.33205 7.1429L3.32844 7.1375L3.31041 7.12849L3.29238 7.11949L3.28879 7.11408L3.28336 7.11048L3.27795 7.10688L3.27434 7.10148L3.25631 7.09247L3.23827 7.08347L3.23468 7.07806C3.23108 7.07565 3.17937 7.03724 3.07957 6.9628C2.98098 6.88716 2.87759 6.78932 2.76938 6.66925C2.66118 6.54918 2.55297 6.42312 2.44476 6.29106C2.33636 6.15869 2.23981 6.01707 2.15622 5.86784C2.07207 5.71776 1.98309 5.52685 1.88931 5.29514C1.79674 5.06462 1.72641 4.8323 1.67831 4.59818C1.63023 4.36406 1.60318 4.13294 1.59715 3.90482C1.59115 3.67669 1.59715 3.4816 1.61519 3.31951C1.63322 3.15743 1.66929 2.97433 1.72339 2.77023C1.7775 2.56613 1.85566 2.35002 1.95784 2.12189L2.11113 1.77972L2.12015 1.7527L2.12917 1.72569L2.13459 1.72209L2.13818 1.71668L2.14179 1.71128L2.1472 1.70768L2.15263 1.71128L2.15622 1.71668L2.15982 1.72209L2.16523 1.72569L2.17066 1.72929L2.17425 1.73469L2.17786 1.7401L2.18327 1.7437L2.19229 1.76171L2.2013 1.77972L2.20673 1.78332L2.21032 1.78872L2.45378 2.05886C2.61609 2.23895 2.80846 2.44006 3.03088 2.66217C3.25331 2.88428 3.37654 2.99954 3.40058 3.00795C3.42464 3.01755 3.45468 3.04516 3.49075 3.0908C3.52682 3.13522 3.64706 3.24148 3.85144 3.40956C4.05584 3.57764 4.32334 3.77276 4.65396 3.99486C4.9846 4.21697 5.35129 4.43609 5.75405 4.65221C6.15683 4.86832 6.58965 5.06341 7.05252 5.23751C7.5154 5.41161 7.84002 5.52566 8.02637 5.57969C8.21274 5.63371 8.53133 5.70274 8.98219 5.78679C9.43304 5.87084 9.7727 5.92487 10.0011 5.94888C10.2296 5.97288 10.3859 5.9867 10.47 5.9903L10.5963 5.9939L10.5927 5.96689L10.5872 5.93987L10.5512 5.71476C10.5271 5.56469 10.5151 5.35457 10.5151 5.08443C10.5151 4.81429 10.5361 4.56517 10.5782 4.33704C10.6203 4.10892 10.6834 3.8778 10.7676 3.64368C10.8517 3.40956 10.9341 3.22165 11.0146 3.07999C11.0964 2.93952 11.2034 2.77923 11.3357 2.59914C11.4679 2.41905 11.6392 2.23296 11.8496 2.04085C12.06 1.84875 12.3005 1.67766 12.571 1.52758C12.8415 1.37751 13.091 1.26344 13.3194 1.18541C13.5479 1.10737 13.7402 1.05633 13.8965 1.03233C14.0528 1.00832 14.131 0.994508 14.131 0.990907V0.990907Z" fill="#1DA1F2"/>
</svg>
