<svg width="86" height="86" viewBox="0 0 86 86" fill="none" xmlns="http://www.w3.org/2000/svg">
<g clip-path="url(#clip0)">
<rect width="86" height="86" fill="white"/>
<rect width="86.126" height="86.126" fill="#FF0000"/>
<path d="M44.376 60.5749L33.9127 60.3796C30.525 60.3116 27.1288 60.4474 23.8075 59.7425C18.7549 58.6892 18.397 53.5247 18.0225 49.1927C17.5064 43.1025 17.7062 36.9017 18.6801 30.8623C19.2299 27.4736 21.3936 25.4515 24.7397 25.2315C36.0353 24.4329 47.406 24.5276 58.6766 24.9001C59.8669 24.9343 61.0654 25.1209 62.2391 25.3334C68.0328 26.3698 68.1741 32.2222 68.5497 37.1489C68.9242 42.1264 68.7661 47.1295 68.0502 52.0731C67.4758 56.1663 66.377 59.5988 61.7396 59.9302C55.9294 60.3635 50.2524 60.7123 44.4258 60.6012C44.426 60.5749 44.3926 60.5749 44.376 60.5749ZM38.2246 50.2121C42.6031 47.6467 46.8981 45.1241 51.2516 42.5759C46.8649 40.0105 42.5781 37.4878 38.2246 34.9396V50.2121Z" fill="white"/>
</g>
<defs>
<clipPath id="clip0">
<rect width="86" height="86" fill="white"/>
</clipPath>
</defs>
</svg>
