<svg width="23" height="16" viewBox="0 0 23 16" fill="none" xmlns="http://www.w3.org/2000/svg">
<path d="M12.2559 15.8584L7.74119 15.774C6.27944 15.7446 4.81406 15.8033 3.38098 15.4987C1.20092 15.0436 1.04648 12.812 0.884872 10.9402C0.662193 8.30862 0.748399 5.62927 1.16862 3.01966C1.40585 1.55539 2.33945 0.681652 3.78323 0.586572C8.65704 0.241515 13.5633 0.282408 18.4263 0.44339C18.9399 0.458147 19.457 0.538807 19.9634 0.630619C22.4633 1.07842 22.5242 3.60726 22.6863 5.73607C22.8479 7.88684 22.7797 10.0487 22.4708 12.1848C22.223 13.9535 21.7488 15.4366 19.7479 15.5798C17.2409 15.7671 14.7914 15.9178 12.2773 15.8698C12.2775 15.8584 12.263 15.8584 12.2559 15.8584ZM9.60167 11.3807C11.4909 10.2722 13.3441 9.18213 15.2226 8.08106C13.3298 6.97255 11.4801 5.88252 9.60167 4.78144V11.3807Z" fill="#FF0000"/>
</svg>
