<svg width="212" height="42" viewBox="0 0 212 42" fill="none" xmlns="http://www.w3.org/2000/svg">
<path d="M0.949219 18.4121C0.949219 16.7907 2.73615 15.8053 4.10735 16.6706L17.0717 24.8515C17.6695 25.2287 18.032 25.8861 18.032 26.5929V39.7357C18.032 41.3606 16.2381 42.3454 14.8673 41.473L1.90289 33.2229C1.30891 32.8449 0.949219 32.1897 0.949219 31.4857L0.949219 18.4121Z" fill="#FF5F85"/>
<path d="M37.5664 18.4121C37.5664 16.7907 35.7795 15.8053 34.4083 16.6706L21.4439 24.8515C20.8461 25.2287 20.4836 25.8861 20.4836 26.5929V39.7357C20.4836 41.3606 22.2775 42.3454 23.6484 41.473L36.6127 33.2229C37.2067 32.8449 37.5664 32.1897 37.5664 31.4857L37.5664 18.4121Z" fill="#FFC147"/>
<path d="M33.4006 9.87388L20.8205 1.88398C19.9545 1.33399 18.8488 1.33375 17.9826 1.88334L5.42836 9.84891C3.77824 10.8959 3.79224 13.3085 5.45441 14.3363L18.1835 22.207C19.0451 22.7397 20.1351 22.7342 20.9911 22.1927L33.3964 14.3463C35.0377 13.3082 35.0399 10.915 33.4006 9.87388Z" fill="#4457FF"/>
<path d="M58.066 32.3779C55.8876 32.3779 54.0582 31.8914 52.5777 30.9186C51.0973 29.9457 50.0609 28.6344 49.4688 26.9848L52.9584 24.9227C53.8255 27.1857 55.5598 28.3172 58.1611 28.3172C59.3244 28.3172 60.2232 28.0423 60.8577 27.4924C61.4922 26.9425 61.8094 26.308 61.8094 25.5889C61.8094 24.8698 61.4604 24.2882 60.7625 23.8441C60.0857 23.4 58.8697 22.9241 57.1143 22.4165C55.7395 21.9935 54.5763 21.5388 53.6246 21.0524C52.6729 20.5448 51.8904 19.868 51.277 19.0221C50.6849 18.1761 50.3888 17.108 50.3888 15.8179C50.3888 14.5067 50.7166 13.3646 51.3722 12.3917C52.0278 11.3977 52.895 10.6469 53.9736 10.1393C55.0733 9.6106 56.2683 9.34623 57.5584 9.34623C59.3561 9.34623 60.9106 9.77979 62.2218 10.6469C63.5542 11.4929 64.58 12.6878 65.2991 14.2317L61.746 16.2621C60.9211 14.3798 59.5253 13.4386 57.5584 13.4386C56.6701 13.4386 55.9405 13.6713 55.3694 14.1366C54.7984 14.6018 54.5129 15.1517 54.5129 15.7862C54.5129 16.2726 54.6398 16.6851 54.8936 17.0234C55.1685 17.3618 55.5915 17.6685 56.1625 17.9434C56.7547 18.2184 57.6113 18.525 58.7322 18.8634C60.1915 19.3287 61.4181 19.8152 62.4122 20.3227C63.4273 20.8303 64.2627 21.5388 64.9184 22.4482C65.5951 23.3365 65.9335 24.4574 65.9335 25.811C65.9335 27.1434 65.5951 28.3066 64.9184 29.3006C64.2416 30.2947 63.3004 31.056 62.0949 31.5848C60.9106 32.1135 59.5676 32.3779 58.066 32.3779ZM80.7328 16.1034H84.6666V31.9655H80.7328V30.411C79.9926 31.0455 79.1783 31.5425 78.29 31.902C77.4229 32.2404 76.5029 32.4096 75.53 32.4096C73.9227 32.4096 72.5163 32.0501 71.3108 31.331C70.1052 30.6119 69.1747 29.6179 68.519 28.3489C67.8846 27.08 67.5673 25.6524 67.5673 24.0662C67.5673 22.48 67.8846 21.0524 68.519 19.7834C69.1747 18.5145 70.1052 17.5205 71.3108 16.8014C72.5163 16.0611 73.9227 15.691 75.53 15.691C76.5029 15.691 77.4229 15.8708 78.29 16.2303C79.1783 16.5687 79.9926 17.0552 80.7328 17.6896V16.1034ZM76.0376 28.6344C76.9048 28.6344 77.6873 28.4441 78.3852 28.0634C79.1043 27.6616 79.6647 27.1117 80.0666 26.4138C80.4896 25.7158 80.7011 24.9227 80.7011 24.0345C80.7011 22.702 80.2464 21.6128 79.3369 20.7669C78.4487 19.9209 77.3489 19.4979 76.0376 19.4979C74.7052 19.4979 73.6055 19.9315 72.7383 20.7986C71.8924 21.6446 71.4694 22.7338 71.4694 24.0662C71.4694 25.3986 71.8924 26.4983 72.7383 27.3655C73.6055 28.2114 74.7052 28.6344 76.0376 28.6344ZM100.374 16.1034H104.308V31.9655H100.374V30.411C99.6342 31.0455 98.8199 31.5425 97.9317 31.902C97.0645 32.2404 96.1445 32.4096 95.1717 32.4096C93.5643 32.4096 92.1579 32.0501 90.9524 31.331C89.7469 30.6119 88.8163 29.6179 88.1607 28.3489C87.5262 27.08 87.2089 25.6524 87.2089 24.0662C87.2089 22.48 87.5262 21.0524 88.1607 19.7834C88.8163 18.5145 89.7469 17.5205 90.9524 16.8014C92.1579 16.0611 93.5643 15.691 95.1717 15.691C96.1445 15.691 97.0645 15.8708 97.9317 16.2303C98.8199 16.5687 99.6342 17.0552 100.374 17.6896V16.1034ZM95.6793 28.6344C96.5464 28.6344 97.3289 28.4441 98.0268 28.0634C98.7459 27.6616 99.3064 27.1117 99.7082 26.4138C100.131 25.7158 100.343 24.9227 100.343 24.0345C100.343 22.702 99.888 21.6128 98.9786 20.7669C98.0903 19.9209 96.9905 19.4979 95.6793 19.4979C94.3468 19.4979 93.2471 19.9315 92.38 20.7986C91.534 21.6446 91.111 22.7338 91.111 24.0662C91.111 25.3986 91.534 26.4983 92.38 27.3655C93.2471 28.2114 94.3468 28.6344 95.6793 28.6344ZM111.161 20.5448C111.161 20.9889 111.405 21.3273 111.891 21.56C112.399 21.7715 113.192 21.9935 114.27 22.2262C115.497 22.48 116.523 22.7655 117.348 23.0827C118.172 23.4 118.881 23.9076 119.473 24.6055C120.086 25.2823 120.393 26.2023 120.393 27.3655C120.393 28.4018 120.076 29.3006 119.441 30.062C118.828 30.8234 118.003 31.405 116.967 31.8068C115.93 32.1875 114.799 32.3779 113.572 32.3779C111.902 32.3779 110.463 32.0606 109.258 31.4261C108.074 30.7917 107.196 29.8822 106.625 28.6979L109.861 27.0165C110.432 28.4758 111.669 29.2055 113.572 29.2055C114.397 29.2055 115.106 29.0468 115.698 28.7296C116.29 28.4124 116.586 27.9577 116.586 27.3655C116.586 26.8579 116.311 26.4878 115.761 26.2551C115.233 26.0013 114.365 25.7264 113.16 25.4303C111.912 25.1342 110.897 24.8381 110.114 24.542C109.332 24.2459 108.655 23.7912 108.084 23.1779C107.513 22.5434 107.228 21.708 107.228 20.6717C107.228 19.6565 107.513 18.7788 108.084 18.0386C108.655 17.2772 109.427 16.6956 110.4 16.2938C111.373 15.892 112.441 15.691 113.604 15.691C114.979 15.691 116.205 15.9765 117.284 16.5476C118.384 17.1186 119.23 17.9329 119.822 18.9903L116.618 20.6083C116.068 19.4239 115.063 18.8317 113.604 18.8317C112.864 18.8317 112.272 18.9903 111.828 19.3076C111.383 19.6037 111.161 20.0161 111.161 20.5448ZM131.711 15.691C133.318 15.691 134.724 16.0506 135.93 16.7696C137.157 17.4887 138.087 18.4827 138.722 19.7517C139.377 21.0207 139.705 22.4482 139.705 24.0345C139.705 25.6207 139.377 27.0482 138.722 28.3172C138.087 29.5862 137.157 30.5907 135.93 31.331C134.724 32.0501 133.318 32.4096 131.711 32.4096C130.759 32.4096 129.839 32.2404 128.951 31.902C128.083 31.5425 127.28 31.0455 126.54 30.411V38.3103H122.606V16.1034H126.54V17.6579C127.259 17.0234 128.062 16.537 128.951 16.1986C129.839 15.8602 130.759 15.691 131.711 15.691ZM131.235 28.6027C132.546 28.6027 133.625 28.1797 134.471 27.3337C135.338 26.4666 135.771 25.3669 135.771 24.0345C135.771 22.702 135.338 21.6128 134.471 20.7669C133.625 19.8998 132.546 19.4662 131.235 19.4662C130.368 19.4662 129.574 19.6671 128.855 20.0689C128.136 20.4496 127.565 20.9889 127.142 21.6869C126.74 22.3848 126.54 23.1779 126.54 24.0662C126.54 25.3986 126.984 26.4878 127.872 27.3337C128.781 28.1797 129.902 28.6027 131.235 28.6027ZM146.305 27.4924C146.305 27.8308 146.39 28.074 146.559 28.222C146.728 28.3701 146.992 28.4441 147.352 28.4441C147.627 28.4441 147.955 28.4124 148.335 28.3489V31.9655C147.553 32.0924 146.823 32.1558 146.146 32.1558C144.92 32.1558 143.979 31.8386 143.323 31.2041C142.689 30.5484 142.371 29.3958 142.371 27.7462V9.75864H146.305V27.4924ZM158.005 15.691C159.528 15.691 160.892 16.0717 162.098 16.8331C163.324 17.5733 164.276 18.5779 164.953 19.8469C165.63 21.1158 165.968 22.5223 165.968 24.0662C165.968 24.5738 165.926 25.039 165.841 25.462H153.596C153.913 26.5829 154.473 27.4606 155.277 28.0951C156.081 28.7085 157.106 29.0151 158.354 29.0151C159.116 29.0151 159.845 28.8459 160.543 28.5075C161.262 28.1691 161.802 27.7356 162.161 27.2069L165.175 28.9834C164.435 30.0832 163.472 30.9291 162.288 31.5213C161.125 32.0924 159.782 32.3779 158.259 32.3779C156.567 32.3779 155.066 32.0183 153.754 31.2992C152.443 30.5802 151.428 29.5862 150.709 28.3172C150.011 27.0482 149.662 25.6207 149.662 24.0345C149.662 22.4694 150.011 21.0524 150.709 19.7834C151.428 18.5145 152.422 17.5205 153.691 16.8014C154.96 16.0611 156.398 15.691 158.005 15.691ZM162.288 22.3848C162.119 21.3696 161.643 20.5765 160.86 20.0055C160.099 19.4133 159.137 19.1172 157.974 19.1172C157.17 19.1172 156.43 19.2653 155.753 19.5614C155.097 19.8575 154.569 20.2593 154.167 20.7669C153.765 21.2745 153.553 21.8138 153.532 22.3848H162.288ZM177.827 16.1034H182.649L176.875 24.0345L182.649 31.9655L177.827 31.9972L174.464 27.3655L171.069 31.9972L166.247 31.9655L172.021 24.0345L166.247 16.1034H171.069L174.464 20.7352L177.827 16.1034ZM204.665 20.8303L211.866 31.9655H206.917L201.778 24.0027L196.639 31.9655H191.69L198.891 20.8303L191.721 9.75864H196.67L201.778 17.6579L206.886 9.75864H211.835L204.665 20.8303Z" fill="#0B0A33"/>
</svg>
