<?xml version="1.0" encoding="utf-8"?>
<!-- Generator: Adobe Illustrator 24.2.0, SVG Export Plug-In . SVG Version: 6.00 Build 0)  -->
<svg version="1.1" id="Layer_1" xmlns="http://www.w3.org/2000/svg" xmlns:xlink="http://www.w3.org/1999/xlink" x="0px" y="0px"
	 viewBox="0 0 300 92" style="enable-background:new 0 0 300 92;" xml:space="preserve">
<style type="text/css">
	.st0{stroke:#000000;stroke-width:2;stroke-miterlimit:10;}
</style>
<g>
	<path class="st0" d="M1.2,47.2V10.5h1l27,48.4h0.4l26.8-48.4h1v62.2h-7.4V25.3h-0.4L27,66.2h-1.1l-23-42.5H2.5v23.6
		c0,8.7,0.7,19.6,1.2,25.4H0C0.4,66.9,1.1,55.9,1.2,47.2z"/>
	<path class="st0" d="M108.5,28.2L92,64.4l-4,8.4l-7.4,16L77,86.5l9.9-13.8L67,28.3h7.4l16,36h0.4c9.1-20.8,12-28.6,14.4-36.1H108.5
		z"/>
	<path class="st0" d="M188.6,44.3v28.4h-7V43.8c0-8.9-2.9-14-11.4-14c-7.7,0-11.7,5.3-13.7,11.6c0.1,0.8,0.1,1.6,0.1,2.4v28.9h-7.1
		V43.8c0-8.9-2.9-14-11.4-14c-7.9,0-11.2,5-13.6,12v30.9h-7V26.5h1.6l5.3,12.8c2.7-7.7,7.8-12.3,16.4-12.3c8.8,0,14,4.8,15.4,12.2
		c2.8-7.7,8.1-12.2,16.6-12.2C183.5,27,188.6,33.3,188.6,44.3z"/>
	<path class="st0" d="M199.7,50.5c0-13.3,9.3-23.5,23.9-23.5c14.8,0,24,10.1,24,23.5c0,12.7-9.3,23.6-24,23.6
		C209,74.1,199.7,63.8,199.7,50.5z M240.1,50.5c0-14.1-6.1-22.2-16.5-22.2c-10.3,0-16.4,8.1-16.4,22.2c0,14.1,6,22.3,16.4,22.3
		C234,72.8,240.1,64.5,240.1,50.5z"/>
	<path class="st0" d="M300,8.7v65.8h-1.7l-5.2-14.8c-1.2,5.6-6.5,14.3-17.4,14.3c-12.4,0-19.6-9.4-19.6-22.8
		c0-14.1,7.7-24.3,19.8-24.3c7,0,14.1,4.1,16.9,12.3V8.7H300z M292.9,57.5V41.9c-3-8.7-8.8-12-14.9-12c-9.6,0-14.3,8.6-14.3,20.7
		c0,11.7,4.5,20.6,14.3,20.6C287.7,71.2,291.5,63.1,292.9,57.5z"/>
</g>
<g>
	<path d="M219.2,16.8c0,0.8-0.3,1.5-0.9,2.1c-0.6,0.6-1.3,0.9-2.2,0.9c-0.8,0-1.5-0.3-2.1-0.9c-0.6-0.6-0.9-1.3-0.9-2.1
		c0-0.8,0.3-1.5,0.9-2.1c0.6-0.6,1.3-0.9,2.1-0.9s1.5,0.3,2.1,0.9C218.9,15.2,219.2,15.9,219.2,16.8z M236.9,16.8
		c0,0.8-0.3,1.5-0.9,2.1c-0.6,0.6-1.3,0.9-2.1,0.9c-0.8,0-1.5-0.3-2.1-0.9s-0.9-1.3-0.9-2.1c0-0.8,0.3-1.5,0.9-2.1
		c0.6-0.6,1.3-0.9,2.1-0.9c0.9,0,1.6,0.3,2.2,0.9C236.6,15.2,236.9,15.9,236.9,16.8z"/>
</g>
</svg>
