<?xml version="1.0" encoding="utf-8"?>
<!-- Generator: Adobe Illustrator 24.2.0, SVG Export Plug-In . SVG Version: 6.00 Build 0)  -->
<svg version="1.1" id="Layer_1" xmlns="http://www.w3.org/2000/svg" xmlns:xlink="http://www.w3.org/1999/xlink" x="0px" y="0px"
	 viewBox="0 0 98.5 157" style="enable-background:new 0 0 98.5 157;" xml:space="preserve">
<style type="text/css">
	.st0{display:none;fill-rule:evenodd;clip-rule:evenodd;fill:#FF4016;}
	.st1{fill:#FF4016;}
</style>
<path class="st0" d="M31.7,79.1c-13.9-6.7-23.5-21-23.5-37.6C8.2,18.6,26.6,0,49.2,0s41,18.6,41,41.5c0,16.6-9.6,30.9-23.5,37.6
	L90.2,157h-82L31.7,79.1z"/>
<g>
	<polygon class="st1" points="43.4,57 43.4,85.8 26.4,62.5 34,57 	"/>
	<polygon class="st1" points="34,92.8 6.5,83.8 9.4,74.9 9.4,74.9 17.1,69.4 	"/>
	<polygon class="st1" points="30.4,103.9 2.9,112.7 0,103.9 2.9,95 	"/>
	<polygon class="st1" points="34,114.9 16.9,138.3 9.4,132.8 6.5,123.9 	"/>
	<polygon class="st1" points="43.4,121.9 43.4,150.7 34,150.7 26.4,145.2 	"/>
	<polygon class="st1" points="72.1,145.2 64.5,150.7 55.1,150.7 55.1,121.9 	"/>
	<polygon class="st1" points="92,123.9 89.1,132.8 89.1,132.8 81.4,138.3 64.5,114.9 	"/>
	<polygon class="st1" points="98.5,103.9 98.5,103.9 95.6,112.7 68.1,103.9 95.6,95 	"/>
	<polygon class="st1" points="92,83.8 64.5,92.8 81.5,69.4 89.1,74.9 	"/>
	<polygon class="st1" points="72.1,62.5 55.1,85.8 55.1,57 64.5,57 	"/>
</g>
</svg>
