<svg viewBox="0 0 52 49" fill="none" xmlns="http://www.w3.org/2000/svg"><path d="M0 22.88l3.593-11.05c8.278 2.905 14.292 5.421 18.041 7.548-.99-9.39-1.51-15.85-1.562-19.378h11.325c-.156 5.136-.755 11.57-1.797 19.3 5.363-2.697 11.507-5.188 18.432-7.47l3.593 11.05c-6.613 2.18-13.095 3.632-19.447 4.359 3.176 2.75 7.654 7.652 13.433 14.708l-9.372 6.615c-3.02-4.098-6.586-9.676-10.7-16.732-3.853 7.316-7.237 12.893-10.153 16.733L6.17 41.947c6.04-7.419 10.362-12.322 12.965-14.708C12.418 25.942 6.04 24.489 0 22.88z" fill="url(#paint0_linear)"/><defs><linearGradient id="paint0_linear" x1="25.813" y1="0" x2="25.813" y2="48.563" gradientUnits="userSpaceOnUse"><stop stop-color="#FF4016"/><stop offset="1" stop-color="#FF5530"/></linearGradient></defs></svg>