<?xml version="1.0" encoding="utf-8"?>
<!-- Generator: Adobe Illustrator 24.2.0, SVG Export Plug-In . SVG Version: 6.00 Build 0)  -->
<svg version="1.1" id="Layer_1" xmlns="http://www.w3.org/2000/svg" xmlns:xlink="http://www.w3.org/1999/xlink" x="0px" y="0px"
	 viewBox="0 0 60 20" style="enable-background:new 0 0 60 20;" xml:space="preserve">
<style type="text/css">
	.st0{fill:#04061F;}
	.st1{fill-rule:evenodd;clip-rule:evenodd;fill:#04061F;}
</style>
<rect y="0" class="st0" width="3.9" height="19.8"/>
<path class="st1" d="M41.6,6.8c1.5-1.7,3.4-2.5,5.7-2.5c2.3,0,4.2,0.8,5.7,2.5c1.4,1.5,2,3.3,2,5.3s-0.7,3.8-2.2,5.4
	c-1.5,1.6-3.3,2.3-5.6,2.3c-2.3,0-4.1-0.8-5.6-2.3c-1.4-1.5-2.2-3.3-2.2-5.4S40.3,8.3,41.6,6.8z M47.3,16c0.7,0,1.3-0.2,1.9-0.5
	c0.6-0.3,1-0.8,1.4-1.4c0.3-0.6,0.5-1.3,0.5-2c0-1.1-0.4-2-1.1-2.8c-0.8-0.8-1.6-1.2-2.6-1.2c-1,0-1.9,0.4-2.6,1.2
	c-0.8,0.8-1.1,1.7-1.1,2.8c0,0.7,0.2,1.4,0.5,2c0.3,0.6,0.8,1.1,1.3,1.4C46,15.8,46.6,16,47.3,16z"/>
<path class="st1" d="M7.6,6.8c1.5-1.7,3.4-2.5,5.7-2.5s4.2,0.8,5.7,2.5c1.4,1.5,2,3.3,2,5.3s-0.7,3.8-2.2,5.4
	c-1.5,1.6-3.3,2.3-5.6,2.3c-2.3,0-4.1-0.8-5.6-2.3c-1.4-1.5-2.2-3.3-2.2-5.4S6.2,8.3,7.6,6.8z M10.6,9.3c-0.8,0.8-1.1,1.7-1.1,2.8
	c0,0.7,0.2,1.4,0.5,2c0.3,0.6,0.8,1.1,1.3,1.4c0.6,0.3,1.2,0.5,1.9,0.5c0.7,0,1.3-0.2,1.9-0.5c0.6-0.3,1-0.8,1.3-1.4
	c0.3-0.6,0.5-1.3,0.5-2c0-1.1-0.4-2-1.1-2.8c-0.8-0.8-1.6-1.2-2.6-1.2S11.4,8.5,10.6,9.3z"/>
<path class="st0" d="M57.6,15.8c-1.1,0-2,0.9-2,2c0,1.1,0.9,2,2,2c1.1,0,2-0.9,2-2C59.6,16.7,58.7,15.8,57.6,15.8z"/>
<path class="st1" d="M30.3,4.3c2.3,0,4.2,0.8,5.7,2.5c1.3,1.5,2,3.3,2,5.4c0,2-0.7,3.8-2.2,5.4c-1.5,1.6-3.3,2.3-5.6,2.3
	c-2.3,0-4.1-0.8-5.6-2.3c-1.4-1.5-2.1-3.3-2.1-5.2V0h3.9v5.2C27.7,4.6,28.9,4.3,30.3,4.3z M32.2,15.5c0.6-0.3,1-0.8,1.3-1.4
	c0.3-0.6,0.5-1.3,0.5-2c0-1.1-0.4-2-1.1-2.8c-0.8-0.8-1.6-1.2-2.6-1.2c-1,0-1.9,0.4-2.6,1.2c-0.8,0.8-1.1,1.7-1.1,2.8
	c0,0.7,0.2,1.4,0.5,2c0.3,0.6,0.8,1.1,1.3,1.4c0.6,0.3,1.2,0.5,1.9,0.5C31,16,31.6,15.8,32.2,15.5z"/>
<path class="st0" d="M47-14.2c0.4,0,0.8-0.1,1.3-0.2c2-0.4,6.2-1.6,6.2-1.6l-1.3-4.1c0,0-5.2,2-7,3.2c0.1-0.4,0.2-0.9,0.3-1.5
	c0.3-2.1,0.4-6.5,0.4-6.5l-4.3,0c0,0,0.3,5.8,0.9,7.9c-0.3-0.2-0.7-0.4-1.2-0.6c-1.9-0.9-6-2.3-6-2.3l-1.4,4.1c0,0,5.3,1.4,7.6,1.5
	c-0.3,0.2-0.6,0.5-1,1c-1.4,1.5-4.1,5-4.1,5l3.5,2.6c0,0,3-4.6,3.8-6.7c0.1,0.3,0.3,0.7,0.6,1.2c1,1.8,3.5,5.4,3.5,5.4l3.5-2.5
	C52.2-8.5,48.8-12.8,47-14.2z"/>
</svg>
