<svg xmlns="http://www.w3.org/2000/svg" viewBox="0 0 449.07 138.18"><title>Moda Logo 2</title><g id="Layer_2" data-name="Layer 2"><g id="Layer_1-2" data-name="Layer 1"><path d="M0,136.36v-2.91l11.82-5.82V72.72L.54,64.54V62.73L29.27,52h1.82l1.64,13.45h.9a61.14,61.14,0,0,1,12.64-10A28.1,28.1,0,0,1,60.36,52a27.75,27.75,0,0,1,15,3.91,18.54,18.54,0,0,1,8.27,11.54h.55A74.8,74.8,0,0,1,97.91,56a27.84,27.84,0,0,1,15-4q10.53,0,17.27,5.63T136.91,74v53.63l11.81,5.82v2.91H105.09v-2.91l10.72-5.82V81.82q0-6.91-4-10.64a14.6,14.6,0,0,0-10.36-3.73A26.42,26.42,0,0,0,92,69.18,21.36,21.36,0,0,0,84.36,74v53.63l10.55,5.82v2.91H53.09v-2.91l10.18-5.82V81.82q0-6.91-4-10.64a14.62,14.62,0,0,0-10.36-3.73,27.28,27.28,0,0,0-8.46,1.46,22.83,22.83,0,0,0-7.54,4v54.72l10,5.82v2.91Z"/><path d="M203.26,138.18a41.2,41.2,0,0,1-21.9-5.82,40.46,40.46,0,0,1-14.82-15.55,44.75,44.75,0,0,1-5.27-21.72,44.82,44.82,0,0,1,5.27-21.73,40.5,40.5,0,0,1,14.82-15.54A41.79,41.79,0,0,1,240,73.36a44.93,44.93,0,0,1,5.27,21.73A44.86,44.86,0,0,1,240,116.81a40.4,40.4,0,0,1-36.73,21.37Zm2.19-8.55a12.93,12.93,0,0,0,10.09-4.36,26.89,26.89,0,0,0,5.72-11.46,60.58,60.58,0,0,0,1.82-15.09,74.64,74.64,0,0,0-2.27-18.63,34.65,34.65,0,0,0-7-14.27,15.56,15.56,0,0,0-12.36-5.46,13.22,13.22,0,0,0-10.19,4.37,27,27,0,0,0-5.9,11.45,57.55,57.55,0,0,0-1.91,15.09,73,73,0,0,0,2.27,18.54,34.11,34.11,0,0,0,7.18,14.28A16,16,0,0,0,205.45,129.63ZM202,40,217.45,7.82h17.81a13.4,13.4,0,0,1-1.36,5.91A21.28,21.28,0,0,1,228.54,20L205.26,40Z"/><path d="M292.35,138.18a28.27,28.27,0,0,1-15.73-4.55,32.08,32.08,0,0,1-11.18-12.91,43.35,43.35,0,0,1-4.18-19.63q0-15.27,5.73-26.27A41,41,0,0,1,304.53,52a62,62,0,0,1,15.27,1.63V20.73l-12.18-9.09V10L339.08,0h1.63V128.18l12.91,5.27v2.91h-32l-1.45-9.09h-1.28a50.66,50.66,0,0,1-13.09,8.36A34.91,34.91,0,0,1,292.35,138.18ZM282.35,96q0,14.55,6.91,21.36a22.08,22.08,0,0,0,16,6.82,28,28,0,0,0,14.54-4.37V68A27.53,27.53,0,0,0,313,63.18a17.86,17.86,0,0,0-7.91-1.73,20.9,20.9,0,0,0-11.28,3.18q-5.08,3.2-8.27,10.73T282.35,96Z"/><path d="M386.53,138.18a21.88,21.88,0,0,1-14.82-5.27q-6.09-5.28-5.91-14.91a21.49,21.49,0,0,1,6.37-15.55q6.16-6.09,22.9-10.09l17.09-4.18v-12a14.43,14.43,0,0,0-4.54-11,15.36,15.36,0,0,0-10.91-4.27q-6.36,0-8.91,3c-1.7,2-2.54,4.88-2.54,8.63v7.09l-.91.73H373.44c-1.82,0-3.09-.36-3.82-1.09s-1.09-2.18-1.09-4.36q0-8.55,10.91-15.09A61.57,61.57,0,0,1,391,54.09,35.08,35.08,0,0,1,403.07,52,49.39,49.39,0,0,1,418,54.18a24.08,24.08,0,0,1,11.09,6.91q4.19,4.72,4.18,12.73v49.63q2.55,2.91,9.28,2.91h6l.54.55v1.81a20.43,20.43,0,0,1-6.73,6.55q-4.54,2.91-11.63,2.91-6.91,0-11.18-3.18a17.21,17.21,0,0,1-6.09-8.64h-1.28a40.48,40.48,0,0,1-11.27,8.45A30.85,30.85,0,0,1,386.53,138.18Zm-.73-24.73q0,5.82,3.37,8.64t9.36,2.82a29.94,29.94,0,0,0,6.63-.73,40.17,40.17,0,0,0,7-2.37V95.09q-11.27,2.18-16.91,4.82t-7.54,5.9A14.94,14.94,0,0,0,385.8,113.45Z"/></g></g></svg>