<svg width="206" height="40" viewBox="0 0 206 40" fill="none" xmlns="http://www.w3.org/2000/svg">
<path d="M21.2914 6.19692C21.3365 6.28717 21.3591 6.37743 21.3591 6.46768C21.3591 6.51281 21.3816 6.58051 21.4268 6.67076C21.517 6.85127 21.4945 7.03179 21.3591 7.2123C21.2237 7.39281 21.0883 7.43794 20.9529 7.34768C20.5016 7.25743 20.0504 7.12204 19.5991 6.94153C19.1478 6.71589 18.6965 6.51281 18.2452 6.3323C17.7939 6.15179 17.3427 6.0164 16.8914 5.92615C16.4401 5.83589 16.0114 5.85845 15.6052 5.99384C14.7027 6.26461 13.755 6.69333 12.7621 7.27999C11.8145 7.86666 10.8668 8.61127 9.91907 9.51384C9.01651 10.3713 8.15907 11.3867 7.34676 12.56C6.57959 13.7333 5.92523 15.042 5.38369 16.4861C4.70676 18.4718 4.50369 20.3446 4.77446 22.1046C5.04523 23.8195 5.65446 25.2636 6.60215 26.4369C7.59497 27.6103 8.85856 28.4677 10.3929 29.0092C11.9724 29.5056 13.755 29.5508 15.7406 29.1446C17.1847 28.8287 18.5611 28.3097 19.8698 27.5877C21.1786 26.8656 22.397 26.121 23.5252 25.3538C23.2996 25.7149 23.0965 26.0308 22.916 26.3015C22.7355 26.5723 22.4647 26.8882 22.1037 27.2492C21.878 27.4749 21.6524 27.7908 21.4268 28.1969C21.2011 28.5579 20.9755 28.8513 20.7498 29.0769C19.1704 30.7918 17.2524 32.0328 14.996 32.8C14.4996 32.9805 14.0709 33.0708 13.7098 33.0708C13.3488 33.1159 12.9201 33.1836 12.4237 33.2738C11.7016 33.2738 10.9796 33.2964 10.2575 33.3415C9.53548 33.3867 8.836 33.2964 8.15907 33.0708C6.17343 32.3938 4.48112 31.0851 3.08215 29.1446C2.45035 28.2872 1.90882 27.2492 1.45753 26.0308C1.05138 24.7672 0.78061 23.4585 0.645226 22.1046C0.554969 20.7056 0.600098 19.3292 0.780611 17.9754C0.961123 16.6215 1.34471 15.3579 1.93138 14.1846C3.14984 11.5672 4.59394 9.2205 6.26369 7.14461C7.97856 5.06871 10.0093 3.62461 12.356 2.8123C13.9355 2.22563 15.8309 2.1805 18.0421 2.67691C18.5837 2.90256 19.1929 3.35384 19.8698 4.03076C20.0955 4.2564 20.3211 4.48204 20.5468 4.70768C20.7724 4.93332 20.998 5.24922 21.2237 5.65538C21.2688 5.74563 21.2688 5.83589 21.2237 5.92615C21.2237 6.0164 21.2463 6.10666 21.2914 6.19692Z" fill="#201916"/>
<path d="M42.9603 11.9508C43.2762 12.2667 43.5696 12.6277 43.8403 13.0338C44.1111 13.3949 44.3367 13.7785 44.5172 14.1846C44.8783 15.042 45.0588 15.8995 45.0588 16.7569C45.1039 17.5692 44.788 18.562 44.1111 19.7354C43.3439 20.999 42.3511 22.0595 41.1326 22.9169C39.9593 23.7744 38.6731 24.3159 37.2742 24.5415C36.2813 24.722 35.2885 24.722 34.2957 24.5415C33.3029 24.3159 32.3552 23.8646 31.4526 23.1877C31.1819 23.4133 30.9562 23.7518 30.7757 24.2031C30.6403 24.6092 30.5952 24.9928 30.6403 25.3538C30.7306 25.9856 30.9562 26.6851 31.3172 27.4523C31.7234 28.1744 32.1521 28.6708 32.6034 28.9415C33.3706 29.2574 34.4311 29.28 35.7849 29.0092C37.1839 28.7385 38.6506 28.3323 40.1849 27.7908C41.7644 27.2041 43.2988 26.5723 44.788 25.8954C46.3224 25.1733 47.6311 24.5641 48.7142 24.0677C48.7142 24.3385 48.6465 24.519 48.5111 24.6092C48.4208 24.6995 48.2854 24.8574 48.1049 25.0831C47.8793 25.3087 47.6311 25.5795 47.3603 25.8954C47.0896 26.2113 46.7737 26.482 46.4126 26.7077C45.9613 26.9785 45.6229 27.3395 45.3972 27.7908C45.1716 28.1969 44.7429 28.5805 44.1111 28.9415C43.2537 29.3928 42.3737 29.8667 41.4711 30.3631C40.6137 30.8144 39.7562 31.2431 38.8988 31.6492C38.0413 32.0103 37.1613 32.3036 36.2588 32.5292C35.4013 32.7097 34.5439 32.7549 33.6865 32.6646C33.0998 32.5744 32.6034 32.4164 32.1972 32.1908C31.8362 31.9651 31.3849 31.6267 30.8434 31.1754C30.5726 30.9497 30.2567 30.7241 29.8957 30.4985C29.5347 30.2728 29.2639 30.0472 29.0834 29.8215C28.3162 28.6933 27.7972 27.4974 27.5265 26.2338C27.2557 24.9251 27.188 23.639 27.3234 22.3754C27.5039 21.0667 27.8424 19.8031 28.3388 18.5846C28.8352 17.321 29.4896 16.1702 30.3019 15.1323C30.7531 14.5456 31.2947 13.959 31.9265 13.3723C32.6034 12.7405 33.3254 12.199 34.0926 11.7477C34.9049 11.2513 35.7398 10.8677 36.5972 10.5969C37.4998 10.3261 38.4024 10.2133 39.3049 10.2585C39.666 10.3036 39.9819 10.4164 40.2526 10.5969C40.5685 10.7323 40.907 10.8902 41.268 11.0708C41.4937 11.161 41.7644 11.2964 42.0803 11.4769C42.4413 11.6123 42.7347 11.7702 42.9603 11.9508ZM40.9972 15.9446C40.907 15.5385 40.6588 15.1774 40.2526 14.8615C39.8465 14.5456 39.3952 14.2974 38.8988 14.1169C38.4024 13.8913 37.906 13.7559 37.4095 13.7108C36.9131 13.6656 36.5521 13.6882 36.3265 13.7785C35.9654 13.9138 35.5367 14.162 35.0403 14.5231C34.589 14.839 34.1378 15.2226 33.6865 15.6738C33.2803 16.1251 32.8742 16.6215 32.468 17.1631C32.107 17.6595 31.8362 18.1333 31.6557 18.5846C31.5654 18.72 31.4752 18.9456 31.3849 19.2615C31.3398 19.5323 31.3624 19.7354 31.4526 19.8708C31.9942 20.5477 32.8065 20.8861 33.8895 20.8861C34.9275 20.8861 36.0331 20.6379 37.2065 20.1415C38.4249 19.6451 39.2824 19.1261 39.7788 18.5846C39.8239 18.4944 39.9142 18.3364 40.0495 18.1108C40.2301 17.8851 40.388 17.6369 40.5234 17.3661C40.6588 17.0954 40.7716 16.8246 40.8619 16.5538C40.9972 16.2831 41.0424 16.08 40.9972 15.9446Z" fill="#201916"/>
<path d="M71.0579 10.9354C71.0579 11.3415 71.1256 11.8605 71.261 12.4923C71.3964 13.079 71.3512 13.5528 71.1256 13.9138C71.0353 14.0041 70.9902 14.1846 70.9902 14.4554C70.9902 14.681 70.9225 14.839 70.7871 14.9292L69.9071 14.3877C69.1851 14.0267 68.3728 13.8687 67.4702 13.9138C66.6128 13.959 65.7328 14.162 64.8302 14.5231C64.1984 14.7938 63.5666 15.1774 62.9348 15.6738C62.3482 16.1251 61.7841 16.6441 61.2425 17.2308C60.701 17.8174 60.2046 18.4267 59.7533 19.0585C59.302 19.6902 58.9184 20.2995 58.6025 20.8861C57.8805 22.1949 57.5194 23.7744 57.5194 25.6246C57.5646 27.4749 58.2415 29.8667 59.5502 32.8C59.5502 33.1159 59.3246 33.4995 58.8733 33.9508C58.783 34.041 58.6702 34.1764 58.5348 34.3569C58.3995 34.5374 58.2866 34.6728 58.1964 34.7631C57.8353 35.079 57.6097 35.3497 57.5194 35.5754C57.4743 35.801 57.3389 35.959 57.1133 36.0492C56.7523 36.1846 56.4138 35.8687 56.0979 35.1015C55.3307 33.7477 54.5861 32.1005 53.8641 30.16C53.1871 28.1744 52.5328 26.1436 51.901 24.0677C51.3143 21.9918 50.7728 20.0061 50.2764 18.1108C49.8251 16.1703 49.4641 14.5456 49.1933 13.2369C49.0579 12.8759 49.0353 12.5374 49.1256 12.2215C49.2159 11.8605 49.3513 11.5672 49.5318 11.3415C49.6671 11.161 49.8251 11.1159 50.0056 11.2061C50.2313 11.2964 50.4118 11.3415 50.5471 11.3415C51.1338 11.3415 51.4948 11.4544 51.6302 11.68C51.7656 11.9056 51.9912 12.199 52.3071 12.56C52.9389 13.282 53.4353 14.2523 53.7964 15.4708C54.1574 16.6892 54.6087 18.1333 55.1502 19.8031C55.8723 18.5846 56.7974 17.4113 57.9256 16.2831C59.0989 15.1549 60.3625 14.1395 61.7164 13.2369C63.0702 12.2892 64.4692 11.522 65.9133 10.9354C67.3574 10.3487 68.7564 9.98768 70.1102 9.8523C70.381 9.80717 70.6066 9.89743 70.7871 10.1231C71.0128 10.3036 71.103 10.5743 71.0579 10.9354Z" fill="#201916"/>
<path d="M91.3217 12.8308C91.9084 14.2749 92.4499 15.8318 92.9463 17.5015C93.4879 19.1713 93.8489 20.841 94.0294 22.5108C94.255 24.1354 94.255 25.7149 94.0294 27.2492C93.8489 28.7836 93.3299 30.1149 92.4725 31.2431C92.1114 31.6944 91.6827 31.8749 91.1863 31.7846C91.0058 31.7395 90.8479 31.6267 90.7125 31.4461C90.5771 31.2656 90.3966 31.1077 90.1709 30.9723C89.9904 30.8369 89.7873 30.7241 89.5617 30.6338C89.3812 30.5436 89.2007 30.3631 89.0202 30.0923C88.3432 30.3179 87.6663 30.6564 86.9894 31.1077C86.3576 31.5138 85.7032 31.9426 85.0263 32.3938C84.3494 32.8451 83.6499 33.2738 82.9279 33.68C82.2058 34.1313 81.4612 34.4472 80.694 34.6277C79.8817 34.8533 79.2725 34.8082 78.8663 34.4923C78.5053 34.2215 78.0991 33.9056 77.6479 33.5446C77.332 33.2738 77.1289 33.0933 77.0386 33.0031C76.9484 32.9579 76.8581 32.6872 76.7679 32.1908C76.6325 31.1979 76.6099 30.1374 76.7002 29.0092C76.8356 27.8359 77.1063 26.6626 77.5125 25.4892C78.6407 22.0595 80.9422 19.7579 84.4171 18.5846C84.8232 18.4492 85.2294 18.4267 85.6356 18.5169C86.0868 18.562 86.5156 18.6749 86.9217 18.8554C87.3279 19.0359 87.7114 19.2615 88.0725 19.5323C88.4786 19.8031 88.8397 20.0738 89.1555 20.3446L90.2386 21.2246C90.4643 20.4574 90.4417 19.6451 90.1709 18.7877C89.9453 17.8851 89.5843 17.0502 89.0879 16.2831C88.5915 15.4708 88.0273 14.7487 87.3956 14.1169C86.7638 13.4851 86.1545 13.0564 85.5679 12.8308C83.2663 12.8308 81.1904 13.3723 79.3402 14.4554C77.535 15.4933 75.775 16.8697 74.0602 18.5846C73.9699 18.6749 73.8571 18.7426 73.7217 18.7877C73.6314 18.8328 73.5412 18.8779 73.4509 18.9231C73.3156 19.0133 73.1576 19.0359 72.9771 18.9908C72.8417 18.9456 72.8191 18.8102 72.9094 18.5846C73.1802 17.1405 73.7217 15.8543 74.534 14.7261C75.3463 13.5528 76.294 12.5374 77.3771 11.68C78.4602 10.8226 79.6109 10.1005 80.8294 9.51384C82.0479 8.92717 83.2438 8.49845 84.4171 8.22769C84.5976 8.13743 84.7556 8.0923 84.8909 8.0923C85.0714 8.04717 85.2745 8.02461 85.5002 8.02461C85.8161 8.02461 86.1094 8.11486 86.3802 8.29538C86.6509 8.47589 86.9668 8.67897 87.3279 8.90461C87.7791 9.13025 88.2304 9.40102 88.6817 9.71692C89.133 9.98769 89.5391 10.3261 89.9002 10.7323C90.2161 11.0933 90.4868 11.4544 90.7125 11.8154C90.9381 12.1764 91.1412 12.5149 91.3217 12.8308ZM89.0202 24.88C88.7494 24.2933 88.3207 23.7518 87.734 23.2554C87.1925 22.759 86.5607 22.3979 85.8386 22.1723C85.1166 21.9015 84.3268 21.8338 83.4694 21.9692C82.6571 22.1046 81.8222 22.5108 80.9648 23.1877C80.694 23.7744 80.4232 24.4287 80.1525 25.1508C79.8817 25.8277 79.6786 26.5272 79.5432 27.2492C79.4079 27.9261 79.3402 28.6256 79.3402 29.3477C79.3853 30.0246 79.5432 30.6564 79.814 31.2431C81.5289 30.6564 83.1986 29.9795 84.8232 29.2123C86.4479 28.4451 87.8468 27.7682 89.0202 27.1815C89.2909 26.9108 89.4489 26.6851 89.494 26.5046C89.5391 26.3241 89.5166 26.1661 89.4263 26.0308C89.3812 25.8954 89.2909 25.7374 89.1555 25.5569C89.0653 25.3764 89.0202 25.1508 89.0202 24.88Z" fill="#201916"/>
<path d="M100.89 12.0861C101.161 13.2595 101.274 14.4779 101.229 15.7415C101.183 17.0051 101.116 18.2913 101.026 19.6C100.98 20.8636 100.98 22.1497 101.026 23.4585C101.116 24.722 101.454 25.9179 102.041 27.0461C103.079 24.4738 104.5 22.1497 106.305 20.0738C108.111 17.9528 110.029 16.0574 112.059 14.3877C112.33 14.162 112.601 14.0267 112.872 13.9815C113.188 13.8913 113.481 13.801 113.752 13.7108C113.977 13.6205 114.18 13.5528 114.361 13.5077C114.587 13.4174 114.88 13.4626 115.241 13.6431C116.143 14.1395 116.662 15.0872 116.798 16.4861C116.933 17.8851 117.001 19.8708 117.001 22.4431C117.678 21.7661 118.355 21.0215 119.032 20.2092C119.754 19.3518 120.476 18.5395 121.198 17.7723C121.92 17.0051 122.664 16.3282 123.432 15.7415C124.199 15.1549 125.011 14.7261 125.869 14.4554C126.139 14.3651 126.41 14.3651 126.681 14.4554C126.997 14.5005 127.29 14.5231 127.561 14.5231C127.741 14.5231 127.899 14.5005 128.035 14.4554C128.17 14.3651 128.328 14.3426 128.509 14.3877C128.779 14.4328 129.005 14.5682 129.186 14.7938C129.411 15.0195 129.569 15.2677 129.659 15.5385C129.84 16.2154 130.088 17.1631 130.404 18.3815C130.72 19.5549 130.991 20.7733 131.216 22.0369C131.487 23.2554 131.69 24.4061 131.826 25.4892C131.961 26.5723 131.961 27.3395 131.826 27.7908C131.735 28.1969 131.622 28.4677 131.487 28.6031C131.397 28.7385 131.171 28.9867 130.81 29.3477C130.72 29.3477 130.607 29.4154 130.472 29.5508C130.381 29.6861 130.269 29.8215 130.133 29.9569C129.953 30.1374 129.795 30.3179 129.659 30.4985C129.073 29.641 128.621 28.7159 128.306 27.7231C127.99 26.7303 127.719 25.6923 127.493 24.6092C127.268 23.5261 127.064 22.4205 126.884 21.2923C126.703 20.1641 126.478 19.0133 126.207 17.84C124.898 18.5169 123.86 19.3067 123.093 20.2092C122.371 21.0667 121.784 21.9918 121.333 22.9846C120.882 23.9323 120.476 24.9026 120.115 25.8954C119.754 26.8882 119.302 27.8359 118.761 28.7385C118.264 29.5056 117.768 30.1149 117.272 30.5661C116.775 31.0174 116.369 31.2205 116.053 31.1754C115.782 31.1303 115.579 30.882 115.444 30.4308C115.309 29.9795 115.128 29.3026 114.902 28.4C114.451 26.5497 114.022 24.5641 113.616 22.4431C113.255 20.322 112.849 18.4041 112.398 16.6892C111.54 16.96 110.683 17.4564 109.826 18.1785C109.013 18.8554 108.246 19.6677 107.524 20.6154C106.802 21.5179 106.148 22.5333 105.561 23.6615C105.019 24.7897 104.613 25.9179 104.342 27.0461C104.929 28.2195 104.952 29.1897 104.41 29.9569C104.184 30.3179 103.869 30.6338 103.462 30.9046C103.056 31.1302 102.582 31.3785 102.041 31.6492C101.725 31.9651 101.387 32.0779 101.026 31.9877C100.664 31.8974 100.371 31.6944 100.146 31.3785C99.9199 31.0174 99.7845 30.7241 99.7393 30.4985C99.4686 29.0544 99.1978 27.5651 98.927 26.0308C98.6563 24.4513 98.4758 22.8718 98.3855 21.2923C98.3404 19.7128 98.4081 18.1559 98.5886 16.6215C98.7691 15.042 99.1527 13.5302 99.7393 12.0861C99.8296 11.8154 99.9199 11.68 100.01 11.68C100.1 11.68 100.191 11.7251 100.281 11.8154C100.371 11.8605 100.461 11.9056 100.552 11.9508C100.642 11.9959 100.687 12.0185 100.687 12.0185C100.732 12.0185 100.8 12.041 100.89 12.0861Z" fill="#201916"/>
<path d="M144.471 10.5292C144.832 10.8902 144.967 11.1836 144.877 11.4092C144.832 11.6349 144.696 11.7251 144.471 11.68C143.884 11.68 143.23 11.7477 142.508 11.8831C141.831 11.9733 141.086 12.0636 140.274 12.1538C139.507 12.199 138.694 12.199 137.837 12.1538C136.979 12.1087 136.122 11.9508 135.265 11.68C134.904 11.319 134.904 11.0031 135.265 10.7323C135.671 10.4164 135.987 9.96512 136.212 9.37845C136.348 8.9723 136.528 8.70153 136.754 8.56615C137.025 8.38563 137.295 8.27281 137.566 8.22769C138.063 8.22769 138.672 8.34051 139.394 8.56615C140.161 8.74666 140.793 8.85948 141.289 8.90461C142.056 8.99486 142.688 9.13025 143.185 9.31076C143.681 9.44615 144.11 9.8523 144.471 10.5292ZM143.049 19.7354C143.32 20.7733 143.523 21.721 143.658 22.5785C143.839 23.4359 143.952 24.2708 143.997 25.0831C144.087 25.8502 144.132 26.64 144.132 27.4523C144.177 28.2646 144.2 29.1446 144.2 30.0923C144.2 30.2728 144.087 30.4759 143.862 30.7015C143.681 30.882 143.546 31.0851 143.455 31.3108C143.275 31.7169 143.117 31.9651 142.982 32.0554C142.891 32.1456 142.711 32.2585 142.44 32.3938C141.808 32.6646 141.244 33.0482 140.748 33.5446C140.161 32.6872 139.755 31.6944 139.529 30.5661C139.349 29.4379 139.213 28.2646 139.123 27.0461C139.078 25.8277 139.01 24.6092 138.92 23.3908C138.875 22.1272 138.717 20.9087 138.446 19.7354C138.311 19.1036 138.356 18.6749 138.582 18.4492C138.807 18.2236 139.055 18.0656 139.326 17.9754C139.642 17.8851 139.98 17.9528 140.342 18.1785C140.748 18.4041 141.131 18.6297 141.492 18.8554C141.808 19.0359 142.102 19.1487 142.372 19.1938C142.688 19.1938 142.914 19.3744 143.049 19.7354Z" fill="#201916"/>
<path d="M154.891 10.7323C154.891 11.8605 155.049 13.1241 155.365 14.5231C155.726 15.8769 155.907 17.3661 155.907 18.9908C155.907 21.2923 155.952 23.5938 156.042 25.8954C156.132 28.1969 156.471 30.4985 157.057 32.8C157.644 33.3867 157.982 33.9508 158.073 34.4923C158.163 35.079 158.208 35.6656 158.208 36.2523C158.208 36.6133 158.05 37.1774 157.734 37.9446C157.463 38.7118 157.238 39.2985 157.057 39.7046C155.342 37.1323 154.079 34.3118 153.267 31.2431C152.499 28.1292 152.025 24.9702 151.845 21.7661C151.71 18.5169 151.822 15.2902 152.183 12.0861C152.544 8.83691 153.018 5.7682 153.605 2.87999C153.876 3.15076 154.056 3.51179 154.147 3.96307C154.237 4.36922 154.327 4.8205 154.417 5.31691C154.508 5.54255 154.575 5.88102 154.62 6.3323C154.711 6.78358 154.756 7.27999 154.756 7.82153C154.801 8.31794 154.823 8.83692 154.823 9.37845C154.869 9.87486 154.891 10.3261 154.891 10.7323ZM176.891 10.1231C176.801 10.3938 176.643 10.642 176.417 10.8677C176.237 11.0482 176.011 11.2061 175.74 11.3415C175.47 11.4318 175.199 11.4995 174.928 11.5446C174.702 11.5897 174.544 11.6123 174.454 11.6123C173.868 11.6123 173.281 11.8605 172.694 12.3569C172.153 12.8082 171.589 13.3272 171.002 13.9138L162.676 23.4585C163.759 23.9549 165.113 24.519 166.737 25.1508C168.362 25.7826 170.054 26.5272 171.814 27.3846C173.574 28.242 175.289 29.2123 176.959 30.2954C178.629 31.3785 180.05 32.5969 181.223 33.9508C182.081 34.5374 182.622 34.9887 182.848 35.3046C183.119 35.6205 183.254 35.8913 183.254 36.1169C183.254 36.3426 183.232 36.5456 183.187 36.7261C183.141 36.9067 183.254 37.1323 183.525 37.4031C183.615 37.8092 183.57 38.1251 183.39 38.3508C183.254 38.5764 183.209 38.7569 183.254 38.8923C183.299 39.0728 183.209 39.1179 182.983 39.0277C182.803 38.9374 182.6 38.7795 182.374 38.5538C180.93 37.1097 179.351 35.8687 177.636 34.8308C175.921 33.7928 174.093 32.8677 172.153 32.0554C170.257 31.1979 168.227 30.4308 166.06 29.7538C163.939 29.0769 161.751 28.3774 159.494 27.6554C158.456 27.4297 157.824 27.001 157.599 26.3692C157.418 25.9631 157.396 25.5569 157.531 25.1508C157.712 24.6995 157.87 24.3159 158.005 24C158.321 23.3682 158.524 22.7364 158.614 22.1046C158.704 21.4728 158.953 20.8185 159.359 20.1415C160.487 19.0133 161.638 17.7272 162.811 16.2831C164.03 14.7938 165.271 13.44 166.534 12.2215C167.843 11.0031 169.219 10.0328 170.663 9.31076C172.153 8.58871 173.755 8.36307 175.47 8.63384C176.192 8.67897 176.665 8.88204 176.891 9.24307C177.162 9.6041 177.162 9.89743 176.891 10.1231Z" fill="#201916"/>
<path d="M203.107 12.8308C203.693 14.2749 204.235 15.8318 204.731 17.5015C205.273 19.1713 205.634 20.841 205.814 22.5108C206.04 24.1354 206.04 25.7149 205.814 27.2492C205.634 28.7836 205.115 30.1149 204.257 31.2431C203.896 31.6944 203.468 31.8749 202.971 31.7846C202.791 31.7395 202.633 31.6267 202.497 31.4461C202.362 31.2656 202.181 31.1077 201.956 30.9723C201.775 30.8369 201.572 30.7241 201.347 30.6338C201.166 30.5436 200.986 30.3631 200.805 30.0923C200.128 30.3179 199.451 30.6564 198.774 31.1077C198.142 31.5138 197.488 31.9426 196.811 32.3938C196.134 32.8451 195.435 33.2738 194.713 33.68C193.991 34.1313 193.246 34.4472 192.479 34.6277C191.667 34.8533 191.057 34.8082 190.651 34.4923C190.29 34.2215 189.884 33.9056 189.433 33.5446C189.117 33.2738 188.914 33.0933 188.823 33.0031C188.733 32.9579 188.643 32.6872 188.553 32.1908C188.417 31.1979 188.395 30.1374 188.485 29.0092C188.62 27.8359 188.891 26.6626 189.297 25.4892C190.426 22.0595 192.727 19.7579 196.202 18.5846C196.608 18.4492 197.014 18.4267 197.42 18.5169C197.872 18.562 198.3 18.6749 198.707 18.8554C199.113 19.0359 199.496 19.2615 199.857 19.5323C200.263 19.8031 200.625 20.0738 200.94 20.3446L202.023 21.2246C202.249 20.4574 202.227 19.6451 201.956 18.7877C201.73 17.8851 201.369 17.0502 200.873 16.2831C200.376 15.4708 199.812 14.7487 199.18 14.1169C198.549 13.4851 197.939 13.0564 197.353 12.8308C195.051 12.8308 192.975 13.3723 191.125 14.4554C189.32 15.4933 187.56 16.8697 185.845 18.5846C185.755 18.6749 185.642 18.7426 185.507 18.7877C185.416 18.8328 185.326 18.8779 185.236 18.9231C185.1 19.0133 184.942 19.0359 184.762 18.9908C184.627 18.9456 184.604 18.8102 184.694 18.5846C184.965 17.1405 185.507 15.8543 186.319 14.7261C187.131 13.5528 188.079 12.5374 189.162 11.68C190.245 10.8226 191.396 10.1005 192.614 9.51384C193.833 8.92717 195.029 8.49845 196.202 8.22769C196.382 8.13743 196.54 8.0923 196.676 8.0923C196.856 8.04717 197.059 8.02461 197.285 8.02461C197.601 8.02461 197.894 8.11486 198.165 8.29538C198.436 8.47589 198.752 8.67897 199.113 8.90461C199.564 9.13025 200.015 9.40102 200.467 9.71692C200.918 9.98769 201.324 10.3261 201.685 10.7323C202.001 11.0933 202.272 11.4544 202.497 11.8154C202.723 12.1764 202.926 12.5149 203.107 12.8308ZM200.805 24.88C200.534 24.2933 200.106 23.7518 199.519 23.2554C198.977 22.759 198.346 22.3979 197.623 22.1723C196.901 21.9015 196.112 21.8338 195.254 21.9692C194.442 22.1046 193.607 22.5108 192.75 23.1877C192.479 23.7744 192.208 24.4287 191.937 25.1508C191.667 25.8277 191.463 26.5272 191.328 27.2492C191.193 27.9261 191.125 28.6256 191.125 29.3477C191.17 30.0246 191.328 30.6564 191.599 31.2431C193.314 30.6564 194.983 29.9795 196.608 29.2123C198.233 28.4451 199.632 27.7682 200.805 27.1815C201.076 26.9108 201.234 26.6851 201.279 26.5046C201.324 26.3241 201.301 26.1661 201.211 26.0308C201.166 25.8954 201.076 25.7374 200.94 25.5569C200.85 25.3764 200.805 25.1508 200.805 24.88Z" fill="#201916"/>
</svg>
