<svg width="898" height="3" viewBox="0 0 898 3" fill="none" xmlns="http://www.w3.org/2000/svg">
<path d="M1 1.95566C21.0264 1.95566 39.0216 1.73088 58.6904 1.52928C73.7366 1.37505 89.5076 1.59983 104.008 1.2967C134.037 0.668967 167.817 1.22766 198.385 1.25794C249.662 1.30873 300.782 1.21657 352.034 1.39361C378.421 1.48476 404.73 1.6068 431.161 1.6068C464.148 1.6068 497.239 1.38374 530.141 1.44206C567.046 1.50748 603.898 1.91373 640.63 1.95566C653.964 1.97089 669.235 2.08689 682.207 1.86845C717.673 1.27121 759.211 1.97235 795.574 1.69402C816.095 1.53694 838.949 1.43237 859.451 1.43237C872.744 1.43237 885.676 1.27271 897 1.78123" stroke="#201916" stroke-width="0.5" stroke-linecap="round"/>
</svg>
