<svg width="110" height="3" viewBox="0 0 110 3" fill="none" xmlns="http://www.w3.org/2000/svg">
<path d="M1 1.95566C3.4139 1.95566 5.58297 1.73088 7.95376 1.52928C9.76736 1.37505 11.6683 1.59983 13.4162 1.2967C17.0357 0.668967 21.1073 1.22766 24.7919 1.25794C30.9726 1.30873 37.1345 1.21657 43.3121 1.39361C46.4927 1.48476 49.6639 1.6068 52.8497 1.6068C56.8259 1.6068 60.8145 1.38374 64.7803 1.44206C69.2288 1.50748 73.6708 1.91373 78.0983 1.95566C79.7055 1.97089 81.5462 2.08689 83.1098 1.86845C87.3848 1.27121 92.3915 1.97235 96.7746 1.69402C99.248 1.53694 102.003 1.43237 104.474 1.43237C106.076 1.43237 107.635 1.27271 109 1.78123" stroke="#201916" stroke-width="0.5" stroke-linecap="round"/>
</svg>
